<svg width="69" height="16" viewBox="0 0 69 16" fill="none" xmlns="http://www.w3.org/2000/svg">
<g clip-path="url(#clip0_1176_6770)">
<path d="M8.85547 2.10352H15.418V13.8952H8.85547V2.10352Z" fill="#FF5F00"/>
<path d="M9.27083 8C9.27083 5.60417 10.3958 3.47917 12.125 2.10417C10.8542 1.10417 9.25 0.5 7.5 0.5C3.35417 0.5 0 3.85417 0 8C0 12.1458 3.35417 15.5 7.5 15.5C9.25 15.5 10.8542 14.8958 12.125 13.8958C10.3958 12.5417 9.27083 10.3958 9.27083 8Z" fill="#EB001B"/>
<path d="M24.2695 8C24.2695 12.1458 20.9154 15.5 16.7695 15.5C15.0195 15.5 13.4154 14.8958 12.1445 13.8958C13.8945 12.5208 14.9987 10.3958 14.9987 8C14.9987 5.60417 13.8737 3.47917 12.1445 2.10417C13.4154 1.10417 15.0195 0.5 16.7695 0.5C20.9154 0.5 24.2695 3.875 24.2695 8Z" fill="#F79E1B"/>
</g>
<g clip-path="url(#clip1_1176_6770)">
<path d="M54.3418 1.51953C51.5018 1.51953 48.9637 2.9916 48.9637 5.71136C48.9637 8.83041 53.465 9.04584 53.465 10.6128C53.465 11.2725 52.7089 11.8631 51.4176 11.8631C49.5848 11.8631 48.2151 11.0379 48.2151 11.0379L47.629 13.7824C47.629 13.7824 49.2069 14.4795 51.3019 14.4795C54.407 14.4795 56.8504 12.9351 56.8504 10.1689C56.8504 6.87305 52.3303 6.66402 52.3303 5.20965C52.3303 4.69282 52.951 4.12653 54.2387 4.12653C55.6916 4.12653 56.8769 4.7267 56.8769 4.7267L57.4505 2.07594C57.4505 2.07594 56.1608 1.51953 54.3418 1.51953ZM28.3578 1.71959L28.2891 2.1197C28.2891 2.1197 29.4839 2.33838 30.56 2.77458C31.9456 3.27477 32.0443 3.56596 32.2777 4.47038L34.8206 14.2732H38.2294L43.4809 1.71959H40.0799L36.7055 10.2548L35.3286 3.01996C35.2023 2.19193 34.5627 1.71959 33.7797 1.71959H28.3578ZM44.8485 1.71959L42.1805 14.2732H45.4237L48.0822 1.71959H44.8485ZM62.9365 1.71959C62.1544 1.71959 61.7401 2.13827 61.436 2.86992L56.6847 14.2732H60.0857L60.7437 12.3726H64.887L65.2871 14.2732H68.288L65.6701 1.71959H62.9365ZM63.3788 5.11119L64.3869 9.82191H61.6861L63.3788 5.11119Z" fill="#1434CB"/>
</g>
<defs>
<clipPath id="clip0_1176_6770">
<rect width="24.2708" height="15" fill="white" transform="translate(0 0.5)"/>
</clipPath>
<clipPath id="clip1_1176_6770">
<rect width="40.039" height="13" fill="white" transform="translate(28.2695 1.5)"/>
</clipPath>
</defs>
</svg>
