<svg width="57" height="56" viewBox="0 0 57 56" fill="none" xmlns="http://www.w3.org/2000/svg">
<g clip-path="url(#clip0_3080_9895)">
<rect x="0.5" width="56" height="56" rx="28" fill="#FFE676"/>
<circle cx="28.5" cy="28" r="27.3412" stroke="#181818" stroke-width="1.31765"/>
<path fill-rule="evenodd" clip-rule="evenodd" d="M21.3312 -4.89662C22.0312 -4.63317 22.8205 -4.1149 23.4891 -3.47958L24.5433 -2.47778L25.0846 -3.01466C25.3825 -3.31015 26.0924 -3.75033 26.6625 -3.99325C27.5446 -4.36914 28.0288 -4.43419 29.9198 -4.42958C32.7776 -4.42268 33.9677 -4.01838 35.4171 -2.5622C38.8538 0.891064 37.344 6.3019 32.5678 7.64966C32.0152 7.80566 31.2949 7.93326 30.9674 7.93326C30.3915 7.93326 30.376 7.95725 30.4967 8.65281C30.5654 9.04866 30.7741 10.3907 30.9605 11.6352C31.1958 13.2059 31.373 13.8714 31.54 13.8104C32.0287 13.6323 35.997 12.7496 36.5644 12.693C37.0636 12.6432 37.1756 12.718 37.3129 13.1935C37.5253 13.9282 37.4339 14.0335 36.358 14.2908C35.6475 14.4608 35.4781 14.5756 35.579 14.8185C35.6501 14.9891 36.1204 16.2944 36.624 17.7192C37.1278 19.1439 37.5974 20.3656 37.6673 20.4341C37.7374 20.5028 38.4762 20.1309 39.3091 19.6078C43.0884 17.2348 44.6763 17.0453 45.7233 18.8418C46.3468 19.912 46.4563 20.9729 46.0759 22.261C45.3821 24.61 43.209 26.4418 40.4154 27.0324C39.5841 27.2082 38.8437 27.4446 38.7702 27.5576C38.4477 28.0534 38.3466 29.4499 38.5236 30.9589C38.6783 32.276 40.0774 37.3065 40.4603 37.9222C40.5121 38.0057 40.8986 37.7787 41.319 37.4176C42.1495 36.7046 44.3805 35.4142 45.6696 34.9013C46.8496 34.4315 49.5753 33.84 50.5662 33.8384C51.0382 33.8377 51.4243 33.8089 51.4243 33.7742C51.4243 33.7396 51.1972 33.1801 50.9195 32.5308C50.2497 30.9645 50.258 30.1192 50.949 29.5106C51.3437 29.1629 51.7098 29.0401 52.3511 29.0401C54.1712 29.0401 54.8505 30.431 54.0838 32.5882C53.8591 33.2202 53.6913 33.7446 53.7109 33.7532C53.7304 33.7619 54.6419 33.9561 55.7365 34.185C59.0133 34.8702 61.8906 36.4415 64.1891 38.8007C67.104 41.7925 68.5326 45.002 68.6416 48.8038L68.6885 50.4347L66.7218 50.4896C64.7644 50.5443 64.7545 50.547 64.6382 51.0653C64.3207 52.4783 63.4339 53.5096 62.2828 53.8042C61.7967 53.9287 60.1697 53.9911 58.3108 53.9565L55.1623 53.898L54.6748 54.7568C52.3453 58.8602 47.394 61.867 42.2192 62.3206C39.4117 62.5666 39.4636 62.5462 39.5974 63.3502C39.6623 63.7395 39.8525 65.5693 40.0203 67.4161C40.3971 71.5646 41.3275 80.293 41.4232 80.5784C41.462 80.6941 42.1606 81.0897 42.976 81.4576C45.9252 82.7888 50.4147 85.9522 50.4147 86.699C50.4147 87.283 47.8887 87.4678 40.0158 87.4598C35.7957 87.4553 31.6386 87.3832 30.778 87.2993L29.2131 87.147V86.3693V85.5916L31.0809 85.7152C34.3108 85.9293 45.0374 86.0903 46.0829 85.9405L47.083 85.7971L46.3763 85.2295C45.5036 84.5286 42.0696 82.6752 40.8435 82.2433C39.7479 81.8574 39.9019 82.5605 39.108 74.3238C38.7775 70.894 38.3209 66.404 38.0935 64.3461C37.6893 60.6871 37.0957 54.4122 37.0906 53.7447C37.0886 53.4904 37.2542 53.4089 37.7731 53.4089C38.5271 53.4089 38.706 53.6437 38.6989 54.6239C38.6965 54.9581 38.853 56.517 39.0464 58.0877L39.3984 60.9434L41.2215 60.8314C45.2017 60.5869 48.7137 59.0845 51.2301 56.55C53.0603 54.7068 53.6226 53.7926 52.9266 53.7926C52.6859 53.7926 52.6263 53.6226 52.6742 53.0731L52.7368 52.3535L56.8915 52.4242C59.1766 52.4629 61.3281 52.4359 61.6724 52.3639C62.3015 52.2327 62.7528 51.7631 63.0192 50.9624L63.1629 50.5307H49.1874H35.212L35.3301 48.6598C35.3949 47.6308 35.5922 46.2709 35.7684 45.6377C36.1949 44.105 37.5362 41.4594 38.5061 40.2378L39.2893 39.251L38.6078 37.4151C38.2329 36.4052 37.7707 34.9713 37.5807 34.2283C37.2257 32.8401 37.1023 32.6868 36.706 33.1406C35.8835 34.0823 32.1371 34.9329 29.8389 34.6998C28.0448 34.5179 25.5301 33.6191 24.4401 32.7704C23.6229 32.1342 23.4961 32.0937 22.918 32.285C22.1207 32.5492 20.1919 32.5575 20.0227 32.2975C19.9524 32.1892 19.952 31.8536 20.0219 31.5516C20.1433 31.0259 20.2061 30.9988 21.4784 30.9219C22.6584 30.8505 22.8615 30.7778 23.2837 30.2766C23.6064 29.8932 23.7596 29.4618 23.7603 28.9346C23.7615 28.027 24.0359 27.6969 24.7894 27.6969C25.204 27.6969 25.3635 27.8134 25.4626 28.1881C25.6248 28.8022 25.4204 29.9602 25.0511 30.5204C24.8969 30.7542 24.7709 30.9927 24.7709 31.0504C24.7709 31.1082 25.2682 31.458 25.8762 31.8273C27.4661 32.794 29.0712 33.1348 31.534 33.0287C33.7961 32.9314 34.901 32.5755 36.1339 31.5468C36.8542 30.9457 36.8752 30.8906 36.8628 29.6317C36.8475 28.0815 37.1855 26.8976 37.8 26.349C38.0477 26.1277 38.8085 25.8232 39.4904 25.672C42.4451 25.0169 44.2885 23.504 44.6495 21.4372C44.7908 20.629 44.4357 19.4417 43.9712 19.1688C43.6512 18.9808 41.9131 19.7926 39.9387 21.0525C38.6325 21.8858 38.0736 22.1324 37.4898 22.1324C37.0739 22.1324 36.6438 22.0244 36.5341 21.8926C36.4245 21.7607 35.8123 20.1848 35.1736 18.3907C34.5349 16.5967 33.9536 15.0672 33.8817 14.992C33.8098 14.9167 32.1621 15.2287 30.2201 15.6854C28.278 16.1419 24.5084 17.0153 21.843 17.6263C19.1777 18.237 16.8972 18.8518 16.7754 18.9923C16.6529 19.1333 16.4907 20.5149 16.4128 22.0802C16.3354 23.6381 16.1963 24.9847 16.1038 25.0726C16.0112 25.1607 15.4626 25.0049 14.8847 24.7266C14.3068 24.4484 13.596 24.2473 13.3052 24.2799C12.6563 24.3525 11.9528 25.3907 12.1248 26.0218C12.3189 26.7335 13.5502 27.3767 14.8956 27.4692C15.5974 27.5175 16.0879 27.6403 16.0873 27.7679C16.0869 27.8873 16.1095 29.3212 16.1378 30.9547L16.1893 33.9248L12.9585 35.612C8.71156 37.8299 7.21634 38.8066 5.37079 40.5679C4.14977 41.7332 3.65305 42.393 2.91342 43.8329C1.64496 46.3026 1.27544 47.8188 1.2815 50.5307C1.28696 52.9505 1.43254 53.7013 2.37853 56.1854C3.58703 59.3595 6.74364 63.1253 9.84534 65.0936C11.703 66.2725 12.6454 66.4351 13.5138 65.7262C14.1378 65.217 13.9043 64.7496 12.3023 63.2994L10.7374 61.8827L11.2269 61.3875C11.4962 61.115 11.7939 60.8922 11.8884 60.8922C11.9829 60.8922 12.6532 61.4166 13.3781 62.0573C14.6292 63.1635 16.0073 63.9489 16.7132 63.9581C17.1304 63.9634 17.7037 63.3585 17.7037 62.9127C17.7037 62.3756 16.3918 60.8891 15.0739 59.9328C13.8472 59.0429 13.6869 58.7355 14.1483 58.1579C14.4992 57.7187 14.4758 57.7149 16.1925 58.4889C18.0237 59.3148 19.2564 59.5437 19.4388 59.0918C19.7481 58.3258 17.716 56.7058 14.2708 54.9723C12.9105 54.2877 12.2518 53.8485 12.2518 53.6263C12.2518 53.2379 14.6375 42.0594 14.7415 41.9607C14.7805 41.9237 15.0993 41.9479 15.4502 42.0147C16.1664 42.1507 16.2389 42.4571 15.8902 43.8738C15.7814 44.3163 15.4232 46.0167 15.0942 47.6525C14.7653 49.2883 14.3647 51.1579 14.204 51.8074L13.912 52.9883L15.8416 54.0041C20.0114 56.1994 21.6627 58.0702 20.9247 59.7634C20.6586 60.3738 19.7364 60.8922 18.9164 60.8922C18.5281 60.8922 18.5196 60.9266 18.7886 61.4208C19.0737 61.9449 19.1797 62.612 19.1385 63.6234C19.1268 63.912 18.852 64.4301 18.5281 64.7747C17.9861 65.3511 17.8373 65.4027 16.6721 65.4187C15.4161 65.4359 15.4034 65.4415 15.175 66.0902C14.8275 67.0779 13.8619 67.608 12.4105 67.608C11.7535 67.608 11.0421 67.5198 10.8301 67.4119C10.3707 67.1782 10.4402 66.9435 9.71994 71.1578C9.4312 72.8464 9.0211 75.0914 8.80828 76.1467C8.59566 77.202 8.05935 80.0946 7.61654 82.5747C7.17373 85.0547 6.75333 87.3588 6.68225 87.6948C6.52698 88.428 6.13203 88.333 12.1509 89.008C17.9185 89.6547 23.5658 90.0885 25.3167 90.0194L26.7664 89.9621L25.4992 88.7149C24.8022 88.0289 23.8079 87.1057 23.2898 86.6633L22.3478 85.8591V79.5894V73.3197L21.8935 73.4381C21.6435 73.5032 21.1107 73.6089 20.7092 73.6728C20.0332 73.7804 19.9633 73.7459 19.7649 73.2048C19.6072 72.7746 19.6132 72.5714 19.7881 72.434C20.0041 72.2644 24.1162 71.096 29.3141 69.7275C30.4246 69.4351 31.9419 69.0356 32.6857 68.8397C33.4296 68.6438 34.0875 68.5302 34.1476 68.5874C34.2076 68.6446 34.314 68.9629 34.3839 69.2947C34.54 70.0365 34.7368 69.952 29.8189 71.2561C27.7643 71.8008 25.6062 72.3747 25.0233 72.5313L23.9632 72.816V78.9622V85.1083L25.8392 86.8636C27.583 88.4951 29.6169 90.8405 29.6169 91.2197C29.6169 91.3098 29.2797 91.444 28.8674 91.5175C27.9497 91.6809 20.6674 91.4797 18.3094 91.2254C17.3654 91.1237 15.5936 90.9474 14.372 90.8338C10.2395 90.4491 5.08447 89.8205 4.92394 89.6815C4.83611 89.6056 5.18401 87.2199 5.69688 84.3801C6.20976 81.5403 6.9813 77.2565 7.41119 74.8607C7.84128 72.4649 8.33397 69.8565 8.5062 69.0644C8.96376 66.9595 8.92458 66.3746 8.30045 65.9861C7.30437 65.3657 4.762 62.934 3.67526 61.5621C2.30483 59.8317 0.896042 57.1828 0.296135 55.2091C-0.100433 53.9037 -0.162628 53.2632 -0.158386 50.5307C-0.152328 46.7829 0.199615 45.2847 1.68171 42.6979C3.42569 39.6538 6.46176 37.1875 11.9988 34.317C13.3587 33.6118 14.5111 32.9742 14.5596 32.8998C14.6078 32.8255 14.5953 31.9338 14.5315 30.9182L14.4156 29.0719L13.5764 28.871C11.7517 28.4345 10.6027 27.2128 10.6027 25.7087C10.6027 23.8348 11.9778 22.5639 13.7949 22.7585C14.3671 22.8197 14.6805 22.7771 14.691 22.6365C14.6997 22.5175 14.7698 21.703 14.8463 20.8265C14.9749 19.3572 14.9576 19.2396 14.6262 19.3219C12.203 19.9241 10.4281 20.2524 10.1478 20.1501C9.89945 20.0595 9.8207 19.8494 9.86634 19.3995L9.92974 18.7745L12.5167 18.171C13.9397 17.8391 15.1437 17.5294 15.1926 17.4831C15.3511 17.3323 13.6535 10.1606 13.4028 9.92229C13.3553 9.87739 12.7893 9.759 12.1452 9.65922C9.63836 9.27163 7.9378 8.55496 6.58433 7.31598C5.23449 6.08028 4.67962 4.8864 4.68628 3.2322C4.69274 1.65513 5.17109 0.612838 6.29134 -0.264631C7.67712 -1.34991 10.3824 -1.79065 11.9178 -1.18105C12.3164 -1.02275 12.6767 -0.893231 12.7183 -0.893231C12.7596 -0.893231 12.8976 -1.21693 13.0246 -1.61278C13.9062 -4.35936 18.224 -6.06632 21.3312 -4.89662ZM16.6123 -3.20462C15.5314 -2.70746 14.7681 -1.80601 14.4398 -0.63899C14.211 0.173431 14.2292 0.274936 14.7304 0.994679C15.5675 2.19681 15.6198 2.65809 14.9658 3.06545L14.4134 3.4093L13.7363 2.66519C13.3642 2.25591 13.0595 1.81478 13.0595 1.68506C13.0595 1.27463 11.684 0.282228 10.9284 0.147529C9.95963 -0.0251637 8.48944 0.181298 7.74718 0.594417C5.65227 1.76047 5.69325 4.45774 7.83381 6.28655C9.02574 7.30485 10.4531 7.85325 12.5583 8.10154C13.4892 8.21149 14.2478 8.41123 14.4748 8.60638C14.7316 8.82723 15.1797 10.2118 15.8926 12.9885C16.4659 15.2211 16.9511 17.0641 16.9709 17.0842C16.9907 17.1044 18.8673 16.6943 21.1413 16.173C23.4152 15.6516 26.3012 14.9933 27.5547 14.7103C29.2387 14.3298 29.8065 14.1277 29.7294 13.9368C29.6719 13.7944 29.4393 12.4071 29.2125 10.8537C28.9855 9.30022 28.7626 7.8686 28.7168 7.67231C28.572 7.05157 29.4762 6.39822 30.4804 6.39822C32.5 6.39822 34.4937 5.24483 35.2903 3.61596C36.0408 2.08111 35.6865 -0.163126 34.5091 -1.33129C33.3585 -2.47279 32.2968 -2.88341 30.274 -2.96995C28.5762 -3.04248 28.3091 -3.00411 27.3276 -2.54781C25.8007 -1.83786 25.4962 -1.45141 25.3766 -0.0708313C25.2817 1.02634 25.2403 1.10463 24.682 1.24566C23.8479 1.45634 23.6205 1.1904 23.5214 -0.111511C23.3962 -1.75573 22.4526 -2.8458 20.5792 -3.51009C19.5745 -3.86642 17.7444 -3.72538 16.6123 -3.20462ZM32.9187 19.7694C33.1308 19.9709 33.0684 22.2519 32.8347 22.8395C32.7166 23.1365 32.376 23.6248 32.0775 23.9244C30.0894 25.9213 27.056 25.0586 25.7813 22.1341C25.4776 21.4374 25.5178 21.3812 26.4226 21.2417C27.0758 21.141 27.1356 21.1793 27.4893 21.9248C28.0805 23.1705 29.4389 23.7851 30.4569 23.2672C31.072 22.9544 31.6812 21.5007 31.5263 20.7158C31.4556 20.3583 31.4742 20.0246 31.5675 19.9743C31.9239 19.7823 32.7935 19.6504 32.9187 19.7694ZM52.0313 30.719C52.0319 30.7983 52.1347 31.2083 52.2599 31.6305C52.4539 32.285 52.511 32.3414 52.6483 32.0142C52.737 31.8032 52.8157 31.3929 52.8236 31.1028C52.8345 30.6985 52.7433 30.5751 52.4339 30.5751C52.2118 30.5751 52.0307 30.6398 52.0313 30.719ZM48.9607 35.5765C45.021 36.3289 41.0046 39.039 38.9325 42.3433C38.0499 43.7504 37.0716 46.4642 36.9365 47.8791L36.8299 48.9956H52.002H67.1741V48.4507C67.1741 46.6735 65.6564 43.0261 64.0702 40.9906C62.1965 38.5865 58.4725 36.2949 55.4128 35.6632C53.8718 35.3451 50.4155 35.2987 48.9607 35.5765Z" fill="#181818"/>
</g>
<defs>
<clipPath id="clip0_3080_9895">
<rect x="0.5" width="56" height="56" rx="28" fill="white"/>
</clipPath>
</defs>
</svg>
