<svg width="194" height="288" viewBox="0 0 194 288" fill="none" xmlns="http://www.w3.org/2000/svg">
<path fill-rule="evenodd" clip-rule="evenodd" d="M133.445 1.11185C131.473 1.89529 129.249 3.4365 127.365 5.32578L124.394 8.30491L122.869 6.70836C122.029 5.82962 120.029 4.52065 118.423 3.79827C115.937 2.68045 114.572 2.48701 109.244 2.50071C101.191 2.52125 97.8375 3.72352 93.7534 8.05385C84.0694 18.323 88.3237 34.4136 101.782 38.4215C103.34 38.8854 105.369 39.2649 106.292 39.2649C107.915 39.2649 107.959 39.3362 107.618 41.4046C107.425 42.5818 106.837 46.5726 106.311 50.2736C105.648 54.9445 105.149 56.9234 104.678 56.7419C103.301 56.2124 92.1193 53.5876 90.5205 53.4193C89.114 53.271 88.7982 53.4935 88.4113 54.9075C87.8127 57.0923 88.0705 57.4056 91.102 58.1707C93.1042 58.6763 93.5816 59.0175 93.2971 59.7399C93.0968 60.2472 91.7717 64.129 90.3526 68.3658C88.933 72.6025 87.6096 76.2356 87.4127 76.4393C87.2153 76.6435 85.1334 75.5377 82.7864 73.9822C72.1368 66.9256 67.6623 66.3618 64.7122 71.7044C62.9552 74.8866 62.6468 78.0415 63.7188 81.872C65.6738 88.8574 71.7971 94.3049 79.6689 96.0613C82.0114 96.5839 84.0979 97.2869 84.305 97.623C85.2136 99.0975 85.4987 103.25 84.9997 107.738C84.5638 111.654 80.6214 126.614 79.5426 128.445C79.3964 128.693 78.3074 128.018 77.1228 126.944C74.7825 124.824 68.4959 120.986 64.8635 119.461C61.5384 118.064 53.8578 116.305 51.0658 116.301C49.7355 116.298 48.6477 116.213 48.6477 116.11C48.6477 116.007 49.2878 114.343 50.0701 112.412C51.9574 107.754 51.9341 105.241 49.987 103.431C48.8747 102.397 47.8431 102.032 46.036 102.032C40.9073 102.032 38.9932 106.168 41.1536 112.583C41.7869 114.462 42.2597 116.022 42.2045 116.047C42.1494 116.073 39.581 116.65 36.4966 117.331C27.2632 119.369 19.1552 124.042 12.6785 131.057C4.46477 139.954 0.439253 149.499 0.132004 160.804L0 165.654L5.54185 165.817C11.0575 165.98 11.0854 165.988 11.4131 167.529C12.3076 171.731 14.8065 174.798 18.0503 175.674C19.4198 176.044 24.0046 176.23 29.2426 176.127L38.1147 175.953L39.4882 178.507C46.0525 190.709 60.0045 199.651 74.5862 201C82.4973 201.731 82.3511 201.671 81.9739 204.062C81.7912 205.219 81.2552 210.661 80.7824 216.153C79.7207 228.489 77.0989 254.446 76.8292 255.294C76.7199 255.638 74.7512 256.815 72.4537 257.909C64.1432 261.867 51.4925 271.274 51.4925 273.495C51.4925 275.232 58.6105 275.782 80.7949 275.758C92.6866 275.745 104.401 275.53 106.826 275.281L111.235 274.828V272.515V270.202L105.972 270.57C96.8709 271.207 66.645 271.685 63.6988 271.24L60.8807 270.813L62.8721 269.126C65.3312 267.041 75.0079 261.53 78.4627 260.245C81.55 259.098 81.1158 261.188 83.3531 236.695C84.2845 226.495 85.5709 213.143 86.2116 207.023C87.3507 196.142 89.0235 177.482 89.0377 175.497C89.0434 174.741 88.5769 174.498 87.1146 174.498C84.99 174.498 84.4859 175.197 84.5058 178.112C84.5126 179.106 84.0717 183.741 83.5266 188.412L82.5349 196.904L77.3976 196.571C66.1819 195.844 56.2856 191.376 49.195 183.839C44.0378 178.358 42.4532 175.64 44.4145 175.64C45.0927 175.64 45.2605 175.134 45.1257 173.5L44.9493 171.36L33.242 171.57C26.8029 171.685 20.7404 171.605 19.7703 171.391C17.9974 171.001 16.7257 169.604 15.9752 167.223L15.5701 165.939H54.9508H94.3315L93.9986 160.376C93.816 157.316 93.2601 153.272 92.7634 151.389C91.5617 146.831 87.782 138.963 85.0492 135.331L82.8421 132.396L84.7624 126.937C85.819 123.934 87.1214 119.67 87.6568 117.46C88.6571 113.332 89.0047 112.876 90.1216 114.225C92.4391 117.026 102.996 119.555 109.472 118.862C114.527 118.321 121.613 115.648 124.685 113.125C126.987 111.233 127.345 111.112 128.974 111.681C131.221 112.467 136.656 112.491 137.132 111.718C137.33 111.396 137.331 110.398 137.135 109.5C136.793 107.937 136.616 107.856 133.031 107.627C129.705 107.415 129.133 107.199 127.943 105.709C127.034 104.568 126.602 103.286 126.601 101.718C126.597 99.0187 125.824 98.0373 123.7 98.0373C122.532 98.0373 122.083 98.3836 121.803 99.498C121.347 101.324 121.922 104.768 122.963 106.434C123.398 107.129 123.753 107.838 123.753 108.01C123.753 108.182 122.351 109.222 120.638 110.32C116.158 113.195 111.635 114.208 104.695 113.893C98.3212 113.603 95.2077 112.545 91.7336 109.486C89.704 107.698 89.6448 107.534 89.6795 103.791C89.7228 99.1808 88.7703 95.6601 87.0389 94.0288C86.3408 93.3709 84.1969 92.4653 82.2754 92.0157C73.9496 90.0676 68.7554 85.5684 67.738 79.4224C67.3397 77.019 68.3406 73.4881 69.6492 72.6767C70.551 72.1175 75.4488 74.5317 81.0123 78.2783C84.693 80.7565 86.2679 81.4897 87.9129 81.4897C89.0849 81.4897 90.2969 81.1685 90.6058 80.7764C90.9148 80.3844 92.6399 75.6981 94.4396 70.3629C96.2393 65.0277 97.8774 60.4794 98.0799 60.2557C98.2825 60.0321 102.925 60.9599 108.398 62.3179C113.87 63.6754 124.492 66.2728 132.003 68.0896C139.514 69.9058 145.94 71.734 146.283 72.1517C146.628 72.5711 147.085 76.6795 147.305 81.3345C147.522 85.9672 147.914 89.9718 148.175 90.2331C148.436 90.495 149.982 90.0317 151.611 89.2043C153.239 88.3769 155.242 87.7789 156.061 87.8759C157.89 88.0916 159.872 91.1792 159.387 93.0559C158.841 95.1723 155.371 97.0849 151.58 97.36C149.602 97.5038 148.22 97.8689 148.222 98.2484C148.223 98.6033 148.159 102.867 148.079 107.725L147.934 116.557L157.038 121.575C169.005 128.17 173.219 131.075 178.419 136.312C181.86 139.778 183.259 141.74 185.344 146.022C188.918 153.366 189.959 157.875 189.942 165.939C189.927 173.135 189.516 175.368 186.851 182.755C183.445 192.194 174.551 203.393 165.811 209.246C160.576 212.752 157.921 213.235 155.473 211.127C153.715 209.613 154.373 208.223 158.887 203.91L163.297 199.698L161.918 198.225C161.159 197.415 160.32 196.752 160.054 196.752C159.787 196.752 157.898 198.312 155.856 200.217C152.33 203.506 148.447 205.842 146.458 205.869C145.282 205.885 143.667 204.086 143.667 202.761C143.667 201.163 147.364 196.743 151.077 193.899C154.534 191.253 154.986 190.339 153.686 188.621C152.697 187.315 152.763 187.303 147.925 189.605C142.765 192.061 139.292 192.742 138.778 191.398C137.906 189.12 143.632 184.303 153.34 179.148C157.173 177.112 159.029 175.806 159.029 175.145C159.029 173.99 152.307 140.748 152.014 140.454C151.904 140.344 151.006 140.416 150.017 140.615C147.999 141.019 147.794 141.931 148.777 146.143C149.084 147.459 150.093 152.516 151.02 157.38C151.947 162.245 153.076 167.805 153.529 169.736L154.351 173.248L148.914 176.268C137.164 182.797 132.511 188.36 134.591 193.395C135.341 195.21 137.939 196.752 140.25 196.752C141.344 196.752 141.368 196.854 140.61 198.324C139.807 199.882 139.508 201.866 139.624 204.874C139.657 205.732 140.431 207.273 141.344 208.298C142.871 210.012 143.29 210.165 146.574 210.213C150.113 210.264 150.149 210.281 150.792 212.21C151.772 215.147 154.492 216.723 158.582 216.723C160.434 216.723 162.438 216.461 163.036 216.14C164.33 215.445 164.134 214.747 166.164 227.28C166.978 232.301 168.133 238.977 168.733 242.115C169.332 245.254 170.843 253.856 172.091 261.231C173.339 268.606 174.523 275.458 174.724 276.457C175.161 278.637 176.274 278.354 159.314 280.362C143.062 282.285 127.148 283.575 122.215 283.37L118.13 283.199L121.701 279.49C123.665 277.45 126.466 274.705 127.926 273.389L130.581 270.998V252.353V233.709L131.861 234.061C132.565 234.254 134.067 234.568 135.198 234.758C137.103 235.079 137.3 234.976 137.859 233.367C138.303 232.087 138.286 231.483 137.793 231.075C137.185 230.57 125.597 227.096 110.951 223.026C107.821 222.157 103.546 220.969 101.45 220.386C99.3539 219.803 97.5002 219.466 97.3306 219.636C97.1616 219.806 96.8617 220.752 96.6649 221.739C96.2251 223.945 95.6703 223.694 109.528 227.572C115.318 229.192 121.399 230.898 123.042 231.364L126.029 232.211V250.488V268.765L120.742 273.985C115.829 278.837 110.097 285.811 110.097 286.939C110.097 287.207 111.048 287.606 112.209 287.824C114.795 288.31 135.316 287.712 141.96 286.956C144.62 286.653 149.613 286.129 153.055 285.791C164.7 284.647 179.226 282.778 179.678 282.365C179.926 282.139 178.945 275.044 177.5 266.599C176.055 258.154 173.881 245.416 172.67 238.291C171.458 231.166 170.069 223.41 169.584 221.054C168.295 214.795 168.405 213.055 170.164 211.9C172.971 210.055 180.135 202.824 183.197 198.744C187.058 193.598 191.028 185.721 192.719 179.852C193.836 175.97 194.011 174.065 193.999 165.939C193.982 154.794 192.991 150.339 188.814 142.647C183.9 133.594 175.345 126.26 159.742 117.724C155.91 115.627 152.663 113.731 152.527 113.509C152.391 113.288 152.426 110.637 152.606 107.617L152.932 102.126L155.297 101.529C160.439 100.231 163.676 96.5976 163.676 92.1247C163.676 86.5521 159.802 82.773 154.681 83.3516C153.069 83.5336 152.186 83.4069 152.156 82.9887C152.132 82.6349 151.934 80.2127 151.719 77.6062C151.356 73.237 151.405 72.8872 152.339 73.132C159.167 74.9226 164.168 75.8989 164.958 75.5948C165.658 75.3254 165.88 74.7006 165.751 73.3626L165.573 71.5041L158.283 69.7095C154.273 68.7224 150.881 67.8014 150.743 67.6639C150.296 67.2154 155.08 45.8884 155.786 45.1798C155.92 45.0462 157.515 44.6942 159.33 44.3975C166.394 43.2448 171.186 41.1136 175 37.4292C178.803 33.7545 180.367 30.2042 180.348 25.285C180.33 20.5952 178.982 17.4957 175.825 14.8863C171.92 11.6589 164.297 10.3483 159.971 12.1611C158.847 12.6318 157.832 13.017 157.715 13.017C157.598 13.017 157.21 12.0544 156.852 10.8772C154.368 2.70955 142.201 -2.36656 133.445 1.11185ZM146.742 6.14346C149.788 7.6219 151.939 10.3026 152.864 13.773C153.509 16.189 153.457 16.4908 152.045 18.6312C149.686 22.206 149.539 23.5778 151.382 24.7891L152.939 25.8117L154.846 23.5989C155.895 22.3818 156.754 21.0699 156.754 20.6842C156.754 19.4637 160.629 16.5125 162.759 16.1119C165.489 15.5984 169.631 16.2124 171.723 17.4409C177.626 20.9085 177.51 28.9295 171.479 34.3679C168.12 37.3961 164.098 39.0269 158.166 39.7653C155.543 40.0922 153.405 40.6862 152.766 41.2665C152.042 41.9233 150.779 46.0408 148.77 54.298C147.155 60.937 145.788 66.4177 145.732 66.4776C145.676 66.5375 140.388 65.3182 133.98 63.7678C127.573 62.2175 119.441 60.2597 115.908 59.4181C111.163 58.2866 109.563 57.6857 109.78 57.118C109.943 56.6946 110.598 52.5691 111.237 47.9495C111.877 43.3299 112.505 39.0726 112.634 38.4888C113.042 36.6429 110.494 34.7 107.664 34.7C101.973 34.7 96.3554 31.2701 94.1107 26.4262C91.9959 21.8619 92.9944 15.1881 96.3121 11.7143C99.5542 8.31975 102.546 7.09865 108.246 6.84131C113.03 6.62562 113.783 6.73974 116.548 8.09664C120.851 10.2079 121.709 11.3571 122.046 15.4626C122.313 18.7253 122.43 18.9581 124.003 19.3775C126.354 20.004 126.994 19.2132 127.274 15.3416C127.626 10.4521 130.285 7.21049 135.564 5.23505C138.395 4.17543 143.552 4.59483 146.742 6.14346ZM100.793 74.4627C100.196 75.0618 100.372 81.8452 101.03 83.5924C101.363 84.4757 102.323 85.9279 103.164 86.8186C108.766 92.7569 117.314 90.1914 120.906 81.4948C121.761 79.423 121.648 79.2558 119.099 78.841C117.258 78.5414 117.089 78.6555 116.093 80.8723C114.427 84.5767 110.599 86.4043 107.73 84.8643C105.997 83.9342 104.281 79.6113 104.717 77.2769C104.916 76.2139 104.864 75.2216 104.601 75.0721C103.597 74.5009 101.146 74.1089 100.793 74.4627ZM46.9373 107.024C46.9356 107.26 46.646 108.479 46.2932 109.735C45.7464 111.681 45.5854 111.849 45.1985 110.876C44.9487 110.248 44.7268 109.028 44.7046 108.166C44.6739 106.963 44.9311 106.596 45.8028 106.596C46.4286 106.596 46.939 106.789 46.9373 107.024ZM55.5898 121.469C66.6911 123.707 78.0087 131.766 83.8475 141.592C86.3345 145.776 89.0912 153.847 89.4719 158.054L89.7723 161.375H47.0198H4.26734V159.754C4.26734 154.469 8.54378 143.622 13.0137 137.569C18.2932 130.42 28.7869 123.606 37.4086 121.727C41.7511 120.781 51.4903 120.643 55.5898 121.469Z" fill="#181818"/>
</svg>
