<svg width="252" height="209" viewBox="0 0 252 209" fill="none" xmlns="http://www.w3.org/2000/svg">
<path fill-rule="evenodd" clip-rule="evenodd" d="M141.78 6.97871C140.926 7.31603 139.963 7.97961 139.148 8.79304L137.861 10.0757L137.201 9.38832C136.837 9.00998 135.971 8.44639 135.276 8.13536C134.199 7.65408 133.609 7.5708 131.301 7.57669C127.815 7.58554 126.363 8.10318 124.594 9.96763C120.401 14.3891 122.243 21.317 128.071 23.0426C128.745 23.2423 129.624 23.4057 130.023 23.4057C130.726 23.4057 130.745 23.4364 130.598 24.327C130.514 24.8338 130.259 26.5521 130.032 28.1456C129.745 30.1567 129.528 31.0087 129.325 30.9306C128.728 30.7026 123.887 29.5725 123.194 29.5C122.585 29.4361 122.449 29.5319 122.281 30.1407C122.022 31.0814 122.134 31.2163 123.446 31.5457C124.313 31.7634 124.52 31.9103 124.397 32.2213C124.31 32.4398 123.736 34.1111 123.122 35.9353C122.507 37.7594 121.934 39.3236 121.849 39.4114C121.763 39.4993 120.862 39.0232 119.846 38.3535C115.234 35.3152 113.297 35.0724 112.02 37.3727C111.259 38.7429 111.125 40.1012 111.59 41.7504C112.436 44.758 115.087 47.1035 118.496 47.8597C119.51 48.0848 120.414 48.3874 120.503 48.5321C120.897 49.167 121.02 50.955 120.804 52.887C120.615 54.5733 118.908 61.0143 118.441 61.8027C118.378 61.9095 117.906 61.6189 117.393 61.1565C116.38 60.2436 113.658 58.5914 112.085 57.9347C110.646 57.3333 107.32 56.5759 106.111 56.5739C105.535 56.5729 105.064 56.5361 105.064 56.4916C105.064 56.4474 105.341 55.731 105.68 54.8996C106.497 52.8941 106.487 51.8119 105.644 51.0326C105.162 50.5875 104.716 50.4302 103.933 50.4302C101.712 50.4302 100.884 52.2112 101.819 54.9731C102.093 55.7823 102.298 56.4538 102.274 56.4648C102.25 56.4759 101.138 56.7245 99.8026 57.0176C95.8047 57.8949 92.294 59.9068 89.4897 62.9274C85.9332 66.758 84.1902 70.8674 84.0572 75.735L84 77.8233L86.3996 77.8936C88.7878 77.9636 88.7999 77.967 88.9418 78.6306C89.3291 80.4398 90.4111 81.7603 91.8156 82.1374C92.4086 82.2968 94.3938 82.3767 96.6618 82.3325L100.503 82.2575L101.098 83.3572C103.94 88.611 109.981 92.4608 116.295 93.0415C119.72 93.3565 119.657 93.3305 119.494 94.3598C119.415 94.8583 119.183 97.2011 118.978 99.5658C118.518 104.877 117.383 116.053 117.266 116.418C117.219 116.566 116.367 117.073 115.372 117.544C111.773 119.248 106.296 123.299 106.296 124.255C106.296 125.003 109.378 125.239 118.983 125.229C124.132 125.223 129.204 125.131 130.254 125.024L132.164 124.829V123.833V122.837L129.885 122.995C125.944 123.269 112.857 123.476 111.581 123.284L110.361 123.1L111.223 122.373C112.288 121.476 116.478 119.103 117.974 118.55C119.31 118.056 119.122 118.956 120.091 108.41C120.494 104.019 121.051 98.2698 121.329 95.6349C121.822 90.9501 122.546 82.9159 122.552 82.0612C122.555 81.7357 122.353 81.6313 121.72 81.6313C120.8 81.6313 120.582 81.932 120.59 83.1869C120.593 83.6149 120.402 85.6108 120.166 87.6219L119.737 91.2783L117.512 91.1348C112.656 90.8218 108.371 88.8982 105.301 85.653C103.068 83.2931 102.382 82.1226 103.231 82.1226C103.525 82.1226 103.597 81.905 103.539 81.2014L103.463 80.2801L98.3934 80.3705C95.6054 80.4201 92.9804 80.3855 92.5603 80.2933C91.7927 80.1253 91.2421 79.5241 90.9171 78.4989L90.7417 77.9461H107.793H124.845L124.7 75.5508C124.621 74.2332 124.381 72.4921 124.166 71.6813C123.645 69.7189 122.009 66.3315 120.825 64.7675L119.87 63.504L120.701 61.1533C121.159 59.8603 121.723 58.0244 121.954 57.0731C122.388 55.2956 122.538 55.0993 123.022 55.6804C124.025 56.8862 128.596 57.9752 131.4 57.6767C133.589 57.4438 136.657 56.2931 137.987 55.2065C138.984 54.3918 139.139 54.34 139.844 54.5849C140.817 54.9232 143.17 54.9338 143.377 54.6009C143.463 54.4623 143.463 54.0326 143.378 53.6459C143.23 52.9728 143.153 52.9381 141.601 52.8396C140.161 52.7482 139.913 52.6551 139.398 52.0134C139.004 51.5225 138.817 50.9702 138.817 50.2951C138.815 49.1331 138.48 48.7105 137.561 48.7105C137.055 48.7105 136.861 48.8596 136.74 49.3394C136.542 50.1256 136.791 51.6083 137.242 52.3256C137.43 52.6249 137.584 52.9303 137.584 53.0042C137.584 53.0781 136.977 53.526 136.235 53.999C134.295 55.2367 132.337 55.673 129.332 55.5371C126.572 55.4126 125.224 54.9568 123.72 53.6398C122.841 52.8701 122.815 52.7996 122.83 51.1877C122.849 49.2028 122.437 47.687 121.687 46.9846C121.385 46.7013 120.456 46.3115 119.624 46.1179C116.019 45.2791 113.77 43.3419 113.33 40.6958C113.157 39.661 113.591 38.1407 114.157 37.7914C114.548 37.5506 116.669 38.5901 119.077 40.2032C120.671 41.2701 121.353 41.5858 122.065 41.5858C122.573 41.5858 123.098 41.4475 123.231 41.2787C123.365 41.11 124.112 39.0922 124.891 36.7951C125.671 34.498 126.38 32.5397 126.468 32.4434C126.555 32.3471 128.566 32.7466 130.935 33.3313C133.305 33.9158 137.904 35.0341 141.156 35.8164C144.408 36.5983 147.19 37.3855 147.339 37.5653C147.488 37.7459 147.686 39.5148 147.781 41.519C147.876 43.5137 148.045 45.2378 148.158 45.3504C148.271 45.4631 148.941 45.2636 149.646 44.9074C150.351 44.5512 151.218 44.2937 151.573 44.3355C152.365 44.4283 153.223 45.7577 153.013 46.5657C152.776 47.4769 151.274 48.3005 149.633 48.4189C148.776 48.4808 148.178 48.638 148.178 48.8014C148.179 48.9542 148.151 50.7902 148.117 52.8816L148.054 56.6845L151.996 58.8447C157.178 61.6845 159.002 62.935 161.254 65.1901C162.743 66.6821 163.349 67.5269 164.252 69.3705C165.799 72.5326 166.25 74.474 166.243 77.9461C166.236 81.0444 166.059 82.0057 164.904 85.1862C163.43 89.2502 159.579 94.0719 155.794 96.5921C153.528 98.1015 152.378 98.3096 151.318 97.4021C150.557 96.75 150.842 96.1516 152.797 94.2947L154.706 92.4809L154.109 91.8468C153.78 91.4979 153.417 91.2127 153.302 91.2127C153.186 91.2127 152.368 91.8842 151.484 92.7045C149.957 94.1208 148.276 95.1264 147.415 95.1382C146.906 95.145 146.206 94.3704 146.206 93.7997C146.206 93.1121 147.807 91.2088 149.415 89.9843C150.912 88.8449 151.107 88.4513 150.544 87.7118C150.116 87.1495 150.145 87.1445 148.05 88.1356C145.816 89.193 144.312 89.4861 144.089 88.9075C143.712 87.9268 146.191 85.8525 150.395 83.6331C152.054 82.7565 152.858 82.1941 152.858 81.9096C152.858 81.4124 149.947 67.0997 149.82 66.9734C149.773 66.926 149.384 66.957 148.956 67.0425C148.082 67.2167 147.993 67.609 148.419 69.4228C148.552 69.9894 148.989 72.1666 149.39 74.261C149.791 76.3554 150.28 78.7492 150.476 79.5809L150.833 81.0928L148.478 82.3934C143.391 85.2042 141.376 87.5995 142.276 89.7674C142.601 90.5489 143.726 91.2127 144.727 91.2127C145.2 91.2127 145.211 91.2567 144.883 91.8896C144.535 92.5605 144.405 93.4147 144.456 94.7097C144.47 95.0792 144.805 95.7425 145.2 96.1838C145.862 96.9218 146.043 96.9879 147.465 97.0083C148.997 97.0304 149.013 97.0375 149.292 97.8681C149.716 99.1326 150.894 99.8114 152.664 99.8114C153.466 99.8114 154.334 99.6984 154.593 99.5603C155.153 99.2611 155.068 98.9607 155.947 104.356C156.3 106.518 156.8 109.393 157.06 110.744C157.319 112.095 157.973 115.799 158.514 118.974C159.054 122.15 159.567 125.1 159.654 125.53C159.843 126.469 160.325 126.347 152.981 127.211C145.944 128.039 139.054 128.595 136.918 128.506L135.149 128.433L136.695 126.836C137.546 125.958 138.759 124.776 139.391 124.209L140.54 123.18V115.152V107.125L141.094 107.276C141.399 107.359 142.049 107.495 142.539 107.577C143.364 107.714 143.449 107.67 143.691 106.977C143.884 106.427 143.877 106.166 143.663 105.99C143.4 105.773 138.382 104.277 132.041 102.525C130.686 102.151 128.834 101.639 127.927 101.388C127.019 101.138 126.217 100.992 126.143 101.065C126.07 101.139 125.94 101.546 125.855 101.971C125.664 102.921 125.424 102.813 131.425 104.482C133.931 105.18 136.564 105.915 137.276 106.115L138.569 106.48V114.349V122.218L136.28 124.466C134.153 126.555 131.671 129.558 131.671 130.043C131.671 130.159 132.082 130.33 132.586 130.424C133.705 130.634 142.59 130.376 145.467 130.05C146.619 129.92 148.781 129.694 150.271 129.549C155.313 129.056 161.603 128.252 161.799 128.074C161.906 127.976 161.482 124.922 160.856 121.286C160.23 117.65 159.289 112.165 158.764 109.098C158.239 106.03 157.638 102.69 157.428 101.676C156.87 98.981 156.918 98.2322 157.679 97.7347C158.894 96.9404 161.996 93.827 163.322 92.0704C164.994 89.8549 166.713 86.4633 167.445 83.9362C167.929 82.2649 168.005 81.4448 168 77.9461C167.992 73.1476 167.563 71.2293 165.755 67.9173C163.627 64.0196 159.923 60.862 153.167 57.1866C151.508 56.2838 150.102 55.4674 150.042 55.372C149.984 55.277 149.999 54.1353 150.077 52.8349L150.218 50.471L151.242 50.2138C153.468 49.6549 154.87 48.0907 154.87 46.1648C154.87 43.7655 153.192 42.1384 150.975 42.3875C150.277 42.4659 149.895 42.4113 149.882 42.2312C149.871 42.0789 149.786 41.036 149.693 39.9138C149.536 38.0326 149.557 37.882 149.961 37.9874C152.918 38.7583 155.083 39.1787 155.425 39.0478C155.728 38.9318 155.824 38.6628 155.769 38.0867L155.691 37.2865L152.535 36.5138C150.799 36.0888 149.33 35.6923 149.27 35.6331C149.077 35.44 151.148 26.2575 151.454 25.9524C151.512 25.8949 152.202 25.7433 152.988 25.6156C156.047 25.1193 158.122 24.2017 159.773 22.6154C161.42 21.0332 162.097 19.5046 162.089 17.3866C162.081 15.3674 161.497 14.0329 160.13 12.9094C158.44 11.5198 155.139 10.9555 153.266 11.736C152.779 11.9387 152.34 12.1045 152.289 12.1045C152.239 12.1045 152.07 11.6901 151.915 11.1832C150.84 7.66661 145.571 5.48106 141.78 6.97871ZM147.538 9.1451C148.857 9.78165 149.788 10.9358 150.189 12.4301C150.468 13.4703 150.445 13.6002 149.834 14.5218C148.813 16.0609 148.749 16.6515 149.547 17.1731L150.221 17.6134L151.047 16.6606C151.501 16.1366 151.873 15.5718 151.873 15.4057C151.873 14.8802 153.551 13.6096 154.473 13.4371C155.655 13.216 157.449 13.4803 158.354 14.0093C160.91 15.5023 160.86 18.9557 158.249 21.2973C156.794 22.6011 155.053 23.3033 152.484 23.6212C151.348 23.7619 150.423 24.0177 150.146 24.2675C149.833 24.5503 149.286 26.3231 148.416 29.8783C147.717 32.7368 147.125 35.0965 147.1 35.1223C147.076 35.1481 144.787 34.6231 142.012 33.9556C139.238 33.2881 135.717 32.4452 134.187 32.0828C132.132 31.5956 131.44 31.3369 131.534 31.0925C131.604 30.9102 131.888 29.1339 132.164 27.1449C132.441 25.1559 132.713 23.3229 132.769 23.0716C132.946 22.2768 131.843 21.4403 130.618 21.4403C128.153 21.4403 125.721 19.9635 124.749 17.878C123.833 15.9128 124.266 13.0393 125.702 11.5436C127.106 10.0821 128.401 9.55636 130.869 9.44556C132.941 9.3527 133.267 9.40183 134.464 9.98605C136.327 10.8951 136.699 11.3899 136.845 13.1575C136.96 14.5623 137.011 14.6625 137.692 14.8431C138.71 15.1129 138.987 14.7723 139.108 13.1054C139.261 11.0002 140.412 9.60452 142.698 8.75398C143.924 8.29776 146.157 8.47833 147.538 9.1451ZM127.642 38.5603C127.384 38.8183 127.46 41.7389 127.745 42.4912C127.889 42.8715 128.305 43.4967 128.669 43.8802C131.095 46.437 134.796 45.3324 136.351 41.5881C136.721 40.696 136.672 40.624 135.568 40.4454C134.771 40.3164 134.699 40.3656 134.267 41.32C133.546 42.915 131.888 43.7019 130.646 43.0388C129.896 42.6383 129.152 40.7771 129.341 39.772C129.428 39.3143 129.405 38.8871 129.291 38.8227C128.856 38.5768 127.795 38.408 127.642 38.5603ZM104.323 52.5799C104.323 52.6814 104.197 53.2064 104.044 53.7469C103.808 54.5849 103.738 54.6571 103.57 54.2382C103.462 53.968 103.366 53.4427 103.357 53.0713C103.343 52.5536 103.455 52.3957 103.832 52.3957C104.103 52.3957 104.324 52.4785 104.323 52.5799ZM108.07 58.7992C112.877 59.7625 117.777 63.2325 120.305 67.4633C121.382 69.2649 122.576 72.7395 122.74 74.5511L122.87 75.9807H104.359H85.8477V75.283C85.8477 73.0075 87.6994 68.3374 89.6348 65.7313C91.9208 62.6532 96.4644 59.7191 100.198 58.9103C102.078 58.503 106.295 58.4435 108.07 58.7992Z" fill="#181818"/>
<path d="M40.312 171.04C37.168 171.04 34.564 170.26 32.5 168.7C30.46 167.14 29.296 164.944 29.008 162.112H32.212C32.524 164.032 33.388 165.544 34.804 166.648C36.22 167.752 37.948 168.304 39.988 168.304C41.668 168.304 43.012 168.004 44.02 167.404C45.028 166.78 45.532 165.88 45.532 164.704C45.532 163.864 45.268 163.18 44.74 162.652C44.236 162.1 43.54 161.656 42.652 161.32C41.788 160.984 40.588 160.612 39.052 160.204C37.084 159.652 35.476 159.112 34.228 158.584C32.98 158.032 31.9 157.252 30.988 156.244C30.1 155.212 29.656 153.88 29.656 152.248C29.656 150.592 30.124 149.2 31.06 148.072C31.996 146.944 33.22 146.116 34.732 145.588C36.268 145.036 37.924 144.76 39.7 144.76C41.596 144.76 43.324 145.096 44.884 145.768C46.444 146.416 47.716 147.4 48.7 148.72C49.684 150.016 50.26 151.6 50.428 153.472H47.116C46.804 151.6 46.012 150.148 44.74 149.116C43.492 148.06 41.896 147.532 39.952 147.532C38.536 147.532 37.324 147.832 36.316 148.432C35.308 149.032 34.804 149.896 34.804 151.024C34.804 151.84 35.068 152.512 35.596 153.04C36.148 153.544 36.832 153.952 37.648 154.264C38.488 154.552 39.676 154.912 41.212 155.344C43.276 155.896 44.956 156.46 46.252 157.036C47.572 157.588 48.676 158.38 49.564 159.412C50.452 160.444 50.896 161.788 50.896 163.444C50.896 165.076 50.428 166.468 49.492 167.62C48.58 168.748 47.32 169.6 45.712 170.176C44.128 170.752 42.328 171.04 40.312 171.04ZM59.822 152.5V155.632C60.398 154.528 61.166 153.676 62.126 153.076C63.086 152.452 64.202 152.14 65.474 152.14C66.986 152.14 68.258 152.512 69.29 153.256C70.346 153.976 71.126 154.984 71.63 156.28C72.182 154.936 72.986 153.916 74.042 153.22C75.098 152.5 76.358 152.14 77.822 152.14C80.102 152.14 81.878 152.848 83.15 154.264C84.446 155.68 85.094 157.648 85.094 160.168V170.5H80.018V160.564C80.018 158.788 79.706 157.432 79.082 156.496C78.482 155.56 77.618 155.092 76.49 155.092C75.362 155.092 74.426 155.608 73.682 156.64C72.938 157.672 72.566 158.992 72.566 160.6V170.5H67.526V160.564C67.526 158.812 67.214 157.468 66.59 156.532C65.966 155.572 65.102 155.092 63.998 155.092C62.846 155.092 61.898 155.644 61.154 156.748C60.41 157.852 60.038 159.244 60.038 160.924V170.5H55.034V152.5H59.822ZM94.6082 170.896C92.7122 170.896 91.2482 170.464 90.2162 169.6C89.1842 168.712 88.6682 167.536 88.6682 166.072C88.6682 162.832 91.4162 161.008 96.9122 160.6C98.4722 160.48 99.6122 160.24 100.332 159.88C101.076 159.496 101.448 158.92 101.448 158.152C101.448 157.072 101.088 156.232 100.368 155.632C99.6722 155.008 98.7482 154.696 97.5962 154.696C96.3482 154.696 95.2802 155.08 94.3922 155.848C93.5282 156.592 92.9882 157.6 92.7722 158.872H90.0722C90.3602 156.784 91.2602 155.14 92.7722 153.94C94.2842 152.74 96.1682 152.14 98.4242 152.14C100.776 152.14 102.66 152.812 104.076 154.156C105.516 155.476 106.236 157.276 106.236 159.556V167.944H108.324V170.5H101.7V167.044C101.052 168.268 100.104 169.216 98.8562 169.888C97.6322 170.56 96.2162 170.896 94.6082 170.896ZM96.3362 168.304C97.2482 168.304 98.1002 168.064 98.8922 167.584C99.6842 167.08 100.32 166.396 100.8 165.532C101.28 164.668 101.52 163.696 101.52 162.616V160.924C101.256 161.188 100.824 161.416 100.224 161.608C99.6482 161.8 98.9882 161.944 98.2442 162.04C96.6602 162.256 95.5202 162.652 94.8242 163.228C94.1282 163.78 93.7802 164.572 93.7802 165.604C93.7802 166.492 94.0082 167.164 94.4642 167.62C94.9202 168.076 95.5442 168.304 96.3362 168.304ZM112.093 144.94H117.097V160.132H119.149L125.557 152.5H128.653L122.893 159.592L130.093 170.5H124.333L119.077 162.832H117.097V170.5H112.093V144.94ZM140.98 170.86C139.084 170.86 137.368 170.464 135.832 169.672C134.32 168.856 133.132 167.74 132.268 166.324C131.404 164.884 130.972 163.276 130.972 161.5C130.972 159.7 131.404 158.092 132.268 156.676C133.132 155.26 134.32 154.156 135.832 153.364C137.344 152.548 139.06 152.14 140.98 152.14C142.876 152.14 144.58 152.548 146.092 153.364C147.628 154.156 148.816 155.26 149.656 156.676C150.52 158.092 150.952 159.7 150.952 161.5C150.952 163.276 150.52 164.884 149.656 166.324C148.816 167.74 147.628 168.856 146.092 169.672C144.58 170.464 142.876 170.86 140.98 170.86ZM140.98 168.232C142.444 168.232 143.62 167.632 144.508 166.432C145.396 165.232 145.84 163.588 145.84 161.5C145.84 159.412 145.396 157.768 144.508 156.568C143.62 155.344 142.444 154.732 140.98 154.732C139.516 154.732 138.34 155.332 137.452 156.532C136.564 157.732 136.12 159.388 136.12 161.5C136.12 163.588 136.564 165.232 137.452 166.432C138.34 167.632 139.516 168.232 140.98 168.232ZM152.286 152.5H157.65L163.158 166.684H163.302L168.846 152.5H171.834L164.67 170.5H159.45L152.286 152.5ZM181.549 170.932C179.101 170.932 177.037 170.38 175.357 169.276C173.677 168.172 172.705 166.576 172.441 164.488H175.357C175.549 165.808 176.197 166.828 177.301 167.548C178.429 168.268 179.761 168.628 181.297 168.628C182.377 168.628 183.325 168.448 184.141 168.088C184.981 167.704 185.401 167.116 185.401 166.324C185.401 165.676 185.089 165.196 184.465 164.884C183.865 164.572 182.773 164.224 181.189 163.84C181.045 163.816 180.673 163.72 180.073 163.552C177.937 163.048 176.233 162.376 174.961 161.536C173.689 160.672 173.053 159.352 173.053 157.576C173.053 155.704 173.833 154.324 175.393 153.436C176.977 152.524 178.849 152.068 181.009 152.068C183.289 152.068 185.209 152.596 186.769 153.652C188.353 154.708 189.253 156.256 189.469 158.296H186.589C186.349 157.024 185.725 156.052 184.717 155.38C183.733 154.708 182.509 154.372 181.045 154.372C180.037 154.372 179.149 154.564 178.381 154.948C177.637 155.308 177.265 155.908 177.265 156.748C177.265 157.396 177.601 157.888 178.273 158.224C178.945 158.56 180.121 158.944 181.801 159.376L182.701 159.592C184.117 159.928 185.317 160.3 186.301 160.708C187.309 161.092 188.149 161.656 188.821 162.4C189.517 163.144 189.865 164.104 189.865 165.28C189.865 166.552 189.469 167.608 188.677 168.448C187.885 169.288 186.853 169.912 185.581 170.32C184.309 170.728 182.965 170.932 181.549 170.932ZM193.901 144.94H198.905V160.132H200.957L207.365 152.5H210.461L204.701 159.592L211.901 170.5H206.141L200.885 162.832H198.905V170.5H193.901V144.94ZM215.241 152.5H220.245V170.5H215.241V152.5ZM214.701 143.68H220.821L217.941 150.448H217.581L214.701 143.68Z" fill="#181818"/>
<path d="M50.618 198.5V194.496L48.168 187.16H49.638L51.374 192.634L53.082 187.16H54.566L52.13 194.496V198.5H50.618ZM58.5202 198.626C57.7549 198.626 57.1436 198.477 56.6862 198.178C56.2289 197.879 55.9022 197.455 55.7062 196.904C55.5102 196.344 55.4122 195.691 55.4122 194.944V190.646C55.4122 189.899 55.5102 189.26 55.7062 188.728C55.9116 188.187 56.2382 187.776 56.6862 187.496C57.1436 187.207 57.7549 187.062 58.5202 187.062C59.2856 187.062 59.8922 187.207 60.3402 187.496C60.7882 187.785 61.1102 188.196 61.3062 188.728C61.5116 189.26 61.6142 189.899 61.6142 190.646V194.958C61.6142 195.695 61.5116 196.339 61.3062 196.89C61.1102 197.441 60.7882 197.87 60.3402 198.178C59.8922 198.477 59.2856 198.626 58.5202 198.626ZM58.5202 197.38C58.9402 197.38 59.2576 197.296 59.4722 197.128C59.6869 196.951 59.8316 196.708 59.9062 196.4C59.9809 196.083 60.0182 195.714 60.0182 195.294V190.324C60.0182 189.904 59.9809 189.545 59.9062 189.246C59.8316 188.938 59.6869 188.705 59.4722 188.546C59.2576 188.378 58.9402 188.294 58.5202 188.294C58.1002 188.294 57.7782 188.378 57.5542 188.546C57.3396 188.705 57.1949 188.938 57.1202 189.246C57.0456 189.545 57.0082 189.904 57.0082 190.324V195.294C57.0082 195.714 57.0456 196.083 57.1202 196.4C57.1949 196.708 57.3396 196.951 57.5542 197.128C57.7782 197.296 58.1002 197.38 58.5202 197.38ZM66.0951 198.626C65.2738 198.626 64.6438 198.463 64.2051 198.136C63.7664 197.809 63.4678 197.352 63.3091 196.764C63.1504 196.167 63.0711 195.471 63.0711 194.678V187.16H64.5831V194.748C64.5831 195.233 64.6158 195.677 64.6811 196.078C64.7464 196.479 64.8864 196.797 65.1011 197.03C65.3251 197.263 65.6564 197.38 66.0951 197.38C66.5431 197.38 66.8744 197.263 67.0891 197.03C67.3038 196.797 67.4438 196.479 67.5091 196.078C67.5744 195.677 67.6071 195.233 67.6071 194.748V187.16H69.1051V194.678C69.1051 195.471 69.0258 196.167 68.8671 196.764C68.7084 197.352 68.4098 197.809 67.9711 198.136C67.5418 198.463 66.9164 198.626 66.0951 198.626ZM70.7707 198.5V187.16H73.0527C73.8087 187.16 74.434 187.263 74.9287 187.468C75.4233 187.664 75.7873 187.986 76.0207 188.434C76.2633 188.873 76.3847 189.451 76.3847 190.17C76.3847 190.609 76.338 191.01 76.2447 191.374C76.1513 191.729 76.002 192.032 75.7967 192.284C75.5913 192.527 75.3207 192.704 74.9847 192.816L76.5947 198.5H75.0687L73.5847 193.18H72.3527V198.5H70.7707ZM72.3527 192.046H72.9547C73.4027 192.046 73.7667 191.99 74.0467 191.878C74.3267 191.766 74.532 191.575 74.6627 191.304C74.7933 191.033 74.8587 190.655 74.8587 190.17C74.8587 189.507 74.7373 189.031 74.4947 188.742C74.252 188.443 73.7713 188.294 73.0527 188.294H72.3527V192.046ZM84.0717 198.626C83.269 198.626 82.6437 198.458 82.1957 198.122C81.757 197.786 81.449 197.333 81.2717 196.764C81.1037 196.195 81.0197 195.56 81.0197 194.86V190.856C81.0197 190.091 81.1037 189.423 81.2717 188.854C81.449 188.285 81.757 187.846 82.1957 187.538C82.6437 187.221 83.269 187.062 84.0717 187.062C84.781 187.062 85.341 187.193 85.7517 187.454C86.1717 187.715 86.4703 188.089 86.6477 188.574C86.8343 189.059 86.9277 189.643 86.9277 190.324V191.22H85.4297V190.422C85.4297 190.002 85.4063 189.633 85.3597 189.316C85.3223 188.989 85.2103 188.737 85.0237 188.56C84.837 188.383 84.5243 188.294 84.0857 188.294C83.6377 188.294 83.311 188.392 83.1057 188.588C82.9003 188.775 82.765 189.045 82.6997 189.4C82.6437 189.745 82.6157 190.151 82.6157 190.618V195.112C82.6157 195.681 82.6623 196.134 82.7557 196.47C82.849 196.797 83.003 197.03 83.2177 197.17C83.4323 197.31 83.7217 197.38 84.0857 197.38C84.515 197.38 84.823 197.287 85.0097 197.1C85.1963 196.904 85.313 196.638 85.3597 196.302C85.4063 195.966 85.4297 195.574 85.4297 195.126V194.286H86.9277V195.126C86.9277 195.817 86.8437 196.428 86.6757 196.96C86.5077 197.483 86.2183 197.893 85.8077 198.192C85.397 198.481 84.8183 198.626 84.0717 198.626ZM88.4347 198.5V187.16H90.0167V192.06H92.9287V187.16H94.5107V198.5H92.9287V193.194H90.0167V198.5H88.4347ZM96.2824 198.5V187.16H100.678V188.336H97.8644V192.088H100.146V193.208H97.8644V197.366H100.706V198.5H96.2824ZM101.984 198.5V187.16H106.366V188.294H103.566V192.074H105.736V193.194H103.566V198.5H101.984ZM113.032 198.626C112.518 198.626 112.075 198.519 111.702 198.304C111.338 198.08 111.058 197.777 110.862 197.394C110.675 197.011 110.582 196.573 110.582 196.078C110.582 195.359 110.74 194.739 111.058 194.216C111.384 193.684 111.776 193.213 112.234 192.802C112.066 192.466 111.884 192.13 111.688 191.794C111.501 191.449 111.338 191.094 111.198 190.73C111.067 190.357 111.002 189.969 111.002 189.568C111.002 189.064 111.1 188.625 111.296 188.252C111.492 187.879 111.772 187.589 112.136 187.384C112.5 187.169 112.929 187.062 113.424 187.062C113.881 187.062 114.287 187.146 114.642 187.314C115.006 187.482 115.295 187.725 115.51 188.042C115.724 188.35 115.832 188.723 115.832 189.162C115.832 189.657 115.715 190.133 115.482 190.59C115.258 191.038 114.982 191.458 114.656 191.85C114.329 192.233 114.012 192.573 113.704 192.872L115.412 195.56C115.514 195.364 115.598 195.145 115.664 194.902C115.738 194.65 115.799 194.384 115.846 194.104C115.902 193.824 115.944 193.553 115.972 193.292H117.456C117.456 193.656 117.4 194.039 117.288 194.44C117.185 194.841 117.05 195.224 116.882 195.588C116.714 195.943 116.541 196.246 116.364 196.498C116.485 196.647 116.644 196.783 116.84 196.904C117.036 197.016 117.246 197.072 117.47 197.072V198.612C117.432 198.612 117.395 198.612 117.358 198.612C117.33 198.612 117.302 198.612 117.274 198.612C117.003 198.603 116.76 198.542 116.546 198.43C116.331 198.309 116.135 198.164 115.958 197.996C115.79 197.828 115.626 197.669 115.468 197.52C115.216 197.837 114.884 198.103 114.474 198.318C114.072 198.523 113.592 198.626 113.032 198.626ZM113.032 197.38C113.386 197.38 113.685 197.296 113.928 197.128C114.17 196.951 114.38 196.755 114.558 196.54L112.822 193.866C112.598 194.155 112.416 194.496 112.276 194.888C112.145 195.271 112.08 195.667 112.08 196.078C112.08 196.293 112.108 196.503 112.164 196.708C112.22 196.904 112.318 197.067 112.458 197.198C112.598 197.319 112.789 197.38 113.032 197.38ZM113.186 192.06C113.382 191.827 113.564 191.551 113.732 191.234C113.909 190.917 114.054 190.581 114.166 190.226C114.278 189.862 114.334 189.507 114.334 189.162C114.334 188.891 114.25 188.681 114.082 188.532C113.914 188.373 113.694 188.294 113.424 188.294C113.088 188.294 112.85 188.425 112.71 188.686C112.57 188.947 112.5 189.241 112.5 189.568C112.5 189.997 112.57 190.427 112.71 190.856C112.859 191.276 113.018 191.677 113.186 192.06ZM124.077 198.5V194.496L121.627 187.16H123.097L124.833 192.634L126.541 187.16H128.025L125.589 194.496V198.5H124.077ZM131.979 198.626C131.214 198.626 130.603 198.477 130.145 198.178C129.688 197.879 129.361 197.455 129.165 196.904C128.969 196.344 128.871 195.691 128.871 194.944V190.646C128.871 189.899 128.969 189.26 129.165 188.728C129.371 188.187 129.697 187.776 130.145 187.496C130.603 187.207 131.214 187.062 131.979 187.062C132.745 187.062 133.351 187.207 133.799 187.496C134.247 187.785 134.569 188.196 134.765 188.728C134.971 189.26 135.073 189.899 135.073 190.646V194.958C135.073 195.695 134.971 196.339 134.765 196.89C134.569 197.441 134.247 197.87 133.799 198.178C133.351 198.477 132.745 198.626 131.979 198.626ZM131.979 197.38C132.399 197.38 132.717 197.296 132.931 197.128C133.146 196.951 133.291 196.708 133.365 196.4C133.44 196.083 133.477 195.714 133.477 195.294V190.324C133.477 189.904 133.44 189.545 133.365 189.246C133.291 188.938 133.146 188.705 132.931 188.546C132.717 188.378 132.399 188.294 131.979 188.294C131.559 188.294 131.237 188.378 131.013 188.546C130.799 188.705 130.654 188.938 130.579 189.246C130.505 189.545 130.467 189.904 130.467 190.324V195.294C130.467 195.714 130.505 196.083 130.579 196.4C130.654 196.708 130.799 196.951 131.013 197.128C131.237 197.296 131.559 197.38 131.979 197.38ZM139.554 198.626C138.733 198.626 138.103 198.463 137.664 198.136C137.225 197.809 136.927 197.352 136.768 196.764C136.609 196.167 136.53 195.471 136.53 194.678V187.16H138.042V194.748C138.042 195.233 138.075 195.677 138.14 196.078C138.205 196.479 138.345 196.797 138.56 197.03C138.784 197.263 139.115 197.38 139.554 197.38C140.002 197.38 140.333 197.263 140.548 197.03C140.763 196.797 140.903 196.479 140.968 196.078C141.033 195.677 141.066 195.233 141.066 194.748V187.16H142.564V194.678C142.564 195.471 142.485 196.167 142.326 196.764C142.167 197.352 141.869 197.809 141.43 198.136C141.001 198.463 140.375 198.626 139.554 198.626ZM144.23 198.5V187.16H146.512C147.268 187.16 147.893 187.263 148.388 187.468C148.882 187.664 149.246 187.986 149.48 188.434C149.722 188.873 149.844 189.451 149.844 190.17C149.844 190.609 149.797 191.01 149.704 191.374C149.61 191.729 149.461 192.032 149.256 192.284C149.05 192.527 148.78 192.704 148.444 192.816L150.054 198.5H148.528L147.044 193.18H145.812V198.5H144.23ZM145.812 192.046H146.414C146.862 192.046 147.226 191.99 147.506 191.878C147.786 191.766 147.991 191.575 148.122 191.304C148.252 191.033 148.318 190.655 148.318 190.17C148.318 189.507 148.196 189.031 147.954 188.742C147.711 188.443 147.23 188.294 146.512 188.294H145.812V192.046ZM154.689 198.5V187.16H157.153C157.993 187.16 158.655 187.291 159.141 187.552C159.635 187.804 159.985 188.187 160.191 188.7C160.405 189.213 160.513 189.853 160.513 190.618V194.79C160.513 195.593 160.405 196.269 160.191 196.82C159.985 197.371 159.645 197.791 159.169 198.08C158.702 198.36 158.072 198.5 157.279 198.5H154.689ZM156.271 197.366H157.167C157.745 197.366 158.156 197.254 158.399 197.03C158.641 196.806 158.786 196.479 158.833 196.05C158.889 195.621 158.917 195.103 158.917 194.496V190.814C158.917 190.226 158.879 189.75 158.805 189.386C158.73 189.022 158.567 188.756 158.315 188.588C158.063 188.42 157.666 188.336 157.125 188.336H156.271V197.366ZM162.155 198.5V187.16H163.709V198.5H162.155ZM165.544 198.5V187.16H169.94V188.336H167.126V192.088H169.408V193.208H167.126V197.366H169.968V198.5H165.544ZM172.491 198.5V188.336H170.573V187.16H175.935V188.336H174.073V198.5H172.491ZM177.112 198.5V187.16H178.666V198.5H177.112ZM181.747 198.5V188.336H179.829V187.16H185.191V188.336H183.329V198.5H181.747ZM186.368 198.5V187.16H187.922V198.5H186.368ZM189.141 198.5L191.549 187.16H193.075L195.497 198.5H193.999L193.481 195.644H191.171L190.625 198.5H189.141ZM191.381 194.51H193.271L192.319 189.4L191.381 194.51ZM196.648 198.5V187.16H197.726L200.946 194.692V187.16H202.262V198.5H201.254L197.992 190.758V198.5H196.648Z" fill="#181818"/>
</svg>
