<svg width="236" height="345" viewBox="0 0 236 345" fill="none" xmlns="http://www.w3.org/2000/svg">
<path fill-rule="evenodd" clip-rule="evenodd" d="M162.336 1.33191C159.936 2.2704 157.23 4.11664 154.938 6.37984L151.325 9.94859L149.469 8.03605C148.448 6.9834 146.014 5.41537 144.06 4.55001C141.036 3.21095 139.377 2.97923 132.895 2.99564C123.098 3.02024 119.019 4.46046 114.051 9.64784C102.27 21.9495 107.445 41.2246 123.818 46.0258C125.712 46.5815 128.181 47.036 129.304 47.036C131.278 47.036 131.331 47.1215 130.917 49.5993C130.682 51.0094 129.966 55.7901 129.327 60.2235C128.521 65.819 127.913 68.1895 127.341 67.9721C125.666 67.3378 112.063 64.1935 110.118 63.9919C108.407 63.8142 108.023 64.0807 107.552 65.7746C106.824 68.3918 107.137 68.7671 110.825 69.6837C113.261 70.2893 113.842 70.6981 113.495 71.5634C113.252 72.1711 111.64 76.8212 109.914 81.8965C108.187 86.9718 106.577 91.3239 106.337 91.5679C106.097 91.8126 103.564 90.4879 100.709 88.6246C87.754 80.1712 82.3109 79.4959 78.722 85.8959C76.5847 89.708 76.2095 93.4873 77.5135 98.0758C79.8918 106.444 87.3408 112.969 96.9168 115.073C99.7665 115.7 102.305 116.542 102.557 116.944C103.662 118.71 104.009 123.685 103.402 129.061C102.871 133.752 98.0755 151.673 96.7632 153.866C96.5853 154.164 95.2605 153.355 93.8194 152.069C90.9726 149.529 83.3249 144.932 78.9062 143.105C74.8612 141.431 65.5177 139.324 62.1213 139.318C60.503 139.316 59.1796 139.213 59.1796 139.09C59.1796 138.966 59.9583 136.973 60.91 134.66C63.2059 129.08 63.1775 126.069 60.809 123.901C59.4558 122.663 58.2009 122.225 56.0026 122.225C49.7635 122.225 47.4351 127.18 50.0632 134.865C50.8336 137.116 51.4087 138.984 51.3416 139.015C51.2745 139.046 48.1501 139.738 44.3979 140.553C33.1655 142.994 23.3022 148.591 15.4234 156.995C5.43137 167.653 0.534349 179.087 0.160583 192.63L0 198.44L6.74163 198.635C13.4514 198.83 13.4853 198.84 13.884 200.686C14.9721 205.719 18.0121 209.393 21.9581 210.443C23.6241 210.886 29.2015 211.108 35.5735 210.985L46.3664 210.777L48.0372 213.836C56.0227 228.454 72.9951 239.165 90.7338 240.781C100.358 241.657 100.18 241.585 99.7208 244.449C99.4986 245.836 98.8466 252.354 98.2714 258.933C96.9798 273.711 93.7904 304.805 93.4623 305.821C93.3294 306.233 90.9345 307.643 88.1396 308.953C78.0299 313.695 62.6404 324.964 62.6404 327.624C62.6404 329.705 71.2993 330.363 98.2866 330.335C112.753 330.319 127.003 330.062 129.953 329.763L135.317 329.221V326.45V323.68L128.915 324.12C117.843 324.883 81.0733 325.456 77.4893 324.922L74.061 324.412L76.4836 322.39C79.4751 319.893 91.2467 313.291 95.4495 311.752C99.2051 310.377 98.677 312.882 101.399 283.54C102.532 271.322 104.097 255.327 104.876 247.996C106.262 234.962 108.297 212.609 108.314 210.231C108.321 209.325 107.753 209.035 105.974 209.035C103.39 209.035 102.777 209.871 102.801 213.363C102.809 214.554 102.273 220.107 101.61 225.702L100.403 235.875L94.1537 235.476C80.5099 234.605 68.4712 229.253 59.8455 220.224C53.5718 213.658 51.6441 210.402 54.03 210.402C54.855 210.402 55.0592 209.796 54.8952 207.838L54.6806 205.275L40.4387 205.527C32.6055 205.665 25.2306 205.568 24.0505 205.312C21.8937 204.845 20.3467 203.172 19.4338 200.32L18.9409 198.782H66.8474H114.754L114.349 192.117C114.127 188.451 113.45 183.607 112.846 181.351C111.384 175.891 106.786 166.467 103.462 162.115L100.777 158.6L103.113 152.06C104.398 148.462 105.983 143.354 106.634 140.707C107.851 135.762 108.274 135.216 109.632 136.832C112.452 140.187 125.294 143.217 133.172 142.387C139.322 141.739 147.942 138.537 151.678 135.514C154.48 133.247 154.914 133.103 156.896 133.785C159.629 134.726 166.241 134.755 166.821 133.829C167.062 133.443 167.063 132.248 166.824 131.172C166.408 129.299 166.192 129.203 161.831 128.929C157.786 128.674 157.09 128.415 155.642 126.63C154.536 125.264 154.011 123.728 154.009 121.849C154.005 118.616 153.064 117.44 150.481 117.44C149.06 117.44 148.513 117.855 148.173 119.19C147.618 121.378 148.318 125.503 149.584 127.499C150.113 128.331 150.545 129.181 150.545 129.387C150.545 129.592 148.84 130.839 146.756 132.154C141.306 135.598 135.804 136.812 127.361 136.434C119.607 136.087 115.82 134.819 111.593 131.155C109.124 129.013 109.052 128.817 109.095 124.333C109.147 118.81 107.989 114.593 105.882 112.639C105.033 111.851 102.425 110.766 100.088 110.227C89.9593 107.894 83.6405 102.504 82.4029 95.1414C81.9184 92.2623 83.1359 88.0326 84.7279 87.0606C85.825 86.3907 91.7831 89.2828 98.551 93.7709C103.029 96.7395 104.944 97.6179 106.946 97.6179C108.371 97.6179 109.846 97.233 110.222 96.7635C110.597 96.2939 112.696 90.68 114.885 84.2889C117.075 77.8978 119.067 72.4493 119.314 72.1814C119.56 71.9134 125.208 73.0248 131.865 74.6517C138.523 76.2778 151.444 79.3893 160.581 81.5657C169.717 83.7414 177.535 85.9314 177.952 86.4318C178.372 86.9342 178.928 91.8556 179.195 97.4319C179.46 102.982 179.937 107.779 180.254 108.092C180.572 108.405 182.452 107.85 184.433 106.859C186.414 105.868 188.851 105.152 189.848 105.268C192.072 105.526 194.484 109.225 193.894 111.473C193.229 114.008 189.008 116.3 184.396 116.629C181.99 116.801 180.309 117.239 180.311 117.693C180.312 118.119 180.235 123.227 180.138 129.046L179.961 139.626L191.036 145.636C205.594 153.537 210.72 157.017 217.046 163.291C221.231 167.442 222.934 169.793 225.469 174.922C229.818 183.72 231.084 189.121 231.064 198.782C231.045 207.402 230.546 210.076 227.303 218.925C223.16 230.233 212.34 243.648 201.708 250.659C195.34 254.859 192.109 255.438 189.133 252.913C186.994 251.099 187.794 249.434 193.285 244.268L198.65 239.221L196.972 237.457C196.049 236.486 195.028 235.693 194.704 235.693C194.38 235.693 192.083 237.561 189.598 239.843C185.309 243.784 180.585 246.581 178.165 246.614C176.735 246.633 174.77 244.478 174.77 242.89C174.77 240.977 179.267 235.682 183.785 232.275C187.99 229.105 188.539 228.01 186.958 225.952C185.755 224.388 185.835 224.374 179.95 227.131C173.673 230.073 169.448 230.889 168.823 229.279C167.762 226.55 174.728 220.779 186.538 214.604C191.201 212.165 193.459 210.601 193.459 209.809C193.459 208.426 185.281 168.604 184.924 168.253C184.791 168.121 183.698 168.207 182.495 168.445C180.04 168.929 179.791 170.021 180.986 175.068C181.36 176.644 182.587 182.701 183.715 188.528C184.843 194.356 186.216 201.016 186.767 203.33L187.768 207.536L181.153 211.155C166.86 218.975 161.199 225.64 163.729 231.671C164.641 233.846 167.802 235.693 170.613 235.693C171.944 235.693 171.973 235.815 171.051 237.576C170.074 239.443 169.711 241.819 169.852 245.422C169.892 246.45 170.834 248.296 171.944 249.523C173.802 251.577 174.312 251.761 178.306 251.817C182.612 251.879 182.655 251.899 183.438 254.21C184.629 257.728 187.939 259.616 192.914 259.616C195.167 259.616 197.605 259.302 198.332 258.918C199.907 258.085 199.669 257.249 202.138 272.262C203.127 278.277 204.533 286.274 205.263 290.034C205.991 293.793 207.83 304.098 209.348 312.932C210.866 321.767 212.307 329.975 212.55 331.172C213.083 333.784 214.436 333.445 193.805 335.85C174.034 338.154 154.675 339.699 148.674 339.453L143.704 339.249L148.048 334.806C150.437 332.362 153.846 329.074 155.622 327.497L158.851 324.633V302.298V279.963L160.408 280.385C161.265 280.617 163.091 280.993 164.467 281.221C166.785 281.605 167.024 281.482 167.705 279.554C168.245 278.021 168.224 277.298 167.625 276.808C166.884 276.204 152.789 272.042 134.971 267.167C131.164 266.125 125.963 264.702 123.413 264.004C120.863 263.306 118.608 262.902 118.402 263.105C118.197 263.309 117.832 264.443 117.592 265.625C117.057 268.267 116.382 267.967 133.241 272.612C140.283 274.552 147.681 276.597 149.679 277.155L153.313 278.169V300.063V321.958L146.882 328.211C140.905 334.023 133.933 342.378 133.933 343.729C133.933 344.05 135.089 344.528 136.502 344.789C139.648 345.372 164.611 344.655 172.694 343.749C175.93 343.387 182.003 342.759 186.191 342.354C200.357 340.984 218.027 338.744 218.578 338.249C218.879 337.979 217.686 329.48 215.928 319.364C214.17 309.248 211.525 293.988 210.052 285.453C208.577 276.918 206.888 267.626 206.298 264.805C204.73 257.306 204.864 255.223 207.003 253.839C210.418 251.629 219.133 242.966 222.858 238.079C227.556 231.915 232.385 222.478 234.441 215.448C235.801 210.797 236.014 208.516 235.999 198.782C235.979 185.431 234.772 180.094 229.692 170.879C223.713 160.035 213.306 151.249 194.326 141.023C189.664 138.511 185.714 136.24 185.548 135.975C185.382 135.71 185.425 132.534 185.644 128.916L186.041 122.339L188.918 121.623C195.173 120.068 199.111 115.716 199.111 110.358C199.111 103.682 194.398 99.1552 188.169 99.8483C186.207 100.066 185.133 99.9146 185.097 99.4135C185.067 98.9897 184.827 96.0881 184.565 92.9657C184.124 87.7319 184.184 87.3128 185.319 87.6061C193.626 89.751 199.71 90.9206 200.671 90.5562C201.522 90.2336 201.792 89.4851 201.636 87.8822L201.418 85.656L192.55 83.5062C187.673 82.3237 183.545 81.2205 183.378 81.0557C182.835 80.5185 188.654 54.9705 189.513 54.1216C189.676 53.9616 191.616 53.5399 193.824 53.1844C202.417 51.8037 208.247 49.2507 212.886 44.8371C217.513 40.4351 219.415 36.1821 219.392 30.2893C219.37 24.6713 217.73 20.9583 213.89 17.8325C209.14 13.9664 199.867 12.3963 194.603 14.5679C193.237 15.1319 192.002 15.5933 191.86 15.5933C191.718 15.5933 191.245 14.4401 190.81 13.03C187.788 3.24581 172.987 -2.83494 162.336 1.33191ZM178.511 7.35935C182.216 9.1304 184.833 12.3417 185.958 16.4989C186.743 19.393 186.68 19.7546 184.962 22.3186C182.093 26.601 181.913 28.2442 184.155 29.6953L186.049 30.9202L188.37 28.2695C189.645 26.8115 190.69 25.24 190.69 24.778C190.69 23.3159 195.405 19.7806 197.995 19.3008C201.316 18.6856 206.356 19.4211 208.9 20.8927C216.081 25.0466 215.941 34.6551 208.603 41.1699C204.517 44.7974 199.624 46.751 192.408 47.6355C189.217 48.0272 186.617 48.7387 185.839 49.4339C184.958 50.2206 183.422 55.153 180.978 65.0445C179.013 72.9975 177.35 79.5629 177.282 79.6347C177.214 79.7064 170.781 78.2457 162.986 76.3885C155.192 74.5314 145.299 72.1861 141.002 71.1779C135.229 69.8225 133.283 69.1027 133.547 68.4226C133.745 67.9154 134.542 62.9734 135.319 57.4395C136.097 51.9056 136.861 46.8057 137.018 46.1064C137.515 43.8952 134.415 41.5677 130.973 41.5677C124.05 41.5677 117.216 37.459 114.485 31.6564C111.912 26.1888 113.127 18.1941 117.163 14.0327C121.107 9.96636 124.746 8.50359 131.681 8.19532C137.5 7.93694 138.416 8.07364 141.781 9.6991C147.015 12.2282 148.058 13.6048 148.468 18.5229C148.793 22.4314 148.935 22.7103 150.849 23.2127C153.709 23.9632 154.488 23.0158 154.828 18.378C155.257 12.5207 158.491 8.63756 164.913 6.27115C168.357 5.00182 174.63 5.50423 178.511 7.35935ZM122.615 89.2001C121.888 89.9178 122.102 98.0437 122.903 100.137C123.307 101.195 124.475 102.934 125.498 104.001C132.313 111.115 142.711 108.042 147.081 97.624C148.122 95.1421 147.984 94.9418 144.883 94.4449C142.644 94.086 142.439 94.2227 141.226 96.8783C139.199 101.316 134.543 103.505 131.053 101.66C128.945 100.546 126.857 95.3677 127.388 92.5713C127.63 91.2979 127.566 90.1092 127.247 89.9301C126.025 89.2459 123.044 88.7763 122.615 89.2001ZM57.099 128.206C57.0969 128.489 56.7446 129.949 56.3155 131.453C55.6503 133.785 55.4544 133.986 54.9838 132.82C54.6799 132.068 54.41 130.607 54.383 129.573C54.3456 128.133 54.6584 127.694 55.7188 127.694C56.4802 127.694 57.1011 127.924 57.099 128.206ZM67.6247 145.51C81.1294 148.19 94.8971 157.844 102 169.616C105.025 174.628 108.379 184.295 108.842 189.336L109.208 193.313H57.1994H5.19119V191.372C5.19119 185.041 10.3935 172.048 15.8311 164.797C22.2536 156.233 35.0191 148.069 45.5074 145.819C50.79 144.686 62.6376 144.52 67.6247 145.51Z" fill="black"/>
</svg>
