<svg width="128" height="20" viewBox="0 0 128 20" fill="none" xmlns="http://www.w3.org/2000/svg">
<path d="M7.536 19.1209C5.44 19.1209 3.704 18.6009 2.328 17.5609C0.968 16.5209 0.192 15.0569 0 13.1689H2.136C2.344 14.4489 2.92 15.4569 3.864 16.1929C4.808 16.9289 5.96 17.2969 7.32 17.2969C8.44 17.2969 9.336 17.0969 10.008 16.6969C10.68 16.2809 11.016 15.6809 11.016 14.8969C11.016 14.3369 10.84 13.8809 10.488 13.5289C10.152 13.1609 9.688 12.8649 9.096 12.6409C8.52 12.4169 7.72 12.1689 6.696 11.8969C5.384 11.5289 4.312 11.1689 3.48 10.8169C2.648 10.4489 1.928 9.92886 1.32 9.25686C0.728 8.56886 0.432 7.68086 0.432 6.59286C0.432 5.48886 0.744 4.56086 1.368 3.80886C1.992 3.05686 2.808 2.50486 3.816 2.15286C4.84 1.78486 5.944 1.60086 7.128 1.60086C8.392 1.60086 9.544 1.82486 10.584 2.27286C11.624 2.70486 12.472 3.36086 13.128 4.24086C13.784 5.10486 14.168 6.16086 14.28 7.40886H12.072C11.864 6.16086 11.336 5.19286 10.488 4.50486C9.656 3.80086 8.592 3.44886 7.296 3.44886C6.352 3.44886 5.544 3.64886 4.872 4.04886C4.2 4.44886 3.864 5.02486 3.864 5.77686C3.864 6.32086 4.04 6.76886 4.392 7.12086C4.76 7.45686 5.216 7.72886 5.76 7.93686C6.32 8.12886 7.112 8.36886 8.136 8.65686C9.512 9.02486 10.632 9.40086 11.496 9.78486C12.376 10.1529 13.112 10.6809 13.704 11.3689C14.296 12.0569 14.592 12.9529 14.592 14.0569C14.592 15.1449 14.28 16.0729 13.656 16.8409C13.048 17.5929 12.208 18.1609 11.136 18.5449C10.08 18.9289 8.88 19.1209 7.536 19.1209Z" fill="#181818"/>
<path d="M20.5427 6.76086V8.84886C20.9267 8.11286 21.4387 7.54486 22.0787 7.14486C22.7187 6.72886 23.4627 6.52086 24.3107 6.52086C25.3187 6.52086 26.1667 6.76886 26.8547 7.26486C27.5587 7.74486 28.0787 8.41686 28.4147 9.28086C28.7827 8.38486 29.3187 7.70486 30.0227 7.24086C30.7267 6.76086 31.5667 6.52086 32.5427 6.52086C34.0627 6.52086 35.2467 6.99286 36.0947 7.93686C36.9587 8.88086 37.3907 10.1929 37.3907 11.8729V18.7609H34.0067V12.1369C34.0067 10.9529 33.7987 10.0489 33.3827 9.42486C32.9827 8.80086 32.4067 8.48886 31.6547 8.48886C30.9027 8.48886 30.2787 8.83286 29.7827 9.52086C29.2867 10.2089 29.0387 11.0889 29.0387 12.1609V18.7609H25.6787V12.1369C25.6787 10.9689 25.4707 10.0729 25.0547 9.44886C24.6387 8.80886 24.0627 8.48886 23.3267 8.48886C22.5587 8.48886 21.9267 8.85686 21.4307 9.59286C20.9347 10.3289 20.6867 11.2569 20.6867 12.3769V18.7609H17.3507V6.76086H20.5427Z" fill="#181818"/>
<path d="M43.7334 19.0249C42.4694 19.0249 41.4934 18.7369 40.8054 18.1609C40.1174 17.5689 39.7734 16.7849 39.7734 15.8089C39.7734 13.6489 41.6054 12.4329 45.2694 12.1609C46.3094 12.0809 47.0694 11.9209 47.5494 11.6809C48.0454 11.4249 48.2934 11.0409 48.2934 10.5289C48.2934 9.80886 48.0534 9.24886 47.5734 8.84886C47.1094 8.43286 46.4934 8.22486 45.7254 8.22486C44.8934 8.22486 44.1814 8.48086 43.5894 8.99286C43.0134 9.48886 42.6534 10.1609 42.5094 11.0089H40.7094C40.9014 9.61686 41.5014 8.52086 42.5094 7.72086C43.5174 6.92086 44.7734 6.52086 46.2774 6.52086C47.8454 6.52086 49.1014 6.96886 50.0454 7.86486C51.0054 8.74486 51.4854 9.94486 51.4854 11.4649V17.0569H52.8774V18.7609H48.4614V16.4569C48.0294 17.2729 47.3974 17.9049 46.5654 18.3529C45.7494 18.8009 44.8054 19.0249 43.7334 19.0249ZM44.8854 17.2969C45.4934 17.2969 46.0614 17.1369 46.5894 16.8169C47.1174 16.4809 47.5414 16.0249 47.8614 15.4489C48.1814 14.8729 48.3414 14.2249 48.3414 13.5049V12.3769C48.1654 12.5529 47.8774 12.7049 47.4774 12.8329C47.0934 12.9609 46.6534 13.0569 46.1574 13.1209C45.1014 13.2649 44.3414 13.5289 43.8774 13.9129C43.4134 14.2809 43.1814 14.8089 43.1814 15.4969C43.1814 16.0889 43.3334 16.5369 43.6374 16.8409C43.9414 17.1449 44.3574 17.2969 44.8854 17.2969Z" fill="#181818"/>
<path d="M55.3897 1.72086H58.7257V11.8489H60.0938L64.3658 6.76086H66.4298L62.5897 11.4889L67.3898 18.7609H63.5497L60.0457 13.6489H58.7257V18.7609H55.3897V1.72086Z" fill="#181818"/>
<path d="M74.6481 19.0009C73.3841 19.0009 72.2401 18.7369 71.2161 18.2089C70.2081 17.6649 69.4161 16.9209 68.8401 15.9769C68.2641 15.0169 67.9761 13.9449 67.9761 12.7609C67.9761 11.5609 68.2641 10.4889 68.8401 9.54486C69.4161 8.60086 70.2081 7.86486 71.2161 7.33686C72.2241 6.79286 73.3681 6.52086 74.6481 6.52086C75.9121 6.52086 77.0481 6.79286 78.0561 7.33686C79.0801 7.86486 79.8721 8.60086 80.4321 9.54486C81.0081 10.4889 81.2961 11.5609 81.2961 12.7609C81.2961 13.9449 81.0081 15.0169 80.4321 15.9769C79.8721 16.9209 79.0801 17.6649 78.0561 18.2089C77.0481 18.7369 75.9121 19.0009 74.6481 19.0009ZM74.6481 17.2489C75.6241 17.2489 76.4081 16.8489 77.0001 16.0489C77.5921 15.2489 77.8881 14.1529 77.8881 12.7609C77.8881 11.3689 77.5921 10.2729 77.0001 9.47286C76.4081 8.65686 75.6241 8.24886 74.6481 8.24886C73.6721 8.24886 72.8881 8.64886 72.2961 9.44886C71.7041 10.2489 71.4081 11.3529 71.4081 12.7609C71.4081 14.1529 71.7041 15.2489 72.2961 16.0489C72.8881 16.8489 73.6721 17.2489 74.6481 17.2489Z" fill="#181818"/>
<path d="M82.1852 6.76086H85.7612L89.4332 16.2169H89.5292L93.2252 6.76086H95.2172L90.4412 18.7609H86.9612L82.1852 6.76086Z" fill="#181818"/>
<path d="M101.694 19.0489C100.062 19.0489 98.6862 18.6809 97.5662 17.9449C96.4462 17.2089 95.7982 16.1449 95.6222 14.7529H97.5662C97.6942 15.6329 98.1262 16.3129 98.8622 16.7929C99.6142 17.2729 100.502 17.5129 101.526 17.5129C102.246 17.5129 102.878 17.3929 103.422 17.1529C103.982 16.8969 104.262 16.5049 104.262 15.9769C104.262 15.5449 104.054 15.2249 103.638 15.0169C103.238 14.8089 102.51 14.5769 101.454 14.3209C101.358 14.3049 101.11 14.2409 100.71 14.1289C99.2862 13.7929 98.1502 13.3449 97.3022 12.7849C96.4542 12.2089 96.0302 11.3289 96.0302 10.1449C96.0302 8.89686 96.5502 7.97686 97.5902 7.38486C98.6462 6.77686 99.8942 6.47286 101.334 6.47286C102.854 6.47286 104.134 6.82486 105.174 7.52886C106.23 8.23286 106.83 9.26486 106.974 10.6249H105.054C104.894 9.77686 104.478 9.12886 103.806 8.68086C103.15 8.23286 102.334 8.00886 101.358 8.00886C100.686 8.00886 100.094 8.13686 99.5822 8.39286C99.0862 8.63286 98.8382 9.03286 98.8382 9.59286C98.8382 10.0249 99.0622 10.3529 99.5102 10.5769C99.9582 10.8009 100.742 11.0569 101.862 11.3449L102.462 11.4889C103.406 11.7129 104.206 11.9609 104.862 12.2329C105.534 12.4889 106.094 12.8649 106.542 13.3609C107.006 13.8569 107.238 14.4969 107.238 15.2809C107.238 16.1289 106.974 16.8329 106.446 17.3929C105.918 17.9529 105.23 18.3689 104.382 18.6409C103.534 18.9129 102.638 19.0489 101.694 19.0489Z" fill="#181818"/>
<path d="M109.929 1.72086H113.265V11.8489H114.633L118.905 6.76086H120.969L117.129 11.4889L121.929 18.7609H118.089L114.585 13.6489H113.265V18.7609H109.929V1.72086Z" fill="#181818"/>
<path d="M124.155 6.76086H127.491V18.7609H124.155V6.76086ZM123.795 0.880859H127.875L125.955 5.39286H125.715L123.795 0.880859Z" fill="#181818"/>
</svg>
