<svg width="246" height="520" viewBox="0 0 246 520" fill="none" xmlns="http://www.w3.org/2000/svg">
<rect x="1.31751" y="1.31751" width="242.422" height="517.365" rx="14.4926" fill="#F1FBC7" stroke="#181818" stroke-width="2.63503"/>
<path d="M18.7495 44.3086V20.3581H31.9371V44.3086H28.5958V22.7531H22.0908V44.3086H18.7495ZM35.6706 44.3086V20.3581H41.6138C43.0528 20.3581 44.1962 20.6242 45.0438 21.1564C45.9111 21.669 46.5419 22.418 46.9362 23.4037C47.3304 24.3893 47.5275 25.5819 47.5275 26.9814C47.5275 28.243 47.3009 29.3371 46.8475 30.2636C46.4138 31.19 45.7633 31.9095 44.896 32.4221C44.0286 32.9149 42.9444 33.1613 41.6434 33.1613H39.0118V44.3086H35.6706ZM39.0118 30.7662H40.5494C41.5153 30.7662 42.2742 30.6578 42.8262 30.441C43.3781 30.2241 43.7723 29.8496 44.0089 29.3174C44.2454 28.7654 44.3637 27.9966 44.3637 27.011C44.3637 25.8677 44.275 24.9905 44.0976 24.3794C43.9399 23.7683 43.5949 23.3445 43.0627 23.108C42.5305 22.8714 41.7026 22.7531 40.5789 22.7531H39.0118V30.7662ZM55.998 44.5747C54.3816 44.5747 53.0904 44.2593 52.1245 43.6285C51.1586 42.9977 50.4687 42.1008 50.0547 40.9378C49.6408 39.755 49.4338 38.3752 49.4338 36.7982V27.7207C49.4338 26.1437 49.6408 24.7934 50.0547 23.6698C50.4884 22.5265 51.1783 21.6591 52.1245 21.0677C53.0904 20.4567 54.3816 20.1511 55.998 20.1511C57.6144 20.1511 58.8957 20.4567 59.8419 21.0677C60.7881 21.6788 61.4682 22.5462 61.8821 23.6698C62.3158 24.7934 62.5326 26.1437 62.5326 27.7207V36.8278C62.5326 38.385 62.3158 39.7452 61.8821 40.9082C61.4682 42.0712 60.7881 42.978 59.8419 43.6285C58.8957 44.2593 57.6144 44.5747 55.998 44.5747ZM55.998 41.9431C56.8851 41.9431 57.5553 41.7657 58.0087 41.4109C58.462 41.0363 58.7676 40.5238 58.9253 39.8733C59.083 39.2031 59.1618 38.4245 59.1618 37.5374V27.0406C59.1618 26.1535 59.083 25.3946 58.9253 24.7638C58.7676 24.1133 58.462 23.6205 58.0087 23.2854C57.5553 22.9306 56.8851 22.7531 55.998 22.7531C55.1109 22.7531 54.4309 22.9306 53.9578 23.2854C53.5044 23.6205 53.1989 24.1133 53.0412 24.7638C52.8835 25.3946 52.8046 26.1535 52.8046 27.0406V37.5374C52.8046 38.4245 52.8835 39.2031 53.0412 39.8733C53.1989 40.5238 53.5044 41.0363 53.9578 41.4109C54.4309 41.7657 55.1109 41.9431 55.998 41.9431ZM65.8166 44.3086V20.3581H74.9237V22.8419H69.1578V44.3086H65.8166ZM77.2224 44.3086V20.3581H83.1657C84.6047 20.3581 85.748 20.6242 86.5956 21.1564C87.463 21.669 88.0938 22.418 88.488 23.4037C88.8823 24.3893 89.0794 25.5819 89.0794 26.9814C89.0794 28.243 88.8527 29.3371 88.3993 30.2636C87.9656 31.19 87.3151 31.9095 86.4478 32.4221C85.5805 32.9149 84.4963 33.1613 83.1953 33.1613H80.5637V44.3086H77.2224ZM80.5637 30.7662H82.1012C83.0671 30.7662 83.8261 30.6578 84.378 30.441C84.9299 30.2241 85.3242 29.8496 85.5607 29.3174C85.7973 28.7654 85.9156 27.9966 85.9156 27.011C85.9156 25.8677 85.8269 24.9905 85.6494 24.3794C85.4917 23.7683 85.1468 23.3445 84.6145 23.108C84.0823 22.8714 83.2544 22.7531 82.1308 22.7531H80.5637V30.7662ZM89.7816 44.3086L94.8674 20.3581H98.0904L103.206 44.3086H100.042L98.9479 38.2766H94.0691L92.9159 44.3086H89.7816ZM94.5126 35.8816H98.5044L96.4937 25.0891L94.5126 35.8816ZM105.577 44.3086L106.02 20.3581H109.302L113.531 39.7846L117.789 20.3581H121.041L121.485 44.3086H118.794L118.528 26.9223L114.477 44.3086H112.585L108.563 26.9223L108.297 44.3086H105.577ZM125.156 44.3086V20.3581H128.497V30.7071H134.647V20.3581H137.988V44.3086H134.647V33.1021H128.497V44.3086H125.156ZM141.73 44.3086V20.3581H151.015V22.8419H145.072V30.7662H149.891V33.1317H145.072V41.9135H151.074V44.3086H141.73ZM17.2711 78.3086L22.2682 65.7715L17.3598 54.3581H20.4645L24.1014 62.8147L27.4131 54.3581H30.5178L25.4912 66.0377L30.7544 78.3086H27.6497L23.7466 69.2902L20.3758 78.3086H17.2711ZM31.713 78.3086L36.7988 54.3581H40.0218L45.1371 78.3086H41.9733L40.8793 72.2766H36.0005L34.8473 78.3086H31.713ZM36.444 69.8816H40.4357L38.4251 59.0891L36.444 69.8816ZM47.5673 78.3086V54.3581H53.5106C54.9496 54.3581 56.0929 54.6242 56.9405 55.1564C57.8078 55.669 58.4386 56.418 58.8329 57.4037C59.2271 58.3893 59.4243 59.5819 59.4243 60.9814C59.4243 62.243 59.1976 63.3371 58.7442 64.2636C58.3105 65.19 57.66 65.9095 56.7927 66.4221C55.9253 66.9149 54.8411 67.1613 53.5401 67.1613H50.9085V78.3086H47.5673ZM50.9085 64.7662H52.4461C53.412 64.7662 54.1709 64.6578 54.7229 64.441C55.2748 64.2241 55.6691 63.8496 55.9056 63.3174C56.1422 62.7654 56.2604 61.9966 56.2604 61.011C56.2604 59.8677 56.1717 58.9905 55.9943 58.3794C55.8366 57.7683 55.4916 57.3445 54.9594 57.108C54.4272 56.8714 53.5993 56.7531 52.4757 56.7531H50.9085V64.7662ZM70.9403 78.3086V67.25C69.6392 67.5457 68.4664 67.6935 67.4216 67.6935C66.0615 67.6935 64.928 67.4964 64.0212 67.1021C63.1342 66.6882 62.464 66.0672 62.0106 65.2393C61.5769 64.4114 61.3601 63.3765 61.3601 62.1346V54.3581H64.7309V62.1346C64.7309 62.8837 64.8393 63.5145 65.0561 64.027C65.273 64.5198 65.6278 64.8943 66.1206 65.1506C66.6134 65.3872 67.2639 65.5054 68.0721 65.5054C68.4861 65.5054 68.9296 65.4759 69.4027 65.4167C69.8955 65.3576 70.408 65.2689 70.9403 65.1506V54.3581H74.3111V78.3086H70.9403ZM77.7352 81.9455V79.3731C78.7603 79.4716 79.5488 79.4716 80.1007 79.3731C80.6724 79.2745 81.0666 79.0675 81.2835 78.7521C81.52 78.4564 81.6383 78.0523 81.6383 77.5398C81.6383 77.0076 81.5792 76.3768 81.4609 75.6474L76.7299 54.3581H79.8937L81.9044 64.5592L83.1167 72.1583L84.1812 64.6184L85.9849 54.3581H89.1783L84.8908 75.7066C84.6937 76.6725 84.5261 77.5201 84.3882 78.2495C84.2699 78.9788 84.0925 79.5998 83.8559 80.1123C83.6391 80.6248 83.304 81.0289 82.8506 81.3246C82.3972 81.6203 81.7566 81.8174 80.9286 81.916C80.1204 82.0145 79.056 82.0244 77.7352 81.9455ZM91.4003 78.3086V54.3581H96.9C97.9842 54.3581 98.9205 54.4764 99.709 54.7129C100.517 54.9495 101.187 55.3141 101.72 55.807C102.252 56.2998 102.646 56.9306 102.902 57.6993C103.159 58.4484 103.287 59.3355 103.287 60.3605C103.287 61.3461 103.159 62.2036 102.902 62.933C102.666 63.6426 102.291 64.2044 101.779 64.6184C101.286 65.0323 100.645 65.2984 99.8569 65.4167C100.823 65.6336 101.601 66.0081 102.193 66.5403C102.784 67.0528 103.218 67.7231 103.494 68.551C103.789 69.3592 103.937 70.335 103.937 71.4783C103.937 72.5033 103.819 73.4396 103.583 74.2873C103.346 75.1349 102.971 75.8544 102.459 76.4458C101.966 77.0371 101.325 77.5004 100.537 77.8355C99.7682 78.1509 98.8515 78.3086 97.7871 78.3086H91.4003ZM94.7415 75.9135H96.9887C98.4869 75.9135 99.4823 75.5686 99.9752 74.8786C100.488 74.169 100.744 73.0355 100.744 71.4783C100.744 70.4729 100.606 69.6352 100.33 68.9649C100.074 68.275 99.6499 67.7625 99.0585 67.4274C98.4869 67.0726 97.7082 66.8951 96.7226 66.8951H94.7415V75.9135ZM94.7415 64.3523H96.7226C97.6688 64.3523 98.408 64.2241 98.9403 63.9679C99.4725 63.6919 99.847 63.2582 100.064 62.6669C100.281 62.0755 100.389 61.3067 100.389 60.3605C100.389 59.2566 100.222 58.4583 99.8864 57.9655C99.5513 57.4726 99.029 57.1671 98.3193 57.0488C97.6097 56.9108 96.6832 56.8419 95.5399 56.8419H94.7415V64.3523ZM105.605 78.3086L110.691 54.3581H113.914L119.03 78.3086H115.866L114.772 72.2766H109.893L108.74 78.3086H105.605ZM110.336 69.8816H114.328L112.317 59.0891L110.336 69.8816ZM121.46 78.3086V54.3581H124.801V64.7071H130.951V54.3581H134.292V78.3086H130.951V67.1021H124.801V78.3086H121.46ZM138.034 78.3086V54.3581H141.375V64.7071H147.526V54.3581H150.867V78.3086H147.526V67.1021H141.375V78.3086H138.034ZM153.13 78.3086L158.157 67.5457C157.093 67.0726 156.235 66.2939 155.585 65.2097C154.954 64.1059 154.638 62.6964 154.638 60.9814C154.638 59.7001 154.875 58.5667 155.348 57.5811C155.821 56.5757 156.61 55.7872 157.713 55.2156C158.817 54.6439 160.296 54.3581 162.149 54.3581H166.998V78.3086H163.657V68.3736H161.764C161.725 68.3736 161.597 68.3736 161.38 68.3736C161.163 68.3539 161.035 68.344 160.996 68.344L156.856 78.3086H153.13ZM162.415 65.9785H163.657V56.7531H162.326C160.828 56.7531 159.695 57.0784 158.926 57.7289C158.177 58.3794 157.802 59.4537 157.802 60.9519C157.802 62.6471 158.147 63.9087 158.837 64.7366C159.527 65.5646 160.72 65.9785 162.415 65.9785Z" fill="#181818"/>
<rect x="7.02734" y="96.6182" width="231.004" height="416.351" rx="10" fill="white"/>
<rect x="16.8828" y="107.618" width="19.7123" height="19.7123" rx="9.85617" fill="#FFE676"/>
<path d="M26.5041 120.698V114.92C26.4983 114.926 26.4322 114.943 26.3057 114.972C26.185 115.001 26.047 115.029 25.8918 115.058C25.7365 115.087 25.5986 115.113 25.4778 115.136C25.3571 115.159 25.2938 115.17 25.2881 115.17V114.472C25.3858 114.449 25.4979 114.417 25.6244 114.377C25.7567 114.336 25.8889 114.288 26.0211 114.23C26.1591 114.173 26.2885 114.101 26.4092 114.015C26.5357 113.928 26.6421 113.828 26.7283 113.713H27.4269V120.698H26.5041Z" fill="#181818"/>
<path d="M53.9783 126.648L53.8453 124.475H47.3845V112.499H49.0552V123.277H52.4555V112.499H54.1262V123.277H55.2645V126.648H53.9783ZM56.6701 124.475V112.499H58.3111V124.475H56.6701ZM59.3467 124.475V123.233C59.5636 123.243 59.7607 123.228 59.9381 123.188C60.1254 123.149 60.288 123.055 60.426 122.907C60.5738 122.76 60.702 122.528 60.8104 122.213C60.9188 121.897 61.0124 121.468 61.0913 120.926C61.1701 120.384 61.2391 119.699 61.2982 118.871L61.6974 112.499H66.9606V124.475H65.29V113.741H63.1315L62.8506 118.871C62.8013 119.64 62.7373 120.335 62.6584 120.956C62.5796 121.567 62.4613 122.104 62.3036 122.567C62.1557 123.021 61.9537 123.4 61.6974 123.706C61.451 124.002 61.1356 124.213 60.7512 124.342C60.3668 124.47 59.8987 124.514 59.3467 124.475ZM68.839 124.475V112.499H70.5096V117.482H70.9827C71.8501 117.482 72.5647 117.585 73.1265 117.792C73.6883 117.989 74.1072 118.339 74.3831 118.842C74.669 119.344 74.8119 120.054 74.8119 120.971C74.8119 121.592 74.7379 122.124 74.5901 122.567C74.4423 123.001 74.2106 123.361 73.8952 123.647C73.5897 123.933 73.2004 124.144 72.7273 124.282C72.264 124.411 71.7072 124.475 71.0567 124.475H68.839ZM70.5096 123.277H71.0567C71.5593 123.277 71.9684 123.223 72.2838 123.114C72.609 122.996 72.8505 122.769 73.0082 122.434C73.1659 122.099 73.2447 121.606 73.2447 120.956C73.2447 120.138 73.087 119.556 72.7716 119.211C72.4562 118.866 71.8747 118.694 71.0271 118.694H70.5096V123.277Z" fill="#181818"/>
<rect x="18.1133" y="134.635" width="67.6092" height="27.5522" rx="3.69606" fill="#C3E00D"/>
<path d="M42.1048 152.411L43.7705 148.232L42.1344 144.428H43.1693L44.3816 147.246L45.4855 144.428H46.5204L44.8448 148.321L46.5992 152.411H45.5643L44.2633 149.405L43.1397 152.411H42.1048ZM47.2539 153.623V152.766C47.5956 152.799 47.8584 152.799 48.0424 152.766C48.2329 152.733 48.3644 152.664 48.4366 152.559C48.5155 152.46 48.5549 152.326 48.5549 152.155C48.5549 151.977 48.5352 151.767 48.4958 151.524L46.9188 144.428H47.9734L48.6436 147.828L49.0477 150.361L49.4025 147.848L50.0038 144.428H51.0682L49.6391 151.544C49.5734 151.866 49.5175 152.148 49.4715 152.391C49.4321 152.635 49.373 152.842 49.2941 153.012C49.2218 153.183 49.1101 153.318 48.959 153.416C48.8079 153.515 48.5943 153.581 48.3184 153.614C48.049 153.646 47.6941 153.65 47.2539 153.623ZM50.921 153.86V151.613H51.2857C51.3974 151.521 51.5058 151.409 51.6109 151.278C51.7226 151.146 51.8245 150.975 51.9165 150.765C52.015 150.548 52.1037 150.272 52.1826 149.937C52.2614 149.596 52.3304 149.168 52.3896 148.656C52.4553 148.143 52.5046 147.522 52.5374 146.793L52.6655 144.428H56.0068V151.613H56.7756V153.86H55.9181L55.8294 152.411H51.8672L51.7785 153.86H50.921ZM52.3206 151.613H54.9029V145.256H53.6117L53.5329 147.059C53.5066 147.769 53.4639 148.367 53.4048 148.853C53.3522 149.333 53.2865 149.73 53.2076 150.046C53.1354 150.354 53.0499 150.607 52.9514 150.805C52.8594 150.995 52.7575 151.15 52.6458 151.268C52.5407 151.386 52.4323 151.501 52.3206 151.613ZM57.6129 152.411V144.428H58.7266V147.749H59.042C59.6203 147.749 60.0966 147.818 60.4712 147.956C60.8457 148.088 61.125 148.321 61.3089 148.656C61.4995 148.991 61.5948 149.464 61.5948 150.075C61.5948 150.489 61.5455 150.844 61.4469 151.14C61.3484 151.429 61.194 151.669 60.9837 151.859C60.78 152.05 60.5205 152.191 60.2051 152.283C59.8962 152.368 59.525 152.411 59.0913 152.411H57.6129ZM58.7266 151.613H59.0913C59.4264 151.613 59.6991 151.577 59.9094 151.504C60.1262 151.426 60.2872 151.274 60.3923 151.051C60.4975 150.828 60.55 150.499 60.55 150.065C60.55 149.52 60.4449 149.132 60.2346 148.902C60.0244 148.672 59.6367 148.557 59.0716 148.557H58.7266V151.613Z" fill="#181818"/>
<path d="M96.4289 152.5C95.9953 152.5 95.6339 152.418 95.3448 152.253C95.0556 152.089 94.8388 151.853 94.6942 151.544C94.5497 151.235 94.4774 150.87 94.4774 150.45V150.184H95.5222C95.5222 150.23 95.5222 150.279 95.5222 150.331C95.5222 150.377 95.5255 150.42 95.532 150.46C95.5452 150.801 95.6109 151.081 95.7291 151.297C95.8474 151.514 96.0807 151.623 96.4289 151.623C96.6852 151.623 96.879 151.564 97.0104 151.445C97.1419 151.32 97.2306 151.15 97.2766 150.933C97.3226 150.709 97.3456 150.453 97.3456 150.164C97.3456 149.75 97.2536 149.405 97.0696 149.129C96.8856 148.853 96.5374 148.699 96.0248 148.666C95.9985 148.659 95.9657 148.656 95.9263 148.656C95.8934 148.656 95.8573 148.656 95.8179 148.656C95.785 148.656 95.7521 148.656 95.7193 148.656V147.808C95.7456 147.808 95.7751 147.808 95.808 147.808C95.8474 147.808 95.8836 147.808 95.9164 147.808C95.9558 147.802 95.9854 147.798 96.0051 147.798C96.5111 147.766 96.8593 147.634 97.0499 147.404C97.247 147.168 97.3456 146.839 97.3456 146.419C97.3456 146.057 97.2733 145.768 97.1287 145.551C96.9907 145.328 96.741 145.216 96.3797 145.216C96.0314 145.216 95.7817 145.328 95.6306 145.551C95.4795 145.768 95.3907 146.054 95.3645 146.409C95.3645 146.448 95.3645 146.491 95.3645 146.537C95.3645 146.576 95.3645 146.619 95.3645 146.665H94.3099V146.399C94.3099 145.972 94.3887 145.607 94.5464 145.305C94.7041 145.003 94.9341 144.769 95.2363 144.605C95.5386 144.441 95.9066 144.359 96.3402 144.359C96.7805 144.359 97.1517 144.444 97.454 144.615C97.7628 144.779 97.9961 145.016 98.1538 145.325C98.318 145.627 98.4002 145.991 98.4002 146.419C98.4002 146.898 98.295 147.289 98.0848 147.591C97.8811 147.894 97.6051 148.094 97.2569 148.193C97.4934 148.272 97.6971 148.396 97.8679 148.567C98.0388 148.738 98.1702 148.958 98.2622 149.228C98.3542 149.49 98.4002 149.803 98.4002 150.164C98.4002 150.637 98.3345 151.051 98.203 151.406C98.0716 151.754 97.8614 152.023 97.5722 152.214C97.2831 152.405 96.902 152.5 96.4289 152.5ZM99.42 152.411V144.428H102.85V145.236H100.534V147.749H100.78C101.358 147.749 101.835 147.818 102.209 147.956C102.59 148.088 102.873 148.321 103.057 148.656C103.247 148.991 103.343 149.464 103.343 150.075C103.343 150.489 103.293 150.844 103.195 151.14C103.096 151.429 102.942 151.669 102.732 151.859C102.528 152.05 102.268 152.191 101.953 152.283C101.644 152.368 101.273 152.411 100.839 152.411H99.42ZM100.534 151.613H100.849C101.178 151.613 101.447 151.577 101.657 151.504C101.874 151.426 102.032 151.274 102.13 151.051C102.236 150.828 102.288 150.499 102.288 150.065C102.288 149.52 102.183 149.132 101.973 148.902C101.769 148.672 101.385 148.557 100.82 148.557H100.534V151.613ZM104.29 152.411V144.428H107.385V145.256H105.404V147.897H107.011V148.686H105.404V151.613H107.405V152.411H104.29ZM108.304 152.411V144.428H110.285C110.765 144.428 111.146 144.516 111.428 144.694C111.718 144.865 111.928 145.114 112.059 145.443C112.191 145.771 112.256 146.169 112.256 146.635C112.256 147.056 112.181 147.421 112.03 147.729C111.885 148.038 111.668 148.278 111.379 148.449C111.09 148.613 110.729 148.695 110.295 148.695H109.418V152.411H108.304ZM109.418 147.897H109.93C110.252 147.897 110.505 147.861 110.689 147.789C110.873 147.716 111.005 147.591 111.083 147.414C111.162 147.23 111.202 146.974 111.202 146.645C111.202 146.264 111.172 145.972 111.113 145.768C111.06 145.564 110.945 145.423 110.768 145.344C110.591 145.265 110.315 145.226 109.94 145.226H109.418V147.897ZM113.04 152.411V144.428H116.134V145.256H114.153V147.897H115.76V148.686H114.153V151.613H116.154V152.411H113.04ZM116.472 152.411L118.325 148.331L116.659 144.428H117.733L119.231 148.281H119.291V144.428H120.237V148.281H120.306L121.794 144.428H122.878L121.203 148.331L123.066 152.411H121.972L120.316 148.419H120.237V152.411H119.291V148.419H119.222L117.556 152.411H116.472ZM123.714 152.411V144.428H124.7V149.957L127.035 144.428H127.834V152.411H126.858V146.793L124.542 152.411H123.714ZM131.337 152.411V144.428H133.17C133.532 144.428 133.844 144.467 134.107 144.546C134.376 144.625 134.599 144.746 134.777 144.911C134.954 145.075 135.086 145.285 135.171 145.541C135.256 145.791 135.299 146.087 135.299 146.428C135.299 146.757 135.256 147.043 135.171 147.286C135.092 147.522 134.967 147.71 134.797 147.848C134.632 147.986 134.419 148.074 134.156 148.114C134.478 148.186 134.737 148.311 134.935 148.488C135.132 148.659 135.276 148.883 135.368 149.159C135.467 149.428 135.516 149.753 135.516 150.134C135.516 150.476 135.477 150.788 135.398 151.071C135.319 151.353 135.194 151.593 135.023 151.79C134.859 151.987 134.645 152.142 134.383 152.253C134.126 152.359 133.821 152.411 133.466 152.411H131.337ZM132.451 151.613H133.2C133.699 151.613 134.031 151.498 134.195 151.268C134.366 151.031 134.452 150.653 134.452 150.134C134.452 149.799 134.406 149.52 134.314 149.297C134.228 149.067 134.087 148.896 133.89 148.784C133.699 148.666 133.44 148.607 133.111 148.607H132.451V151.613ZM132.451 147.759H133.111C133.427 147.759 133.673 147.716 133.85 147.631C134.028 147.539 134.153 147.394 134.225 147.197C134.297 147 134.333 146.744 134.333 146.428C134.333 146.06 134.277 145.794 134.166 145.63C134.054 145.466 133.88 145.364 133.643 145.325C133.407 145.279 133.098 145.256 132.717 145.256H132.451V147.759ZM136.072 152.411L137.767 144.428H138.842L140.547 152.411H139.492L139.127 150.4H137.501L137.117 152.411H136.072ZM137.649 149.602H138.98L138.309 146.005L137.649 149.602ZM141.357 152.411V144.428H144.393V145.256H142.471V152.411H141.357ZM145.06 153.623V152.766C145.402 152.799 145.665 152.799 145.849 152.766C146.039 152.733 146.171 152.664 146.243 152.559C146.322 152.46 146.361 152.326 146.361 152.155C146.361 151.977 146.341 151.767 146.302 151.524L144.725 144.428H145.78L146.45 147.828L146.854 150.361L147.209 147.848L147.81 144.428H148.875L147.445 151.544C147.38 151.866 147.324 152.148 147.278 152.391C147.238 152.635 147.179 152.842 147.1 153.012C147.028 153.183 146.916 153.318 146.765 153.416C146.614 153.515 146.401 153.581 146.125 153.614C145.855 153.646 145.5 153.65 145.06 153.623Z" fill="#181818"/>
<line x1="157.024" y1="155.803" x2="157.024" y2="141.018" stroke="#A6A6A6" stroke-width="0.616011"/>
<path d="M176.03 152.411V144.428H177.143V147.877H179.193V144.428H180.307V152.411H179.193V148.676H177.143V152.411H176.03ZM181.121 152.411L182.816 144.428H183.89L185.595 152.411H184.541L184.176 150.4H182.55L182.166 152.411H181.121ZM182.698 149.602H184.028L183.358 146.005L182.698 149.602ZM186.406 152.411V144.428H189.835V145.236H187.519V147.749H187.766C188.344 147.749 188.82 147.818 189.195 147.956C189.576 148.088 189.858 148.321 190.042 148.656C190.233 148.991 190.328 149.464 190.328 150.075C190.328 150.489 190.279 150.844 190.18 151.14C190.082 151.429 189.927 151.669 189.717 151.859C189.514 152.05 189.254 152.191 188.939 152.283C188.63 152.368 188.259 152.411 187.825 152.411H186.406ZM187.519 151.613H187.835C188.163 151.613 188.433 151.577 188.643 151.504C188.86 151.426 189.017 151.274 189.116 151.051C189.221 150.828 189.274 150.499 189.274 150.065C189.274 149.52 189.169 149.132 188.958 148.902C188.755 148.672 188.37 148.557 187.805 148.557H187.519V151.613ZM191.276 152.411V144.428H192.262V149.957L194.597 144.428H195.396V152.411H194.42V146.793L192.104 152.411H191.276ZM196.647 152.411V144.428H198.628C199.107 144.428 199.489 144.516 199.771 144.694C200.06 144.865 200.271 145.114 200.402 145.443C200.533 145.771 200.599 146.169 200.599 146.635C200.599 147.056 200.523 147.421 200.372 147.729C200.228 148.038 200.011 148.278 199.722 148.449C199.433 148.613 199.071 148.695 198.638 148.695H197.76V152.411H196.647ZM197.76 147.897H198.273C198.595 147.897 198.848 147.861 199.032 147.789C199.216 147.716 199.347 147.591 199.426 147.414C199.505 147.23 199.544 146.974 199.544 146.645C199.544 146.264 199.515 145.972 199.456 145.768C199.403 145.564 199.288 145.423 199.111 145.344C198.933 145.265 198.657 145.226 198.283 145.226H197.76V147.897ZM200.833 152.411L202.528 144.428H203.603L205.308 152.411H204.253L203.889 150.4H202.262L201.878 152.411H200.833ZM202.41 149.602H203.741L203.07 146.005L202.41 149.602ZM206.118 152.411V144.428H207.104V149.957L209.439 144.428H210.238V152.411H209.262V146.793L206.946 152.411H206.118ZM208.276 143.807C207.803 143.807 207.468 143.679 207.271 143.422C207.081 143.166 206.985 142.847 206.985 142.466H207.596C207.603 142.703 207.655 142.887 207.754 143.018C207.859 143.143 208.033 143.205 208.276 143.205C208.526 143.205 208.7 143.14 208.799 143.008C208.904 142.877 208.956 142.696 208.956 142.466H209.577C209.577 142.847 209.479 143.166 209.282 143.422C209.091 143.679 208.756 143.807 208.276 143.807Z" fill="#181818"/>
<rect x="17.1908" y="133.71" width="210.676" height="29.4003" rx="4.62008" stroke="#A6A6A6" stroke-width="0.616011"/>
<rect x="16.8828" y="180.373" width="19.7123" height="19.7123" rx="9.85617" fill="#FFE676"/>
<path d="M25.0334 193.453V192.798L26.81 190.029C26.9423 189.822 27.063 189.63 27.1722 189.452C27.2872 189.273 27.3792 189.086 27.4482 188.891C27.5229 188.69 27.5603 188.46 27.5603 188.201C27.5603 187.879 27.5086 187.626 27.4051 187.442C27.3016 187.258 27.1205 187.166 26.8618 187.166C26.6433 187.166 26.4737 187.226 26.3529 187.347C26.2322 187.468 26.1488 187.626 26.1028 187.822C26.0568 188.017 26.0338 188.227 26.0338 188.451V188.684H25.1111V188.442C25.1111 188.023 25.1657 187.663 25.2749 187.364C25.3899 187.06 25.571 186.824 25.8182 186.657C26.0712 186.491 26.4047 186.407 26.8186 186.407C27.3821 186.407 27.8018 186.568 28.0778 186.89C28.3537 187.206 28.4917 187.646 28.4917 188.21C28.4917 188.509 28.4544 188.77 28.3796 188.994C28.3106 189.219 28.2186 189.429 28.1036 189.624C27.9886 189.819 27.8622 190.021 27.7242 190.228L26.1201 192.677H28.3279V193.453H25.0334Z" fill="#181818"/>
<path d="M50.3857 197.363C49.5381 197.363 48.8777 197.185 48.4046 196.83C47.9414 196.475 47.6162 195.997 47.4289 195.396C47.2515 194.795 47.1628 194.125 47.1628 193.386V189.157C47.1628 188.349 47.2515 187.644 47.4289 187.043C47.6162 186.442 47.9414 185.979 48.4046 185.653C48.8777 185.318 49.5381 185.151 50.3857 185.151C51.1348 185.151 51.7262 185.289 52.1598 185.565C52.6034 185.841 52.9188 186.235 53.106 186.747C53.3032 187.26 53.4017 187.876 53.4017 188.595V189.542H51.8198V188.699C51.8198 188.255 51.7952 187.866 51.7459 187.531C51.7065 187.186 51.5882 186.92 51.3911 186.733C51.1939 186.545 50.8638 186.452 50.4005 186.452C49.9274 186.452 49.5825 186.555 49.3656 186.762C49.1488 186.959 49.0059 187.245 48.9369 187.62C48.8777 187.984 48.8482 188.413 48.8482 188.906V193.652C48.8482 194.253 48.8975 194.731 48.996 195.086C49.0946 195.431 49.2572 195.677 49.4839 195.825C49.7106 195.973 50.0161 196.047 50.4005 196.047C50.8539 196.047 51.1792 195.948 51.3763 195.751C51.5734 195.544 51.6966 195.263 51.7459 194.908C51.7952 194.554 51.8198 194.14 51.8198 193.666V192.779H53.4017V193.666C53.4017 194.396 53.313 195.041 53.1356 195.603C52.9582 196.155 52.6527 196.589 52.219 196.904C51.7853 197.21 51.1742 197.363 50.3857 197.363ZM54.9932 197.229V185.254H56.4717V193.548L59.9755 185.254H61.173V197.229H59.7094V188.802L56.2351 197.229H54.9932ZM66.0507 197.363C65.2031 197.363 64.5427 197.185 64.0696 196.83C63.6064 196.475 63.2811 195.997 63.0938 195.396C62.9164 194.795 62.8277 194.125 62.8277 193.386V189.157C62.8277 188.349 62.9164 187.644 63.0938 187.043C63.2811 186.442 63.6064 185.979 64.0696 185.653C64.5427 185.318 65.2031 185.151 66.0507 185.151C66.7998 185.151 67.3911 185.289 67.8248 185.565C68.2683 185.841 68.5837 186.235 68.771 186.747C68.9681 187.26 69.0667 187.876 69.0667 188.595V189.542H67.4848V188.699C67.4848 188.255 67.4601 187.866 67.4108 187.531C67.3714 187.186 67.2531 186.92 67.056 186.733C66.8589 186.545 66.5287 186.452 66.0655 186.452C65.5924 186.452 65.2474 186.555 65.0306 186.762C64.8137 186.959 64.6708 187.245 64.6018 187.62C64.5427 187.984 64.5131 188.413 64.5131 188.906V193.652C64.5131 194.253 64.5624 194.731 64.661 195.086C64.7595 195.431 64.9222 195.677 65.1489 195.825C65.3755 195.973 65.6811 196.047 66.0655 196.047C66.5189 196.047 66.8441 195.948 67.0412 195.751C67.2384 195.544 67.3616 195.263 67.4108 194.908C67.4601 194.554 67.4848 194.14 67.4848 193.666V192.779H69.0667V193.666C69.0667 194.396 68.978 195.041 68.8006 195.603C68.6232 196.155 68.3176 196.589 67.8839 196.904C67.4503 197.21 66.8392 197.363 66.0507 197.363ZM71.974 197.229V186.496H69.9485V185.254H75.6109V186.496H73.6446V197.229H71.974ZM76.7654 197.229V185.254H81.4076V186.496H78.436V190.458H80.8458V191.641H78.436V196.032H81.4372V197.229H76.7654ZM82.7563 197.229L82.9781 185.254H84.6191L86.7333 194.968L88.8622 185.254H90.4885L90.7103 197.229H89.3649L89.2318 188.536L87.2064 197.229H86.2602L84.2495 188.536L84.1165 197.229H82.7563ZM91.8953 197.229L94.4382 185.254H96.0497L98.6074 197.229H97.0254L96.4784 194.214H94.039L93.4624 197.229H91.8953ZM94.2608 193.016H96.2567L95.2513 187.62L94.2608 193.016Z" fill="#181818"/>
<path d="M29.8141 226.486V220.156C29.4752 220.156 29.1852 220.036 28.9439 219.794C28.7027 219.553 28.582 219.263 28.582 218.924V215.752C28.582 215.659 28.618 215.577 28.6898 215.505C28.7617 215.433 28.8438 215.397 28.9362 215.397C29.0286 215.397 29.1133 215.433 29.1903 215.505C29.2673 215.577 29.3058 215.659 29.3058 215.752V217.939H29.9219V215.752C29.9219 215.659 29.9578 215.577 30.0297 215.505C30.1015 215.433 30.1837 215.397 30.2761 215.397C30.3685 215.397 30.4506 215.433 30.5225 215.505C30.5943 215.577 30.6303 215.659 30.6303 215.752V217.939H31.2463V215.752C31.2463 215.659 31.2848 215.577 31.3618 215.505C31.4388 215.433 31.5235 215.397 31.6159 215.397C31.7083 215.397 31.7904 215.433 31.8623 215.505C31.9342 215.577 31.9701 215.659 31.9701 215.752V218.924C31.9701 219.263 31.8495 219.553 31.6082 219.794C31.3669 220.036 31.0769 220.156 30.7381 220.156V226.486H29.8141ZM34.1261 226.486V220.125C33.7052 219.889 33.3869 219.571 33.1713 219.171C32.9557 218.77 32.8479 218.308 32.8479 217.785C32.8479 217.168 33.0045 216.617 33.3176 216.129C33.6308 215.641 34.0594 215.397 34.6035 215.397C35.1477 215.397 35.5763 215.641 35.8895 216.129C36.2026 216.617 36.3592 217.168 36.3592 217.785C36.3592 218.308 36.2462 218.77 36.0204 219.171C35.7945 219.571 35.4711 219.889 35.0501 220.125V226.486H34.1261ZM37.4218 226.486V215.397C38.0173 215.449 38.5409 215.682 38.9926 216.098C39.4444 216.514 39.6702 217.03 39.6702 217.646V221.404H38.3458V226.486H37.4218Z" fill="#181818"/>
<path d="M44.6684 224.942V216.959H45.7624V224.942H44.6684ZM45.5258 215.766V214.672H46.5903V215.766H45.5258ZM43.8306 215.766V214.672H44.895V215.766H43.8306ZM47.0343 224.942L47.1821 216.959H48.2762L49.6856 223.434L51.1049 216.959H52.1891L52.3369 224.942H51.44L51.3513 219.147L50.001 224.942H49.3702L48.0298 219.147L47.9411 224.942H47.0343ZM55.7144 226.155V225.297C56.056 225.33 56.3189 225.33 56.5028 225.297C56.6934 225.264 56.8248 225.195 56.8971 225.09C56.9759 224.992 57.0154 224.857 57.0154 224.686C57.0154 224.509 56.9957 224.298 56.9562 224.055L55.3792 216.959H56.4339L57.1041 220.359L57.5082 222.892L57.863 220.379L58.4642 216.959H59.5287L58.0995 224.075C58.0338 224.397 57.978 224.68 57.932 224.923C57.8926 225.166 57.8334 225.373 57.7546 225.544C57.6823 225.714 57.5706 225.849 57.4195 225.948C57.2683 226.046 57.0548 226.112 56.7788 226.145C56.5094 226.178 56.1546 226.181 55.7144 226.155ZM62.2702 225.031C61.7051 225.031 61.2648 224.913 60.9494 224.676C60.6406 224.44 60.4238 224.121 60.2989 223.72C60.1807 223.319 60.1215 222.873 60.1215 222.38V219.561C60.1215 219.022 60.1807 218.552 60.2989 218.151C60.4238 217.751 60.6406 217.442 60.9494 217.225C61.2648 217.002 61.7051 216.89 62.2702 216.89C62.7695 216.89 63.1638 216.982 63.4529 217.166C63.7486 217.35 63.9589 217.613 64.0837 217.954C64.2151 218.296 64.2808 218.707 64.2808 219.186V219.817H63.2262V219.255C63.2262 218.96 63.2098 218.7 63.1769 218.477C63.1507 218.247 63.0718 218.069 62.9404 217.945C62.809 217.82 62.5889 217.757 62.28 217.757C61.9646 217.757 61.7346 217.826 61.5901 217.964C61.4455 218.096 61.3503 218.286 61.3043 218.536C61.2648 218.779 61.2451 219.065 61.2451 219.393V222.557C61.2451 222.958 61.278 223.277 61.3437 223.513C61.4094 223.743 61.5178 223.907 61.6689 224.006C61.8201 224.105 62.0238 224.154 62.28 224.154C62.5823 224.154 62.7991 224.088 62.9305 223.957C63.0619 223.819 63.1441 223.632 63.1769 223.395C63.2098 223.158 63.2262 222.882 63.2262 222.567V221.976H64.2808V222.567C64.2808 223.053 64.2217 223.484 64.1034 223.858C63.9851 224.226 63.7814 224.515 63.4923 224.726C63.2032 224.929 62.7958 225.031 62.2702 225.031ZM65.401 224.942V216.959H66.495V224.942H65.401Z" fill="#181818"/>
<rect x="201.07" y="208.621" width="24.6404" height="24.6404" rx="3.69606" fill="#EBEBEB"/>
<g clip-path="url(#clip0_2573_7762)">
<path d="M213.39 222.174L210.926 219.71H215.854L213.39 222.174Z" fill="#181818"/>
</g>
<rect x="17.1908" y="206.465" width="210.676" height="28.9525" rx="4.62008" stroke="#A6A6A6" stroke-width="0.616011"/>
<rect x="16.8828" y="252.68" width="19.7123" height="19.7123" rx="9.85617" fill="#FFE676"/>
<path d="M26.7366 265.837C26.3571 265.837 26.0409 265.766 25.788 265.622C25.535 265.478 25.3452 265.271 25.2188 265.001C25.0923 264.731 25.029 264.412 25.029 264.044V263.811H25.9432C25.9432 263.834 25.9432 263.86 25.9432 263.888C25.9432 263.911 25.9432 263.937 25.9432 263.966C25.9489 264.173 25.9719 264.36 26.0122 264.527C26.0582 264.693 26.1358 264.825 26.245 264.923C26.36 265.021 26.5239 265.07 26.7366 265.07C26.9608 265.07 27.1304 265.018 27.2454 264.915C27.3604 264.805 27.438 264.653 27.4783 264.458C27.5185 264.262 27.5387 264.038 27.5387 263.785C27.5387 263.417 27.4697 263.118 27.3317 262.888C27.1994 262.652 26.9637 262.523 26.6245 262.5C26.6072 262.494 26.5842 262.491 26.5555 262.491C26.5325 262.491 26.5124 262.491 26.4951 262.491V261.568C26.5124 261.568 26.5325 261.568 26.5555 261.568C26.5785 261.568 26.5986 261.568 26.6159 261.568C26.9436 261.557 27.1793 261.471 27.323 261.31C27.4668 261.149 27.5387 260.881 27.5387 260.508C27.5387 260.191 27.484 259.938 27.3748 259.749C27.2713 259.559 27.0614 259.464 26.7452 259.464C26.429 259.464 26.2192 259.571 26.1157 259.783C26.0122 259.99 25.9547 260.258 25.9432 260.585C25.9432 260.608 25.9432 260.634 25.9432 260.663C25.9432 260.686 25.9432 260.709 25.9432 260.732H25.029V260.499C25.029 260.125 25.0923 259.806 25.2188 259.542C25.3452 259.277 25.535 259.073 25.788 258.929C26.0467 258.786 26.3658 258.714 26.7452 258.714C27.1304 258.714 27.4495 258.786 27.7025 258.929C27.9555 259.073 28.1452 259.28 28.2717 259.55C28.3982 259.815 28.4614 260.134 28.4614 260.508C28.4614 260.927 28.3694 261.264 28.1855 261.517C28.0072 261.77 27.7658 261.942 27.461 262.034C27.6738 262.097 27.852 262.207 27.9957 262.362C28.1452 262.517 28.2602 262.715 28.3407 262.957C28.4212 263.193 28.4614 263.469 28.4614 263.785C28.4614 264.199 28.4039 264.561 28.289 264.871C28.174 265.176 27.99 265.415 27.737 265.587C27.484 265.754 27.1506 265.837 26.7366 265.837Z" fill="#181818"/>
<path d="M50.3857 269.669C49.5381 269.669 48.8777 269.492 48.4046 269.137C47.9414 268.782 47.6162 268.304 47.4289 267.703C47.2515 267.102 47.1628 266.431 47.1628 265.692V261.464C47.1628 260.656 47.2515 259.951 47.4289 259.35C47.6162 258.749 47.9414 258.285 48.4046 257.96C48.8777 257.625 49.5381 257.457 50.3857 257.457C51.1348 257.457 51.7262 257.595 52.1598 257.871C52.6034 258.147 52.9188 258.542 53.106 259.054C53.3032 259.567 53.4017 260.183 53.4017 260.902V261.848H51.8198V261.006C51.8198 260.562 51.7952 260.173 51.7459 259.838C51.7065 259.493 51.5882 259.227 51.3911 259.039C51.1939 258.852 50.8638 258.758 50.4005 258.758C49.9274 258.758 49.5825 258.862 49.3656 259.069C49.1488 259.266 49.0059 259.552 48.9369 259.926C48.8777 260.291 48.8482 260.72 48.8482 261.213V265.958C48.8482 266.56 48.8975 267.038 48.996 267.392C49.0946 267.737 49.2572 267.984 49.4839 268.132C49.7106 268.279 50.0161 268.353 50.4005 268.353C50.8539 268.353 51.1792 268.255 51.3763 268.058C51.5734 267.851 51.6966 267.57 51.7459 267.215C51.7952 266.86 51.8198 266.446 51.8198 265.973V265.086H53.4017V265.973C53.4017 266.702 53.313 267.348 53.1356 267.91C52.9582 268.462 52.6527 268.895 52.219 269.211C51.7853 269.516 51.1742 269.669 50.3857 269.669ZM56.309 269.536V258.803H54.2836V257.561H59.946V258.803H57.9796V269.536H56.309ZM60.4499 269.536L62.9928 257.561H64.6043L67.1619 269.536H65.58L65.033 266.52H62.5936L62.017 269.536H60.4499ZM62.8154 265.323H64.8112L63.8059 259.926L62.8154 265.323ZM69.303 269.536V258.803H67.2776V257.561H72.9399V258.803H70.9736V269.536H69.303ZM74.0944 269.536V257.561H75.765V262.543H76.2381C77.1054 262.543 77.82 262.647 78.3818 262.854C78.9436 263.051 79.3625 263.401 79.6385 263.903C79.9243 264.406 80.0672 265.116 80.0672 266.032C80.0672 266.653 79.9933 267.185 79.8454 267.629C79.6976 268.063 79.466 268.422 79.1506 268.708C78.845 268.994 78.4557 269.206 77.9826 269.344C77.5194 269.472 76.9625 269.536 76.312 269.536H74.0944ZM75.765 268.339H76.312C76.8147 268.339 77.2237 268.284 77.5391 268.176C77.8644 268.058 78.1058 267.831 78.2635 267.496C78.4212 267.161 78.5001 266.668 78.5001 266.017C78.5001 265.199 78.3424 264.618 78.027 264.273C77.7116 263.928 77.1301 263.755 76.2824 263.755H75.765V268.339Z" fill="#181818"/>
<rect x="18.1133" y="279.696" width="99.4857" height="27.5522" rx="3.69606" fill="#C3E00D"/>
<path d="M51.9639 298.922V296.674H52.3286C52.4403 296.582 52.5487 296.471 52.6538 296.339C52.7655 296.208 52.8674 296.037 52.9594 295.827C53.0579 295.61 53.1466 295.334 53.2255 294.999C53.3043 294.657 53.3733 294.23 53.4325 293.717C53.4982 293.205 53.5474 292.584 53.5803 291.855L53.7084 289.489H57.0497V296.674H57.8185V298.922H56.961L56.8723 297.473H52.9101L52.8214 298.922H51.9639ZM53.3635 296.674H55.9458V290.317H54.6546L54.5758 292.121C54.5495 292.83 54.5068 293.428 54.4476 293.915C54.3951 294.394 54.3294 294.792 54.2505 295.107C54.1782 295.416 54.0928 295.669 53.9943 295.866C53.9023 296.057 53.8004 296.211 53.6887 296.329C53.5836 296.448 53.4752 296.563 53.3635 296.674ZM58.0545 297.473V296.645C58.1991 296.651 58.3305 296.641 58.4488 296.615C58.5736 296.589 58.682 296.526 58.774 296.428C58.8726 296.329 58.958 296.175 59.0303 295.965C59.1026 295.754 59.165 295.469 59.2176 295.107C59.2701 294.746 59.3161 294.289 59.3556 293.737L59.6217 289.489H63.1305V297.473H62.0167V290.317H60.5777L60.3904 293.737C60.3576 294.25 60.3149 294.713 60.2623 295.127C60.2098 295.534 60.1309 295.892 60.0258 296.201C59.9272 296.503 59.7925 296.756 59.6217 296.96C59.4574 297.157 59.2471 297.299 58.9909 297.384C58.7346 297.469 58.4225 297.499 58.0545 297.473ZM63.8899 297.473L65.5655 293.885C65.2107 293.727 64.9248 293.468 64.708 293.106C64.4977 292.738 64.3926 292.269 64.3926 291.697C64.3926 291.27 64.4714 290.892 64.6291 290.563C64.7868 290.228 65.0497 289.966 65.4176 289.775C65.7856 289.584 66.2784 289.489 66.8961 289.489H68.5125V297.473H67.3987V294.161H66.7679C66.7548 294.161 66.7121 294.161 66.6398 294.161C66.5675 294.154 66.5248 294.151 66.5117 294.151L65.1318 297.473H63.8899ZM66.9848 293.363H67.3987V290.288H66.9552C66.4558 290.288 66.078 290.396 65.8217 290.613C65.572 290.83 65.4472 291.188 65.4472 291.687C65.4472 292.252 65.5622 292.673 65.7922 292.949C66.0221 293.225 66.4197 293.363 66.9848 293.363ZM72.0059 297.473V289.489H73.1196V292.939H75.1697V289.489H76.2834V297.473H75.1697V293.737H73.1196V297.473H72.0059ZM77.5307 297.473V289.489H80.6256V290.317H78.6445V292.959H80.251V293.747H78.6445V296.674H80.6453V297.473H77.5307ZM81.6035 297.473V289.489H82.6976V297.473H81.6035ZM82.461 288.297V287.203H83.5255V288.297H82.461ZM80.7658 288.297V287.203H81.8302V288.297H80.7658Z" fill="#181818"/>
<path d="M154.808 298.922V296.674H155.172C155.284 296.582 155.392 296.471 155.498 296.339C155.609 296.208 155.711 296.037 155.803 295.827C155.902 295.61 155.99 295.334 156.069 294.999C156.148 294.657 156.217 294.23 156.276 293.717C156.342 293.205 156.391 292.584 156.424 291.855L156.552 289.489H159.893V296.674H160.662V298.922H159.805L159.716 297.473H155.754L155.665 298.922H154.808ZM156.207 296.674H158.79V290.317H157.498L157.42 292.121C157.393 292.83 157.351 293.428 157.291 293.915C157.239 294.394 157.173 294.792 157.094 295.107C157.022 295.416 156.937 295.669 156.838 295.866C156.746 296.057 156.644 296.211 156.532 296.329C156.427 296.448 156.319 296.563 156.207 296.674ZM160.898 297.473V296.645C161.043 296.651 161.174 296.641 161.293 296.615C161.417 296.589 161.526 296.526 161.618 296.428C161.716 296.329 161.802 296.175 161.874 295.965C161.946 295.754 162.009 295.469 162.061 295.107C162.114 294.746 162.16 294.289 162.199 293.737L162.465 289.489H165.974V297.473H164.86V290.317H163.421L163.234 293.737C163.201 294.25 163.159 294.713 163.106 295.127C163.054 295.534 162.975 295.892 162.87 296.201C162.771 296.503 162.636 296.756 162.465 296.96C162.301 297.157 162.091 297.299 161.835 297.384C161.578 297.469 161.266 297.499 160.898 297.473ZM166.734 297.473L168.409 293.885C168.054 293.727 167.769 293.468 167.552 293.106C167.341 292.738 167.236 292.269 167.236 291.697C167.236 291.27 167.315 290.892 167.473 290.563C167.631 290.228 167.893 289.966 168.261 289.775C168.629 289.584 169.122 289.489 169.74 289.489H171.356V297.473H170.242V294.161H169.612C169.599 294.161 169.556 294.161 169.484 294.161C169.411 294.154 169.369 294.151 169.355 294.151L167.976 297.473H166.734ZM169.829 293.363H170.242V290.288H169.799C169.3 290.288 168.922 290.396 168.665 290.613C168.416 290.83 168.291 291.188 168.291 291.687C168.291 292.252 168.406 292.673 168.636 292.949C168.866 293.225 169.263 293.363 169.829 293.363ZM174.85 297.473V289.489H175.963V292.939H178.013V289.489H179.127V297.473H178.013V293.737H175.963V297.473H174.85ZM180.374 297.473V289.489H181.488V292.811H181.804C182.382 292.811 182.858 292.88 183.233 293.018C183.607 293.149 183.887 293.382 184.071 293.717C184.261 294.053 184.356 294.526 184.356 295.137C184.356 295.551 184.307 295.906 184.209 296.201C184.11 296.49 183.956 296.73 183.745 296.921C183.542 297.111 183.282 297.253 182.967 297.345C182.658 297.43 182.287 297.473 181.853 297.473H180.374ZM181.488 296.674H181.853C182.188 296.674 182.461 296.638 182.671 296.566C182.888 296.487 183.049 296.336 183.154 296.113C183.259 295.889 183.312 295.561 183.312 295.127C183.312 294.582 183.206 294.194 182.996 293.964C182.786 293.734 182.398 293.619 181.833 293.619H181.488V296.674ZM187.285 297.561C186.746 297.561 186.316 297.456 185.994 297.246C185.672 297.036 185.442 296.737 185.304 296.349C185.166 295.955 185.097 295.495 185.097 294.969V291.943C185.097 291.418 185.166 290.968 185.304 290.593C185.448 290.212 185.678 289.923 185.994 289.726C186.316 289.522 186.746 289.42 187.285 289.42C187.824 289.42 188.251 289.522 188.566 289.726C188.882 289.929 189.108 290.219 189.246 290.593C189.391 290.968 189.463 291.418 189.463 291.943V294.979C189.463 295.498 189.391 295.952 189.246 296.339C189.108 296.727 188.882 297.029 188.566 297.246C188.251 297.456 187.824 297.561 187.285 297.561ZM187.285 296.684C187.581 296.684 187.804 296.625 187.955 296.507C188.106 296.382 188.208 296.211 188.261 295.994C188.313 295.771 188.34 295.511 188.34 295.216V291.717C188.34 291.421 188.313 291.168 188.261 290.958C188.208 290.741 188.106 290.577 187.955 290.465C187.804 290.347 187.581 290.288 187.285 290.288C186.989 290.288 186.763 290.347 186.605 290.465C186.454 290.577 186.352 290.741 186.299 290.958C186.247 291.168 186.221 291.421 186.221 291.717V295.216C186.221 295.511 186.247 295.771 186.299 295.994C186.352 296.211 186.454 296.382 186.605 296.507C186.763 296.625 186.989 296.684 187.285 296.684ZM190.558 297.473V289.489H193.594V290.317H191.672V297.473H190.558ZM196.4 297.561C195.861 297.561 195.431 297.456 195.109 297.246C194.787 297.036 194.557 296.737 194.419 296.349C194.281 295.955 194.212 295.495 194.212 294.969V291.943C194.212 291.418 194.281 290.968 194.419 290.593C194.564 290.212 194.794 289.923 195.109 289.726C195.431 289.522 195.861 289.42 196.4 289.42C196.939 289.42 197.366 289.522 197.681 289.726C197.997 289.929 198.223 290.219 198.361 290.593C198.506 290.968 198.578 291.418 198.578 291.943V294.979C198.578 295.498 198.506 295.952 198.361 296.339C198.223 296.727 197.997 297.029 197.681 297.246C197.366 297.456 196.939 297.561 196.4 297.561ZM196.4 296.684C196.696 296.684 196.919 296.625 197.07 296.507C197.221 296.382 197.323 296.211 197.376 295.994C197.428 295.771 197.455 295.511 197.455 295.216V291.717C197.455 291.421 197.428 291.168 197.376 290.958C197.323 290.741 197.221 290.577 197.07 290.465C196.919 290.347 196.696 290.288 196.4 290.288C196.104 290.288 195.878 290.347 195.72 290.465C195.569 290.577 195.467 290.741 195.414 290.958C195.362 291.168 195.336 291.421 195.336 291.717V295.216C195.336 295.511 195.362 295.771 195.414 295.994C195.467 296.211 195.569 296.382 195.72 296.507C195.878 296.625 196.104 296.684 196.4 296.684Z" fill="#181818"/>
<rect x="17.1908" y="278.772" width="210.676" height="29.4003" rx="4.62008" stroke="#A6A6A6" stroke-width="0.616011"/>
<rect x="16.8828" y="325.434" width="19.7123" height="19.7123" rx="9.85617" fill="#FFE676"/>
<path d="M27.0262 338.514V336.642H24.9995V335.676L26.8192 331.528H27.9059V335.823H28.6907V336.642H27.9059V338.514H27.0262ZM25.8878 335.823H27.0262V332.649L25.8878 335.823Z" fill="#181818"/>
<path d="M47.3845 342.29V330.315H49.0552V335.637H49.6761L51.8198 330.315H53.4904L51.1249 336.007L53.7861 342.29H52.1155L49.6909 336.45H49.0552V342.29H47.3845ZM54.8922 342.29V330.315H56.5628V335.637H57.1837L59.3274 330.315H60.9981L58.6326 336.007L61.2937 342.29H59.6231L57.1985 336.45H56.5628V342.29H54.8922ZM61.7493 342.29L64.2922 330.315H65.9037L68.4613 342.29H66.8794L66.3324 339.274H63.893L63.3164 342.29H61.7493ZM64.1148 338.077H66.1106L65.1053 332.68L64.1148 338.077ZM68.7746 342.29V341.048C68.9914 341.058 69.1885 341.043 69.3659 341.004C69.5532 340.964 69.7158 340.871 69.8538 340.723C70.0017 340.575 70.1298 340.343 70.2382 340.028C70.3466 339.713 70.4403 339.284 70.5191 338.742C70.598 338.2 70.667 337.515 70.7261 336.687L71.1253 330.315H76.3885V342.29H74.7178V331.557H72.5593L72.2784 336.687C72.2292 337.456 72.1651 338.15 72.0863 338.771C72.0074 339.382 71.8891 339.92 71.7314 340.383C71.5836 340.836 71.3815 341.216 71.1253 341.521C70.8789 341.817 70.5635 342.029 70.1791 342.157C69.7947 342.285 69.3265 342.329 68.7746 342.29ZM81.6453 342.29V330.315H83.3159V335.489H86.3911V330.315H88.0617V342.29H86.3911V336.687H83.3159V342.29H81.6453ZM89.2821 342.29L91.825 330.315H93.4364L95.9941 342.29H94.4122L93.8652 339.274H91.4258L90.8492 342.29H89.2821ZM91.6476 338.077H93.6434L92.6381 332.68L91.6476 338.077ZM99.8189 344.463V341.093H100.366C100.533 340.955 100.696 340.787 100.854 340.59C101.021 340.393 101.174 340.136 101.312 339.821C101.46 339.496 101.593 339.082 101.711 338.579C101.83 338.067 101.933 337.426 102.022 336.657C102.12 335.888 102.194 334.957 102.243 333.863L102.436 330.315H107.448V341.093H108.601V344.463H107.314L107.181 342.29H101.238L101.105 344.463H99.8189ZM101.918 341.093H105.792V331.557H103.855L103.737 334.262C103.697 335.327 103.633 336.224 103.544 336.953C103.466 337.672 103.367 338.269 103.249 338.742C103.14 339.205 103.012 339.585 102.864 339.88C102.726 340.166 102.574 340.398 102.406 340.575C102.248 340.752 102.086 340.925 101.918 341.093ZM109.857 342.29V330.315H114.499V331.557H111.527V335.519H113.937V336.702H111.527V341.093H114.528V342.29H109.857ZM115.877 342.29V330.315H117.548V335.489H120.623V330.315H122.294V342.29H120.623V336.687H117.548V342.29H115.877ZM124.164 342.29V330.315H125.835V335.297H126.308C127.176 335.297 127.89 335.401 128.452 335.608C129.014 335.805 129.433 336.155 129.709 336.657C129.994 337.16 130.137 337.87 130.137 338.786C130.137 339.407 130.063 339.939 129.916 340.383C129.768 340.817 129.536 341.176 129.221 341.462C128.915 341.748 128.526 341.96 128.053 342.098C127.59 342.226 127.033 342.29 126.382 342.29H124.164ZM125.835 341.093H126.382C126.885 341.093 127.294 341.038 127.609 340.93C127.934 340.812 128.176 340.585 128.334 340.25C128.491 339.915 128.57 339.422 128.57 338.771C128.57 337.953 128.412 337.372 128.097 337.027C127.782 336.682 127.2 336.509 126.353 336.509H125.835V341.093Z" fill="#181818"/>
<path d="M27.3592 370.502V362.518H28.473V365.968H30.5231V362.518H31.6368V370.502H30.5231V366.766H28.473V370.502H27.3592ZM32.4504 370.502L34.1457 362.518H35.22L36.9251 370.502H35.8705L35.5058 368.491H33.8795L33.4951 370.502H32.4504ZM34.0274 367.693H35.358L34.6877 364.095L34.0274 367.693ZM41.8305 370.591C41.3509 370.591 40.9665 370.495 40.6774 370.305C40.3883 370.114 40.178 369.845 40.0466 369.497C39.9217 369.142 39.8593 368.728 39.8593 368.255C39.8593 367.985 39.8823 367.749 39.9283 367.545C39.9743 367.341 40.04 367.164 40.1254 367.013C40.2174 366.855 40.3225 366.72 40.4408 366.609C40.5657 366.49 40.7004 366.385 40.8449 366.293C40.5821 366.116 40.3685 365.886 40.2043 365.603C40.04 365.314 39.9579 364.95 39.9579 364.509C39.9579 364.089 40.0236 363.724 40.155 363.415C40.2864 363.107 40.4901 362.87 40.7661 362.706C41.0486 362.535 41.4034 362.449 41.8305 362.449C42.2576 362.449 42.6059 362.535 42.8753 362.706C43.1513 362.87 43.355 363.107 43.4864 363.415C43.6178 363.724 43.6835 364.089 43.6835 364.509C43.6835 364.956 43.6014 365.321 43.4371 365.603C43.2794 365.886 43.0658 366.116 42.7964 366.293C42.941 366.385 43.0724 366.49 43.1907 366.609C43.3155 366.72 43.4207 366.855 43.5061 367.013C43.5981 367.164 43.6671 367.341 43.7131 367.545C43.7656 367.749 43.7919 367.985 43.7919 368.255C43.7919 368.728 43.7262 369.142 43.5948 369.497C43.47 369.845 43.263 370.114 42.9739 370.305C42.6913 370.495 42.3102 370.591 41.8305 370.591ZM41.8305 369.753C42.0868 369.753 42.2839 369.687 42.4219 369.556C42.5599 369.424 42.6519 369.247 42.6979 369.024C42.7505 368.8 42.7767 368.55 42.7767 368.274C42.7767 368.025 42.7472 367.792 42.688 367.575C42.6355 367.351 42.5402 367.171 42.4022 367.033C42.2642 366.888 42.0737 366.816 41.8305 366.816C41.5874 366.816 41.3936 366.885 41.249 367.023C41.111 367.161 41.0125 367.341 40.9533 367.565C40.8942 367.782 40.8646 368.018 40.8646 368.274C40.8646 368.55 40.8909 368.8 40.9435 369.024C40.9961 369.247 41.0913 369.424 41.2293 369.556C41.3739 369.687 41.5743 369.753 41.8305 369.753ZM41.8305 365.81C42.0539 365.804 42.2215 365.735 42.3332 365.603C42.4515 365.472 42.5336 365.304 42.5796 365.101C42.6256 364.891 42.6486 364.674 42.6486 364.45C42.6486 364.122 42.5895 363.842 42.4712 363.612C42.3529 363.383 42.1394 363.268 41.8305 363.268C41.5217 363.268 41.3049 363.383 41.18 363.612C41.0552 363.842 40.9928 364.122 40.9928 364.45C40.9928 364.674 41.0158 364.891 41.0618 365.101C41.1078 365.304 41.1899 365.472 41.3082 365.603C41.433 365.735 41.6071 365.804 41.8305 365.81ZM46.8377 370.591C46.3843 370.591 46.0098 370.489 45.7141 370.285C45.425 370.081 45.2082 369.802 45.0636 369.447C44.9256 369.093 44.8566 368.688 44.8566 368.235V364.795C44.8566 364.329 44.9256 363.921 45.0636 363.573C45.2016 363.218 45.4151 362.942 45.7042 362.745C45.9999 362.548 46.3778 362.449 46.8377 362.449C47.2977 362.449 47.6722 362.548 47.9613 362.745C48.2504 362.942 48.464 363.218 48.602 363.573C48.7399 363.921 48.8089 364.329 48.8089 364.795V368.235C48.8089 368.695 48.7367 369.102 48.5921 369.457C48.4541 369.812 48.2406 370.091 47.9515 370.295C47.6623 370.492 47.2911 370.591 46.8377 370.591ZM46.8377 369.723C47.0874 369.723 47.2747 369.651 47.3995 369.506C47.5309 369.362 47.6196 369.178 47.6656 368.955C47.7182 368.725 47.7445 368.488 47.7445 368.245V364.785C47.7445 364.529 47.7215 364.289 47.6755 364.066C47.6295 363.836 47.5408 363.652 47.4094 363.514C47.2845 363.376 47.094 363.307 46.8377 363.307C46.5814 363.307 46.3876 363.376 46.2562 363.514C46.1248 363.652 46.0361 363.836 45.9901 364.066C45.9441 364.289 45.9211 364.529 45.9211 364.785V368.245C45.9211 368.488 45.9441 368.725 45.9901 368.955C46.0426 369.178 46.1346 369.362 46.266 369.506C46.404 369.651 46.5946 369.723 46.8377 369.723ZM51.9294 370.591C51.476 370.591 51.1015 370.489 50.8058 370.285C50.5167 370.081 50.2999 369.802 50.1553 369.447C50.0173 369.093 49.9483 368.688 49.9483 368.235V364.795C49.9483 364.329 50.0173 363.921 50.1553 363.573C50.2933 363.218 50.5068 362.942 50.796 362.745C51.0916 362.548 51.4695 362.449 51.9294 362.449C52.3894 362.449 52.7639 362.548 53.053 362.745C53.3421 362.942 53.5557 363.218 53.6937 363.573C53.8317 363.921 53.9007 364.329 53.9007 364.795V368.235C53.9007 368.695 53.8284 369.102 53.6838 369.457C53.5458 369.812 53.3323 370.091 53.0432 370.295C52.7541 370.492 52.3828 370.591 51.9294 370.591ZM51.9294 369.723C52.1791 369.723 52.3664 369.651 52.4912 369.506C52.6226 369.362 52.7113 369.178 52.7573 368.955C52.8099 368.725 52.8362 368.488 52.8362 368.245V364.785C52.8362 364.529 52.8132 364.289 52.7672 364.066C52.7212 363.836 52.6325 363.652 52.5011 363.514C52.3762 363.376 52.1857 363.307 51.9294 363.307C51.6732 363.307 51.4793 363.376 51.3479 363.514C51.2165 363.652 51.1278 363.836 51.0818 364.066C51.0358 364.289 51.0128 364.529 51.0128 364.785V368.245C51.0128 368.488 51.0358 368.725 51.0818 368.955C51.1344 369.178 51.2263 369.362 51.3578 369.506C51.4957 369.651 51.6863 369.723 51.9294 369.723ZM57.3416 370.502V362.518H58.4554V366.067H58.8693L60.2985 362.518H61.4122L59.8352 366.313L61.6093 370.502H60.4956L58.8792 366.609H58.4554V370.502H57.3416ZM62.3467 370.502V362.518H63.4604V366.067H63.8744L65.3035 362.518H66.4173L64.8403 366.313L66.6144 370.502H65.5007L63.8843 366.609H63.4604V370.502H62.3467ZM66.9181 370.502L68.6134 362.518H69.6877L71.3928 370.502H70.3382L69.9735 368.491H68.3473L67.9629 370.502H66.9181ZM68.4951 367.693H69.8257L69.1555 364.095L68.4951 367.693ZM71.6016 370.502V369.674C71.7462 369.681 71.8776 369.671 71.9959 369.644C72.1207 369.618 72.2292 369.556 72.3211 369.457C72.4197 369.359 72.5051 369.204 72.5774 368.994C72.6497 368.784 72.7121 368.498 72.7647 368.136C72.8172 367.775 72.8632 367.318 72.9027 366.766L73.1688 362.518H76.6776V370.502H75.5638V363.346H74.1248L73.9376 366.766C73.9047 367.279 73.862 367.742 73.8094 368.156C73.7569 368.564 73.678 368.922 73.5729 369.231C73.4743 369.533 73.3396 369.786 73.1688 369.989C73.0045 370.187 72.7942 370.328 72.538 370.413C72.2817 370.499 71.9696 370.528 71.6016 370.502Z" fill="#181818"/>
<rect x="201.07" y="353.682" width="24.6404" height="24.6404" rx="3.69606" fill="#EBEBEB"/>
<g clip-path="url(#clip1_2573_7762)">
<path d="M213.395 364.768L215.859 367.232L210.931 367.232L213.395 364.768Z" fill="#181818"/>
</g>
<rect x="17.1908" y="351.526" width="210.676" height="28.9525" rx="4.62008" stroke="#A6A6A6" stroke-width="0.616011"/>
<rect x="16.8828" y="473.545" width="211.292" height="29.5685" rx="4.92808" fill="#FFE676"/>
<g clip-path="url(#clip2_2573_7762)">
<path d="M74.3007 494.491C70.8985 494.491 68.1406 491.733 68.1406 488.331C68.1406 484.929 70.8985 482.171 74.3007 482.171C77.703 482.171 80.4608 484.929 80.4608 488.331C80.4608 491.733 77.703 494.491 74.3007 494.491ZM74.3007 493.259C75.6077 493.259 76.8612 492.74 77.7854 491.816C78.7096 490.891 79.2288 489.638 79.2288 488.331C79.2288 487.024 78.7096 485.771 77.7854 484.846C76.8612 483.922 75.6077 483.403 74.3007 483.403C72.9937 483.403 71.7402 483.922 70.816 484.846C69.8919 485.771 69.3726 487.024 69.3726 488.331C69.3726 489.638 69.8919 490.891 70.816 491.816C71.7402 492.74 72.9937 493.259 74.3007 493.259ZM71.2207 488.331H72.4527C72.4527 488.821 72.6474 489.291 72.994 489.638C73.3405 489.984 73.8106 490.179 74.3007 490.179C74.7909 490.179 75.2609 489.984 75.6075 489.638C75.9541 489.291 76.1488 488.821 76.1488 488.331H77.3808C77.3808 489.148 77.0563 489.931 76.4787 490.509C75.901 491.087 75.1176 491.411 74.3007 491.411C73.4839 491.411 72.7004 491.087 72.1228 490.509C71.5452 489.931 71.2207 489.148 71.2207 488.331Z" fill="#181818"/>
</g>
<path d="M85.084 492.329V485.344H88.9304V492.329H87.9558V486.042H86.0585V492.329H85.084ZM90.071 492.329V485.344H91.0283V492.329H90.071ZM91.71 493.597V491.631H92.0291C92.1269 491.55 92.2217 491.452 92.3137 491.337C92.4115 491.222 92.5006 491.073 92.5811 490.889C92.6673 490.699 92.7449 490.458 92.8139 490.164C92.8829 489.865 92.9433 489.492 92.995 489.043C93.0525 488.595 93.0957 488.052 93.1244 487.413L93.2365 485.344H96.1601V491.631H96.8328V493.597H96.0825L96.0049 492.329H92.538L92.4603 493.597H91.71ZM92.9347 491.631H95.1942V486.068H94.0644L93.9954 487.646C93.9724 488.267 93.9351 488.79 93.8833 489.216C93.8373 489.635 93.7798 489.983 93.7108 490.259C93.6476 490.53 93.5729 490.751 93.4866 490.923C93.4061 491.09 93.317 491.225 93.2193 491.329C93.1273 491.432 93.0324 491.533 92.9347 491.631ZM97.6172 492.329V485.344H98.5745V492.329H97.6172ZM99.7046 492.329V485.344H102.706V486.051H100.679V488.25H100.895C101.401 488.25 101.818 488.31 102.145 488.431C102.479 488.546 102.726 488.75 102.887 489.043C103.054 489.337 103.137 489.75 103.137 490.285C103.137 490.647 103.094 490.958 103.008 491.217C102.921 491.47 102.786 491.679 102.602 491.846C102.424 492.013 102.197 492.136 101.921 492.217C101.651 492.292 101.326 492.329 100.947 492.329H99.7046ZM100.679 491.631H100.955C101.243 491.631 101.478 491.599 101.662 491.536C101.852 491.467 101.99 491.334 102.076 491.139C102.168 490.943 102.214 490.656 102.214 490.277C102.214 489.799 102.122 489.46 101.938 489.259C101.76 489.058 101.424 488.957 100.929 488.957H100.679V491.631ZM103.966 492.329V485.344H105.7C106.119 485.344 106.453 485.421 106.7 485.576C106.953 485.726 107.137 485.944 107.252 486.232C107.367 486.519 107.424 486.867 107.424 487.275C107.424 487.643 107.358 487.962 107.226 488.233C107.1 488.503 106.91 488.713 106.657 488.862C106.404 489.006 106.088 489.078 105.708 489.078H104.941V492.329H103.966ZM104.941 488.379H105.389C105.671 488.379 105.892 488.348 106.053 488.284C106.214 488.221 106.329 488.112 106.398 487.957C106.467 487.796 106.502 487.571 106.502 487.284C106.502 486.951 106.476 486.695 106.424 486.516C106.378 486.338 106.277 486.215 106.122 486.146C105.967 486.077 105.725 486.042 105.398 486.042H104.941V488.379ZM107.629 492.329L109.113 485.344H110.053L111.545 492.329H110.622L110.303 490.57H108.88L108.543 492.329H107.629ZM109.009 489.871H110.173L109.587 486.723L109.009 489.871ZM112.794 492.329V486.068H111.612V485.344H114.915V486.068H113.768V492.329H112.794ZM115.589 492.329V485.344H116.451V490.182L118.495 485.344H119.193V492.329H118.34V487.413L116.313 492.329H115.589ZM122.311 492.329V485.344H123.268V492.329H122.311ZM124.398 492.329V485.344H125.373V488.362H127.166V485.344H128.141V492.329H127.166V489.061H125.373V492.329H124.398ZM128.784 493.597V491.631H129.103C129.201 491.55 129.295 491.452 129.387 491.337C129.485 491.222 129.574 491.073 129.655 490.889C129.741 490.699 129.819 490.458 129.888 490.164C129.957 489.865 130.017 489.492 130.069 489.043C130.126 488.595 130.169 488.052 130.198 487.413L130.31 485.344H133.234V491.631H133.907V493.597H133.156L133.079 492.329H129.612L129.534 493.597H128.784ZM130.008 491.631H132.268V486.068H131.138L131.069 487.646C131.046 488.267 131.009 488.79 130.957 489.216C130.911 489.635 130.854 489.983 130.785 490.259C130.721 490.53 130.647 490.751 130.56 490.923C130.48 491.09 130.391 491.225 130.293 491.329C130.201 491.432 130.106 491.533 130.008 491.631ZM134.639 492.329V485.344H135.502V490.182L137.545 485.344H138.244V492.329H137.39V487.413L135.364 492.329H134.639ZM139.339 492.329V485.344H140.943C141.259 485.344 141.532 485.378 141.762 485.447C141.998 485.516 142.193 485.622 142.348 485.766C142.504 485.91 142.619 486.094 142.693 486.318C142.768 486.537 142.806 486.795 142.806 487.094C142.806 487.382 142.768 487.632 142.693 487.845C142.624 488.052 142.515 488.215 142.366 488.336C142.222 488.457 142.035 488.534 141.805 488.569C142.087 488.632 142.314 488.741 142.486 488.897C142.659 489.046 142.785 489.242 142.866 489.483C142.952 489.719 142.995 490.003 142.995 490.337C142.995 490.636 142.961 490.909 142.892 491.156C142.823 491.403 142.714 491.613 142.564 491.786C142.42 491.958 142.233 492.093 142.004 492.191C141.779 492.283 141.512 492.329 141.201 492.329H139.339ZM140.313 491.631H140.969C141.406 491.631 141.696 491.53 141.84 491.329C141.989 491.122 142.064 490.791 142.064 490.337C142.064 490.044 142.024 489.799 141.943 489.604C141.868 489.403 141.745 489.253 141.572 489.155C141.406 489.052 141.178 489 140.891 489H140.313V491.631ZM140.313 488.259H140.891C141.167 488.259 141.383 488.221 141.538 488.146C141.693 488.066 141.802 487.939 141.866 487.767C141.929 487.594 141.96 487.37 141.96 487.094C141.96 486.772 141.912 486.539 141.814 486.396C141.716 486.252 141.564 486.163 141.357 486.128C141.15 486.088 140.879 486.068 140.546 486.068H140.313V488.259ZM143.913 492.329V485.344H144.87V492.329H143.913ZM145.552 493.597V491.631H145.871C145.969 491.55 146.064 491.452 146.156 491.337C146.253 491.222 146.343 491.073 146.423 490.889C146.509 490.699 146.587 490.458 146.656 490.164C146.725 489.865 146.785 489.492 146.837 489.043C146.895 488.595 146.938 488.052 146.966 487.413L147.078 485.344H150.002V491.631H150.675V493.597H149.924L149.847 492.329H146.38L146.302 493.597H145.552ZM146.777 491.631H149.036V486.068H147.906L147.837 487.646C147.814 488.267 147.777 488.79 147.725 489.216C147.679 489.635 147.622 489.983 147.553 490.259C147.49 490.53 147.415 490.751 147.329 490.923C147.248 491.09 147.159 491.225 147.061 491.329C146.969 491.432 146.874 491.533 146.777 491.631ZM151.321 493.39V492.64C151.62 492.668 151.85 492.668 152.011 492.64C152.178 492.611 152.293 492.55 152.356 492.458C152.425 492.372 152.46 492.254 152.46 492.105C152.46 491.95 152.442 491.766 152.408 491.553L151.028 485.344H151.951L152.537 488.319L152.891 490.535L153.201 488.336L153.727 485.344H154.659L153.408 491.57C153.351 491.852 153.302 492.099 153.262 492.312C153.227 492.525 153.175 492.706 153.106 492.855C153.043 493.005 152.945 493.123 152.813 493.209C152.681 493.295 152.494 493.353 152.253 493.381C152.017 493.41 151.706 493.413 151.321 493.39ZM154.927 492.329L156.411 485.344H157.351L158.843 492.329H157.92L157.601 490.57H156.178L155.841 492.329H154.927ZM156.307 489.871H157.471L156.885 486.723L156.307 489.871ZM159.025 492.329V491.605C159.152 491.61 159.267 491.602 159.37 491.579C159.48 491.556 159.574 491.501 159.655 491.415C159.741 491.329 159.816 491.194 159.879 491.01C159.942 490.826 159.997 490.576 160.043 490.259C160.089 489.943 160.129 489.544 160.164 489.061L160.397 485.344H163.467V492.329H162.492V486.068H161.233L161.069 489.061C161.041 489.509 161.003 489.914 160.957 490.277C160.911 490.633 160.842 490.946 160.75 491.217C160.664 491.481 160.546 491.702 160.397 491.881C160.253 492.053 160.069 492.177 159.845 492.251C159.62 492.326 159.347 492.352 159.025 492.329ZM164.563 492.329V485.344H165.537V488.25H165.813C166.319 488.25 166.736 488.31 167.064 488.431C167.391 488.546 167.636 488.75 167.797 489.043C167.963 489.337 168.047 489.75 168.047 490.285C168.047 490.647 168.004 490.958 167.917 491.217C167.831 491.47 167.696 491.679 167.512 491.846C167.334 492.013 167.107 492.136 166.831 492.217C166.561 492.292 166.236 492.329 165.856 492.329H164.563ZM165.537 491.631H165.856C166.149 491.631 166.388 491.599 166.572 491.536C166.762 491.467 166.903 491.334 166.995 491.139C167.087 490.943 167.133 490.656 167.133 490.277C167.133 489.799 167.041 489.46 166.857 489.259C166.673 489.058 166.333 488.957 165.839 488.957H165.537V491.631ZM168.824 492.329V485.344H169.799V488.362H171.592V485.344H172.567V492.329H171.592V489.061H169.799V492.329H168.824ZM175.444 492.407C174.972 492.407 174.596 492.315 174.314 492.131C174.032 491.947 173.831 491.685 173.71 491.346C173.589 491.001 173.529 490.599 173.529 490.139V487.491C173.529 487.031 173.589 486.637 173.71 486.309C173.837 485.976 174.038 485.723 174.314 485.551C174.596 485.372 174.972 485.283 175.444 485.283C175.915 485.283 176.289 485.372 176.565 485.551C176.841 485.729 177.039 485.982 177.16 486.309C177.286 486.637 177.35 487.031 177.35 487.491V490.147C177.35 490.601 177.286 490.998 177.16 491.337C177.039 491.677 176.841 491.941 176.565 492.131C176.289 492.315 175.915 492.407 175.444 492.407ZM175.444 491.639C175.702 491.639 175.898 491.587 176.03 491.484C176.162 491.375 176.251 491.225 176.297 491.035C176.343 490.84 176.366 490.613 176.366 490.354V487.293C176.366 487.034 176.343 486.813 176.297 486.629C176.251 486.439 176.162 486.295 176.03 486.197C175.898 486.094 175.702 486.042 175.444 486.042C175.185 486.042 174.986 486.094 174.849 486.197C174.716 486.295 174.627 486.439 174.581 486.629C174.535 486.813 174.512 487.034 174.512 487.293V490.354C174.512 490.613 174.535 490.84 174.581 491.035C174.627 491.225 174.716 491.375 174.849 491.484C174.986 491.587 175.185 491.639 175.444 491.639Z" fill="#181818"/>
<rect x="17.2512" y="383.744" width="210.554" height="101.499" rx="5.35842" fill="white"/>
<path d="M28.2878 403.191V395.021H29.4276V398.552H31.5255V395.021H32.6653V403.191H31.5255V399.369H29.4276V403.191H28.2878ZM33.4979 403.191L35.2328 395.021H36.3322L38.0771 403.191H36.9979L36.6247 401.134H34.9604L34.5671 403.191H33.4979ZM35.1117 400.317H36.4734L35.7875 396.635L35.1117 400.317ZM43.0972 403.282C42.6063 403.282 42.2129 403.185 41.9171 402.99C41.6212 402.795 41.406 402.519 41.2715 402.163C41.1438 401.799 41.0799 401.376 41.0799 400.892C41.0799 400.616 41.1034 400.374 41.1505 400.165C41.1976 399.957 41.2648 399.775 41.3522 399.621C41.4464 399.459 41.554 399.322 41.675 399.207C41.8028 399.086 41.9406 398.979 42.0885 398.885C41.8196 398.703 41.601 398.468 41.4329 398.178C41.2648 397.883 41.1808 397.509 41.1808 397.059C41.1808 396.629 41.248 396.255 41.3825 395.939C41.517 395.623 41.7254 395.381 42.0079 395.213C42.297 395.038 42.6601 394.951 43.0972 394.951C43.5343 394.951 43.8907 395.038 44.1663 395.213C44.4488 395.381 44.6572 395.623 44.7917 395.939C44.9262 396.255 44.9934 396.629 44.9934 397.059C44.9934 397.516 44.9094 397.889 44.7413 398.178C44.5799 398.468 44.3614 398.703 44.0857 398.885C44.2336 398.979 44.3681 399.086 44.4891 399.207C44.6169 399.322 44.7245 399.459 44.8119 399.621C44.906 399.775 44.9766 399.957 45.0237 400.165C45.0775 400.374 45.1044 400.616 45.1044 400.892C45.1044 401.376 45.0371 401.799 44.9027 402.163C44.7749 402.519 44.5631 402.795 44.2672 402.99C43.9781 403.185 43.5881 403.282 43.0972 403.282ZM43.0972 402.425C43.3594 402.425 43.5612 402.358 43.7024 402.223C43.8436 402.089 43.9377 401.907 43.9848 401.678C44.0386 401.45 44.0655 401.194 44.0655 400.912C44.0655 400.656 44.0352 400.418 43.9747 400.196C43.9209 399.967 43.8234 399.782 43.6822 399.641C43.541 399.493 43.346 399.419 43.0972 399.419C42.8484 399.419 42.65 399.49 42.5021 399.631C42.3609 399.772 42.26 399.957 42.1995 400.186C42.139 400.408 42.1087 400.65 42.1087 400.912C42.1087 401.194 42.1356 401.45 42.1894 401.678C42.2432 401.907 42.3407 402.089 42.4819 402.223C42.6299 402.358 42.8349 402.425 43.0972 402.425ZM43.0972 398.39C43.3258 398.384 43.4973 398.313 43.6116 398.178C43.7326 398.044 43.8167 397.872 43.8638 397.664C43.9108 397.449 43.9344 397.227 43.9344 396.998C43.9344 396.662 43.8738 396.376 43.7528 396.141C43.6318 395.906 43.4132 395.788 43.0972 395.788C42.7811 395.788 42.5592 395.906 42.4315 396.141C42.3037 396.376 42.2398 396.662 42.2398 396.998C42.2398 397.227 42.2634 397.449 42.3104 397.664C42.3575 397.872 42.4416 398.044 42.5626 398.178C42.6904 398.313 42.8686 398.384 43.0972 398.39ZM48.2213 403.282C47.7574 403.282 47.3741 403.178 47.0715 402.97C46.7756 402.761 46.5537 402.475 46.4058 402.112C46.2646 401.749 46.194 401.336 46.194 400.872V397.351C46.194 396.874 46.2646 396.457 46.4058 396.101C46.547 395.738 46.7655 395.455 47.0614 395.253C47.364 395.052 47.7506 394.951 48.2213 394.951C48.692 394.951 49.0753 395.052 49.3712 395.253C49.6671 395.455 49.8856 395.738 50.0268 396.101C50.168 396.457 50.2386 396.874 50.2386 397.351V400.872C50.2386 401.342 50.1646 401.759 50.0167 402.122C49.8755 402.485 49.657 402.771 49.3611 402.98C49.0652 403.181 48.6853 403.282 48.2213 403.282ZM48.2213 402.395C48.4769 402.395 48.6685 402.321 48.7963 402.173C48.9307 402.025 49.0215 401.836 49.0686 401.608C49.1224 401.372 49.1493 401.13 49.1493 400.882V397.341C49.1493 397.079 49.1257 396.834 49.0787 396.605C49.0316 396.37 48.9408 396.181 48.8063 396.04C48.6786 395.899 48.4836 395.828 48.2213 395.828C47.9591 395.828 47.7607 395.899 47.6262 396.04C47.4917 396.181 47.401 396.37 47.3539 396.605C47.3068 396.834 47.2833 397.079 47.2833 397.341V400.882C47.2833 401.13 47.3068 401.372 47.3539 401.608C47.4077 401.836 47.5018 402.025 47.6363 402.173C47.7775 402.321 47.9725 402.395 48.2213 402.395ZM53.432 403.282C52.968 403.282 52.5847 403.178 52.2821 402.97C51.9863 402.761 51.7644 402.475 51.6164 402.112C51.4752 401.749 51.4046 401.336 51.4046 400.872V397.351C51.4046 396.874 51.4752 396.457 51.6164 396.101C51.7576 395.738 51.9762 395.455 52.2721 395.253C52.5746 395.052 52.9613 394.951 53.432 394.951C53.9027 394.951 54.286 395.052 54.5818 395.253C54.8777 395.455 55.0963 395.738 55.2375 396.101C55.3787 396.457 55.4493 396.874 55.4493 397.351V400.872C55.4493 401.342 55.3753 401.759 55.2274 402.122C55.0862 402.485 54.8676 402.771 54.5718 402.98C54.2759 403.181 53.896 403.282 53.432 403.282ZM53.432 402.395C53.6875 402.395 53.8792 402.321 54.0069 402.173C54.1414 402.025 54.2322 401.836 54.2793 401.608C54.333 401.372 54.3599 401.13 54.3599 400.882V397.341C54.3599 397.079 54.3364 396.834 54.2893 396.605C54.2423 396.37 54.1515 396.181 54.017 396.04C53.8892 395.899 53.6942 395.828 53.432 395.828C53.1697 395.828 52.9714 395.899 52.8369 396.04C52.7024 396.181 52.6116 396.37 52.5646 396.605C52.5175 396.834 52.494 397.079 52.494 397.341V400.882C52.494 401.13 52.5175 401.372 52.5646 401.608C52.6184 401.836 52.7125 402.025 52.847 402.173C52.9882 402.321 53.1832 402.395 53.432 402.395ZM58.9706 403.191V395.021H60.1104V398.653H60.534L61.9966 395.021H63.1363L61.5225 398.905L63.338 403.191H62.1983L60.5441 399.207H60.1104V403.191H58.9706ZM64.0926 403.191V395.021H65.2324V398.653H65.656L67.1186 395.021H68.2583L66.6445 398.905L68.4601 403.191H67.3203L65.6661 399.207H65.2324V403.191H64.0926ZM68.7709 403.191L70.5057 395.021H71.6051L73.3501 403.191H72.2708L71.8976 401.134H70.2334L69.84 403.191H68.7709ZM70.3847 400.317H71.7463L71.0605 396.635L70.3847 400.317ZM73.5638 403.191V402.344C73.7117 402.351 73.8462 402.341 73.9673 402.314C74.095 402.287 74.206 402.223 74.3001 402.122C74.401 402.021 74.4884 401.863 74.5624 401.648C74.6363 401.433 74.7002 401.14 74.754 400.771C74.8078 400.401 74.8549 399.933 74.8952 399.369L75.1675 395.021H78.7583V403.191H77.6185V395.869H76.1459L75.9543 399.369C75.9207 399.893 75.877 400.367 75.8232 400.791C75.7694 401.208 75.6887 401.574 75.5811 401.89C75.4802 402.2 75.3424 402.458 75.1675 402.667C74.9994 402.869 74.7843 403.013 74.522 403.101C74.2598 403.188 73.9404 403.218 73.5638 403.191Z" fill="#181818"/>
<path d="M208.23 402.971L204.609 399.35L205.381 398.578L208.23 401.427L214.278 395.379L215.05 396.151L208.23 402.971Z" fill="#708200"/>
<line x1="17.5664" y1="416.528" x2="227.49" y2="416.528" stroke="#EBEBEB" stroke-width="0.630402"/>
<path d="M28.2878 438.494V430.324H29.4276V433.854H31.5255V430.324H32.6653V438.494H31.5255V434.671H29.4276V438.494H28.2878ZM33.4979 438.494L35.2328 430.324H36.3322L38.0771 438.494H36.9979L36.6247 436.437H34.9604L34.5671 438.494H33.4979ZM35.1117 435.62H36.4734L35.7875 431.938L35.1117 435.62ZM42.3004 438.494V431.736C42.2936 431.743 42.2163 431.763 42.0684 431.797C41.9272 431.83 41.7658 431.864 41.5842 431.898C41.4027 431.931 41.2413 431.961 41.1001 431.988C40.9589 432.015 40.8849 432.029 40.8782 432.029V431.212C40.9925 431.185 41.1236 431.148 41.2715 431.101C41.4262 431.054 41.5809 430.997 41.7355 430.929C41.8969 430.862 42.0482 430.778 42.1894 430.677C42.3373 430.576 42.4617 430.459 42.5626 430.324H43.3796V438.494H42.3004ZM47.2931 438.494V437.728L49.3709 434.49C49.5256 434.248 49.6668 434.022 49.7946 433.814C49.9291 433.606 50.0367 433.387 50.1173 433.158C50.2048 432.923 50.2485 432.654 50.2485 432.352C50.2485 431.975 50.1879 431.679 50.0669 431.464C49.9459 431.249 49.7341 431.141 49.4315 431.141C49.1759 431.141 48.9776 431.212 48.8364 431.353C48.6952 431.494 48.5977 431.679 48.5439 431.908C48.4901 432.136 48.4632 432.382 48.4632 432.644V432.916H47.3839V432.634C47.3839 432.143 47.4478 431.723 47.5756 431.373C47.71 431.017 47.9219 430.741 48.211 430.546C48.5069 430.351 48.8969 430.254 49.381 430.254C50.04 430.254 50.5309 430.442 50.8537 430.818C51.1764 431.188 51.3378 431.703 51.3378 432.362C51.3378 432.711 51.2941 433.017 51.2067 433.279C51.126 433.542 51.0184 433.787 50.8839 434.016C50.7494 434.244 50.6015 434.48 50.4401 434.722L48.564 437.586H51.1462V438.494H47.2931ZM54.3086 438.585C53.8447 438.585 53.4614 438.481 53.1588 438.272C52.8629 438.064 52.641 437.778 52.4931 437.415C52.3519 437.052 52.2813 436.638 52.2813 436.174V432.654C52.2813 432.177 52.3519 431.76 52.4931 431.403C52.6343 431.04 52.8528 430.758 53.1487 430.556C53.4513 430.354 53.8379 430.254 54.3086 430.254C54.7793 430.254 55.1626 430.354 55.4585 430.556C55.7544 430.758 55.9729 431.04 56.1141 431.403C56.2553 431.76 56.3259 432.177 56.3259 432.654V436.174C56.3259 436.645 56.252 437.062 56.104 437.425C55.9628 437.788 55.7443 438.074 55.4484 438.282C55.1525 438.484 54.7726 438.585 54.3086 438.585ZM54.3086 437.697C54.5642 437.697 54.7558 437.623 54.8836 437.475C55.0181 437.327 55.1088 437.139 55.1559 436.911C55.2097 436.675 55.2366 436.433 55.2366 436.184V432.644C55.2366 432.382 55.2131 432.136 55.166 431.908C55.1189 431.672 55.0281 431.484 54.8937 431.343C54.7659 431.202 54.5709 431.131 54.3086 431.131C54.0464 431.131 53.848 431.202 53.7135 431.343C53.5791 431.484 53.4883 431.672 53.4412 431.908C53.3941 432.136 53.3706 432.382 53.3706 432.644V436.184C53.3706 436.433 53.3941 436.675 53.4412 436.911C53.495 437.139 53.5891 437.327 53.7236 437.475C53.8648 437.623 54.0598 437.697 54.3086 437.697ZM59.5193 438.585C59.0553 438.585 58.6721 438.481 58.3695 438.272C58.0736 438.064 57.8517 437.778 57.7038 437.415C57.5625 437.052 57.4919 436.638 57.4919 436.174V432.654C57.4919 432.177 57.5625 431.76 57.7038 431.403C57.845 431.04 58.0635 430.758 58.3594 430.556C58.662 430.354 59.0486 430.254 59.5193 430.254C59.99 430.254 60.3733 430.354 60.6692 430.556C60.965 430.758 61.1836 431.04 61.3248 431.403C61.466 431.76 61.5366 432.177 61.5366 432.654V436.174C61.5366 436.645 61.4626 437.062 61.3147 437.425C61.1735 437.788 60.9549 438.074 60.6591 438.282C60.3632 438.484 59.9833 438.585 59.5193 438.585ZM59.5193 437.697C59.7748 437.697 59.9665 437.623 60.0942 437.475C60.2287 437.327 60.3195 437.139 60.3666 436.911C60.4204 436.675 60.4473 436.433 60.4473 436.184V432.644C60.4473 432.382 60.4237 432.136 60.3767 431.908C60.3296 431.672 60.2388 431.484 60.1043 431.343C59.9766 431.202 59.7816 431.131 59.5193 431.131C59.2571 431.131 59.0587 431.202 58.9242 431.343C58.7897 431.484 58.6989 431.672 58.6519 431.908C58.6048 432.136 58.5813 432.382 58.5813 432.644V436.184C58.5813 436.433 58.6048 436.675 58.6519 436.911C58.7057 437.139 58.7998 437.327 58.9343 437.475C59.0755 437.623 59.2705 437.697 59.5193 437.697ZM65.0579 438.494V430.324H66.1977V433.955H66.6213L68.0839 430.324H69.2236L67.6098 434.207L69.4254 438.494H68.2856L66.6314 434.51H66.1977V438.494H65.0579ZM70.18 438.494V430.324H71.3197V433.955H71.7434L73.2059 430.324H74.3457L72.7318 434.207L74.5474 438.494H73.4076L71.7534 434.51H71.3197V438.494H70.18ZM74.8582 438.494L76.593 430.324H77.6925L79.4374 438.494H78.3582L77.985 436.437H76.3207L75.9273 438.494H74.8582ZM76.472 435.62H77.8337L77.1478 431.938L76.472 435.62ZM79.6511 438.494V437.647C79.7991 437.654 79.9335 437.644 80.0546 437.617C80.1823 437.59 80.2933 437.526 80.3874 437.425C80.4883 437.324 80.5757 437.166 80.6497 436.951C80.7236 436.736 80.7875 436.443 80.8413 436.073C80.8951 435.704 80.9422 435.236 80.9825 434.671L81.2549 430.324H84.8456V438.494H83.7059V431.171H82.2332L82.0416 434.671C82.008 435.196 81.9643 435.67 81.9105 436.094C81.8567 436.51 81.776 436.877 81.6684 437.193C81.5675 437.502 81.4297 437.761 81.2549 437.97C81.0868 438.171 80.8716 438.316 80.6093 438.403C80.3471 438.491 80.0277 438.521 79.6511 438.494Z" fill="#181818"/>
<line x1="17.5664" y1="451.83" x2="227.49" y2="451.83" stroke="#EBEBEB" stroke-width="0.630402"/>
<path d="M28.2878 473.797V465.627H29.4276V469.157H31.5255V465.627H32.6653V473.797H31.5255V469.974H29.4276V473.797H28.2878ZM33.4979 473.797L35.2328 465.627H36.3322L38.0771 473.797H36.9979L36.6247 471.739H34.9604L34.5671 473.797H33.4979ZM35.1117 470.922H36.4734L35.7875 467.241L35.1117 470.922ZM42.3004 473.797V467.039C42.2936 467.046 42.2163 467.066 42.0684 467.099C41.9272 467.133 41.7658 467.167 41.5842 467.2C41.4027 467.234 41.2413 467.264 41.1001 467.291C40.9589 467.318 40.8849 467.331 40.8782 467.331V466.514C40.9925 466.488 41.1236 466.451 41.2715 466.404C41.4262 466.356 41.5809 466.299 41.7355 466.232C41.8969 466.165 42.0482 466.081 42.1894 465.98C42.3373 465.879 42.4617 465.761 42.5626 465.627H43.3796V473.797H42.3004ZM49.6534 473.797V471.608H47.2831V470.478L49.4113 465.627H50.6822V470.65H51.6V471.608H50.6822V473.797H49.6534ZM48.322 470.65H49.6534V466.938L48.322 470.65ZM54.3677 473.888C53.9038 473.888 53.5205 473.783 53.2179 473.575C52.922 473.367 52.7001 473.081 52.5522 472.718C52.411 472.355 52.3404 471.941 52.3404 471.477V467.957C52.3404 467.479 52.411 467.063 52.5522 466.706C52.6934 466.343 52.9119 466.061 53.2078 465.859C53.5104 465.657 53.897 465.556 54.3677 465.556C54.8384 465.556 55.2217 465.657 55.5176 465.859C55.8135 466.061 56.032 466.343 56.1732 466.706C56.3144 467.063 56.385 467.479 56.385 467.957V471.477C56.385 471.948 56.3111 472.365 56.1631 472.728C56.0219 473.091 55.8034 473.377 55.5075 473.585C55.2116 473.787 54.8317 473.888 54.3677 473.888ZM54.3677 473C54.6233 473 54.8149 472.926 54.9427 472.778C55.0772 472.63 55.1679 472.442 55.215 472.213C55.2688 471.978 55.2957 471.736 55.2957 471.487V467.947C55.2957 467.684 55.2722 467.439 55.2251 467.21C55.178 466.975 55.0872 466.787 54.9528 466.646C54.825 466.504 54.63 466.434 54.3677 466.434C54.1055 466.434 53.9071 466.504 53.7726 466.646C53.6382 466.787 53.5474 466.975 53.5003 467.21C53.4532 467.439 53.4297 467.684 53.4297 467.947V471.487C53.4297 471.736 53.4532 471.978 53.5003 472.213C53.5541 472.442 53.6482 472.63 53.7827 472.778C53.9239 472.926 54.1189 473 54.3677 473ZM59.5784 473.888C59.1144 473.888 58.7312 473.783 58.4286 473.575C58.1327 473.367 57.9108 473.081 57.7629 472.718C57.6216 472.355 57.551 471.941 57.551 471.477V467.957C57.551 467.479 57.6216 467.063 57.7629 466.706C57.9041 466.343 58.1226 466.061 58.4185 465.859C58.7211 465.657 59.1077 465.556 59.5784 465.556C60.0491 465.556 60.4324 465.657 60.7283 465.859C61.0241 466.061 61.2427 466.343 61.3839 466.706C61.5251 467.063 61.5957 467.479 61.5957 467.957V471.477C61.5957 471.948 61.5217 472.365 61.3738 472.728C61.2326 473.091 61.014 473.377 60.7182 473.585C60.4223 473.787 60.0424 473.888 59.5784 473.888ZM59.5784 473C59.8339 473 60.0256 472.926 60.1533 472.778C60.2878 472.63 60.3786 472.442 60.4257 472.213C60.4795 471.978 60.5064 471.736 60.5064 471.487V467.947C60.5064 467.684 60.4828 467.439 60.4358 467.21C60.3887 466.975 60.2979 466.787 60.1634 466.646C60.0357 466.504 59.8407 466.434 59.5784 466.434C59.3162 466.434 59.1178 466.504 58.9833 466.646C58.8488 466.787 58.758 466.975 58.711 467.21C58.6639 467.439 58.6404 467.684 58.6404 467.947V471.487C58.6404 471.736 58.6639 471.978 58.711 472.213C58.7648 472.442 58.8589 472.63 58.9934 472.778C59.1346 472.926 59.3296 473 59.5784 473ZM65.117 473.797V465.627H66.2568V469.258H66.6804L68.143 465.627H69.2827L67.6689 469.51L69.4845 473.797H68.3447L66.6905 469.813H66.2568V473.797H65.117ZM70.2391 473.797V465.627H71.3788V469.258H71.8025L73.265 465.627H74.4048L72.7909 469.51L74.6065 473.797H73.4667L71.8125 469.813H71.3788V473.797H70.2391ZM74.9173 473.797L76.6521 465.627H77.7516L79.4965 473.797H78.4173L78.0441 471.739H76.3798L75.9864 473.797H74.9173ZM76.5311 470.922H77.8928L77.2069 467.241L76.5311 470.922ZM79.7102 473.797V472.95C79.8581 472.956 79.9926 472.946 80.1137 472.919C80.2414 472.892 80.3524 472.829 80.4465 472.728C80.5474 472.627 80.6348 472.469 80.7088 472.254C80.7827 472.038 80.8466 471.746 80.9004 471.376C80.9542 471.006 81.0013 470.539 81.0416 469.974L81.314 465.627H84.9047V473.797H83.765V466.474H82.2923L82.1007 469.974C82.0671 470.499 82.0234 470.973 81.9696 471.396C81.9158 471.813 81.8351 472.18 81.7275 472.496C81.6266 472.805 81.4888 473.064 81.314 473.272C81.1458 473.474 80.9307 473.619 80.6684 473.706C80.4062 473.794 80.0868 473.824 79.7102 473.797Z" fill="#181818"/>
<rect x="17.2512" y="383.744" width="210.554" height="101.499" rx="5.35842" stroke="#A6A6A6" stroke-width="0.630402"/>
<defs>
<clipPath id="clip0_2573_7762">
<rect width="14.7843" height="14.7843" fill="white" transform="translate(206 213.549)"/>
</clipPath>
<clipPath id="clip1_2573_7762">
<rect width="14.7843" height="14.7843" fill="white" transform="translate(220.781 373.394) rotate(-180)"/>
</clipPath>
<clipPath id="clip2_2573_7762">
<rect width="14.7843" height="14.7843" fill="white" transform="translate(66.9062 480.938)"/>
</clipPath>
</defs>
</svg>
