<svg width="59" height="21" viewBox="0 0 59 21" fill="none" xmlns="http://www.w3.org/2000/svg">
<path d="M20.5049 13.1631C20.5049 14.2256 20.1064 15.0474 19.3096 15.6284C18.5127 16.2095 17.4059 16.5 15.9893 16.5H10.1372V4.8042H15.4912C16.9189 4.8042 17.998 5.05322 18.7285 5.55127C19.4645 6.04378 19.8325 6.77425 19.8325 7.74268C19.8325 8.40674 19.6471 8.96842 19.2764 9.42773C18.9111 9.88151 18.3522 10.1886 17.5996 10.3491C18.5459 10.4598 19.2653 10.7586 19.7578 11.2456C20.2559 11.7271 20.5049 12.3662 20.5049 13.1631ZM17.3672 8.07471C17.3672 7.54899 17.1984 7.17546 16.8608 6.9541C16.5288 6.73275 16.0335 6.62207 15.375 6.62207H12.5859V9.51904H15.3916C16.0833 9.51904 16.5841 9.40007 16.894 9.16211C17.2095 8.91862 17.3672 8.55615 17.3672 8.07471ZM18.0479 12.9722C18.0479 11.8765 17.262 11.3286 15.6904 11.3286H12.5859V14.6821H15.7817C16.5675 14.6821 17.1403 14.541 17.5 14.2588C17.8652 13.971 18.0479 13.5422 18.0479 12.9722ZM24.8711 12.0591V16.5H22.4224V4.8042H28.2661C29.6606 4.8042 30.737 5.10579 31.4951 5.70898C32.2533 6.30664 32.6323 7.16715 32.6323 8.29053C32.6323 9.10954 32.3999 9.81787 31.9351 10.4155C31.4702 11.0076 30.8421 11.3978 30.0508 11.5859L33.2134 16.5H30.4575L27.7432 12.0591H24.8711ZM30.167 8.39014C30.167 7.83122 29.9871 7.41064 29.6274 7.12842C29.2677 6.84619 28.7282 6.70508 28.0088 6.70508H24.8711V10.1582H28.0752C28.7614 10.1582 29.2816 10.0033 29.6357 9.69336C29.9899 9.38346 30.167 8.94906 30.167 8.39014ZM37.48 13.5117L36.4424 16.5H33.9937L38.2603 4.8042H41.1489L45.3989 16.5H42.9751L41.9375 13.5117H37.48ZM39.7046 6.60547C39.6493 6.82682 39.5718 7.09245 39.4722 7.40234C39.3726 7.71224 39.3006 7.93083 39.2563 8.05811L38.0278 11.6689H41.3896L40.1279 7.9834C40.0505 7.75651 39.9785 7.52686 39.9121 7.29443C39.8457 7.06201 39.7765 6.83236 39.7046 6.60547ZM57.3604 13.1631C57.3604 14.2256 56.9619 15.0474 56.165 15.6284C55.3682 16.2095 54.2614 16.5 52.8447 16.5H46.9927V4.8042H52.3467C53.7744 4.8042 54.8535 5.05322 55.584 5.55127C56.32 6.04378 56.688 6.77425 56.688 7.74268C56.688 8.40674 56.5026 8.96842 56.1318 9.42773C55.7666 9.88151 55.2077 10.1886 54.4551 10.3491C55.4014 10.4598 56.1208 10.7586 56.6133 11.2456C57.1113 11.7271 57.3604 12.3662 57.3604 13.1631ZM54.2227 8.07471C54.2227 7.54899 54.0539 7.17546 53.7163 6.9541C53.3843 6.73275 52.889 6.62207 52.2305 6.62207H49.4414V9.51904H52.2471C52.9388 9.51904 53.4396 9.40007 53.7495 9.16211C54.0649 8.91862 54.2227 8.55615 54.2227 8.07471ZM54.9033 12.9722C54.9033 11.8765 54.1175 11.3286 52.5459 11.3286H49.4414V14.6821H52.6372C53.423 14.6821 53.9958 14.541 54.3555 14.2588C54.7207 13.971 54.9033 13.5422 54.9033 12.9722Z" fill="#181818"/>
<circle cx="3.5" cy="13" r="3.5" fill="#FF5151"/>
</svg>
