<svg width="252" height="212" viewBox="0 0 252 212" fill="none" xmlns="http://www.w3.org/2000/svg">
<path fill-rule="evenodd" clip-rule="evenodd" d="M141.78 20.9787C140.926 21.316 139.963 21.9796 139.148 22.793L137.861 24.0757L137.201 23.3883C136.837 23.01 135.971 22.4464 135.276 22.1354C134.199 21.6541 133.609 21.5708 131.301 21.5767C127.815 21.5855 126.363 22.1032 124.594 23.9676C120.401 28.3891 122.243 35.317 128.071 37.0426C128.745 37.2423 129.624 37.4057 130.023 37.4057C130.726 37.4057 130.745 37.4364 130.598 38.327C130.514 38.8338 130.259 40.5521 130.032 42.1456C129.745 44.1567 129.528 45.0087 129.325 44.9306C128.728 44.7026 123.887 43.5725 123.194 43.5C122.585 43.4361 122.449 43.5319 122.281 44.1407C122.022 45.0814 122.134 45.2163 123.446 45.5457C124.313 45.7634 124.52 45.9103 124.397 46.2213C124.31 46.4398 123.736 48.1111 123.122 49.9353C122.507 51.7594 121.934 53.3236 121.849 53.4114C121.763 53.4993 120.862 53.0232 119.846 52.3535C115.234 49.3152 113.297 49.0724 112.02 51.3727C111.259 52.7429 111.125 54.1012 111.59 55.7504C112.436 58.758 115.087 61.1035 118.496 61.8597C119.51 62.0848 120.414 62.3874 120.503 62.5321C120.897 63.167 121.02 64.955 120.804 66.887C120.615 68.5733 118.908 75.0143 118.441 75.8027C118.378 75.9095 117.906 75.6189 117.393 75.1565C116.38 74.2436 113.658 72.5914 112.085 71.9347C110.646 71.3333 107.32 70.5759 106.111 70.5739C105.535 70.5729 105.064 70.5361 105.064 70.4916C105.064 70.4474 105.341 69.731 105.68 68.8996C106.497 66.8941 106.487 65.8119 105.644 65.0326C105.162 64.5875 104.716 64.4302 103.933 64.4302C101.712 64.4302 100.884 66.2112 101.819 68.9731C102.093 69.7823 102.298 70.4538 102.274 70.4648C102.25 70.4759 101.138 70.7245 99.8026 71.0176C95.8047 71.8949 92.294 73.9068 89.4897 76.9274C85.9332 80.758 84.1902 84.8674 84.0572 89.735L84 91.8233L86.3996 91.8936C88.7878 91.9636 88.7999 91.967 88.9418 92.6306C89.3291 94.4398 90.4111 95.7603 91.8156 96.1374C92.4086 96.2968 94.3938 96.3767 96.6618 96.3325L100.503 96.2575L101.098 97.3572C103.94 102.611 109.981 106.461 116.295 107.042C119.72 107.356 119.657 107.33 119.494 108.36C119.415 108.858 119.183 111.201 118.978 113.566C118.518 118.877 117.383 130.053 117.266 130.418C117.219 130.566 116.367 131.073 115.372 131.544C111.773 133.248 106.296 137.299 106.296 138.255C106.296 139.003 109.378 139.239 118.983 139.229C124.132 139.223 129.204 139.131 130.254 139.024L132.164 138.829V137.833V136.837L129.885 136.995C125.944 137.269 112.857 137.476 111.581 137.284L110.361 137.1L111.223 136.373C112.288 135.476 116.478 133.103 117.974 132.55C119.31 132.056 119.122 132.956 120.091 122.41C120.494 118.019 121.051 112.27 121.329 109.635C121.822 104.95 122.546 96.9159 122.552 96.0612C122.555 95.7357 122.353 95.6313 121.72 95.6313C120.8 95.6313 120.582 95.932 120.59 97.1869C120.593 97.6149 120.402 99.6108 120.166 101.622L119.737 105.278L117.512 105.135C112.656 104.822 108.371 102.898 105.301 99.653C103.068 97.2931 102.382 96.1226 103.231 96.1226C103.525 96.1226 103.597 95.905 103.539 95.2014L103.463 94.2801L98.3934 94.3705C95.6054 94.4201 92.9804 94.3855 92.5603 94.2933C91.7927 94.1253 91.2421 93.5241 90.9171 92.4989L90.7417 91.9461H107.793H124.845L124.7 89.5508C124.621 88.2332 124.381 86.4921 124.166 85.6814C123.645 83.7189 122.009 80.3315 120.825 78.7675L119.87 77.504L120.701 75.1533C121.159 73.8603 121.723 72.0244 121.954 71.0731C122.388 69.2956 122.538 69.0993 123.022 69.6804C124.025 70.8862 128.596 71.9752 131.4 71.6767C133.589 71.4438 136.657 70.2931 137.987 69.2065C138.984 68.3918 139.139 68.34 139.844 68.5849C140.817 68.9232 143.17 68.9338 143.377 68.6009C143.463 68.4623 143.463 68.0326 143.378 67.6459C143.23 66.9728 143.153 66.9381 141.601 66.8396C140.161 66.7482 139.913 66.6551 139.398 66.0134C139.004 65.5225 138.817 64.9702 138.817 64.2951C138.815 63.1331 138.48 62.7105 137.561 62.7105C137.055 62.7105 136.861 62.8596 136.74 63.3394C136.542 64.1256 136.791 65.6083 137.242 66.3256C137.43 66.6249 137.584 66.9303 137.584 67.0042C137.584 67.0781 136.977 67.526 136.235 67.999C134.295 69.2367 132.337 69.673 129.332 69.5371C126.572 69.4126 125.224 68.9568 123.72 67.6398C122.841 66.8701 122.815 66.7996 122.83 65.1877C122.849 63.2028 122.437 61.687 121.687 60.9846C121.385 60.7013 120.456 60.3115 119.624 60.1179C116.019 59.2791 113.77 57.3419 113.33 54.6958C113.157 53.661 113.591 52.1407 114.157 51.7914C114.548 51.5506 116.669 52.59 119.077 54.2032C120.671 55.2701 121.353 55.5858 122.065 55.5858C122.573 55.5858 123.098 55.4475 123.231 55.2787C123.365 55.11 124.112 53.0922 124.891 50.7951C125.671 48.498 126.38 46.5397 126.468 46.4434C126.555 46.3471 128.566 46.7466 130.935 47.3313C133.305 47.9158 137.904 49.0341 141.156 49.8164C144.408 50.5983 147.19 51.3855 147.339 51.5653C147.488 51.7459 147.686 53.5148 147.781 55.519C147.876 57.5137 148.045 59.2378 148.158 59.3504C148.271 59.4631 148.941 59.2636 149.646 58.9074C150.351 58.5512 151.218 58.2937 151.573 58.3355C152.365 58.4283 153.223 59.7577 153.013 60.5657C152.776 61.4769 151.274 62.3005 149.633 62.4189C148.776 62.4808 148.178 62.638 148.178 62.8014C148.179 62.9542 148.151 64.7902 148.117 66.8816L148.054 70.6845L151.996 72.8447C157.178 75.6845 159.002 76.935 161.254 79.1901C162.743 80.6821 163.349 81.5269 164.252 83.3705C165.799 86.5326 166.25 88.474 166.243 91.9461C166.236 95.0444 166.059 96.0057 164.904 99.1862C163.43 103.25 159.579 108.072 155.794 110.592C153.528 112.102 152.378 112.31 151.318 111.402C150.557 110.75 150.842 110.152 152.797 108.295L154.706 106.481L154.109 105.847C153.78 105.498 153.417 105.213 153.302 105.213C153.186 105.213 152.368 105.884 151.484 106.704C149.957 108.121 148.276 109.126 147.415 109.138C146.906 109.145 146.206 108.37 146.206 107.8C146.206 107.112 147.807 105.209 149.415 103.984C150.912 102.845 151.107 102.451 150.544 101.712C150.116 101.149 150.145 101.145 148.05 102.136C145.816 103.193 144.312 103.486 144.089 102.908C143.712 101.927 146.191 99.8525 150.395 97.6331C152.054 96.7565 152.858 96.1941 152.858 95.9096C152.858 95.4124 149.947 81.0997 149.82 80.9734C149.773 80.926 149.384 80.957 148.956 81.0425C148.082 81.2167 147.993 81.609 148.419 83.4228C148.552 83.9894 148.989 86.1666 149.39 88.261C149.791 90.3554 150.28 92.7492 150.476 93.5809L150.833 95.0928L148.478 96.3934C143.391 99.2042 141.376 101.6 142.276 103.767C142.601 104.549 143.726 105.213 144.727 105.213C145.2 105.213 145.211 105.257 144.883 105.89C144.535 106.561 144.405 107.415 144.456 108.71C144.47 109.079 144.805 109.743 145.2 110.184C145.862 110.922 146.043 110.988 147.465 111.008C148.997 111.03 149.013 111.037 149.292 111.868C149.716 113.133 150.894 113.811 152.664 113.811C153.466 113.811 154.334 113.698 154.593 113.56C155.153 113.261 155.068 112.961 155.947 118.356C156.3 120.518 156.8 123.393 157.06 124.744C157.319 126.095 157.973 129.799 158.514 132.974C159.054 136.15 159.567 139.1 159.654 139.53C159.843 140.469 160.325 140.347 152.981 141.211C145.944 142.039 139.054 142.595 136.918 142.506L135.149 142.433L136.695 140.836C137.546 139.958 138.759 138.776 139.391 138.209L140.54 137.18V129.152V121.125L141.094 121.276C141.399 121.359 142.049 121.495 142.539 121.577C143.364 121.714 143.449 121.67 143.691 120.977C143.884 120.427 143.877 120.166 143.663 119.99C143.4 119.773 138.382 118.277 132.041 116.525C130.686 116.151 128.834 115.639 127.927 115.388C127.019 115.138 126.217 114.992 126.143 115.065C126.07 115.139 125.94 115.546 125.855 115.971C125.664 116.921 125.424 116.813 131.425 118.482C133.931 119.18 136.564 119.915 137.276 120.115L138.569 120.48V128.349V136.218L136.28 138.466C134.153 140.555 131.671 143.558 131.671 144.043C131.671 144.159 132.082 144.33 132.585 144.424C133.705 144.634 142.59 144.376 145.467 144.05C146.619 143.92 148.781 143.694 150.271 143.549C155.313 143.056 161.603 142.252 161.799 142.074C161.906 141.976 161.482 138.922 160.856 135.286C160.23 131.65 159.289 126.165 158.764 123.098C158.239 120.03 157.638 116.69 157.428 115.676C156.87 112.981 156.918 112.232 157.679 111.735C158.894 110.94 161.996 107.827 163.322 106.07C164.994 103.855 166.713 100.463 167.445 97.9362C167.929 96.2649 168.005 95.4448 168 91.9461C167.992 87.1476 167.563 85.2293 165.755 81.9173C163.627 78.0196 159.923 74.862 153.167 71.1866C151.508 70.2838 150.102 69.4674 150.042 69.372C149.984 69.277 149.999 68.1353 150.077 66.8349L150.218 64.471L151.242 64.2138C153.468 63.6549 154.87 62.0906 154.87 60.1648C154.87 57.7655 153.192 56.1384 150.975 56.3875C150.277 56.4659 149.895 56.4113 149.882 56.2312C149.871 56.0789 149.786 55.036 149.693 53.9138C149.536 52.0326 149.557 51.882 149.961 51.9874C152.918 52.7583 155.083 53.1787 155.425 53.0477C155.728 52.9318 155.824 52.6628 155.769 52.0867L155.691 51.2865L152.535 50.5138C150.799 50.0888 149.33 49.6923 149.27 49.6331C149.077 49.44 151.148 40.2575 151.454 39.9524C151.512 39.8949 152.202 39.7433 152.988 39.6156C156.047 39.1193 158.122 38.2017 159.773 36.6154C161.42 35.0332 162.097 33.5046 162.089 31.3866C162.081 29.3674 161.497 28.0329 160.13 26.9094C158.44 25.5198 155.139 24.9555 153.266 25.736C152.779 25.9387 152.34 26.1045 152.289 26.1045C152.239 26.1045 152.07 25.6901 151.915 25.1832C150.84 21.6666 145.571 19.4811 141.78 20.9787ZM147.538 23.1451C148.857 23.7817 149.788 24.9358 150.189 26.4301C150.468 27.4703 150.445 27.6002 149.834 28.5218C148.813 30.0609 148.749 30.6515 149.547 31.1731L150.221 31.6134L151.047 30.6606C151.501 30.1366 151.873 29.5718 151.873 29.4057C151.873 28.8802 153.551 27.6096 154.473 27.4371C155.655 27.216 157.449 27.4803 158.354 28.0093C160.91 29.5023 160.86 32.9557 158.249 35.2973C156.794 36.6011 155.053 37.3033 152.484 37.6212C151.348 37.7619 150.423 38.0177 150.146 38.2675C149.833 38.5503 149.286 40.3231 148.416 43.8783C147.717 46.7368 147.125 49.0965 147.1 49.1223C147.076 49.1481 144.787 48.6231 142.012 47.9556C139.238 47.2881 135.717 46.4452 134.187 46.0828C132.132 45.5956 131.44 45.3369 131.534 45.0925C131.604 44.9102 131.888 43.1339 132.164 41.1449C132.441 39.1559 132.713 37.3229 132.769 37.0716C132.946 36.2768 131.843 35.4403 130.618 35.4403C128.153 35.4403 125.721 33.9635 124.749 31.878C123.833 29.9128 124.266 27.0393 125.702 25.5436C127.106 24.0821 128.401 23.5564 130.869 23.4456C132.941 23.3527 133.267 23.4018 134.464 23.9861C136.327 24.8951 136.699 25.3899 136.845 27.1575C136.96 28.5623 137.011 28.6625 137.692 28.8431C138.71 29.1129 138.987 28.7723 139.108 27.1054C139.261 25.0002 140.412 23.6045 142.698 22.754C143.924 22.2978 146.157 22.4783 147.538 23.1451ZM127.642 52.5603C127.384 52.8183 127.46 55.7389 127.745 56.4912C127.889 56.8715 128.305 57.4967 128.669 57.8802C131.095 60.437 134.796 59.3324 136.351 55.5881C136.721 54.696 136.672 54.624 135.568 54.4454C134.771 54.3164 134.699 54.3656 134.267 55.32C133.546 56.915 131.888 57.7019 130.646 57.0388C129.896 56.6383 129.152 54.7771 129.341 53.772C129.428 53.3143 129.405 52.8871 129.291 52.8227C128.856 52.5768 127.795 52.408 127.642 52.5603ZM104.323 66.5799C104.323 66.6814 104.197 67.2064 104.044 67.7469C103.808 68.5849 103.738 68.6571 103.57 68.2382C103.462 67.968 103.366 67.4427 103.357 67.0713C103.343 66.5536 103.455 66.3957 103.832 66.3957C104.103 66.3957 104.324 66.4785 104.323 66.5799ZM108.07 72.7992C112.877 73.7625 117.777 77.2325 120.305 81.4633C121.382 83.2649 122.576 86.7395 122.74 88.5511L122.87 89.9807H104.359H85.8477V89.283C85.8477 87.0075 87.6994 82.3374 89.6348 79.7313C91.9208 76.6532 96.4644 73.7191 100.198 72.9103C102.078 72.503 106.295 72.4435 108.07 72.7992Z" fill="#181818"/>
<path d="M40.312 185.04C37.168 185.04 34.564 184.26 32.5 182.7C30.46 181.14 29.296 178.944 29.008 176.112H32.212C32.524 178.032 33.388 179.544 34.804 180.648C36.22 181.752 37.948 182.304 39.988 182.304C41.668 182.304 43.012 182.004 44.02 181.404C45.028 180.78 45.532 179.88 45.532 178.704C45.532 177.864 45.268 177.18 44.74 176.652C44.236 176.1 43.54 175.656 42.652 175.32C41.788 174.984 40.588 174.612 39.052 174.204C37.084 173.652 35.476 173.112 34.228 172.584C32.98 172.032 31.9 171.252 30.988 170.244C30.1 169.212 29.656 167.88 29.656 166.248C29.656 164.592 30.124 163.2 31.06 162.072C31.996 160.944 33.22 160.116 34.732 159.588C36.268 159.036 37.924 158.76 39.7 158.76C41.596 158.76 43.324 159.096 44.884 159.768C46.444 160.416 47.716 161.4 48.7 162.72C49.684 164.016 50.26 165.6 50.428 167.472H47.116C46.804 165.6 46.012 164.148 44.74 163.116C43.492 162.06 41.896 161.532 39.952 161.532C38.536 161.532 37.324 161.832 36.316 162.432C35.308 163.032 34.804 163.896 34.804 165.024C34.804 165.84 35.068 166.512 35.596 167.04C36.148 167.544 36.832 167.952 37.648 168.264C38.488 168.552 39.676 168.912 41.212 169.344C43.276 169.896 44.956 170.46 46.252 171.036C47.572 171.588 48.676 172.38 49.564 173.412C50.452 174.444 50.896 175.788 50.896 177.444C50.896 179.076 50.428 180.468 49.492 181.62C48.58 182.748 47.32 183.6 45.712 184.176C44.128 184.752 42.328 185.04 40.312 185.04ZM59.822 166.5V169.632C60.398 168.528 61.166 167.676 62.126 167.076C63.086 166.452 64.202 166.14 65.474 166.14C66.986 166.14 68.258 166.512 69.29 167.256C70.346 167.976 71.126 168.984 71.63 170.28C72.182 168.936 72.986 167.916 74.042 167.22C75.098 166.5 76.358 166.14 77.822 166.14C80.102 166.14 81.878 166.848 83.15 168.264C84.446 169.68 85.094 171.648 85.094 174.168V184.5H80.018V174.564C80.018 172.788 79.706 171.432 79.082 170.496C78.482 169.56 77.618 169.092 76.49 169.092C75.362 169.092 74.426 169.608 73.682 170.64C72.938 171.672 72.566 172.992 72.566 174.6V184.5H67.526V174.564C67.526 172.812 67.214 171.468 66.59 170.532C65.966 169.572 65.102 169.092 63.998 169.092C62.846 169.092 61.898 169.644 61.154 170.748C60.41 171.852 60.038 173.244 60.038 174.924V184.5H55.034V166.5H59.822ZM94.6082 184.896C92.7122 184.896 91.2482 184.464 90.2162 183.6C89.1842 182.712 88.6682 181.536 88.6682 180.072C88.6682 176.832 91.4162 175.008 96.9122 174.6C98.4722 174.48 99.6122 174.24 100.332 173.88C101.076 173.496 101.448 172.92 101.448 172.152C101.448 171.072 101.088 170.232 100.368 169.632C99.6722 169.008 98.7482 168.696 97.5962 168.696C96.3482 168.696 95.2802 169.08 94.3922 169.848C93.5282 170.592 92.9882 171.6 92.7722 172.872H90.0722C90.3602 170.784 91.2602 169.14 92.7722 167.94C94.2842 166.74 96.1682 166.14 98.4242 166.14C100.776 166.14 102.66 166.812 104.076 168.156C105.516 169.476 106.236 171.276 106.236 173.556V181.944H108.324V184.5H101.7V181.044C101.052 182.268 100.104 183.216 98.8562 183.888C97.6322 184.56 96.2162 184.896 94.6082 184.896ZM96.3362 182.304C97.2482 182.304 98.1002 182.064 98.8922 181.584C99.6842 181.08 100.32 180.396 100.8 179.532C101.28 178.668 101.52 177.696 101.52 176.616V174.924C101.256 175.188 100.824 175.416 100.224 175.608C99.6482 175.8 98.9882 175.944 98.2442 176.04C96.6602 176.256 95.5202 176.652 94.8242 177.228C94.1282 177.78 93.7802 178.572 93.7802 179.604C93.7802 180.492 94.0082 181.164 94.4642 181.62C94.9202 182.076 95.5442 182.304 96.3362 182.304ZM112.093 158.94H117.097V174.132H119.149L125.557 166.5H128.653L122.893 173.592L130.093 184.5H124.333L119.077 176.832H117.097V184.5H112.093V158.94ZM140.98 184.86C139.084 184.86 137.368 184.464 135.832 183.672C134.32 182.856 133.132 181.74 132.268 180.324C131.404 178.884 130.972 177.276 130.972 175.5C130.972 173.7 131.404 172.092 132.268 170.676C133.132 169.26 134.32 168.156 135.832 167.364C137.344 166.548 139.06 166.14 140.98 166.14C142.876 166.14 144.58 166.548 146.092 167.364C147.628 168.156 148.816 169.26 149.656 170.676C150.52 172.092 150.952 173.7 150.952 175.5C150.952 177.276 150.52 178.884 149.656 180.324C148.816 181.74 147.628 182.856 146.092 183.672C144.58 184.464 142.876 184.86 140.98 184.86ZM140.98 182.232C142.444 182.232 143.62 181.632 144.508 180.432C145.396 179.232 145.84 177.588 145.84 175.5C145.84 173.412 145.396 171.768 144.508 170.568C143.62 169.344 142.444 168.732 140.98 168.732C139.516 168.732 138.34 169.332 137.452 170.532C136.564 171.732 136.12 173.388 136.12 175.5C136.12 177.588 136.564 179.232 137.452 180.432C138.34 181.632 139.516 182.232 140.98 182.232ZM152.286 166.5H157.65L163.158 180.684H163.302L168.846 166.5H171.834L164.67 184.5H159.45L152.286 166.5ZM181.549 184.932C179.101 184.932 177.037 184.38 175.357 183.276C173.677 182.172 172.705 180.576 172.441 178.488H175.357C175.549 179.808 176.197 180.828 177.301 181.548C178.429 182.268 179.761 182.628 181.297 182.628C182.377 182.628 183.325 182.448 184.141 182.088C184.981 181.704 185.401 181.116 185.401 180.324C185.401 179.676 185.089 179.196 184.465 178.884C183.865 178.572 182.773 178.224 181.189 177.84C181.045 177.816 180.673 177.72 180.073 177.552C177.937 177.048 176.233 176.376 174.961 175.536C173.689 174.672 173.053 173.352 173.053 171.576C173.053 169.704 173.833 168.324 175.393 167.436C176.977 166.524 178.849 166.068 181.009 166.068C183.289 166.068 185.209 166.596 186.769 167.652C188.353 168.708 189.253 170.256 189.469 172.296H186.589C186.349 171.024 185.725 170.052 184.717 169.38C183.733 168.708 182.509 168.372 181.045 168.372C180.037 168.372 179.149 168.564 178.381 168.948C177.637 169.308 177.265 169.908 177.265 170.748C177.265 171.396 177.601 171.888 178.273 172.224C178.945 172.56 180.121 172.944 181.801 173.376L182.701 173.592C184.117 173.928 185.317 174.3 186.301 174.708C187.309 175.092 188.149 175.656 188.821 176.4C189.517 177.144 189.865 178.104 189.865 179.28C189.865 180.552 189.469 181.608 188.677 182.448C187.885 183.288 186.853 183.912 185.581 184.32C184.309 184.728 182.965 184.932 181.549 184.932ZM193.901 158.94H198.905V174.132H200.957L207.365 166.5H210.461L204.701 173.592L211.901 184.5H206.141L200.885 176.832H198.905V184.5H193.901V158.94ZM215.241 166.5H220.245V184.5H215.241V166.5ZM214.701 157.68H220.821L217.941 164.448H217.581L214.701 157.68Z" fill="#181818"/>
</svg>
