<svg width="88" height="130" viewBox="0 0 88 130" fill="none" xmlns="http://www.w3.org/2000/svg">
<path fill-rule="evenodd" clip-rule="evenodd" d="M60.5319 0.501878C59.6371 0.855515 58.6282 1.5512 57.7737 2.404L56.4262 3.74874L55.7342 3.02808C55.3535 2.63143 54.4461 2.04057 53.7175 1.71449C52.5899 1.20992 51.971 1.12261 49.5539 1.12879C45.9011 1.13806 44.3799 1.68075 42.5273 3.63542C38.1346 8.27082 40.0643 15.5339 46.1693 17.343C46.8757 17.5524 47.7963 17.7237 48.2149 17.7237C48.951 17.7237 48.9709 17.7559 48.8165 18.6896C48.7288 19.2209 48.4619 21.0224 48.2237 22.6929C47.923 24.8014 47.6964 25.6946 47.483 25.6127C46.8584 25.3737 41.7861 24.1889 41.0608 24.1129C40.4228 24.0459 40.2796 24.1464 40.1041 24.7846C39.8326 25.7708 39.9495 25.9122 41.3246 26.2576C42.2328 26.4858 42.4494 26.6399 42.3203 26.9659C42.2295 27.1949 41.6284 28.9471 40.9847 30.8595C40.3408 32.772 39.7404 34.4119 39.6511 34.5038C39.5616 34.596 38.6172 34.0969 37.5526 33.3948C32.7218 30.2095 30.6922 29.955 29.354 32.3666C28.557 33.803 28.4171 35.2271 28.9034 36.9561C29.7902 40.1092 32.5678 42.5682 36.1385 43.361C37.201 43.5969 38.1475 43.9142 38.2414 44.0659C38.6536 44.7315 38.7829 46.6061 38.5566 48.6315C38.3589 50.3995 36.5705 57.1521 36.0812 57.9786C36.0149 58.0906 35.5209 57.7859 34.9835 57.3012C33.922 56.3441 31.0703 54.6119 29.4226 53.9235C27.9143 53.293 24.4303 52.4989 23.1639 52.4968C22.5605 52.4958 22.067 52.4572 22.067 52.4105C22.067 52.3642 22.3573 51.6131 22.7122 50.7415C23.5683 48.639 23.5577 47.5044 22.6745 46.6874C22.17 46.2207 21.702 46.0559 20.8823 46.0559C18.5559 46.0559 17.6876 47.923 18.6676 50.8185C18.9549 51.667 19.1694 52.3709 19.1443 52.3825C19.1193 52.3941 17.9543 52.6547 16.5551 52.962C12.3668 53.8818 8.68897 55.991 5.75109 59.1577C2.02526 63.1737 0.199249 67.482 0.0598782 72.5851L0 74.7744L2.51383 74.8481C5.01578 74.9215 5.02843 74.9251 5.17709 75.6208C5.58282 77.5175 6.71636 78.9019 8.18775 79.2973C8.80898 79.4644 10.8887 79.5481 13.2647 79.5018L17.2892 79.4232L17.9122 80.5761C20.8898 86.0841 27.2185 90.1201 33.8329 90.729C37.4215 91.0592 37.3551 91.0319 37.184 92.1111C37.1012 92.6337 36.858 95.0899 36.6436 97.5689C36.162 103.137 34.9727 114.854 34.8503 115.237C34.8008 115.392 33.9078 115.923 32.8656 116.417C29.0959 118.204 23.3574 122.45 23.3574 123.453C23.3574 124.237 26.5862 124.485 36.6493 124.474C42.0434 124.468 47.357 124.371 48.457 124.259L50.4572 124.054V123.01V121.966L48.0699 122.132C43.9414 122.42 30.2307 122.636 28.8943 122.435L27.616 122.242L28.5193 121.48C29.6348 120.539 34.0242 118.052 35.5913 117.472C36.9917 116.954 36.7948 117.898 37.8096 106.841C38.2321 102.237 38.8157 96.2103 39.1063 93.4479C39.623 88.5364 40.3818 80.1135 40.3882 79.2174C40.3908 78.8761 40.1792 78.7667 39.5159 78.7667C38.5522 78.7667 38.3235 79.0819 38.3325 80.3976C38.3356 80.8463 38.1356 82.9387 37.8884 85.0471L37.4385 88.8805L35.1082 88.7301C30.0206 88.4019 25.5316 86.3852 22.3153 82.983C19.9759 80.5088 19.2571 79.2818 20.1468 79.2818C20.4544 79.2818 20.5305 79.0536 20.4694 78.3159L20.3894 77.3501L15.0788 77.4449C12.158 77.4969 9.40802 77.4606 8.96797 77.364C8.16375 77.1878 7.58691 76.5575 7.24649 75.4827L7.06272 74.9032H24.9261H42.7895L42.6386 72.3919C42.5557 71.0106 42.3036 69.1852 42.0782 68.3353C41.5331 66.2779 39.8186 62.7265 38.579 61.0869L37.5779 59.7622L38.4489 57.2978C38.9282 55.9423 39.519 54.0175 39.7619 53.0202C40.2156 51.1567 40.3733 50.9509 40.8799 51.5601C41.9311 52.8242 46.7198 53.966 49.6574 53.653C51.9506 53.4089 55.1649 52.2024 56.558 51.0632C57.6026 50.2091 57.7646 50.1548 58.5036 50.4116C59.5228 50.7663 61.9881 50.7773 62.2044 50.4283C62.2942 50.2831 62.2947 49.8326 62.2054 49.4272C62.0503 48.7214 61.97 48.6851 60.3438 48.5818C58.8355 48.486 58.5758 48.3884 58.0361 47.7156C57.6237 47.201 57.4278 46.622 57.4271 45.9142C57.4255 44.696 57.0747 44.2529 56.1115 44.2529C55.5817 44.2529 55.3778 44.4093 55.2511 44.9123C55.0438 45.7365 55.305 47.2909 55.7771 48.043C55.9742 48.3567 56.1353 48.6769 56.1353 48.7544C56.1353 48.8319 55.4996 49.3015 54.7225 49.7973C52.6903 51.0949 50.6387 51.5523 47.4907 51.4099C44.5993 51.2793 43.187 50.8015 41.6111 49.4207C40.6905 48.6138 40.6636 48.5399 40.6794 46.85C40.699 44.7691 40.2669 43.1799 39.4816 42.4435C39.1649 42.1466 38.1924 41.7378 37.3208 41.5349C33.5441 40.6555 31.188 38.6246 30.7265 35.8504C30.5459 34.7655 30.9998 33.1717 31.5935 32.8055C32.0025 32.553 34.2242 33.6428 36.7478 35.334C38.4174 36.4526 39.1318 36.7835 39.878 36.7835C40.4097 36.7835 40.9594 36.6385 41.0995 36.4616C41.2397 36.2846 42.0222 34.1693 42.8386 31.761C43.6549 29.3528 44.398 27.2997 44.4899 27.1988C44.5817 27.0978 46.6878 27.5166 49.1701 28.1296C51.6525 28.7424 56.4708 29.9148 59.8776 30.7349C63.2845 31.5547 66.1994 32.38 66.355 32.5685C66.5117 32.7578 66.7189 34.6123 66.8186 36.7135C66.9174 38.8047 67.0952 40.6123 67.2134 40.7302C67.3319 40.8484 68.0331 40.6393 68.7718 40.2658C69.5105 39.8924 70.4189 39.6224 70.7906 39.6662C71.6201 39.7636 72.5193 41.1573 72.2994 42.0044C72.0514 42.9597 70.4775 43.8231 68.7579 43.9472C67.8607 44.0121 67.2338 44.177 67.2346 44.3482C67.2351 44.5084 67.2062 46.4332 67.1701 48.6259L67.1043 52.6127L71.2337 54.8775C76.6622 57.8547 78.5734 59.1657 80.9324 61.5299C82.4931 63.0941 83.128 63.9799 84.0734 65.9126C85.6947 69.2278 86.167 71.263 86.1593 74.9032C86.1523 78.1514 85.9662 79.1592 84.7571 82.4936C83.2124 86.7543 79.1776 91.8093 75.213 94.4514C72.8386 96.0338 71.6341 96.252 70.524 95.3006C69.7265 94.617 70.0248 93.9896 72.0726 92.0429L74.0728 90.1413L73.4472 89.4765C73.1029 89.1107 72.7224 88.8117 72.6016 88.8117C72.4809 88.8117 71.624 89.5156 70.6974 90.3757C69.0983 91.8605 67.3368 92.9147 66.4345 92.9271C65.9013 92.9343 65.1686 92.1222 65.1686 91.5239C65.1686 90.803 66.8454 88.8076 68.53 87.5239C70.0979 86.3293 70.3028 85.9167 69.7131 85.1414C69.2645 84.5518 69.2944 84.5467 67.1001 85.5857C64.7595 86.6943 63.1838 87.0015 62.9508 86.395C62.5554 85.3668 65.1528 83.1922 69.5564 80.8653C71.2952 79.9463 72.1371 79.3568 72.1371 79.0585C72.1371 78.5372 69.0877 63.532 68.9548 63.3996C68.905 63.3499 68.4974 63.3823 68.0489 63.4719C67.1334 63.6546 67.0408 64.0659 67.4865 65.9675C67.6256 66.5614 68.0835 68.844 68.5039 71.0397C68.9243 73.2355 69.4364 75.7452 69.6418 76.617L70.015 78.2021L67.5487 79.5656C62.2188 82.5124 60.1081 85.0237 61.0515 87.2965C61.3916 88.1158 62.5703 88.8117 63.6184 88.8117C64.1148 88.8117 64.1256 88.8578 63.7818 89.5213C63.4174 90.2247 63.2819 91.1203 63.3345 92.4779C63.3495 92.8653 63.7008 93.5607 64.1148 94.0233C64.8075 94.797 64.9977 94.8663 66.4872 94.8877C68.0925 94.9109 68.1088 94.9183 68.4007 95.7892C68.8448 97.1148 70.079 97.8265 71.9342 97.8265C72.774 97.8265 73.6833 97.708 73.9543 97.5633C74.5415 97.2496 74.4527 96.9346 75.3733 102.591C75.7424 104.858 76.2666 107.872 76.5386 109.288C76.8104 110.705 77.4959 114.588 78.0619 117.917C78.6279 121.246 79.1652 124.338 79.2561 124.789C79.4545 125.774 79.9594 125.646 72.2661 126.552C64.8939 127.42 57.6756 128.003 55.4377 127.91L53.5846 127.833L55.2043 126.159C56.0953 125.238 57.3661 123.999 58.0284 123.405L59.2324 122.325V113.909V105.493L59.8131 105.652C60.1326 105.74 60.8137 105.882 61.3268 105.967C62.1909 106.112 62.2802 106.065 62.5339 105.339C62.7355 104.762 62.7278 104.489 62.5043 104.305C62.2281 104.077 56.972 102.509 50.3282 100.672C48.9087 100.279 46.9694 99.7428 46.0186 99.4798C45.0677 99.2168 44.2269 99.0644 44.15 99.1411C44.0733 99.2179 43.9373 99.6452 43.848 100.09C43.6485 101.086 43.3968 100.973 49.683 102.723C52.3091 103.455 55.0676 104.225 55.8127 104.435L57.1677 104.817V113.067V121.317L54.7697 123.674C52.5408 125.864 49.9411 129.012 49.9411 129.521C49.9411 129.642 50.3721 129.822 50.8991 129.921C52.0721 130.14 61.3803 129.87 64.3943 129.529C65.6009 129.392 67.8656 129.155 69.4271 129.003C74.7092 128.487 81.2984 127.643 81.5035 127.456C81.6158 127.354 81.1711 124.152 80.5156 120.34C79.86 116.528 78.8738 110.778 78.3243 107.562C77.7746 104.346 77.1449 100.845 76.9247 99.7814C76.3399 96.9559 76.3899 96.1709 77.1877 95.6493C78.4609 94.8166 81.7105 91.5525 83.0996 89.7109C84.8513 87.3882 86.652 83.8325 87.4188 81.1832C87.9257 79.4309 88.0052 78.5712 87.9997 74.9032C87.992 69.8724 87.5421 67.8614 85.6477 64.3891C83.4186 60.3029 79.5379 56.9924 72.4605 53.1392C70.7222 52.1926 69.2493 51.3368 69.1873 51.2368C69.1256 51.1371 69.1416 49.9402 69.2232 48.5769L69.3713 46.0986L70.444 45.829C72.7764 45.243 74.2449 43.6031 74.2449 41.584C74.2449 39.0687 72.4873 37.3628 70.1647 37.624C69.4333 37.7061 69.0327 37.649 69.0193 37.4602C69.0082 37.3005 68.9187 36.2071 68.8208 35.0306C68.6564 33.0584 68.6786 32.9005 69.1022 33.011C72.1995 33.8192 74.4682 34.2599 74.8264 34.1226C75.1439 34.0011 75.2445 33.719 75.1862 33.115L75.1051 32.2762L71.7985 31.4661C69.9797 31.0205 68.4407 30.6048 68.3782 30.5427C68.1756 30.3403 70.3454 20.7135 70.6659 20.3936C70.7266 20.3334 71.45 20.1745 72.2734 20.0405C75.4776 19.5202 77.6512 18.5582 79.3812 16.8951C81.1066 15.2364 81.8158 13.6338 81.8073 11.4134C81.7991 9.29644 81.1876 7.89735 79.7557 6.7195C77.9844 5.26271 74.5265 4.67109 72.564 5.48937C72.0545 5.70186 71.594 5.87572 71.5409 5.87572C71.488 5.87572 71.3117 5.44121 71.1494 4.90985C70.0225 1.22306 64.5034 -1.06824 60.5319 0.501878ZM66.5636 2.77309C67.9451 3.44044 68.9207 4.65048 69.3404 6.21699C69.6328 7.30752 69.6096 7.44378 68.969 8.4099C67.8989 10.0235 67.8321 10.6427 68.668 11.1895L69.3742 11.6511L70.2396 10.6523C70.7152 10.1029 71.1047 9.51074 71.1047 9.33662C71.1047 8.78569 72.8628 7.45356 73.8286 7.27275C75.0669 7.04094 76.9461 7.31808 77.8949 7.87262C80.5726 9.43785 80.5202 13.0584 77.7842 15.5133C76.2606 16.8802 74.4362 17.6163 71.7453 17.9496C70.5555 18.0972 69.5858 18.3653 69.2957 18.6273C68.9674 18.9237 68.3947 20.7823 67.4834 24.5095C66.7507 27.5063 66.1305 29.9802 66.1052 30.0073C66.0799 30.0343 63.6812 29.4839 60.7745 28.7841C57.8681 28.0843 54.1792 27.2006 52.577 26.8207C50.4245 26.3099 49.6987 26.0387 49.7973 25.7824C49.8708 25.5913 50.1682 23.7291 50.458 21.6439C50.7481 19.5586 51.033 17.6369 51.0916 17.3734C51.2767 16.5402 50.1209 15.6632 48.8374 15.6632C46.256 15.6632 43.7076 14.115 42.6894 11.9285C41.7301 9.86824 42.183 6.85575 43.688 5.2877C45.1586 3.75544 46.5156 3.20425 49.1012 3.08809C51.2713 2.99073 51.6127 3.04224 52.8673 3.65473C54.819 4.60772 55.2082 5.12646 55.361 6.97964C55.4823 8.4524 55.5352 8.55749 56.2489 8.7468C57.315 9.02961 57.6056 8.67262 57.7324 6.92504C57.8924 4.71796 59.0985 3.25473 61.4931 2.36304C62.7773 1.88474 65.1164 2.07406 66.5636 2.77309ZM45.7207 33.6116C45.4497 33.8821 45.5295 36.944 45.8281 37.7327C45.9791 38.1314 46.4145 38.7869 46.7959 39.1889C49.3371 41.8694 53.2145 40.7114 54.8438 36.7859C55.232 35.8506 55.1806 35.7752 54.0241 35.5879C53.1892 35.4527 53.1128 35.5042 52.6606 36.5049C51.9049 38.177 50.1687 39.002 48.8674 38.3068C48.0812 37.887 47.3026 35.9356 47.5005 34.8819C47.5909 34.4021 47.5671 33.9542 47.4479 33.8867C46.9923 33.6289 45.8807 33.4519 45.7207 33.6116ZM21.2911 48.3096C21.2904 48.416 21.159 48.9664 20.999 49.533C20.751 50.4116 20.6779 50.4873 20.5024 50.0482C20.3891 49.7648 20.2885 49.2142 20.2784 48.8247C20.2645 48.282 20.3811 48.1164 20.7765 48.1164C21.0604 48.1164 21.2919 48.2032 21.2911 48.3096ZM25.216 54.8299C30.2516 55.8398 35.3854 59.4776 38.0339 63.9131C39.162 65.8019 40.4125 69.4446 40.5852 71.3439L40.7214 72.8427H21.3286H1.9357V72.1112C1.9357 69.7256 3.87553 64.8296 5.90311 62.0973C8.29796 58.8703 13.058 55.7942 16.9689 54.9463C18.9386 54.5192 23.3564 54.4569 25.216 54.8299Z" fill="black"/>
</svg>
