<svg width="138" height="192" viewBox="0 0 138 192" fill="none" xmlns="http://www.w3.org/2000/svg">
<path fill-rule="evenodd" clip-rule="evenodd" d="M43.6613 0.741235C45.0543 1.26353 46.625 2.291 47.9553 3.55052L50.0532 5.53661L51.1304 4.47224C51.7231 3.88641 53.1358 3.01377 54.2701 2.53218C56.0256 1.78697 56.9891 1.65801 60.752 1.66714C66.4387 1.68083 68.807 2.48234 71.6911 5.36923C78.5298 12.2154 75.5256 22.9424 66.0213 25.6143C64.9215 25.9236 63.4883 26.1766 62.8366 26.1766C61.6906 26.1766 61.6597 26.2241 61.9 27.6031C62.0366 28.3879 62.452 31.0484 62.8229 33.5157C63.291 36.6297 63.6438 37.9489 63.9761 37.828C64.9484 37.4749 72.8451 35.7251 73.9742 35.6129C74.9674 35.514 75.1904 35.6623 75.4637 36.605C75.8864 38.0615 75.7043 38.2704 73.5635 38.7805C72.1496 39.1175 71.8125 39.345 72.0134 39.8266C72.1548 40.1648 73.0906 42.7527 74.0927 45.5772C75.0952 48.4017 76.0298 50.8237 76.1688 50.9595C76.3083 51.0957 77.7785 50.3585 79.4359 49.3215C86.9565 44.617 90.1163 44.2412 92.1996 47.8029C93.4404 49.9244 93.6582 52.0277 92.9012 54.5813C91.5206 59.2382 87.1964 62.87 81.6374 64.0408C79.9832 64.3893 78.5097 64.8579 78.3635 65.082C77.7218 66.065 77.5205 68.8336 77.8729 71.8251C78.1807 74.4361 80.9648 84.4092 81.7266 85.6299C81.8299 85.7954 82.5989 85.3454 83.4355 84.6295C85.0881 83.2159 89.5276 80.6576 92.0927 79.6408C94.4409 78.7096 99.8648 77.5368 101.836 77.5338C102.776 77.5322 103.544 77.4752 103.544 77.4063C103.544 77.3379 103.092 76.2286 102.54 74.9413C101.207 71.8361 101.223 70.1604 102.598 68.9538C103.384 68.2645 104.112 68.021 105.388 68.021C109.01 68.021 110.362 70.7786 108.836 75.0551C108.389 76.3081 108.055 77.3478 108.094 77.3649C108.133 77.382 109.947 77.767 112.125 78.2208C118.646 79.5792 124.371 82.6943 128.945 87.3714C134.745 93.3027 137.588 99.6657 137.805 107.203L137.898 110.436L133.985 110.545C130.09 110.653 130.07 110.659 129.839 111.686C129.207 114.487 127.442 116.532 125.152 117.116C124.184 117.363 120.947 117.486 117.248 117.418L110.982 117.302L110.012 119.005C105.377 127.14 95.5242 133.101 85.2267 134C79.64 134.487 79.7433 134.447 80.0097 136.041C80.1387 136.813 80.5172 140.44 80.8511 144.102C81.6008 152.326 83.4523 169.63 83.6428 170.196C83.7199 170.425 85.1102 171.21 86.7327 171.939C92.6014 174.578 101.535 180.85 101.535 182.33C101.535 183.488 96.5086 183.854 80.8422 183.838C72.4445 183.83 64.1722 183.687 62.4597 183.52L59.3457 183.218V181.677V180.135L63.0624 180.38C69.4896 180.804 90.8347 181.123 92.9152 180.826L94.9054 180.542L93.4991 179.417C91.7625 178.027 84.929 174.353 82.4892 173.497C80.309 172.732 80.6156 174.126 79.0357 157.796C78.378 150.997 77.4695 142.095 77.017 138.015C76.2126 130.761 75.0313 118.321 75.0213 116.998C75.0173 116.494 75.3467 116.332 76.3794 116.332C77.8797 116.332 78.2357 116.798 78.2217 118.741C78.2168 119.404 78.5282 122.494 78.9132 125.608L79.6135 131.27L83.2414 131.047C91.1618 130.563 98.1503 127.584 103.158 122.56C106.8 118.905 107.919 117.093 106.534 117.093C106.055 117.093 105.936 116.756 106.031 115.667L106.156 114.24L114.423 114.38C118.971 114.457 123.252 114.403 123.937 114.261C125.189 114 126.087 113.07 126.617 111.482L126.903 110.626H99.093H71.2829L71.518 106.917C71.6469 104.877 72.0395 102.181 72.3903 100.926C73.2389 97.8873 75.9081 92.6423 77.8379 90.2206L79.3965 88.2642L78.0404 84.6245C77.2943 82.6224 76.3746 79.7797 75.9965 78.3068C75.2901 75.5545 75.0446 75.2506 74.2558 76.1502C72.6193 78.0173 65.1642 79.7036 60.5909 79.2414C57.0209 78.8808 52.0168 77.099 49.8478 75.4165C48.2217 74.155 47.9694 74.0748 46.819 74.454C45.2323 74.9778 41.3943 74.9942 41.0576 74.4788C40.9177 74.2642 40.9169 73.5989 41.056 73.0001C41.2974 71.9578 41.4224 71.9042 43.9542 71.7516C46.3023 71.6101 46.7065 71.466 47.5467 70.4723C48.1888 69.7123 48.4938 68.8571 48.495 67.8118C48.4974 66.0125 49.0434 65.3582 50.543 65.3582C51.3679 65.3582 51.6853 65.5891 51.8826 66.332C52.2052 67.5493 51.7986 69.845 51.0637 70.9558C50.7567 71.4192 50.506 71.892 50.506 72.0065C50.506 72.121 51.4956 72.8145 52.7055 73.5468C55.8693 75.4632 59.0632 76.1388 63.964 75.9285C68.4654 75.7356 70.6641 75.03 73.1175 72.9906C74.5508 71.7988 74.5926 71.6896 74.568 69.1938C74.5375 66.1205 75.2101 63.7734 76.4328 62.6858C76.9258 62.2472 78.4398 61.6435 79.7967 61.3438C85.6763 60.0451 89.3444 57.0456 90.0628 52.9483C90.3441 51.346 89.6373 48.9921 88.7132 48.4511C88.0763 48.0783 84.6176 49.6878 80.6887 52.1856C78.0895 53.8376 76.9773 54.3265 75.8157 54.3265C74.9879 54.3265 74.1321 54.1123 73.9139 53.851C73.6957 53.5896 72.4775 50.4654 71.2066 46.9086C69.9357 43.3518 68.7789 40.3196 68.6358 40.1705C68.4928 40.0214 65.214 40.6399 61.3495 41.5453C57.4849 42.4503 49.9837 44.1819 44.6798 45.3931C39.376 46.6039 34.838 47.8227 34.5958 48.1012C34.3519 48.3808 34.0292 51.1197 33.8741 54.223C33.7202 57.3115 33.4434 59.9812 33.2593 60.1554C33.0749 60.33 31.9832 60.0211 30.8333 59.4695C29.6833 58.9179 28.2689 58.5193 27.6903 58.5839C26.3989 58.7277 24.9991 60.7861 25.3414 62.0373C25.7275 63.4482 28.1777 64.7233 30.8549 64.9066C32.2516 65.0025 33.2276 65.246 33.2264 65.4989C33.2256 65.7355 33.2706 68.5783 33.3269 71.8167L33.4293 77.705L27.0004 81.0499C18.5493 85.4469 15.5739 87.3832 11.9014 90.8749C9.47173 93.1851 8.4833 94.4933 7.01149 97.3479C4.48735 102.244 3.75205 105.25 3.7641 110.626C3.77495 115.424 4.06465 116.912 5.9471 121.837C8.3519 128.129 14.6333 135.595 20.8054 139.497C24.502 141.835 26.3772 142.157 28.1054 140.752C29.347 139.742 28.8825 138.815 25.6946 135.94L22.5806 133.132L23.5546 132.15C24.0906 131.61 24.6828 131.168 24.8709 131.168C25.0589 131.168 26.3929 132.208 27.8354 133.478C30.325 135.671 33.0673 137.228 34.472 137.246C35.3021 137.257 36.4428 136.057 36.4428 135.174C36.4428 134.109 33.8323 131.162 31.2098 129.266C28.7688 127.502 28.4498 126.892 29.3679 125.747C30.0662 124.877 30.0196 124.869 33.4357 126.404C37.0797 128.041 39.5327 128.495 39.8955 127.599C40.5111 126.08 36.4674 122.868 29.6118 119.432C26.9048 118.075 25.5941 117.204 25.5941 116.763C25.5941 115.993 30.3414 93.8318 30.5484 93.6363C30.6259 93.5629 31.2604 93.6108 31.9587 93.7432C33.3839 94.0129 33.5282 94.6204 32.8342 97.4289C32.6177 98.3061 31.9049 101.677 31.2503 104.92C30.5958 108.163 29.7986 111.87 29.4788 113.157L28.8978 115.498L32.7374 117.512C41.0351 121.865 44.321 125.573 42.8524 128.93C42.3228 130.14 40.4878 131.168 38.8561 131.168C38.0834 131.168 38.0665 131.236 38.6017 132.216C39.1691 133.255 39.38 134.578 39.2981 136.583C39.2748 137.155 38.7279 138.182 38.0834 138.865C37.005 140.008 36.7088 140.11 34.39 140.142C31.8908 140.176 31.8655 140.187 31.411 141.473C30.7195 143.431 28.7981 144.482 25.91 144.482C24.6025 144.482 23.1869 144.307 22.765 144.093C21.8509 143.63 21.9891 143.165 20.5559 151.52C19.9813 154.867 19.1653 159.318 18.7418 161.41C18.3187 163.502 17.2515 169.237 16.3703 174.154C15.4892 179.07 14.6526 183.638 14.5112 184.304C14.2022 185.758 13.4162 185.57 25.3932 186.908C36.8704 188.19 48.108 189.05 51.5921 188.913L54.477 188.799L51.9553 186.327C50.5683 184.967 48.5898 183.137 47.5588 182.259L45.6843 180.665V168.235V155.806L44.7803 156.04C44.2829 156.169 43.2225 156.379 42.4237 156.506C41.0785 156.719 40.9394 156.651 40.5445 155.578C40.2307 154.725 40.2427 154.322 40.5907 154.05C41.0206 153.713 49.2033 151.397 59.5466 148.684C61.7565 148.104 64.7757 147.312 66.2559 146.924C67.7362 146.536 69.0452 146.31 69.165 146.424C69.2843 146.537 69.4961 147.168 69.6351 147.826C69.9457 149.297 70.3375 149.129 60.5511 151.714C56.4627 152.794 52.1683 153.932 51.0083 154.243L48.8988 154.807V166.992V179.177L52.6319 182.657C56.1019 185.891 60.1493 190.541 60.1493 191.292C60.1493 191.471 59.4783 191.737 58.6578 191.883C56.8316 192.207 42.3405 191.808 37.6483 191.304C35.7698 191.102 32.244 190.753 29.8131 190.527C21.5897 189.765 11.3317 188.519 11.0123 188.243C10.8375 188.093 11.5298 183.363 12.5503 177.733C13.5709 172.103 15.1062 163.61 15.9617 158.861C16.8175 154.111 17.7979 148.94 18.1407 147.369C19.0512 143.196 18.9732 142.037 17.7312 141.267C15.7491 140.037 10.69 135.216 8.52749 132.496C5.80044 129.066 2.99706 123.814 1.8033 119.901C1.01415 117.313 0.890395 116.044 0.898833 110.626C0.910887 103.196 1.61123 100.226 4.56048 95.0978C8.03086 89.0627 14.0724 84.1734 25.0907 78.4825C27.7968 77.0845 30.0899 75.8204 30.1863 75.6728C30.2824 75.5256 30.2575 73.7579 30.1305 71.7444L29.8999 68.0842L28.23 67.6859C24.5989 66.8205 22.3126 64.3984 22.3126 61.4164C22.3126 57.7014 25.0489 55.182 28.6647 55.5677C29.8034 55.6891 30.427 55.6046 30.4479 55.3258C30.4652 55.0899 30.6046 53.4751 30.7569 51.7374C31.0129 48.8247 30.9783 48.5915 30.3189 48.7547C25.4969 49.9484 21.965 50.5993 21.4073 50.3965C20.9131 50.217 20.7564 49.8004 20.8472 48.9084L20.9734 47.6694L26.1213 46.473C28.9528 45.8149 31.3488 45.201 31.446 45.1093C31.7614 44.8103 28.3835 30.5923 27.8844 30.1198C27.79 30.0308 26.6637 29.7961 25.382 29.5983C20.3936 28.8299 17.0096 27.4091 14.3163 24.9528C11.6302 22.503 10.5261 20.1361 10.5393 16.8567C10.5522 13.7301 11.5041 11.6638 13.7333 9.92419C16.4908 7.77262 21.8742 6.89883 24.9295 8.10738C25.7227 8.42121 26.4395 8.67798 26.5223 8.67798C26.6047 8.67798 26.8791 8.03624 27.1318 7.25147C28.8861 1.80637 37.4783 -1.57771 43.6613 0.741235ZM34.2711 4.09564C32.1202 5.08126 30.6014 6.8684 29.9481 9.18202C29.4928 10.7926 29.529 10.9939 30.5263 12.4208C32.1922 14.804 32.2962 15.7185 30.9948 16.5261L29.8954 17.2078L28.5482 15.7326C27.8077 14.9212 27.2013 14.0466 27.2013 13.7895C27.2013 12.9758 24.4643 11.0083 22.9607 10.7413C21.0329 10.3989 18.1073 10.8082 16.6303 11.6273C12.4616 13.939 12.5431 19.2863 16.8026 22.9119C19.1745 24.9307 22.0149 26.0179 26.2041 26.5102C28.0564 26.7282 29.566 27.1242 30.0176 27.511C30.5287 27.9489 31.4203 30.6939 32.8391 36.1987C33.9798 40.6247 34.9453 44.2785 34.9847 44.3184C35.0241 44.3584 38.7584 43.5454 43.2836 42.5119C47.8083 41.4783 53.5513 40.1732 56.0457 39.6121C59.3967 38.8577 60.5266 38.4572 60.3731 38.0786C60.2586 37.7964 59.7957 35.0461 59.3445 31.9663C58.8929 28.8866 58.4493 26.0484 58.3581 25.6592C58.07 24.4286 59.8692 23.1333 61.8674 23.1333C65.8863 23.1333 69.8537 20.8467 71.4388 17.6175C72.9323 14.5746 72.2271 10.1254 69.8842 7.80952C67.5947 5.5465 65.482 4.73243 61.4568 4.56087C58.0784 4.41708 57.5468 4.49316 55.5936 5.39776C52.5552 6.80525 51.9493 7.57139 51.7114 10.3084C51.5226 12.4835 51.4402 12.6388 50.3292 12.9183C48.6693 13.336 48.2169 12.8088 48.0196 10.2277C47.7705 6.96807 45.8929 4.80699 42.1649 3.49003C40.1656 2.78362 36.524 3.06322 34.2711 4.09564ZM66.7196 49.6418C67.1415 50.0412 67.0173 54.5635 66.5525 55.7283C66.3174 56.3171 65.6396 57.2853 65.0457 57.8791C61.0895 61.8379 55.0532 60.1276 52.5166 54.3299C51.9123 52.9486 51.9923 52.8372 53.7928 52.5606C55.0926 52.3609 55.2115 52.437 55.9155 53.9149C57.092 56.3845 59.7949 57.6029 61.8208 56.5762C63.0447 55.9561 64.2569 53.0742 63.9488 51.5179C63.8081 50.8093 63.8451 50.1477 64.0307 50.0481C64.7399 49.6673 66.4705 49.4059 66.7196 49.6418ZM104.752 71.3495C104.753 71.5067 104.958 72.3196 105.207 73.1565C105.593 74.454 105.707 74.5659 105.98 73.9173C106.156 73.4988 106.313 72.6855 106.329 72.1104C106.35 71.3088 106.169 71.0642 105.553 71.0642C105.111 71.0642 104.751 71.1924 104.752 71.3495ZM98.6418 80.9795C90.8021 82.471 82.8099 87.8439 78.6865 94.3948C76.9303 97.1843 74.9835 102.564 74.7147 105.369L74.5026 107.583H104.694H134.885V106.503C134.885 102.979 131.865 95.7483 128.708 91.713C124.98 86.9469 117.57 82.4037 111.481 81.1514C108.414 80.5207 101.537 80.4287 98.6418 80.9795Z" fill="#181818"/>
</svg>
