<svg width="228" height="334" viewBox="0 0 228 334" fill="none" xmlns="http://www.w3.org/2000/svg">
<path fill-rule="evenodd" clip-rule="evenodd" d="M147.627 0.96901C145.807 1.6518 143.755 2.99501 142.017 4.64156L139.276 7.23796L137.868 5.84652C137.094 5.08068 135.248 3.93987 133.766 3.31029C131.473 2.33609 130.214 2.1675 125.297 2.17944C117.867 2.19734 114.773 3.24515 111.004 7.01915C102.069 15.969 105.995 29.9924 118.413 33.4854C119.849 33.8897 121.722 34.2204 122.574 34.2204C124.071 34.2204 124.111 34.2826 123.797 36.0853C123.619 37.1112 123.076 40.5893 122.591 43.8148C121.98 47.8857 121.519 49.6103 121.085 49.4522C119.814 48.9907 109.497 46.7031 108.021 46.5564C106.724 46.4271 106.432 46.6211 106.075 47.8534C105.523 49.7575 105.761 50.0305 108.558 50.6974C110.405 51.138 110.846 51.4354 110.583 52.065C110.399 52.5071 109.176 55.8902 107.867 59.5827C106.557 63.2751 105.336 66.4414 105.154 66.6189C104.972 66.797 103.051 65.8332 100.885 64.4776C91.0592 58.3275 86.9307 57.8362 84.2087 62.4924C82.5875 65.2658 82.303 68.0154 83.2921 71.3537C85.0959 77.4417 90.7458 82.1894 98.009 83.7201C100.17 84.1756 102.095 84.7883 102.287 85.0812C103.125 86.3662 103.388 89.9855 102.928 93.8963C102.525 97.3098 98.8878 110.347 97.8924 111.943C97.7575 112.16 96.7527 111.571 95.6597 110.635C93.5004 108.787 87.6998 105.443 84.3483 104.114C81.2803 102.896 74.1935 101.363 71.6174 101.359C70.39 101.357 69.3862 101.283 69.3862 101.193C69.3862 101.103 69.9768 99.653 70.6987 97.9702C72.4401 93.9107 72.4186 91.7201 70.6221 90.1427C69.5957 89.2416 68.6439 88.9233 66.9766 88.9233C62.2443 88.9233 60.4783 92.5282 62.4717 98.1189C63.056 99.757 63.4922 101.116 63.4413 101.138C63.3904 101.161 61.0206 101.664 58.1747 102.257C49.6552 104.033 42.1742 108.106 36.1982 114.22C28.6196 121.974 24.9053 130.292 24.6218 140.145L24.5 144.372L29.6134 144.514C34.7026 144.656 34.7283 144.663 35.0307 146.006C35.856 149.668 38.1617 152.341 41.1546 153.105C42.4183 153.427 46.6486 153.589 51.4816 153.5L59.6677 153.348L60.935 155.574C66.9918 166.209 79.8649 174.001 93.3193 175.177C100.619 175.814 100.484 175.762 100.136 177.845C99.9672 178.854 99.4726 183.597 99.0364 188.383C98.0567 199.135 95.6376 221.756 95.3888 222.496C95.288 222.796 93.4715 223.821 91.3516 224.774C83.6837 228.225 72.0112 236.423 72.0112 238.359C72.0112 239.872 78.5787 240.351 99.0479 240.33C110.02 240.319 120.828 240.132 123.066 239.915L127.135 239.52V237.504V235.489L122.279 235.809C113.881 236.364 85.9921 236.781 83.2737 236.393L80.6734 236.021L82.5109 234.55C84.7799 232.734 93.7083 227.93 96.896 226.811C99.7446 225.811 99.344 227.633 101.408 206.286C102.268 197.397 103.455 185.76 104.046 180.426C105.097 170.943 106.64 154.681 106.653 152.951C106.659 152.292 106.228 152.08 104.879 152.08C102.919 152.08 102.453 152.689 102.472 155.229C102.478 156.095 102.071 160.136 101.568 164.206L100.653 171.608L95.9132 171.317C85.5647 170.684 76.4336 166.79 69.8913 160.221C65.1328 155.444 63.6707 153.075 65.4803 153.075C66.1061 153.075 66.261 152.634 66.1366 151.21L65.9738 149.345L55.1717 149.528C49.2305 149.629 43.6368 149.558 42.7417 149.372C41.1058 149.032 39.9325 147.815 39.24 145.74L38.8662 144.621H75.202H111.538L111.231 139.772C111.062 137.105 110.549 133.581 110.091 131.94C108.982 127.967 105.495 121.11 102.973 117.945L100.937 115.387L102.709 110.629C103.684 108.012 104.885 104.295 105.379 102.37C106.302 98.7718 106.623 98.3745 107.653 99.5506C109.792 101.991 119.532 104.196 125.508 103.592C130.172 103.12 136.71 100.791 139.544 98.5913C141.669 96.9423 141.999 96.8373 143.502 97.3331C145.575 98.0179 150.589 98.0393 151.029 97.3655C151.212 97.085 151.213 96.2152 151.031 95.4324C150.716 94.0698 150.553 93.9997 147.245 93.8003C144.177 93.6153 143.649 93.4268 142.551 92.1279C141.712 91.1343 141.313 90.0164 141.312 88.6498C141.309 86.2976 140.595 85.4422 138.636 85.4422C137.558 85.4422 137.143 85.7441 136.886 86.7153C136.464 88.3067 136.995 91.3079 137.956 92.76C138.357 93.3657 138.684 93.9838 138.684 94.1335C138.684 94.2832 137.391 95.1898 135.811 96.1471C131.677 98.6525 127.504 99.5357 121.1 99.2607C115.219 99.0085 112.346 98.086 109.141 95.42C107.268 93.862 107.214 93.7193 107.246 90.4565C107.285 86.4388 106.407 83.3705 104.809 81.9487C104.165 81.3753 102.187 80.5861 100.414 80.1942C92.7318 78.4964 87.9392 74.5752 87.0005 69.2188C86.6331 67.1242 87.5565 64.0469 88.764 63.3398C89.5961 62.8524 94.1152 64.9565 99.2485 68.2217C102.645 70.3815 104.098 71.0205 105.615 71.0205C106.697 71.0205 107.815 70.7406 108.1 70.3989C108.385 70.0573 109.977 65.973 111.638 61.3232C113.298 56.6735 114.81 52.7095 114.996 52.5146C115.183 52.3196 119.467 53.1282 124.517 54.3118C129.566 55.4949 139.367 57.7586 146.297 59.342C153.226 60.9249 159.156 62.5182 159.472 62.8822C159.791 63.2478 160.212 66.8283 160.415 70.8853C160.616 74.9228 160.978 78.4129 161.218 78.6407C161.459 78.8689 162.886 78.4651 164.388 77.744C165.891 77.0229 167.739 76.5018 168.495 76.5863C170.182 76.7743 172.011 79.4652 171.564 81.1008C171.059 82.9453 167.858 84.6122 164.36 84.8519C162.535 84.9772 161.26 85.2955 161.261 85.6262C161.262 85.9355 161.204 89.6518 161.13 93.8854L160.996 101.583L169.396 105.956C180.438 111.704 184.325 114.235 189.124 118.8C192.298 121.82 193.59 123.53 195.513 127.262C198.811 133.663 199.772 137.592 199.756 144.621C199.742 150.892 199.363 152.838 196.904 159.276C193.762 167.503 185.554 177.263 177.49 182.364C172.66 185.419 170.21 185.84 167.952 184.003C166.33 182.684 166.937 181.472 171.102 177.714L175.171 174.042L173.898 172.758C173.198 172.052 172.424 171.475 172.178 171.475C171.933 171.475 170.19 172.834 168.305 174.495C165.052 177.361 161.469 179.397 159.634 179.421C158.549 179.435 157.059 177.867 157.059 176.712C157.059 175.32 160.47 171.467 163.896 168.988C167.085 166.682 167.502 165.885 166.303 164.388C165.39 163.25 165.451 163.24 160.988 165.246C156.227 167.387 153.022 167.98 152.548 166.809C151.743 164.824 157.027 160.625 165.984 156.132C169.521 154.358 171.233 153.22 171.233 152.644C171.233 151.637 165.031 122.666 164.76 122.41C164.659 122.314 163.83 122.377 162.918 122.55C161.055 122.902 160.867 123.696 161.774 127.368C162.057 128.515 162.988 132.922 163.843 137.161C164.698 141.401 165.74 146.246 166.158 147.93L166.917 150.99L161.9 153.623C151.059 159.312 146.765 164.161 148.684 168.549C149.376 170.131 151.774 171.475 153.906 171.475C154.915 171.475 154.937 171.564 154.238 172.845C153.497 174.203 153.221 175.932 153.328 178.553C153.359 179.301 154.073 180.644 154.915 181.537C156.324 183.031 156.711 183.165 159.741 183.206C163.006 183.251 163.039 183.265 163.633 184.947C164.537 187.506 167.047 188.88 170.821 188.88C172.529 188.88 174.379 188.652 174.93 188.372C176.124 187.766 175.944 187.158 177.816 198.08C178.567 202.457 179.633 208.275 180.186 211.01C180.739 213.745 182.134 221.242 183.285 227.67C184.436 234.097 185.529 240.069 185.714 240.94C186.118 242.84 187.145 242.594 171.496 244.343C156.5 246.019 141.817 247.143 137.265 246.964L133.496 246.816L136.791 243.583C138.603 241.805 141.188 239.413 142.535 238.266L144.984 236.182V219.933V203.684L146.165 203.99C146.815 204.159 148.201 204.433 149.244 204.599C151.002 204.878 151.184 204.788 151.7 203.386C152.11 202.271 152.094 201.744 151.639 201.388C151.078 200.948 140.386 197.92 126.872 194.374C123.985 193.616 120.04 192.58 118.106 192.073C116.172 191.565 114.461 191.27 114.305 191.419C114.149 191.567 113.872 192.392 113.691 193.252C113.285 195.174 112.773 194.955 125.56 198.335C130.901 199.747 136.512 201.234 138.028 201.64L140.784 202.378V218.307V234.236L135.907 238.785C131.373 243.014 126.085 249.092 126.085 250.075C126.085 250.309 126.961 250.656 128.033 250.847C130.419 251.271 149.353 250.749 155.484 250.09C157.938 249.826 162.545 249.369 165.721 249.075C176.465 248.078 189.868 246.449 190.286 246.089C190.514 245.892 189.609 239.709 188.276 232.349C186.943 224.989 184.937 213.887 183.819 207.677C182.701 201.468 181.42 194.708 180.972 192.655C179.782 187.2 179.884 185.684 181.507 184.677C184.097 183.069 190.707 176.767 193.532 173.211C197.095 168.726 200.758 161.861 202.318 156.746C203.349 153.363 203.511 151.703 203.499 144.621C203.484 134.908 202.569 131.025 198.715 124.321C194.181 116.431 186.287 110.039 171.891 102.6C168.355 100.772 165.359 99.1194 165.233 98.9265C165.108 98.734 165.14 96.4231 165.306 93.7909L165.608 89.0059L167.789 88.4852C172.534 87.3538 175.521 84.1875 175.521 80.2892C175.521 75.4326 171.946 72.139 167.221 72.6432C165.734 72.8019 164.919 72.6915 164.892 72.327C164.869 72.0186 164.687 69.9076 164.488 67.6359C164.153 63.8281 164.199 63.5233 165.06 63.7366C171.36 65.2971 175.975 66.148 176.704 65.8829C177.349 65.6482 177.554 65.1037 177.436 63.9375L177.271 62.3178L170.545 60.7538C166.845 59.8935 163.715 59.0908 163.587 58.971C163.175 58.5801 167.589 39.9931 168.241 39.3754C168.364 39.259 169.836 38.9522 171.511 38.6936C178.028 37.6891 182.45 35.8317 185.969 32.6206C189.478 29.418 190.921 26.3238 190.904 22.0366C190.887 17.9493 189.643 15.248 186.73 12.9738C183.127 10.1611 176.094 9.01879 172.102 10.5987C171.065 11.009 170.129 11.3447 170.021 11.3447C169.913 11.3447 169.554 10.5057 169.224 9.47978C166.932 2.36145 155.706 -2.06253 147.627 0.96901ZM159.896 5.35419C162.707 6.64269 164.691 8.979 165.545 12.0036C166.139 14.1091 166.092 14.3722 164.789 16.2376C162.613 19.3532 162.477 20.5487 164.177 21.6044L165.613 22.4956L167.374 20.5671C168.341 19.5063 169.133 18.363 169.133 18.0269C169.133 16.9631 172.71 14.3911 174.674 14.042C177.193 13.5944 181.015 14.1295 182.945 15.2002C188.392 18.2223 188.285 25.2128 182.72 29.9526C179.621 32.5918 175.91 34.013 170.436 34.6565C168.016 34.9415 166.044 35.4592 165.454 35.9649C164.786 36.5373 163.621 40.1258 161.767 47.3223C160.277 53.1083 159.015 57.8849 158.964 57.9371C158.912 57.9893 154.033 56.9266 148.121 55.5754C142.209 54.2243 134.705 52.518 131.446 51.7845C127.068 50.7984 125.592 50.2747 125.792 49.7799C125.942 49.4109 126.547 45.8154 127.136 41.7893C127.726 37.7632 128.306 34.0528 128.425 33.5441C128.801 31.9353 126.451 30.242 123.84 30.242C118.589 30.242 113.405 27.2528 111.334 23.0312C109.383 19.0533 110.304 13.2369 113.365 10.2093C116.357 7.25089 119.117 6.18667 124.376 5.96239C128.79 5.77441 129.485 5.87387 132.037 7.05645C136.007 8.89645 136.799 9.89802 137.109 13.4761C137.356 16.3196 137.464 16.5225 138.915 16.8881C141.084 17.4341 141.675 16.7448 141.933 13.3707C142.258 9.1093 144.712 6.28414 149.582 4.56249C152.195 3.63901 156.953 4.00452 159.896 5.35419ZM117.5 64.8963C116.949 65.4185 117.111 71.3304 117.718 72.8531C118.026 73.6229 118.911 74.8885 119.687 75.6648C124.856 80.8402 132.743 78.6044 136.057 71.025C136.847 69.2193 136.742 69.0736 134.39 68.7121C132.692 68.451 132.536 68.5505 131.616 70.4825C130.079 73.7109 126.548 75.3038 123.901 73.9616C122.302 73.151 120.718 69.3834 121.12 67.349C121.304 66.4225 121.256 65.5577 121.013 65.4274C120.087 64.9296 117.826 64.588 117.5 64.8963ZM67.8081 93.2747C67.8066 93.4801 67.5393 94.5428 67.2138 95.6368C66.7093 97.3331 66.5608 97.4793 66.2038 96.6314C65.9733 96.0844 65.7686 95.0212 65.7481 94.2693C65.7197 93.2215 65.957 92.9017 66.7613 92.9017C67.3388 92.9017 67.8097 93.0693 67.8081 93.2747ZM75.7916 105.864C86.0346 107.814 96.4771 114.838 101.864 123.402C104.159 127.048 106.703 134.082 107.054 137.749L107.331 140.642H67.8843H28.4374V139.23C28.4374 134.624 32.3832 125.171 36.5075 119.896C41.3788 113.665 51.0611 107.726 59.0162 106.089C63.0229 105.264 72.0091 105.144 75.7916 105.864Z" fill="#181818"/>
<path d="M23.5811 312C20.221 312 17.438 311.173 15.2321 309.52C13.0518 307.866 11.8078 305.539 11.5 302.537H14.9243C15.2577 304.572 16.1811 306.175 17.6945 307.345C19.2078 308.515 21.0546 309.1 23.2349 309.1C25.0304 309.1 26.4668 308.782 27.5441 308.146C28.6214 307.485 29.16 306.531 29.16 305.284C29.16 304.394 28.8779 303.669 28.3136 303.109C27.7749 302.524 27.0311 302.054 26.082 301.697C25.1586 301.341 23.8761 300.947 22.2345 300.514C20.1312 299.929 18.4127 299.357 17.0789 298.797C15.7451 298.212 14.5908 297.386 13.6161 296.317C12.6671 295.223 12.1925 293.811 12.1925 292.082C12.1925 290.326 12.6927 288.851 13.6931 287.655C14.6934 286.46 16.0016 285.582 17.6175 285.022C19.2591 284.437 21.029 284.145 22.9271 284.145C24.9534 284.145 26.8002 284.501 28.4675 285.213C30.1347 285.9 31.4942 286.943 32.5458 288.342C33.5975 289.716 34.2131 291.395 34.3926 293.379H30.8529C30.5195 291.395 29.673 289.856 28.3136 288.762C26.9798 287.643 25.274 287.083 23.1964 287.083C21.683 287.083 20.3877 287.401 19.3104 288.037C18.2331 288.673 17.6945 289.589 17.6945 290.784C17.6945 291.649 17.9766 292.361 18.5409 292.921C19.1309 293.455 19.8619 293.888 20.734 294.218C21.6317 294.524 22.9014 294.905 24.543 295.363C26.7489 295.948 28.5444 296.546 29.9295 297.157C31.3403 297.742 32.5202 298.581 33.4692 299.675C34.4183 300.769 34.8928 302.193 34.8928 303.949C34.8928 305.679 34.3926 307.154 33.3923 308.375C32.4176 309.571 31.0709 310.474 29.3524 311.084C27.6595 311.695 25.7357 312 23.5811 312Z" fill="#181818"/>
<path d="M44.4325 292.349V295.668C45.0481 294.498 45.8689 293.595 46.8949 292.959C47.9209 292.298 49.1136 291.967 50.473 291.967C52.089 291.967 53.4484 292.361 54.5514 293.15C55.68 293.913 56.5136 294.982 57.0522 296.355C57.6422 294.931 58.5015 293.85 59.6301 293.112C60.7587 292.349 62.1053 291.967 63.6699 291.967C66.1067 291.967 68.0048 292.718 69.3642 294.218C70.7493 295.719 71.4419 297.805 71.4419 300.476V311.428H66.0169V300.896C66.0169 299.014 65.6835 297.576 65.0166 296.584C64.3753 295.592 63.4519 295.096 62.2464 295.096C61.0408 295.096 60.0405 295.643 59.2453 296.737C58.4502 297.831 58.0526 299.23 58.0526 300.934V311.428H52.6661V300.896C52.6661 299.039 52.3327 297.614 51.6658 296.622C50.9989 295.605 50.0755 295.096 48.8956 295.096C47.6644 295.096 46.6512 295.681 45.856 296.851C45.0609 298.021 44.6633 299.497 44.6633 301.278V311.428H39.3153V292.349H44.4325Z" fill="#181818"/>
<path d="M81.6101 311.847C79.5837 311.847 78.0191 311.389 76.9161 310.474C75.8132 309.532 75.2617 308.286 75.2617 306.734C75.2617 303.3 78.1986 301.367 84.0725 300.934C85.7397 300.807 86.9581 300.553 87.7276 300.171C88.5228 299.764 88.9203 299.154 88.9203 298.339C88.9203 297.195 88.5356 296.304 87.7661 295.668C87.0222 295.007 86.0347 294.676 84.8035 294.676C83.4697 294.676 82.3283 295.083 81.3792 295.897C80.4558 296.686 79.8787 297.754 79.6479 299.103H76.7622C77.07 296.889 78.0319 295.147 79.6479 293.875C81.2638 292.603 83.2773 291.967 85.6884 291.967C88.2021 291.967 90.2157 292.679 91.729 294.104C93.268 295.503 94.0375 297.411 94.0375 299.828V308.718H96.2691V311.428H89.1897V307.764C88.4971 309.062 87.4839 310.067 86.1501 310.779C84.842 311.491 83.3286 311.847 81.6101 311.847ZM83.4569 309.1C84.4316 309.1 85.3422 308.846 86.1886 308.337C87.0351 307.803 87.7148 307.078 88.2278 306.162C88.7408 305.246 88.9973 304.216 88.9973 303.071V301.278C88.7151 301.557 88.2534 301.799 87.6122 302.003C86.9966 302.206 86.2912 302.359 85.4961 302.461C83.8032 302.689 82.5848 303.109 81.8409 303.72C81.0971 304.305 80.7252 305.144 80.7252 306.238C80.7252 307.179 80.9688 307.892 81.4562 308.375C81.9435 308.858 82.6104 309.1 83.4569 309.1Z" fill="#181818"/>
<path d="M100.297 284.336H105.645V300.438H107.838L114.686 292.349H117.995L111.839 299.866L119.534 311.428H113.378L107.761 303.3H105.645V311.428H100.297V284.336Z" fill="#181818"/>
<path d="M131.17 311.809C129.144 311.809 127.31 311.389 125.668 310.55C124.052 309.685 122.783 308.502 121.859 307.001C120.936 305.475 120.474 303.771 120.474 301.888C120.474 299.98 120.936 298.276 121.859 296.775C122.783 295.274 124.052 294.104 125.668 293.264C127.284 292.4 129.118 291.967 131.17 291.967C133.196 291.967 135.018 292.4 136.633 293.264C138.275 294.104 139.545 295.274 140.443 296.775C141.366 298.276 141.828 299.98 141.828 301.888C141.828 303.771 141.366 305.475 140.443 307.001C139.545 308.502 138.275 309.685 136.633 310.55C135.018 311.389 133.196 311.809 131.17 311.809ZM131.17 309.024C132.735 309.024 133.992 308.388 134.941 307.116C135.89 305.844 136.364 304.101 136.364 301.888C136.364 299.675 135.89 297.932 134.941 296.661C133.992 295.363 132.735 294.714 131.17 294.714C129.605 294.714 128.349 295.35 127.399 296.622C126.45 297.894 125.976 299.65 125.976 301.888C125.976 304.101 126.45 305.844 127.399 307.116C128.349 308.388 129.605 309.024 131.17 309.024Z" fill="#181818"/>
<path d="M143.253 292.349H148.986L154.872 307.383H155.026L160.951 292.349H164.145L156.488 311.428H150.91L143.253 292.349Z" fill="#181818"/>
<path d="M174.528 311.886C171.912 311.886 169.706 311.3 167.911 310.13C166.115 308.96 165.076 307.268 164.794 305.055H167.911C168.116 306.454 168.808 307.536 169.988 308.299C171.194 309.062 172.617 309.443 174.259 309.443C175.413 309.443 176.426 309.253 177.299 308.871C178.196 308.464 178.645 307.841 178.645 307.001C178.645 306.314 178.312 305.806 177.645 305.475C177.004 305.144 175.836 304.775 174.144 304.368C173.99 304.343 173.592 304.241 172.951 304.063C170.668 303.529 168.847 302.817 167.487 301.926C166.128 301.011 165.448 299.611 165.448 297.729C165.448 295.745 166.282 294.282 167.949 293.341C169.642 292.374 171.643 291.891 173.951 291.891C176.388 291.891 178.44 292.45 180.107 293.57C181.8 294.689 182.762 296.33 182.993 298.492H179.915C179.658 297.144 178.991 296.114 177.914 295.401C176.862 294.689 175.554 294.333 173.99 294.333C172.912 294.333 171.963 294.536 171.143 294.943C170.347 295.325 169.95 295.961 169.95 296.851C169.95 297.538 170.309 298.06 171.027 298.416C171.745 298.772 173.002 299.179 174.798 299.637L175.76 299.866C177.273 300.222 178.555 300.616 179.607 301.049C180.684 301.456 181.582 302.054 182.3 302.842C183.044 303.631 183.416 304.648 183.416 305.895C183.416 307.243 182.993 308.362 182.146 309.253C181.3 310.143 180.197 310.804 178.838 311.237C177.478 311.669 176.042 311.886 174.528 311.886Z" fill="#181818"/>
<path d="M187.729 284.336H193.077V300.438H195.271L202.119 292.349H205.428L199.272 299.866L206.967 311.428H200.811L195.194 303.3H193.077V311.428H187.729V284.336Z" fill="#181818"/>
<path d="M210.536 292.349H215.884V311.428H210.536V292.349ZM209.959 283H216.5L213.422 290.174H213.037L209.959 283Z" fill="#181818"/>
<path d="M73.5832 331V323.501H75.3051C75.6446 323.501 75.9377 323.538 76.1846 323.613C76.4376 323.687 76.6475 323.801 76.8141 323.955C76.9807 324.109 77.1042 324.307 77.1844 324.548C77.2646 324.782 77.3047 325.06 77.3047 325.381C77.3047 325.689 77.2646 325.958 77.1844 326.186C77.1103 326.408 76.9931 326.584 76.8326 326.714C76.6783 326.843 76.4777 326.927 76.2309 326.964C76.5333 327.032 76.7771 327.149 76.9622 327.316C77.1474 327.476 77.2831 327.686 77.3695 327.945C77.4621 328.198 77.5084 328.504 77.5084 328.862C77.5084 329.182 77.4714 329.476 77.3973 329.741C77.3233 330.006 77.206 330.232 77.0455 330.417C76.8912 330.602 76.6907 330.747 76.4438 330.852C76.2031 330.951 75.9161 331 75.5828 331H73.5832ZM74.6293 330.25H75.3329C75.8019 330.25 76.1136 330.142 76.2679 329.926C76.4284 329.704 76.5086 329.349 76.5086 328.862C76.5086 328.547 76.4654 328.284 76.379 328.075C76.2988 327.859 76.1661 327.698 75.9809 327.593C75.8019 327.482 75.5582 327.427 75.2496 327.427H74.6293V330.25ZM74.6293 326.63H75.2496C75.5458 326.63 75.7772 326.59 75.9439 326.51C76.1105 326.424 76.2278 326.288 76.2957 326.103C76.3636 325.918 76.3975 325.677 76.3975 325.381C76.3975 325.035 76.345 324.785 76.2401 324.631C76.1352 324.477 75.9717 324.381 75.7495 324.344C75.5273 324.301 75.2372 324.279 74.8793 324.279H74.6293V326.63ZM78.0307 331L79.6229 323.501H80.632L82.2336 331H81.243L80.9005 329.111H79.373L79.0119 331H78.0307ZM79.5119 328.362H80.7616L80.1321 324.983L79.5119 328.362ZM82.9944 331V323.501H84.0405V330.241H85.3921V323.501H86.4382V330.241H87.725V323.501H88.7711V331H82.9944ZM92.053 331V323.501H93.0991V330.241H94.4507V323.501H95.4968V330.241H96.7836V323.501H97.8297V331H92.053ZM98.9961 331V323.501H101.903V324.279H100.042V326.76H101.551V327.501H100.042V330.25H101.922V331H98.9961ZM104.71 331.333V330.074C104.679 330.08 104.63 330.087 104.562 330.093C104.494 330.099 104.435 330.102 104.386 330.102C104.01 330.102 103.689 330.043 103.423 329.926C103.164 329.809 102.967 329.605 102.831 329.315C102.695 329.025 102.627 328.627 102.627 328.121V326.251C102.627 325.751 102.692 325.356 102.822 325.066C102.951 324.776 103.136 324.569 103.377 324.446C103.624 324.316 103.917 324.251 104.256 324.251C104.343 324.251 104.429 324.254 104.516 324.261C104.602 324.261 104.667 324.264 104.71 324.27V322.826H105.756V324.27C105.818 324.264 105.895 324.261 105.988 324.261C106.08 324.254 106.16 324.251 106.228 324.251C106.58 324.251 106.876 324.316 107.117 324.446C107.364 324.569 107.549 324.779 107.673 325.075C107.802 325.365 107.867 325.757 107.867 326.251V328.121C107.867 328.621 107.802 329.016 107.673 329.306C107.543 329.596 107.364 329.803 107.136 329.926C106.907 330.043 106.648 330.102 106.358 330.102C106.259 330.102 106.16 330.099 106.062 330.093C105.963 330.087 105.861 330.08 105.756 330.074V331.333H104.71ZM104.451 329.473C104.5 329.473 104.55 329.473 104.599 329.473C104.648 329.466 104.685 329.46 104.71 329.454V324.899C104.655 324.893 104.599 324.89 104.543 324.89C104.488 324.884 104.435 324.881 104.386 324.881C104.182 324.881 104.022 324.921 103.905 325.001C103.787 325.081 103.704 325.22 103.655 325.418C103.605 325.615 103.581 325.893 103.581 326.251V328.121C103.581 328.479 103.602 328.757 103.646 328.954C103.689 329.152 103.772 329.287 103.895 329.361C104.019 329.435 104.204 329.473 104.451 329.473ZM106.099 329.473C106.321 329.473 106.491 329.435 106.608 329.361C106.725 329.287 106.805 329.152 106.849 328.954C106.892 328.757 106.913 328.479 106.913 328.121V326.251C106.913 325.893 106.892 325.615 106.849 325.418C106.805 325.22 106.725 325.081 106.608 325.001C106.491 324.921 106.315 324.881 106.08 324.881C106.025 324.881 105.969 324.884 105.914 324.89C105.858 324.89 105.806 324.893 105.756 324.899V329.454C105.799 329.46 105.852 329.466 105.914 329.473C105.975 329.473 106.037 329.473 106.099 329.473ZM111.011 331V323.501H111.937V328.695L114.131 323.501H114.881V331H113.964V325.723L111.789 331H111.011ZM117.69 332.361V330.25H118.032C118.137 330.164 118.239 330.059 118.338 329.935C118.443 329.812 118.538 329.651 118.625 329.454C118.717 329.25 118.801 328.991 118.875 328.676C118.949 328.355 119.014 327.954 119.069 327.473C119.131 326.992 119.177 326.408 119.208 325.723L119.328 323.501H122.467V330.25H123.189V332.361H122.383L122.3 331H118.578L118.495 332.361H117.69ZM119.004 330.25H121.43V324.279H120.217L120.143 325.973C120.118 326.64 120.078 327.201 120.023 327.658C119.973 328.109 119.912 328.482 119.837 328.778C119.77 329.068 119.689 329.306 119.597 329.491C119.51 329.67 119.415 329.815 119.31 329.926C119.211 330.037 119.109 330.145 119.004 330.25ZM123.975 331V323.501H124.901V328.695L127.095 323.501H127.845V331H126.928V325.723L124.753 331H123.975ZM129.02 331V323.501H131.927V324.279H130.066V326.76H131.575V327.501H130.066V330.25H131.945V331H129.02ZM133.614 331V324.279H132.345V323.501H135.891V324.279H134.66V331H133.614ZM138.53 331.083C138.024 331.083 137.62 330.985 137.317 330.787C137.015 330.59 136.799 330.309 136.669 329.945C136.54 329.574 136.475 329.142 136.475 328.649V325.807C136.475 325.313 136.54 324.89 136.669 324.538C136.805 324.18 137.021 323.909 137.317 323.724C137.62 323.532 138.024 323.437 138.53 323.437C139.036 323.437 139.437 323.532 139.734 323.724C140.03 323.915 140.243 324.186 140.372 324.538C140.508 324.89 140.576 325.313 140.576 325.807V328.658C140.576 329.145 140.508 329.571 140.372 329.935C140.243 330.3 140.03 330.583 139.734 330.787C139.437 330.985 139.036 331.083 138.53 331.083ZM138.53 330.259C138.808 330.259 139.018 330.204 139.16 330.093C139.302 329.976 139.397 329.815 139.447 329.611C139.496 329.402 139.521 329.158 139.521 328.88V325.594C139.521 325.316 139.496 325.078 139.447 324.881C139.397 324.677 139.302 324.523 139.16 324.418C139.018 324.307 138.808 324.251 138.53 324.251C138.252 324.251 138.039 324.307 137.891 324.418C137.749 324.523 137.654 324.677 137.604 324.881C137.555 325.078 137.53 325.316 137.53 325.594V328.88C137.53 329.158 137.555 329.402 137.604 329.611C137.654 329.815 137.749 329.976 137.891 330.093C138.039 330.204 138.252 330.259 138.53 330.259ZM141.039 331V330.222C141.175 330.229 141.299 330.219 141.41 330.195C141.527 330.17 141.629 330.111 141.715 330.019C141.808 329.926 141.888 329.781 141.956 329.584C142.024 329.386 142.082 329.118 142.132 328.778C142.181 328.439 142.224 328.01 142.261 327.491L142.511 323.501H145.807V331H144.761V324.279H143.409L143.233 327.491C143.203 327.973 143.162 328.408 143.113 328.797C143.064 329.179 142.99 329.516 142.891 329.806C142.798 330.09 142.672 330.327 142.511 330.519C142.357 330.704 142.16 330.836 141.919 330.917C141.678 330.997 141.385 331.025 141.039 331ZM148.9 331.083C148.393 331.083 147.989 330.985 147.687 330.787C147.384 330.59 147.168 330.309 147.039 329.945C146.909 329.574 146.844 329.142 146.844 328.649V325.807C146.844 325.313 146.909 324.89 147.039 324.538C147.175 324.18 147.391 323.909 147.687 323.724C147.989 323.532 148.393 323.437 148.9 323.437C149.406 323.437 149.807 323.532 150.103 323.724C150.399 323.915 150.612 324.186 150.742 324.538C150.878 324.89 150.945 325.313 150.945 325.807V328.658C150.945 329.145 150.878 329.571 150.742 329.935C150.612 330.3 150.399 330.583 150.103 330.787C149.807 330.985 149.406 331.083 148.9 331.083ZM148.9 330.259C149.177 330.259 149.387 330.204 149.529 330.093C149.671 329.976 149.767 329.815 149.816 329.611C149.865 329.402 149.89 329.158 149.89 328.88V325.594C149.89 325.316 149.865 325.078 149.816 324.881C149.767 324.677 149.671 324.523 149.529 324.418C149.387 324.307 149.177 324.251 148.9 324.251C148.622 324.251 148.409 324.307 148.261 324.418C148.119 324.523 148.023 324.677 147.974 324.881C147.924 325.078 147.9 325.316 147.9 325.594V328.88C147.9 329.158 147.924 329.402 147.974 329.611C148.023 329.815 148.119 329.976 148.261 330.093C148.409 330.204 148.622 330.259 148.9 330.259ZM151.974 331V323.501H154.825V324.279H153.02V331H151.974Z" fill="#181818"/>
</svg>
