<svg xmlns="http://www.w3.org/2000/svg" xmlns:xlink="http://www.w3.org/1999/xlink">

    <symbol id="marker" viewBox="0 0 24 24" fill="none" xmlns="http://www.w3.org/2000/svg">
        <g clip-path="url(#clip0_1385_3270)">
            <path d="M17.084 15.8119C18.0244 14.8183 18.653 13.5709 18.8922 12.2239C19.1314 10.8769 18.9706 9.48932 18.4297 8.2327C17.8888 6.97609 16.9916 5.9055 15.8489 5.15328C14.7062 4.40106 13.3681 4.00017 12 4.00017C10.6319 4.00017 9.29384 4.40106 8.15112 5.15328C7.00841 5.9055 6.11117 6.97609 5.5703 8.2327C5.02943 9.48932 4.86863 10.8769 5.1078 12.2239C5.34696 13.5709 5.9756 14.8183 6.916 15.8119C7.45567 14.9508 8.20536 14.2409 9.09467 13.749C9.98398 13.2571 10.9837 12.9994 12 12.9999C13.0163 12.9994 14.016 13.2571 14.9053 13.749C15.7946 14.2409 16.5443 14.9508 17.084 15.8119ZM8.385 17.2849L12 20.8989L15.615 17.2849C15.2908 16.6005 14.779 16.0221 14.139 15.6172C13.4991 15.2122 12.7573 14.9972 12 14.9972C11.2427 14.9972 10.5009 15.2122 9.86096 15.6172C9.22101 16.0221 8.70919 16.6005 8.385 17.2849ZM12 23.7279L5.636 17.3639C4.37734 16.1052 3.52019 14.5016 3.17293 12.7558C2.82567 11.0099 3.00391 9.20035 3.6851 7.55582C4.36629 5.91129 5.51984 4.50569 6.99988 3.51677C8.47992 2.52784 10.22 2 12 2C13.78 2 15.5201 2.52784 17.0001 3.51677C18.4802 4.50569 19.6337 5.91129 20.3149 7.55582C20.9961 9.20035 21.1743 11.0099 20.8271 12.7558C20.4798 14.5016 19.6227 16.1052 18.364 17.3639L12 23.7279ZM12 9.99992C12.2652 9.99992 12.5196 9.89456 12.7071 9.70703C12.8946 9.51949 13 9.26514 13 8.99992C13 8.73471 12.8946 8.48035 12.7071 8.29282C12.5196 8.10528 12.2652 7.99992 12 7.99992C11.7348 7.99992 11.4804 8.10528 11.2929 8.29282C11.1054 8.48035 11 8.73471 11 8.99992C11 9.26514 11.1054 9.51949 11.2929 9.70703C11.4804 9.89456 11.7348 9.99992 12 9.99992ZM12 11.9999C11.2044 11.9999 10.4413 11.6839 9.87868 11.1212C9.31607 10.5586 9 9.79557 9 8.99992C9 8.20427 9.31607 7.44121 9.87868 6.8786C10.4413 6.31599 11.2044 5.99992 12 5.99992C12.7957 5.99992 13.5587 6.31599 14.1213 6.8786C14.6839 7.44121 15 8.20427 15 8.99992C15 9.79557 14.6839 10.5586 14.1213 11.1212C13.5587 11.6839 12.7957 11.9999 12 11.9999Z" fill="#181818"/>
        </g>
        <defs>
            <clipPath id="clip0_1385_3270">
                <rect width="24" height="24" fill="white"/>
            </clipPath>
        </defs>
    </symbol>


    <symbol id="phone" viewBox="0 0 24 24" fill="none" xmlns="http://www.w3.org/2000/svg">
        <path d="M9.366 10.682C10.3043 12.3305 11.6695 13.6957 13.318 14.634L14.202 13.396C14.3442 13.1969 14.5543 13.0569 14.7928 13.0023C15.0313 12.9478 15.2814 12.9825 15.496 13.1C16.9103 13.8729 18.4722 14.3378 20.079 14.464C20.3298 14.4839 20.5638 14.5975 20.7345 14.7823C20.9052 14.9671 21 15.2094 21 15.461V19.923C21.0001 20.1706 20.9083 20.4094 20.7424 20.5932C20.5765 20.777 20.3483 20.8927 20.102 20.918C19.572 20.973 19.038 21 18.5 21C9.94 21 3 14.06 3 5.5C3 4.962 3.027 4.428 3.082 3.898C3.10725 3.6517 3.22298 3.42352 3.40679 3.25763C3.5906 3.09175 3.82941 2.99995 4.077 3H8.539C8.79056 2.99997 9.0329 3.09475 9.21768 3.26545C9.40247 3.43615 9.51613 3.67022 9.536 3.921C9.66222 5.52779 10.1271 7.08968 10.9 8.504C11.0175 8.71856 11.0522 8.96874 10.9977 9.2072C10.9431 9.44565 10.8031 9.65584 10.604 9.798L9.366 10.682ZM6.844 10.025L8.744 8.668C8.20478 7.50409 7.83535 6.26884 7.647 5H5.01C5.004 5.166 5.001 5.333 5.001 5.5C5 12.956 11.044 19 18.5 19C18.667 19 18.834 18.997 19 18.99V16.353C17.7312 16.1646 16.4959 15.7952 15.332 15.256L13.975 17.156C13.4287 16.9437 12.898 16.6931 12.387 16.406L12.329 16.373C10.3676 15.2567 8.74328 13.6324 7.627 11.671L7.594 11.613C7.30691 11.102 7.05628 10.5713 6.844 10.025Z" fill="#181818"/>
    </symbol>

    <symbol id="account" viewBox="0 0 24 24" xmlns="http://www.w3.org/2000/svg">
        <path d="M5.60824 17.4698C6.64882 16.7553 7.68106 16.2069 8.70496 15.8247C9.72888 15.4424 10.8298 15.2513 12.0079 15.2513C13.1859 15.2513 14.2933 15.446 15.3301 15.8355C16.3669 16.225 17.3969 16.7697 18.4202 17.4698C19.1347 16.5603 19.639 15.6687 19.9332 14.7948C20.2274 13.921 20.3745 12.9894 20.3745 12.0002C20.3745 9.62833 19.5723 7.63989 17.9678 6.03489C16.3632 4.42989 14.3754 3.62739 12.0042 3.62739C9.63297 3.62739 7.64429 4.42989 6.03814 6.03489C4.43197 7.63989 3.62889 9.62833 3.62889 12.0002C3.62889 12.9886 3.77793 13.9186 4.07601 14.7902C4.3741 15.6618 4.88484 16.555 5.60824 17.4698ZM11.9971 12.8491C11.0037 12.8491 10.1712 12.5114 9.49951 11.8358C8.8278 11.1602 8.49194 10.3289 8.49194 9.34176C8.49194 8.35465 8.82935 7.5225 9.50416 6.84531C10.179 6.16815 11.013 5.82956 12.0064 5.82956C12.9997 5.82956 13.8322 6.1697 14.5039 6.84996C15.1756 7.53025 15.5115 8.36395 15.5115 9.35106C15.5115 10.3382 15.1741 11.168 14.4993 11.8404C13.8244 12.5129 12.9904 12.8491 11.9971 12.8491ZM12.0052 22.3535C10.5891 22.3535 9.25205 22.0826 7.99404 21.5407C6.73604 20.9988 5.63494 20.2559 4.69074 19.3119C3.74654 18.3679 3.00344 17.2686 2.46144 16.014C1.91944 14.7594 1.64844 13.4189 1.64844 11.9924C1.64844 10.5766 1.92035 9.24097 2.46419 7.98554C3.00804 6.7301 3.75061 5.63173 4.69191 4.69041C5.63323 3.74911 6.73141 3.00419 7.98646 2.45564C9.24153 1.90709 10.5826 1.63281 12.0095 1.63281C13.4253 1.63281 14.761 1.90709 16.0164 2.45564C17.2718 3.00419 18.3702 3.74911 19.3115 4.69041C20.2528 5.63173 20.9977 6.73076 21.5463 7.98751C22.0948 9.24426 22.3691 10.5807 22.3691 11.9968C22.3691 13.4128 22.0948 14.7504 21.5463 16.0095C20.9977 17.2685 20.2528 18.3687 19.3115 19.31C18.3702 20.2513 17.2712 20.9939 16.0144 21.5377C14.7577 22.0816 13.4212 22.3535 12.0052 22.3535ZM12.0017 20.373C12.8901 20.373 13.7483 20.2491 14.5762 20.0013C15.4041 19.7535 16.243 19.3104 17.093 18.672C16.2336 18.0814 15.3905 17.6395 14.5637 17.3464C13.7369 17.0533 12.8829 16.9067 12.0017 16.9067C11.1205 16.9067 10.2689 17.0533 9.44684 17.3464C8.62474 17.6395 7.78397 18.0814 6.92454 18.672C7.77454 19.3104 8.61114 19.7535 9.43434 20.0013C10.2575 20.2491 11.1133 20.373 12.0017 20.373ZM12.0017 11.1796C12.5389 11.1796 12.9799 11.0098 13.3247 10.6703C13.6695 10.3308 13.8419 9.88953 13.8419 9.34641C13.8419 8.8033 13.6695 8.35964 13.3247 8.01544C12.9799 7.67124 12.5389 7.49914 12.0017 7.49914C11.4646 7.49914 11.0236 7.67124 10.6787 8.01544C10.3339 8.35964 10.1615 8.8033 10.1615 9.34641C10.1615 9.88953 10.3339 10.3308 10.6787 10.6703C11.0236 11.0098 11.4646 11.1796 12.0017 11.1796Z" fill="black"/>
    </symbol>

    <symbol id="busket" viewBox="0 0 24 24" fill="none" xmlns="http://www.w3.org/2000/svg">
        <g clip-path="url(#clip0_1394_3304)">
            <path d="M7 8V6C7 4.67392 7.52678 3.40215 8.46447 2.46447C9.40215 1.52678 10.6739 1 12 1C13.3261 1 14.5979 1.52678 15.5355 2.46447C16.4732 3.40215 17 4.67392 17 6V8H20C20.2652 8 20.5196 8.10536 20.7071 8.29289C20.8946 8.48043 21 8.73478 21 9V21C21 21.2652 20.8946 21.5196 20.7071 21.7071C20.5196 21.8946 20.2652 22 20 22H4C3.73478 22 3.48043 21.8946 3.29289 21.7071C3.10536 21.5196 3 21.2652 3 21V9C3 8.73478 3.10536 8.48043 3.29289 8.29289C3.48043 8.10536 3.73478 8 4 8H7ZM7 10H5V20H19V10H17V12H15V10H9V12H7V10ZM9 8H15V6C15 5.20435 14.6839 4.44129 14.1213 3.87868C13.5587 3.31607 12.7956 3 12 3C11.2044 3 10.4413 3.31607 9.87868 3.87868C9.31607 4.44129 9 5.20435 9 6V8Z" fill="#181818"/>
        </g>
        <defs>
            <clipPath id="clip0_1394_3304">
                <rect width="24" height="24" fill="white"/>
            </clipPath>
        </defs>
    </symbol>

    <symbol id="moto" viewBox="0 0 50 40" fill="none" xmlns="http://www.w3.org/2000/svg">
        <path fill-rule="evenodd" clip-rule="evenodd" d="M0.0792328 0.0359154C0.0163537 0.0610439 0 2.00371 0 9.45529C0 17.9579 0.0094446 18.8466 0.100277 18.8811C0.155423 18.902 1.74559 18.9188 3.63406 18.9183C7.67044 18.9174 7.64381 18.9146 8.779 19.4591C9.25427 19.687 9.9713 20.2788 10.099 20.5484C10.1234 20.6001 10.2148 20.7674 10.3019 20.9202C10.4847 21.2404 10.4592 21.277 10.015 21.3323C9.44513 21.4033 8.08365 21.7614 7.95815 21.8734C7.92506 21.9029 7.86091 21.9271 7.81572 21.9271C7.69433 21.9271 6.92742 22.292 6.54343 22.5325C6.35967 22.6476 6.18143 22.7417 6.14726 22.7417C6.11304 22.7417 6.08489 22.7628 6.08464 22.7887C6.08439 22.8146 5.97783 22.9062 5.84783 22.9924C5.71782 23.0785 5.5406 23.2054 5.45401 23.2743C5.25193 23.4353 4.19116 24.4833 4.02503 24.6863C3.81009 24.9489 3.10821 25.9838 3.06295 26.105C3.03937 26.168 3.00375 26.2337 2.98372 26.2509C2.92287 26.3033 2.66222 26.8551 2.66222 26.9314C2.66222 26.9707 2.6337 27.0029 2.59884 27.0029C2.56397 27.0029 2.53526 27.0382 2.53507 27.0812C2.53482 27.1243 2.49045 27.2433 2.43644 27.3458C2.28152 27.6395 1.74154 29.3015 1.62142 29.8541C1.56152 30.1299 1.48362 30.4882 1.44831 30.6504C1.33656 31.1643 1.25885 32.0141 1.22469 33.0961L1.1916 34.1447L3.05122 34.1614L4.91092 34.178L4.95199 34.4619C5.04719 35.1202 5.49458 36.1482 6.01992 36.9159C6.35378 37.4037 7.01661 38.1572 7.11188 38.1572C7.14788 38.1572 7.28486 38.27 7.41619 38.4078C7.54753 38.5457 7.68444 38.6585 7.72045 38.6585C7.75645 38.6585 7.79543 38.6796 7.8071 38.7055C7.84602 38.7921 8.2257 39.0285 8.39234 39.0698C8.48298 39.0923 8.55715 39.1359 8.55715 39.1666C8.55715 39.1974 8.59993 39.2225 8.65223 39.2225C8.70452 39.2225 8.74731 39.2507 8.74731 39.2852C8.74731 39.3196 8.78337 39.3478 8.82749 39.3478C8.87154 39.3478 9.0141 39.4042 9.14417 39.4731C9.2743 39.5421 9.42034 39.5985 9.46877 39.5985C9.51719 39.5985 9.63852 39.6406 9.73841 39.6921C9.83825 39.7435 9.98226 39.7858 10.0585 39.7861C10.1346 39.7863 10.2773 39.8174 10.3754 39.8552C10.8599 40.042 13.0808 40.0435 13.577 39.8575C13.6573 39.8273 13.8943 39.7523 14.1034 39.6905C14.5585 39.5564 15.7832 38.9818 15.7832 38.9025C15.7832 38.8717 15.8148 38.8465 15.8533 38.8465C16.0149 38.8465 17.3045 37.7328 17.3045 37.5933C17.3045 37.5587 17.3269 37.5305 17.3543 37.5305C17.4185 37.5305 17.8749 36.9276 17.8749 36.8429C17.8749 36.8075 17.9004 36.7786 17.9315 36.7786C18.0023 36.7786 18.6356 35.5404 18.6356 35.4018C18.6356 35.3456 18.6621 35.2729 18.6945 35.2402C18.7269 35.2074 18.8077 34.955 18.8741 34.6793L18.9947 34.178L26.3168 34.1621L33.639 34.1462L34.9321 34.1467H36.0794L36.4692 33.9122C36.6837 33.7833 36.8734 33.6634 36.8908 33.6458C36.9082 33.6283 37.0509 33.549 37.2077 33.4696C37.3646 33.3902 37.5786 33.2707 37.6831 33.2042C37.7877 33.1377 37.944 33.0528 38.0305 33.0157C38.1169 32.9786 38.2025 32.9288 38.2207 32.9051C38.2388 32.8813 38.382 32.7984 38.5389 32.7208C38.6957 32.6432 39.0095 32.4783 39.2361 32.3543C39.4627 32.2303 39.8763 32.0118 40.1552 31.8688C40.4341 31.7257 40.6766 31.5914 40.694 31.5702C40.7114 31.549 40.797 31.5099 40.8841 31.4834C40.9713 31.4569 41.0569 31.4177 41.0743 31.3964C41.1266 31.3325 42.8222 30.5121 42.902 30.5121C42.9427 30.5121 42.9759 30.4862 42.9759 30.4544C42.9759 30.4227 43.0615 30.3781 43.1661 30.3554C43.2706 30.3328 43.3562 30.2882 43.3562 30.2565C43.3562 30.2247 43.3896 30.1988 43.4304 30.1988C43.4713 30.1988 43.6924 30.1112 43.9217 30.0041C44.151 29.897 44.5241 29.7252 44.7507 29.6222C44.9773 29.5192 45.2799 29.3813 45.4232 29.3156C45.5665 29.2499 45.7162 29.1961 45.756 29.1961C45.7958 29.1961 45.8283 29.168 45.8283 29.1335C45.8283 29.099 45.8738 29.0708 45.9294 29.0708C45.985 29.0708 46.1063 29.0328 46.1988 28.9863C46.2914 28.9398 46.4669 28.8601 46.5889 28.8089C46.7109 28.7579 46.9106 28.6711 47.0326 28.6161C47.3002 28.4955 47.5819 28.3793 48.0468 28.1977C48.2385 28.1228 48.4525 28.0373 48.5222 28.0078C48.5919 27.9782 48.7844 27.9022 48.9498 27.8388C49.1153 27.7754 49.2508 27.7049 49.2509 27.6822C49.2512 27.6335 48.6963 26.5617 48.5182 26.267C48.4507 26.1552 48.374 26.0635 48.3479 26.0633C48.3218 26.0631 48.3003 26.0338 48.3003 25.9981C48.3003 25.8998 47.3422 24.935 47.2446 24.935C47.1977 24.935 47.1594 24.9078 47.1594 24.8747C47.1594 24.8042 46.1159 24.183 45.9975 24.183C45.9532 24.183 45.8899 24.1594 45.8568 24.1307C45.7054 23.9991 44.3909 23.6214 44.0784 23.6198C43.9584 23.6191 43.9414 23.5733 43.9092 23.1647C43.8895 22.9148 43.8444 22.5835 43.8089 22.4284C43.7734 22.2733 43.6967 21.9208 43.6384 21.6451C43.5208 21.0887 43.3882 20.5833 43.2602 20.2038C43.2138 20.0659 43.1571 19.8618 43.1343 19.7501C43.1115 19.6385 43.0666 19.5311 43.0344 19.5115C43.0022 19.4918 42.9757 19.4139 42.9755 19.3384C42.9753 19.2629 42.9325 19.1204 42.8804 19.0217C42.8283 18.9229 42.7855 18.8101 42.7854 18.771C42.7851 18.7318 42.745 18.6242 42.6962 18.5317C42.6474 18.4393 42.5883 18.2771 42.5648 18.1714C42.5413 18.0657 42.4959 17.9792 42.4638 17.9792C42.4317 17.9792 42.4054 17.9418 42.4054 17.8962C42.4054 17.71 41.6831 16.2051 41.2723 15.5353C41.1983 15.4146 41.1064 15.2384 41.0682 15.1436C41.0299 15.0488 40.9728 14.9713 40.9413 14.9713C40.9099 14.9713 40.8841 14.9332 40.8841 14.8867C40.8841 14.8402 40.7986 14.6853 40.694 14.5426L40.5038 14.283V13.0292V11.7754H38.5803C36.9141 11.7754 36.6279 11.7614 36.441 11.671C35.5752 11.2522 35.5105 10.1533 36.3214 9.6389C36.5637 9.48524 36.8555 9.46206 38.6602 9.45316C39.5812 9.44865 40.3694 9.43172 40.4119 9.41556C40.4685 9.39412 40.4915 9.07498 40.4977 8.22781L40.5062 7.06933L38.3657 7.08807C36.4467 7.10493 36.1892 7.11934 35.8766 7.22743C35.4282 7.38253 34.8993 7.66339 34.6841 7.86053C34.5912 7.94576 34.4721 8.01507 34.4194 8.01456C34.3668 8.01406 33.4417 7.57698 32.3636 7.04326C31.2856 6.50955 30.3707 6.0729 30.3306 6.0729C30.2503 6.0729 29.2845 7.94062 29.2845 8.09572C29.2845 8.15951 29.9643 8.52829 31.297 9.18727L33.3095 10.1824L33.3518 10.7439C33.4006 11.3917 33.4725 11.7295 33.6177 11.9947C33.6744 12.0981 33.7209 12.218 33.7211 12.261C33.7213 12.3041 33.75 12.3394 33.7849 12.3394C33.8197 12.3394 33.8483 12.3759 33.8483 12.4206C33.8483 12.4653 33.8982 12.5685 33.9592 12.6499C34.1691 12.9302 34.8715 13.587 35.0065 13.6294C35.0809 13.6528 35.1808 13.7104 35.2285 13.7576C35.2762 13.8047 35.3702 13.8433 35.4374 13.8433C35.5047 13.8433 35.5597 13.8703 35.5597 13.9032C35.5597 13.9361 35.6667 13.9805 35.7974 14.0019C35.9282 14.0233 36.1064 14.0653 36.1936 14.0952C36.2807 14.1252 36.6193 14.1621 36.946 14.1773C37.352 14.1962 37.558 14.232 37.5969 14.2905C37.6281 14.3375 37.7126 14.4676 37.7846 14.5796C37.8565 14.6917 37.9415 14.7833 37.9736 14.7833C38.0056 14.7833 38.0318 14.8126 38.0318 14.8485C38.0318 14.908 38.2669 15.2727 38.3533 15.3473C38.3733 15.3645 38.4101 15.4209 38.435 15.4726C38.46 15.5243 38.5155 15.623 38.5585 15.6919C38.6014 15.7609 38.7073 15.9311 38.7937 16.0703C38.8801 16.2095 38.9855 16.3787 39.0279 16.4463C39.1761 16.6832 40.1124 18.5761 40.1579 18.7312C40.1833 18.8173 40.2226 18.9019 40.2455 18.9192C40.2683 18.9364 40.3191 19.0492 40.3582 19.1698C40.3973 19.2904 40.5206 19.6429 40.6319 19.9531C41.0114 21.0096 41.3961 22.5237 41.4849 23.3102L41.5243 23.6595L41.2518 23.7412C40.5785 23.9429 40.2539 24.063 39.87 24.253C39.1198 24.624 38.1504 25.3199 37.5064 25.9496L37.1395 26.3083L37.3409 26.4833C37.4517 26.5795 37.5791 26.6935 37.6241 26.7366C37.669 26.7797 37.7189 26.8149 37.7349 26.8149C37.751 26.8149 37.8742 26.9112 38.0089 27.029C38.6803 27.6163 38.9285 27.8175 38.9816 27.8175C39.0136 27.8175 39.1339 27.7243 39.2489 27.6105C39.3639 27.4967 39.6006 27.2922 39.7749 27.1562C39.9492 27.0202 40.1061 26.8927 40.1235 26.873C40.1409 26.8532 40.198 26.8177 40.2503 26.794C40.3026 26.7703 40.4309 26.6966 40.5355 26.6303C40.7803 26.4751 41.2267 26.2509 41.2908 26.2509C41.318 26.2509 41.4303 26.2109 41.5401 26.1621C42.1851 25.875 43.648 25.8784 44.4972 26.1689C44.8855 26.3018 45.448 26.5746 45.448 26.63C45.448 26.6819 45.052 26.8776 44.9471 26.8776C44.9088 26.8776 44.8775 26.9058 44.8775 26.9402C44.8775 26.9747 44.832 27.0029 44.7763 27.0029C44.7207 27.0029 44.5995 27.0409 44.5069 27.0874C44.4144 27.1339 44.2389 27.2166 44.1168 27.2713C43.9948 27.3261 43.5899 27.5137 43.217 27.6882C42.8441 27.8627 42.509 28.0055 42.4722 28.0055C42.4355 28.0055 42.4054 28.0315 42.4054 28.0632C42.4054 28.0949 42.3198 28.1395 42.2153 28.1622C42.1107 28.1849 42.0251 28.2294 42.0251 28.2611C42.0251 28.2929 41.9937 28.3188 41.9552 28.3188C41.8177 28.3188 40.8529 28.873 40.8529 28.873L37.2711 30.6952L35.324 31.7553V31.7654H19.5349H3.74575L3.77865 31.4364C3.83975 30.8247 4.23674 29.3104 4.47514 28.7794C4.52394 28.6708 4.56381 28.5385 4.56381 28.4854C4.56381 28.4323 4.59012 28.3728 4.62232 28.3532C4.65452 28.3335 4.69958 28.2331 4.72247 28.1302C4.74535 28.0271 4.78801 27.9429 4.81736 27.9429C4.8467 27.9429 4.88949 27.8583 4.91244 27.7549C4.93538 27.6515 4.98045 27.5669 5.01252 27.5669C5.04466 27.5669 5.0709 27.531 5.0709 27.4871C5.0709 27.4432 5.17074 27.2575 5.29275 27.0743C5.41477 26.8912 5.51461 26.7285 5.51461 26.7128C5.51461 26.6971 5.54364 26.6502 5.5792 26.6086C5.67402 26.4974 5.83838 26.2961 6.05301 26.0282C6.33958 25.6705 6.79203 25.2487 7.16265 24.9936C7.28467 24.9096 7.39876 24.8269 7.41619 24.8096C7.50538 24.7215 8.51455 24.2082 8.84239 24.0843C9.65297 23.778 10.3434 23.6688 11.6631 23.6382C12.9672 23.6079 13.398 23.6593 14.1864 23.9392C14.6588 24.1069 15.4709 24.5009 15.593 24.6216C15.6105 24.6389 15.7246 24.7216 15.8466 24.8056C16.3013 25.1186 16.9201 25.7293 17.2451 26.1859C17.3301 26.3052 17.4449 26.4538 17.5003 26.5159C17.5558 26.5781 17.6413 26.7061 17.6903 26.8003C17.7395 26.8945 17.794 26.9857 17.8114 27.0029C17.9709 27.1601 18.7239 28.7259 18.9566 29.3841C19.0357 29.6082 19.1079 29.8011 19.1169 29.8129C19.1318 29.8326 20.5297 29.3836 21.147 29.1609L21.4083 29.0666L21.3209 28.8024C21.2728 28.657 21.2052 28.4892 21.1706 28.4294C21.136 28.3695 21.1076 28.2895 21.1076 28.2515C21.1076 28.2135 21.0221 27.9997 20.9175 27.7763C20.8129 27.5529 20.7273 27.3557 20.7273 27.3381C20.7273 27.2896 20.3194 26.5002 20.1655 26.2509C20.091 26.1303 19.9988 25.9541 19.9605 25.8593C19.9222 25.7644 19.8651 25.6869 19.8337 25.6869C19.8023 25.6869 19.7765 25.6576 19.7765 25.6218C19.7765 25.5476 19.5159 25.1651 19.4437 25.1334C19.4176 25.1219 19.3962 25.0867 19.3962 25.0551C19.3962 25.0234 19.3463 24.9448 19.2853 24.8802C19.2243 24.8156 19.103 24.6676 19.0159 24.5513C18.8695 24.3557 17.6784 23.1671 17.4846 23.0232C17.245 22.8452 16.4079 22.303 16.3726 22.303C16.3502 22.303 16.2869 22.2657 16.2319 22.2201C16.1768 22.1744 15.9036 22.0444 15.6247 21.9312C15.3458 21.818 15.0606 21.6999 14.9909 21.6688C14.7918 21.5801 14.2032 21.4296 13.7865 21.3609C12.9736 21.227 12.9724 21.2263 12.9153 20.9547C12.8867 20.8186 12.8357 20.68 12.8019 20.6466C12.7682 20.6133 12.7406 20.5357 12.7406 20.4742C12.7406 20.3436 12.4184 19.7134 12.1226 19.2654C12.0093 19.0937 11.9166 18.9386 11.9166 18.9206C11.9166 18.9025 13.9774 18.9024 16.4963 18.9202C20.2782 18.947 21.119 18.9684 21.3234 19.0434C21.6434 19.1607 22.1228 19.6255 22.294 19.9844C22.5234 20.465 22.6574 21.0351 22.5784 21.1936C22.5405 21.2696 22.4917 21.4304 22.47 21.5511C22.4483 21.6717 22.3919 21.9537 22.3446 22.1777C22.2366 22.6899 22.1204 23.7314 22.1212 24.1797C22.122 24.6359 22.2412 25.5231 22.3504 25.8867C22.399 26.0483 22.4387 26.2123 22.4387 26.2512C22.4387 26.2901 22.5681 26.5867 22.7263 26.9103C22.9458 27.3595 23.1273 27.6179 23.4935 28.0028C23.7573 28.28 24.013 28.5068 24.0617 28.5068C24.1104 28.5068 24.1502 28.5297 24.1502 28.5577C24.1502 28.5857 24.3712 28.717 24.6414 28.8497C25.6607 29.35 25.9852 29.4155 27.4463 29.4155C28.5542 29.4155 28.7933 29.3905 29.6331 29.1873C30.3054 29.0246 30.3978 28.9969 30.4539 28.9419C30.4871 28.9094 30.5506 28.8828 30.5952 28.8828C30.6722 28.8828 31.4558 28.5211 31.7248 28.3613C31.9385 28.2344 32.228 28.0419 32.3057 27.975C32.3463 27.9401 32.472 27.8413 32.5852 27.7555C33.2169 27.2765 34.418 25.8494 34.4186 25.5773C34.4187 25.5342 34.445 25.4989 34.4771 25.4989C34.5092 25.4989 34.5543 25.4143 34.5772 25.3109C34.6002 25.2075 34.6429 25.1229 34.6723 25.1229C34.7016 25.1229 34.7444 25.0384 34.7674 24.935C34.7903 24.8316 34.8293 24.747 34.854 24.747C34.8786 24.747 34.968 24.5425 35.0527 24.2926C35.1373 24.0428 35.2257 23.8101 35.249 23.7757C35.2724 23.7412 35.3117 23.6143 35.3364 23.4937C35.3611 23.373 35.4204 23.1474 35.4682 22.9924C35.5555 22.709 35.6725 22.1468 35.8138 21.3317C35.9254 20.6874 35.9697 17.4052 35.8776 16.6006C35.8361 16.2387 35.7869 15.7632 35.7682 15.5439L35.7342 15.1452L35.4092 15.1839C35.2305 15.2051 34.9132 15.2501 34.704 15.2837C34.4948 15.3174 34.1097 15.3666 33.8483 15.3931L33.3729 15.4413L33.383 15.7233C33.3885 15.8783 33.429 16.6296 33.4729 17.3926C33.6081 19.7413 33.4074 21.753 32.8987 23.149C32.8233 23.3558 32.7461 23.5885 32.7271 23.666C32.7081 23.7435 32.6696 23.807 32.6416 23.807C32.6136 23.807 32.5718 23.8916 32.5489 23.995C32.5259 24.0984 32.4871 24.183 32.4627 24.183C32.4382 24.183 32.3844 24.2605 32.3432 24.3553C32.2591 24.5486 32.1441 24.731 32.0259 24.8584C31.9824 24.9054 31.9467 24.9656 31.9467 24.992C31.9467 25.0953 31.0341 25.9497 30.6918 26.1669C30.3772 26.3665 29.9374 26.5822 29.5063 26.7484C28.7299 27.0478 26.907 27.1373 26.2102 26.9103C26.0011 26.8422 25.7263 26.7241 25.5996 26.6479C25.3214 26.4804 24.973 26.0598 24.8295 25.7183C24.6955 25.3992 24.5295 24.5076 24.5337 24.1291C24.5375 23.781 24.736 22.4247 24.7969 22.3308C24.8205 22.2943 24.8595 22.1174 24.8837 21.9377C24.9078 21.758 24.9523 21.5958 24.9826 21.5773C25.1657 21.4654 24.913 19.9034 24.5982 19.2011C24.5673 19.1322 24.524 19.0335 24.502 18.9818C24.2664 18.427 23.5639 17.6145 23.0092 17.2553C22.5199 16.9384 21.8895 16.6632 21.6527 16.6632H21.4879V8.36687C21.4879 0.859454 21.4784 0.0668722 21.3877 0.0324693C21.2677 -0.0130252 0.193392 -0.00964177 0.0792328 0.0359154ZM9.50794 5.88121C9.50794 8.12824 9.53051 9.40052 9.57076 9.42508C9.61855 9.45429 11.4199 9.48148 11.9008 9.4603C11.9632 9.45755 11.98 8.70488 11.98 5.9153V2.37381L15.4979 2.37675L19.0159 2.3797V9.42746V16.4752H10.744H2.47206V9.42546V2.37569H5.99H9.50794V5.88121ZM48.5222 29.8916C48.2782 30.029 48.0072 30.175 47.92 30.2158C47.8329 30.2567 47.7473 30.3049 47.7299 30.3229C47.7124 30.3408 47.5633 30.4206 47.3985 30.5002C47.2337 30.5797 47.0814 30.6727 47.0602 30.7067C47.0389 30.7408 47.0864 30.9013 47.1657 31.0634C47.4306 31.6044 47.5322 32.1195 47.536 32.9412C47.5388 33.5086 47.5087 33.8203 47.4211 34.1329C47.2834 34.6238 46.9704 35.2955 46.7009 35.6785C46.3804 36.1338 45.3545 37.0292 45.1533 37.0292C45.1062 37.0292 45.0676 37.0574 45.0676 37.0919C45.0676 37.1264 45.0363 37.1546 44.998 37.1546C44.9597 37.1546 44.8384 37.1934 44.7286 37.2409C43.9991 37.5563 43.2328 37.668 42.3498 37.5874C41.6928 37.5275 40.9994 37.3256 40.6306 37.0871C40.5783 37.0533 40.4856 37.009 40.4246 36.9887C40.3636 36.9685 40.3137 36.927 40.3137 36.8966C40.3137 36.8662 40.2828 36.8412 40.2451 36.8412C40.1799 36.8412 39.7002 36.4803 39.4922 36.2747C39.1813 35.9672 38.7501 35.3673 38.6046 35.0396C38.5229 34.8558 38.4296 34.8617 37.9527 35.0807C37.3359 35.364 36.818 35.5922 36.558 35.6953C36.4273 35.7471 36.3203 35.8156 36.3203 35.8474C36.3203 35.9325 36.7766 36.7437 36.8382 36.7681C36.8671 36.7796 36.8908 36.8146 36.8908 36.8459C36.8908 36.9195 37.3066 37.4586 37.5012 37.6372C37.5838 37.7131 37.6514 37.7907 37.6514 37.8095C37.6514 37.8542 37.8945 38.0945 37.9397 38.0945C37.9588 38.0945 38.0373 38.1614 38.114 38.2431C38.3008 38.4419 38.841 38.8465 38.9197 38.8465C38.9543 38.8465 38.9826 38.8701 38.9826 38.8989C38.9826 38.9782 40.2285 39.5634 40.6623 39.688C40.8715 39.7481 41.1282 39.8242 41.2328 39.8572C41.6048 39.9743 42.8323 40.0372 43.5622 39.9765C43.9545 39.9438 44.3609 39.8901 44.4655 39.8572C44.5701 39.8242 44.8268 39.7471 45.0359 39.6857C45.2451 39.6244 45.5157 39.5233 45.6372 39.461C45.7587 39.3988 45.8942 39.3478 45.9383 39.3478C45.9824 39.3478 46.0184 39.3219 46.0184 39.2901C46.0184 39.2584 46.104 39.2138 46.2086 39.1912C46.3132 39.1685 46.3988 39.1272 46.3988 39.0995C46.3988 39.0718 46.4486 39.031 46.5097 39.0089C46.7253 38.9307 46.9692 38.7763 46.9692 38.7177C46.9692 38.6851 47.005 38.6585 47.0487 38.6585C47.1738 38.6585 48.0855 37.8038 48.4112 37.3811C48.5736 37.1703 48.7238 36.9838 48.7449 36.9666C48.8025 36.9198 49.2123 36.2155 49.3284 35.9639C49.5543 35.4745 49.6301 35.2455 49.8875 34.2743C49.9985 33.8552 50.0387 32.6103 49.9562 32.1414C49.9168 31.9174 49.8546 31.5649 49.8181 31.3581C49.7816 31.1513 49.7246 30.9553 49.6915 30.9226C49.6585 30.8898 49.6315 30.8105 49.6315 30.7462C49.6315 30.682 49.557 30.4691 49.466 30.2731C49.375 30.0772 49.2759 29.8533 49.2457 29.7758C49.1699 29.5809 49.0358 29.6023 48.5222 29.8916ZM16.4196 34.4443C16.2361 34.9655 15.7545 35.8386 15.6504 35.8386C15.6188 35.8386 15.593 35.8655 15.593 35.8983C15.593 35.9581 15.0573 36.5042 14.8832 36.6219C13.7511 37.3869 13.0779 37.6131 11.9483 37.6081C11.3604 37.6056 10.5962 37.5066 10.4074 37.4087C10.1875 37.2945 9.83508 37.1546 9.76776 37.1546C9.72941 37.1546 9.6981 37.1306 9.6981 37.1014C9.6981 37.0722 9.57684 36.9946 9.42871 36.9291C9.09308 36.7806 8.25308 35.9651 7.94224 35.4859C7.7716 35.2229 7.44751 34.511 7.39673 34.2876L7.36466 34.1467H11.9445H16.5244L16.4196 34.4443Z" fill="#FF922E"/>
    </symbol>

    <symbol id="clock" viewBox="0 0 24 24" fill="none" xmlns="http://www.w3.org/2000/svg">
        <g clip-path="url(#clip0_300_87)">
            <path d="M12 22C6.477 22 2 17.523 2 12C2 6.477 6.477 2 12 2C17.523 2 22 6.477 22 12C22 17.523 17.523 22 12 22ZM13 12V7H11V14H17V12H13Z" fill="#FF922E"/>
        </g>
        <defs>
            <clipPath id="clip0_300_87">
                <rect width="24" height="24" fill="white"/>
            </clipPath>
        </defs>
    </symbol>


    <symbol id="plus" viewBox="0 0 24 24" xmlns="http://www.w3.org/2000/svg">
        <path d="M11 11V5H13V11H19V13H13V19H11V13H5V11H11Z"/>
    </symbol>

    <symbol id="arrowRight" viewBox="0 0 25 24" xmlns="http://www.w3.org/2000/svg">
        <path d="M12.1992 20L20.1992 12L12.1992 4L11.1492 5.05L17.3492 11.25H4.19922V12.75H17.3492L11.1492 18.95L12.1992 20Z"/>
    </symbol>

    <symbol id="takeout" viewBox="0 0 49 48" fill="none" xmlns="http://www.w3.org/2000/svg">
        <path  d="M16.4843 36.2L15.3235 21.4H34.2827L33.122 36.2H16.4843ZM35.0524 38.0192L36.3451 21.2634L43.5774 14.2292L43.7434 14.0678L43.5952 13.89L42.5952 12.69L42.4221 12.4822L42.2285 12.6711L36.5512 18.2099L36.8024 14.8185L36.8109 14.7048L36.7306 14.6239L29.9806 7.82388L29.9072 7.75H29.8031H19.8031H19.699L19.6257 7.82388L12.8757 14.6239L12.7941 14.7061L12.8041 14.8215L13.0965 18.2054L7.37698 12.6704L7.18347 12.4831L7.01107 12.69L6.01107 13.89L5.86286 14.0678L6.02882 14.2292L13.2611 21.2634L14.5539 38.0192L14.5717 38.25H14.8031H34.8031H35.0346L35.0524 38.0192ZM34.7445 15.3471L34.4224 19.35H15.1365L14.8605 15.3483L20.5548 9.8H29.0515L34.7445 15.3471Z" fill="#181818" stroke="#181818" stroke-width="0.5"/>
    </symbol>

    <symbol id="lab" viewBox="0 0 49 48" xmlns="http://www.w3.org/2000/svg">
        <path  d="M17.3516 22.75V23H17.6016H31.6016H31.8516V22.75V21.25V21H31.6016H17.6016H17.3516V21.25V22.75ZM17.3516 14.75V15H17.6016H31.6016H31.8516V14.75V13.25V13H31.6016H17.6016H17.3516V13.25V14.75ZM31.5998 30.9976L31.5989 30.9965C31.1108 30.3689 30.5244 29.8782 29.8406 29.5275C29.1536 29.1752 28.4059 29 27.6016 29H12.4016V8.75C12.4016 8.48221 12.4924 8.26269 12.6783 8.07678C12.8643 7.89086 13.0838 7.8 13.3516 7.8H35.8516C36.1193 7.8 36.3389 7.89086 36.5248 8.07678C36.7107 8.26269 36.8016 8.48222 36.8016 8.75V37.7646L31.5998 30.9976ZM12.6783 39.9232C12.4924 39.7373 12.4016 39.5178 12.4016 39.25V31H27.6016C28.0579 31 28.5009 31.1136 28.9335 31.3454C29.37 31.5792 29.7247 31.8808 30.0016 32.25L30.0031 32.2521L36.095 40.2H13.3516C13.0838 40.2 12.8643 40.1091 12.6783 39.9232ZM13.3516 42.25H35.8516C36.6833 42.25 37.3973 41.9579 37.9783 41.3768C38.5594 40.7957 38.8516 40.0817 38.8516 39.25V8.75C38.8516 7.91825 38.5594 7.2043 37.9783 6.62322C37.3973 6.04215 36.6833 5.75 35.8516 5.75H13.3516C12.5198 5.75 11.8059 6.04215 11.2248 6.62322C10.6437 7.2043 10.3516 7.91825 10.3516 8.75V39.25C10.3516 40.0817 10.6437 40.7957 11.2248 41.3768C11.8059 41.9579 12.5198 42.25 13.3516 42.25Z" fill="#181818" stroke="#181818" stroke-width="0.5"/>
    </symbol>

    <symbol id="dinner" viewBox="0 0 49 48" fill="none" xmlns="http://www.w3.org/2000/svg">
        <path  d="M7.17302 41.0797L7.24571 41.15H7.34687H41.3469H41.448L41.5207 41.0797L43.0707 39.5797L43.5147 39.15H42.8969H5.79688H5.17905L5.62302 39.5797L7.17302 41.0797ZM7.9825 35.2214L7.75533 35.6H8.19688H39.8469H40.0969V35.35V34H40.097L40.0968 33.9931C40.0282 31.5254 39.0822 29.4686 37.2637 27.8388C35.4454 26.2092 33.1669 25.4 30.4469 25.4C27.8301 25.4 25.6365 26.1405 23.8846 27.6348C22.2846 28.9995 21.3199 30.5727 21.0135 32.3522C20.444 31.8761 19.805 31.4824 19.0976 31.1712C18.31 30.8247 17.4929 30.6078 16.6469 30.5211V17.05H20.6969C21.3629 17.05 21.9768 16.8077 22.5325 16.3415C23.1271 15.8429 23.3969 15.0574 23.3969 14.05V13.55H42.4969H42.7469V13.3V11.75V11.5H42.4969H23.3969V10.95C23.3969 9.94346 23.1274 9.16315 22.5288 8.6804C21.9727 8.23193 21.3601 8 20.6969 8H7.74687H7.49687V8.25V9.75V10H7.74687H9.49688V11.5H7.74687H7.49687V11.75V13.3V13.55H7.74687H9.49688V15H7.74687H7.49687V15.25V16.8V17.05H7.74687H9.49688V33.0973C9.15235 33.4502 8.86473 33.8063 8.63596 34.1658C8.40158 34.5341 8.18375 34.886 7.9825 35.2214ZM35.81 29.3155C37.2391 30.5295 37.9746 31.9547 38.0418 33.6H22.9065C23.0016 31.9519 23.7301 30.5257 25.1118 29.3129C26.5621 28.0398 28.3353 27.4 30.4469 27.4C32.5241 27.4 34.3076 28.0393 35.81 29.3155ZM21.5469 11V11.5H16.6469V10H20.5969C20.8131 10 21.0256 10.0929 21.2395 10.321C21.4561 10.552 21.5469 10.7768 21.5469 11ZM20.5969 15H16.6469V13.55H21.5469V14C21.5469 14.2627 21.4514 14.492 21.2451 14.6982C21.033 14.9103 20.8188 15 20.5969 15ZM14.6469 10V11.5H11.5469V10H14.6469ZM14.6469 13.55V15H11.5469V13.55H14.6469ZM12.812 30.9399C12.3545 31.105 11.9326 31.3038 11.5469 31.5368V17.05H14.6469V30.5644C13.9844 30.6131 13.3722 30.7376 12.812 30.9399Z" fill="#181818" stroke="#181818" stroke-width="0.5"/>
    </symbol>

    <symbol id="nutrition" viewBox="0 0 49 48" fill="none" xmlns="http://www.w3.org/2000/svg">
        <path  d="M15.4314 7.85181L15.1992 7.86839V8.10117C15.1992 9.28707 15.3348 10.4402 15.6063 11.5601C15.8842 12.7066 16.458 13.7135 17.3224 14.5779C17.8804 15.1359 18.5421 15.5706 19.3046 15.8826C19.7051 16.0464 20.1062 16.1814 20.5079 16.2873C18.1529 17.0259 16.1913 18.3708 14.6291 20.3198C12.8431 22.5481 11.9492 25.1118 11.9492 28.0012C11.9492 31.4001 13.1417 34.2972 15.5224 36.678C17.9032 39.0587 20.8003 40.2512 24.1992 40.2512C27.5981 40.2512 30.4952 39.0587 32.876 36.678C35.2567 34.2972 36.4492 31.4001 36.4492 28.0012C36.4492 24.8751 35.4363 22.1576 33.4118 19.8609C31.4632 17.6503 29.0296 16.313 26.1204 15.8526C26.5152 15.0418 26.9685 14.2635 27.4803 13.5176C28.055 12.6802 28.7207 11.8663 29.478 11.076C29.6599 10.893 29.7492 10.6621 29.7492 10.4012C29.7492 10.1404 29.6607 9.9028 29.4944 9.695L29.4771 9.67331L29.4554 9.65596C29.2437 9.48658 28.9967 9.40117 28.7242 9.40117C28.452 9.40117 28.2097 9.48711 28.0224 9.6744C27.112 10.5848 26.3022 11.5548 25.5933 12.5844C25.0895 13.3162 24.662 14.0943 24.3109 14.9185C24.1043 13.4595 23.5408 12.1501 22.6197 10.9953C21.4792 9.5655 20.0216 8.68642 18.2554 8.36609C17.8595 8.05864 17.4026 7.88702 16.8914 7.85176C16.3968 7.81766 15.9101 7.81761 15.4314 7.85181ZM31.4224 35.2244C29.4364 37.2104 27.0335 38.2012 24.1992 38.2012C21.3649 38.2012 18.962 37.2104 16.976 35.2244C14.99 33.2384 13.9992 30.8355 13.9992 28.0012C13.9992 25.1668 14.99 22.764 16.976 20.778C18.962 18.7919 21.3649 17.8012 24.1992 17.8012C27.0335 17.8012 29.4364 18.7919 31.4224 20.778C33.4084 22.764 34.3992 25.1668 34.3992 28.0012C34.3992 30.8355 33.4084 33.2384 31.4224 35.2244Z" fill="#181818" stroke="#181818" stroke-width="0.5"/>
    </symbol>

    <symbol id="play" viewBox="0 0 38 38" xmlns="http://www.w3.org/2000/svg">
        <path d="M14.7807 26.3785L26.3766 18.9993L14.7807 11.6202V26.3785ZM18.9974 37.2077C16.5057 37.2077 14.1498 36.7285 11.9297 35.7702C9.70955 34.8118 7.77691 33.5101 6.13177 31.865C4.48663 30.2198 3.1849 28.2872 2.22656 26.0671C1.26823 23.8469 0.789062 21.491 0.789062 18.9993C0.789062 16.4757 1.26823 14.1039 2.22656 11.8837C3.1849 9.66358 4.48663 7.73893 6.13177 6.10977C7.77691 4.4806 9.70955 3.18685 11.9297 2.22852C14.1498 1.27018 16.5057 0.791016 18.9974 0.791016C21.521 0.791016 23.8929 1.27018 26.113 2.22852C28.3332 3.18685 30.2578 4.4806 31.887 6.10977C33.5161 7.73893 34.8099 9.66358 35.7682 11.8837C36.7266 14.1039 37.2057 16.4757 37.2057 18.9993C37.2057 21.491 36.7266 23.8469 35.7682 26.0671C34.8099 28.2872 33.5161 30.2198 31.887 31.865C30.2578 33.5101 28.3332 34.8118 26.113 35.7702C23.8929 36.7285 21.521 37.2077 18.9974 37.2077Z"/>
    </symbol>

    <symbol id="quote" viewBox="0 0 64 65" fill="none" xmlns="http://www.w3.org/2000/svg">
        <rect x="0.5" y="1" width="63" height="63" rx="31.5" fill="#F1FBC7"/>
        <rect x="0.5" y="1" width="63" height="63" rx="31.5" stroke="#181818"/>
        <path d="M25.7401 40.0601L25.1161 37.7081C26.3001 37.6761 27.0681 37.2601 27.4201 36.4601C27.7721 35.6281 27.9481 34.5401 27.9481 33.1961H24.8281V26.6201H31.4041C31.4041 27.5481 31.3881 28.4441 31.3561 29.3081C31.3561 30.1721 31.3401 31.0041 31.3081 31.8041C31.2441 34.4921 30.8281 36.5401 30.0601 37.9481C29.2921 39.3241 27.8521 40.0281 25.7401 40.0601ZM35.2921 40.0601L34.6681 37.7081C35.8521 37.6761 36.6201 37.2601 36.9721 36.4601C37.3241 35.6281 37.5001 34.5401 37.5001 33.1961H34.3801V26.6201H40.9561C40.9561 27.5481 40.9401 28.4441 40.9081 29.3081C40.9081 30.1721 40.8921 31.0041 40.8601 31.8041C40.7961 34.4921 40.3801 36.5401 39.6121 37.9481C38.8441 39.3241 37.4041 40.0281 35.2921 40.0601Z" fill="#181818"/>
    </symbol>

    <symbol id="arrowDown" width="24" height="24" viewBox="0 0 24 24" fill="none" xmlns="http://www.w3.org/2000/svg">
        <path d="M12.0016 15.0492L6.35156 9.39922L7.15156 8.57422L12.0016 13.4242L16.8516 8.57422L17.6516 9.39922L12.0016 15.0492Z" fill="#7E7E7E"/>
    </symbol>

    <symbol id="instagram" viewBox="0 0 25 24" fill="none" xmlns="http://www.w3.org/2000/svg">
        <g clip-path="url(#clip0_1488_6388)">
            <path d="M12.5 9C11.7044 9 10.9413 9.31607 10.3787 9.87868C9.81607 10.4413 9.5 11.2044 9.5 12C9.5 12.7956 9.81607 13.5587 10.3787 14.1213C10.9413 14.6839 11.7044 15 12.5 15C13.2956 15 14.0587 14.6839 14.6213 14.1213C15.1839 13.5587 15.5 12.7956 15.5 12C15.5 11.2044 15.1839 10.4413 14.6213 9.87868C14.0587 9.31607 13.2956 9 12.5 9ZM12.5 7C13.8261 7 15.0979 7.52678 16.0355 8.46447C16.9732 9.40215 17.5 10.6739 17.5 12C17.5 13.3261 16.9732 14.5979 16.0355 15.5355C15.0979 16.4732 13.8261 17 12.5 17C11.1739 17 9.90215 16.4732 8.96447 15.5355C8.02678 14.5979 7.5 13.3261 7.5 12C7.5 10.6739 8.02678 9.40215 8.96447 8.46447C9.90215 7.52678 11.1739 7 12.5 7ZM19 6.75C19 7.08152 18.8683 7.39946 18.6339 7.63388C18.3995 7.8683 18.0815 8 17.75 8C17.4185 8 17.1005 7.8683 16.8661 7.63388C16.6317 7.39946 16.5 7.08152 16.5 6.75C16.5 6.41848 16.6317 6.10054 16.8661 5.86612C17.1005 5.6317 17.4185 5.5 17.75 5.5C18.0815 5.5 18.3995 5.6317 18.6339 5.86612C18.8683 6.10054 19 6.41848 19 6.75ZM12.5 4C10.026 4 9.622 4.007 8.471 4.058C7.687 4.095 7.161 4.2 6.673 4.39C6.239 4.558 5.926 4.759 5.593 5.093C5.28001 5.3954 5.03935 5.76458 4.889 6.173C4.699 6.663 4.594 7.188 4.558 7.971C4.506 9.075 4.5 9.461 4.5 12C4.5 14.474 4.507 14.878 4.558 16.029C4.595 16.812 4.7 17.339 4.889 17.826C5.059 18.261 5.259 18.574 5.591 18.906C5.928 19.242 6.241 19.443 6.671 19.609C7.165 19.8 7.691 19.906 8.471 19.942C9.575 19.994 9.961 20 12.5 20C14.974 20 15.378 19.993 16.529 19.942C17.311 19.905 17.838 19.8 18.326 19.611C18.759 19.442 19.074 19.241 19.406 18.909C19.743 18.572 19.944 18.259 20.11 17.829C20.3 17.336 20.406 16.809 20.442 16.029C20.494 14.925 20.5 14.539 20.5 12C20.5 9.526 20.493 9.122 20.442 7.971C20.405 7.189 20.3 6.661 20.11 6.173C19.9593 5.765 19.7191 5.39596 19.407 5.093C19.1047 4.77985 18.7355 4.53917 18.327 4.389C17.837 4.199 17.311 4.094 16.529 4.058C15.425 4.006 15.039 4 12.5 4ZM12.5 2C15.217 2 15.556 2.01 16.622 2.06C17.687 2.11 18.412 2.277 19.05 2.525C19.71 2.779 20.266 3.123 20.822 3.678C21.3305 4.1779 21.724 4.78259 21.975 5.45C22.222 6.087 22.39 6.813 22.44 7.878C22.487 8.944 22.5 9.283 22.5 12C22.5 14.717 22.49 15.056 22.44 16.122C22.39 17.187 22.222 17.912 21.975 18.55C21.7247 19.2178 21.3311 19.8226 20.822 20.322C20.322 20.8303 19.7173 21.2238 19.05 21.475C18.413 21.722 17.687 21.89 16.622 21.94C15.556 21.987 15.217 22 12.5 22C9.783 22 9.444 21.99 8.378 21.94C7.313 21.89 6.588 21.722 5.95 21.475C5.28233 21.2245 4.67753 20.8309 4.178 20.322C3.66941 19.8222 3.27593 19.2175 3.025 18.55C2.777 17.913 2.61 17.187 2.56 16.122C2.513 15.056 2.5 14.717 2.5 12C2.5 9.283 2.51 8.944 2.56 7.878C2.61 6.812 2.777 6.088 3.025 5.45C3.27524 4.78218 3.6688 4.17732 4.178 3.678C4.67767 3.16923 5.28243 2.77573 5.95 2.525C6.588 2.277 7.312 2.11 8.378 2.06C9.444 2.013 9.783 2 12.5 2Z" fill="#181818"/>
        </g>
        <defs>
            <clipPath id="clip0_1488_6388">
                <rect width="24" height="24" fill="white" transform="translate(0.5)"/>
            </clipPath>
        </defs>
    </symbol>

    <symbol id="facebook-2" viewBox="0 0 16 17" xmlns="http://www.w3.org/2000/svg">
        <path d="M9.33464 9.49967H11.0013L11.668 6.83301H9.33464V5.49967C9.33464 4.81301 9.33464 4.16634 10.668 4.16634H11.668V1.92634C11.4506 1.89767 10.63 1.83301 9.7633 1.83301C7.9533 1.83301 6.66797 2.93767 6.66797 4.96634V6.83301H4.66797V9.49967H6.66797V15.1663H9.33464V9.49967Z"/>
    </symbol>

    <symbol id="facebook" viewBox="0 0 25 24" fill="none" xmlns="http://www.w3.org/2000/svg">
        <g clip-path="url(#clip0_1488_6391)">
            <path d="M12.5 2C6.977 2 2.5 6.477 2.5 12C2.5 16.991 6.157 21.128 10.938 21.879V14.89H8.398V12H10.938V9.797C10.938 7.291 12.43 5.907 14.715 5.907C15.809 5.907 16.953 6.102 16.953 6.102V8.562H15.693C14.45 8.562 14.063 9.333 14.063 10.124V12H16.836L16.393 14.89H14.063V21.879C18.843 21.129 22.5 16.99 22.5 12C22.5 6.477 18.023 2 12.5 2Z" fill="#181818"/>
        </g>
        <defs>
            <clipPath id="clip0_1488_6391">
                <rect width="24" height="24" fill="white" transform="translate(0.5)"/>
            </clipPath>
        </defs>
    </symbol>

    <symbol id="telegram" viewBox="0 0 25 24" fill="none" xmlns="http://www.w3.org/2000/svg">
        <g clip-path="url(#clip0_1488_6394)">
            <path d="M12.5 22C6.977 22 2.5 17.523 2.5 12C2.5 6.477 6.977 2 12.5 2C18.023 2 22.5 6.477 22.5 12C22.5 17.523 18.023 22 12.5 22ZM9.39 13.17L9.403 13.163L10.273 16.033C10.385 16.344 10.539 16.4 10.726 16.374C10.914 16.349 11.013 16.248 11.136 16.13L12.324 14.982L14.874 16.87C15.34 17.127 15.675 16.994 15.791 16.438L17.448 8.616C17.631 7.888 17.311 7.596 16.746 7.828L7.013 11.588C6.349 11.854 6.353 12.226 6.893 12.391L9.39 13.171V13.17Z" fill="#181818"/>
        </g>
        <defs>
            <clipPath id="clip0_1488_6394">
                <rect width="24" height="24" fill="white" transform="translate(0.5)"/>
            </clipPath>
        </defs>
    </symbol>

    <symbol id="flatware" viewBox="0 0 25 24" xmlns="http://www.w3.org/2000/svg">
        <path d="M5.5 21V10.725C4.95 10.725 4.47917 10.5292 4.0875 10.1375C3.69583 9.74583 3.5 9.275 3.5 8.725V3.575C3.5 3.425 3.55833 3.29167 3.675 3.175C3.79167 3.05833 3.925 3 4.075 3C4.225 3 4.3625 3.05833 4.4875 3.175C4.6125 3.29167 4.675 3.425 4.675 3.575V7.125H5.675V3.575C5.675 3.425 5.73333 3.29167 5.85 3.175C5.96667 3.05833 6.1 3 6.25 3C6.4 3 6.53333 3.05833 6.65 3.175C6.76667 3.29167 6.825 3.425 6.825 3.575V7.125H7.825V3.575C7.825 3.425 7.8875 3.29167 8.0125 3.175C8.1375 3.05833 8.275 3 8.425 3C8.575 3 8.70833 3.05833 8.825 3.175C8.94167 3.29167 9 3.425 9 3.575V8.725C9 9.275 8.80417 9.74583 8.4125 10.1375C8.02083 10.5292 7.55 10.725 7 10.725V21H5.5ZM12.5 21V10.675C11.8167 10.2917 11.3 9.775 10.95 9.125C10.6 8.475 10.425 7.725 10.425 6.875C10.425 5.875 10.6792 4.97917 11.1875 4.1875C11.6958 3.39583 12.3917 3 13.275 3C14.1583 3 14.8542 3.39583 15.3625 4.1875C15.8708 4.97917 16.125 5.875 16.125 6.875C16.125 7.725 15.9417 8.475 15.575 9.125C15.2083 9.775 14.6833 10.2917 14 10.675V21H12.5ZM17.85 21V3C18.8167 3.08333 19.6667 3.4625 20.4 4.1375C21.1333 4.8125 21.5 5.65 21.5 6.65V12.75H19.35V21H17.85Z"/>
    </symbol>

    <symbol id="eco" viewBox="0 0 25 24" xmlns="http://www.w3.org/2000/svg">
        <path d="M11.6 22.0007C10.9 22.0007 10.2458 21.934 9.6375 21.8007C9.02917 21.6673 8.46667 21.4673 7.95 21.2007C8.48333 19.2173 9.2125 17.2965 10.1375 15.4382C11.0625 13.5798 12.3083 12.0257 13.875 10.7757C12.0083 11.6757 10.3875 12.9257 9.0125 14.5257C7.6375 16.1257 6.7 17.9423 6.2 19.9757C6.13333 19.909 6.07083 19.8507 6.0125 19.8007C5.95417 19.7507 5.89167 19.6923 5.825 19.6257C5.075 18.8757 4.5 18.0173 4.1 17.0507C3.7 16.084 3.5 15.0673 3.5 14.0007C3.5 12.8507 3.71667 11.7423 4.15 10.6757C4.58333 9.60899 5.20833 8.66733 6.025 7.85066C7.30833 6.53399 8.975 5.67983 11.025 5.28816C13.075 4.89649 16.1417 4.84233 20.225 5.12566C20.5417 9.09233 20.4958 12.134 20.0875 14.2507C19.6792 16.3673 18.8083 18.0923 17.475 19.4257C16.675 20.259 15.7667 20.8965 14.75 21.3382C13.7333 21.7798 12.6833 22.0007 11.6 22.0007Z" />
    </symbol>

    <symbol id="vegan" viewBox="0 0 25 24" xmlns="http://www.w3.org/2000/svg">
        <path d="M11.75 20.75V13.025H11.25C10.1833 13.025 9.17917 12.8208 8.2375 12.4125C7.29583 12.0042 6.45833 11.425 5.725 10.675C4.99167 9.925 4.4375 9.05833 4.0625 8.075C3.6875 7.09167 3.5 6.06667 3.5 5V3H5.45C6.48333 3 7.475 3.20417 8.425 3.6125C9.375 4.02083 10.225 4.6 10.975 5.35C11.525 5.91667 11.9792 6.55 12.3375 7.25C12.6958 7.95 12.95 8.69167 13.1 9.475C13.2333 9.275 13.375 9.08333 13.525 8.9C13.675 8.71667 13.8333 8.53333 14 8.35C14.75 7.6 15.6 7.02083 16.55 6.6125C17.5 6.20417 18.5 6 19.55 6H21.5V8C21.5 9.06667 21.3 10.0917 20.9 11.075C20.5 12.0583 19.9333 12.925 19.2 13.675C18.45 14.425 17.6042 15 16.6625 15.4C15.7208 15.8 14.7333 16 13.7 16H13.25V20.75H11.75Z"/>
    </symbol>

    <symbol id="nutrition-icon" xmlns="http://www.w3.org/2000/svg"  viewBox="0 0 25 24">
        <path d="M12.5 20.9997C10.55 20.9997 8.89583 20.3205 7.5375 18.9622C6.17917 17.6039 5.5 15.9497 5.5 13.9997C5.5 12.333 6.0125 10.8622 7.0375 9.5872C8.0625 8.3122 9.38333 7.4997 11 7.1497C10.5667 7.06637 10.15 6.94553 9.75 6.7872C9.35 6.62887 8.99167 6.39137 8.675 6.0747C8.20833 5.59137 7.89583 5.03303 7.7375 4.3997C7.57917 3.76637 7.5 3.11637 7.5 2.4497V1.9997C8.93333 1.96637 10.1667 2.4372 11.2 3.4122C12.2333 4.3872 12.7417 5.58303 12.725 6.9997C12.9583 6.28303 13.2875 5.61637 13.7125 4.9997C14.1375 4.38303 14.6167 3.80803 15.15 3.2747C15.3 3.1247 15.475 3.0497 15.675 3.0497C15.875 3.0497 16.05 3.1247 16.2 3.2747C16.35 3.4247 16.425 3.5997 16.425 3.7997C16.425 3.9997 16.35 4.1747 16.2 4.3247C15.7833 4.74137 15.4083 5.19137 15.075 5.6747C14.7417 6.15803 14.4583 6.66637 14.225 7.1997C15.7917 7.5997 17.0625 8.42887 18.0375 9.6872C19.0125 10.9455 19.5 12.383 19.5 13.9997C19.5 15.9497 18.8208 17.6039 17.4625 18.9622C16.1042 20.3205 14.45 20.9997 12.5 20.9997Z"/>
    </symbol>

    <symbol id="set-meal" viewBox="0 0 24 24" fill="none" xmlns="http://www.w3.org/2000/svg">
        <rect width="24" height="24" rx="12" fill="#FFE676"/>
        <path d="M5.66797 14.0007C5.39019 14.0007 5.15408 13.9034 4.95964 13.709C4.76519 13.5145 4.66797 13.2784 4.66797 13.0007V6.33398C4.66797 6.05621 4.76519 5.8201 4.95964 5.62565C5.15408 5.43121 5.39019 5.33398 5.66797 5.33398H18.3346C18.6124 5.33398 18.8485 5.43121 19.043 5.62565C19.2374 5.8201 19.3346 6.05621 19.3346 6.33398V13.0007C19.3346 13.2784 19.2374 13.5145 19.043 13.709C18.8485 13.9034 18.6124 14.0007 18.3346 14.0007H5.66797ZM6.0513 16.334L6.0013 15.334L17.9846 14.7007L18.0346 15.7007L6.0513 16.334ZM6.0013 17.984V16.984H18.0013V17.984H6.0013ZM11.0013 11.5007C11.7902 11.5007 12.5485 11.3645 13.2763 11.0923C14.0041 10.8201 14.6457 10.4007 15.2013 9.83398C15.2569 10.2451 15.4624 10.5645 15.818 10.7923C16.1735 11.0201 16.568 11.1451 17.0013 11.1673V8.16732C16.5569 8.20065 16.1541 8.33121 15.793 8.55898C15.4319 8.78676 15.2291 9.10621 15.1846 9.51732C14.618 8.97287 13.9735 8.55621 13.2513 8.26732C12.5291 7.97843 11.7791 7.83398 11.0013 7.83398C10.168 7.83398 9.36797 7.97843 8.6013 8.26732C7.83464 8.55621 7.2013 9.02287 6.7013 9.66732C7.2013 10.3229 7.83464 10.7923 8.6013 11.0757C9.36797 11.359 10.168 11.5007 11.0013 11.5007Z" fill="#7E7E7E"/>
    </symbol>

    <symbol id="veganCircle" viewBox="0 0 24 24" fill="none" xmlns="http://www.w3.org/2000/svg">
        <rect width="24" height="24" rx="12" fill="#C3E00D"/>
        <path d="M11.5 17.8333V12.6833H11.1667C10.4556 12.6833 9.78611 12.5472 9.15833 12.275C8.53056 12.0028 7.97222 11.6167 7.48333 11.1167C6.99444 10.6167 6.625 10.0389 6.375 9.38333C6.125 8.72778 6 8.04444 6 7.33333V6H7.3C7.98889 6 8.65 6.13611 9.28333 6.40833C9.91667 6.68056 10.4833 7.06667 10.9833 7.56667C11.35 7.94444 11.6528 8.36667 11.8917 8.83333C12.1306 9.3 12.3 9.79444 12.4 10.3167C12.4889 10.1833 12.5833 10.0556 12.6833 9.93333C12.7833 9.81111 12.8889 9.68889 13 9.56667C13.5 9.06667 14.0667 8.68056 14.7 8.40833C15.3333 8.13611 16 8 16.7 8H18V9.33333C18 10.0444 17.8667 10.7278 17.6 11.3833C17.3333 12.0389 16.9556 12.6167 16.4667 13.1167C15.9667 13.6167 15.4028 14 14.775 14.2667C14.1472 14.5333 13.4889 14.6667 12.8 14.6667H12.5V17.8333H11.5Z" fill="#708200"/>
    </symbol>

    <symbol id="energy" viewBox="0 0 24 24" fill="none" xmlns="http://www.w3.org/2000/svg">
        <rect width="24" height="24" rx="12" fill="#C3E00D"/>
        <g clip-path="url(#clip0_1250_5759)">
            <path d="M11.668 15.166C12.455 15.166 13.124 14.8906 13.6749 14.3396C14.2258 13.7887 14.5013 13.1197 14.5013 12.3327V9.49935H11.668C10.8809 9.49935 10.212 9.77481 9.66102 10.3257C9.1101 10.8767 8.83464 11.5456 8.83464 12.3327C8.83464 12.6255 8.88186 12.907 8.9763 13.1773C9.07075 13.4475 9.19575 13.7049 9.3513 13.9493L8.98464 14.316C8.88464 14.416 8.83464 14.5327 8.83464 14.666C8.83464 14.7993 8.88464 14.916 8.98464 15.016C9.08464 15.116 9.2013 15.166 9.33464 15.166C9.46797 15.166 9.58464 15.116 9.68464 15.016L10.0513 14.6493C10.2957 14.8049 10.5531 14.9299 10.8234 15.0243C11.0936 15.1188 11.3752 15.166 11.668 15.166ZM12.0013 19.3327L9.7013 17.5327L6.81797 17.1827L6.46797 14.2993L4.66797 11.9993L6.46797 9.69935L6.81797 6.81602L9.7013 6.46602L12.0013 4.66602L14.3013 6.46602L17.1846 6.81602L17.5346 9.69935L19.3346 11.9993L17.5346 14.2993L17.1846 17.1827L14.3013 17.5327L12.0013 19.3327ZM12.3513 12.3493C12.4513 12.2516 12.5013 12.1355 12.5013 12.001C12.5013 11.8666 12.4513 11.7493 12.3513 11.6493C12.2513 11.5493 12.1341 11.4993 11.9996 11.4993C11.8652 11.4993 11.7491 11.5493 11.6513 11.6493L10.418 12.8827C10.318 12.9834 10.268 13.1031 10.268 13.2416C10.268 13.3801 10.3171 13.4993 10.4153 13.5993C10.5136 13.6993 10.6302 13.7493 10.7653 13.7493C10.9004 13.7493 11.018 13.6993 11.118 13.5993L12.3513 12.3493Z" fill="#708200"/>
        </g>
        <defs>
            <clipPath id="clip0_1250_5759">
                <rect width="16" height="16" fill="white" transform="translate(4 4)"/>
            </clipPath>
        </defs>
    </symbol>

    <symbol id="drink" viewBox="0 0 24 24" fill="none" xmlns="http://www.w3.org/2000/svg">
        <rect width="24" height="24" rx="12" fill="#DF84E9"/>
        <path d="M8.6 18.6673C8.23333 18.6673 7.94167 18.5618 7.725 18.3506C7.50833 18.1395 7.38333 17.8673 7.35 17.534L6 5.33398H18L16.65 17.534C16.6167 17.8673 16.4917 18.1395 16.275 18.3506C16.0583 18.5618 15.7722 18.6673 15.4167 18.6673H8.6ZM7.45 9.33398H16.55L16.8833 6.33398H7.11667L7.45 9.33398ZM12 16.784C12.5 16.784 12.925 16.6145 13.275 16.2757C13.625 15.9368 13.8 15.5173 13.8 15.0173C13.8 14.4951 13.6417 13.9395 13.325 13.3507C13.0083 12.7618 12.5667 12.2007 12 11.6673C11.4333 12.2007 10.9917 12.7618 10.675 13.3507C10.3583 13.9395 10.2 14.4951 10.2 15.0173C10.2 15.5173 10.375 15.9368 10.725 16.2757C11.075 16.6145 11.5 16.784 12 16.784Z" fill="white"/>
    </symbol>

    <symbol id="info" viewBox="0 0 16 16" xmlns="http://www.w3.org/2000/svg">
        <path d="M7.33203 11.334H8.66536V7.33398H7.33203V11.334ZM7.9987 6.00065C8.18759 6.00065 8.34603 5.93665 8.47403 5.80865C8.60159 5.6811 8.66536 5.52287 8.66536 5.33398C8.66536 5.1451 8.60159 4.98665 8.47403 4.85865C8.34603 4.7311 8.18759 4.66732 7.9987 4.66732C7.80981 4.66732 7.65159 4.7311 7.52403 4.85865C7.39603 4.98665 7.33203 5.1451 7.33203 5.33398C7.33203 5.52287 7.39603 5.6811 7.52403 5.80865C7.65159 5.93665 7.80981 6.00065 7.9987 6.00065ZM7.9987 14.6673C7.07648 14.6673 6.20981 14.4922 5.3987 14.142C4.58759 13.7922 3.88203 13.3173 3.28203 12.7173C2.68203 12.1173 2.20714 11.4118 1.85736 10.6006C1.50714 9.78954 1.33203 8.92287 1.33203 8.00065C1.33203 7.07843 1.50714 6.21176 1.85736 5.40065C2.20714 4.58954 2.68203 3.88398 3.28203 3.28398C3.88203 2.68398 4.58759 2.20887 5.3987 1.85865C6.20981 1.50887 7.07648 1.33398 7.9987 1.33398C8.92092 1.33398 9.78759 1.50887 10.5987 1.85865C11.4098 2.20887 12.1154 2.68398 12.7154 3.28398C13.3154 3.88398 13.7903 4.58954 14.14 5.40065C14.4903 6.21176 14.6654 7.07843 14.6654 8.00065C14.6654 8.92287 14.4903 9.78954 14.14 10.6006C13.7903 11.4118 13.3154 12.1173 12.7154 12.7173C12.1154 13.3173 11.4098 13.7922 10.5987 14.142C9.78759 14.4922 8.92092 14.6673 7.9987 14.6673ZM7.9987 13.334C9.48759 13.334 10.7487 12.8173 11.782 11.784C12.8154 10.7507 13.332 9.48954 13.332 8.00065C13.332 6.51176 12.8154 5.25065 11.782 4.21732C10.7487 3.18398 9.48759 2.66732 7.9987 2.66732C6.50981 2.66732 5.2487 3.18398 4.21536 4.21732C3.18203 5.25065 2.66536 6.51176 2.66536 8.00065C2.66536 9.48954 3.18203 10.7507 4.21536 11.784C5.2487 12.8173 6.50981 13.334 7.9987 13.334Z"/>
    </symbol>

    <symbol id="favorite" viewBox="0 0 48 48" xmlns="http://www.w3.org/2000/svg">
        <path  d="M24 41.9498L21.95 40.0998C18.4244 36.8624 15.5097 34.0698 13.2058 31.7218C10.9019 29.3738 9.06667 27.2748 7.7 25.4248C6.33333 23.5748 5.375 21.8998 4.825 20.3998C4.275 18.8998 4 17.3831 4 15.8498C4 12.8446 5.00833 10.335 7.025 8.32096C9.04167 6.30685 11.5333 5.2998 14.5 5.2998C16.4 5.2998 18.1583 5.7498 19.775 6.6498C21.3917 7.5498 22.8 8.8498 24 10.5498C25.4 8.7498 26.8833 7.4248 28.45 6.5748C30.0167 5.7248 31.7 5.2998 33.5 5.2998C36.4667 5.2998 38.9583 6.30685 40.975 8.32096C42.9917 10.335 44 12.8446 44 15.8498C44 17.3831 43.725 18.8998 43.175 20.3998C42.625 21.8998 41.6667 23.5748 40.3 25.4248C38.9333 27.2748 37.0981 29.3738 34.7942 31.7218C32.4903 34.0698 29.5756 36.8624 26.05 40.0998L24 41.9498ZM24 37.9998C27.3745 34.9 30.1515 32.2417 32.3309 30.0249C34.5103 27.8082 36.2417 25.8665 37.525 24.1998C38.8083 22.5331 39.7083 21.0476 40.225 19.7431C40.7417 18.4385 41 17.1432 41 15.8571C41 13.6522 40.3 11.8415 38.9 10.4248C37.5 9.00814 35.7037 8.2998 33.5112 8.2998C31.7938 8.2998 30.2042 8.8248 28.7425 9.8748C27.2808 10.9248 26.1 12.3998 25.2 14.2998H22.75C21.8833 12.4331 20.7192 10.9665 19.2575 9.8998C17.7958 8.83314 16.2062 8.2998 14.4887 8.2998C12.2963 8.2998 10.5 9.00814 9.1 10.4248C7.7 11.8415 7 13.6551 7 15.8656C7 17.1551 7.25833 18.4581 7.775 19.7748C8.29167 21.0915 9.19167 22.5915 10.475 24.2748C11.7583 25.9581 13.5 27.8998 15.7 30.0998C17.9 32.2998 20.6667 34.9331 24 37.9998Z" fill="black"/>
    </symbol>

    <symbol id="schedule" viewBox="0 0 48 48"  xmlns="http://www.w3.org/2000/svg">
        <path  d="M31.35 33.65L33.6 31.4L25.65 23.4V13.35H22.65V24.6L31.35 33.65ZM24 44C21.2667 44 18.6833 43.475 16.25 42.425C13.8167 41.375 11.6917 39.9417 9.875 38.125C8.05833 36.3083 6.625 34.1833 5.575 31.75C4.525 29.3167 4 26.7333 4 24C4 21.2667 4.525 18.6833 5.575 16.25C6.625 13.8167 8.05833 11.6917 9.875 9.875C11.6917 8.05833 13.8167 6.625 16.25 5.575C18.6833 4.525 21.2667 4 24 4C26.7333 4 29.3167 4.525 31.75 5.575C34.1833 6.625 36.3083 8.05833 38.125 9.875C39.9417 11.6917 41.375 13.8167 42.425 16.25C43.475 18.6833 44 21.2667 44 24C44 26.7333 43.475 29.3167 42.425 31.75C41.375 34.1833 39.9417 36.3083 38.125 38.125C36.3083 39.9417 34.1833 41.375 31.75 42.425C29.3167 43.475 26.7333 44 24 44ZM24 41C28.6667 41 32.6667 39.3333 36 36C39.3333 32.6667 41 28.6667 41 24C41 19.3333 39.3333 15.3333 36 12C32.6667 8.66667 28.6667 7 24 7C19.3333 7 15.3333 8.66667 12 12C8.66667 15.3333 7 19.3333 7 24C7 28.6667 8.66667 32.6667 12 36C15.3333 39.3333 19.3333 41 24 41Z" fill="black"/>
    </symbol>

    <symbol id="nutrition-2" viewBox="0 0 48 48" fill="none" xmlns="http://www.w3.org/2000/svg">
        <path d="M24 42.0004C20.1 42.0004 16.7917 40.642 14.075 37.9254C11.3583 35.2087 10 31.9004 10 28.0004C10 24.667 11.025 21.7254 13.075 19.1754C15.125 16.6254 17.7667 15.0004 21 14.3004C20.1333 14.1337 19.3 13.892 18.5 13.5754C17.7 13.2587 16.9833 12.7837 16.35 12.1504C15.4167 11.1837 14.7917 10.067 14.475 8.80038C14.1583 7.53371 14 6.23371 14 4.90038V4.00038C16.8667 3.93371 19.3333 4.87538 21.4 6.82538C23.4667 8.77538 24.4833 11.167 24.45 14.0004C24.9167 12.567 25.575 11.2337 26.425 10.0004C27.275 8.76704 28.2333 7.61704 29.3 6.55038C29.6 6.25038 29.95 6.10038 30.35 6.10038C30.75 6.10038 31.1 6.25038 31.4 6.55038C31.7 6.85038 31.85 7.20038 31.85 7.60038C31.85 8.00038 31.7 8.35038 31.4 8.65038C30.5667 9.48371 29.8167 10.3837 29.15 11.3504C28.4833 12.317 27.9167 13.3337 27.45 14.4004C30.5833 15.2004 33.125 16.8587 35.075 19.3754C37.025 21.892 38 24.767 38 28.0004C38 31.9004 36.6417 35.2087 33.925 37.9254C31.2083 40.642 27.9 42.0004 24 42.0004ZM24 39.0004C27.0667 39.0004 29.6667 37.9337 31.8 35.8004C33.9333 33.667 35 31.067 35 28.0004C35 24.9337 33.9333 22.3337 31.8 20.2004C29.6667 18.067 27.0667 17.0004 24 17.0004C20.9333 17.0004 18.3333 18.067 16.2 20.2004C14.0667 22.3337 13 24.9337 13 28.0004C13 31.067 14.0667 33.667 16.2 35.8004C18.3333 37.9337 20.9333 39.0004 24 39.0004Z" fill="black"/>
    </symbol>

    <symbol id="cooking" viewBox="0 0 48 48" xmlns="http://www.w3.org/2000/svg">
        <path d="M19.5 42V35.5H4V32.5H19.5C20.325 32.5 21.0312 32.7938 21.6187 33.3813C22.2063 33.9688 22.5 34.675 22.5 35.5V42H19.5ZM25.5 42V35.5C25.5 34.675 25.7938 33.9688 26.3813 33.3813C26.9688 32.7938 27.675 32.5 28.5 32.5H44V35.5H28.5V42H25.5ZM11.5 29.5C9.97223 29.5 8.67362 28.9653 7.60415 27.8958C6.53472 26.8264 6 25.5278 6 24V15H42V24C42 25.5278 41.4653 26.8264 40.3959 27.8958C39.3264 28.9653 38.0278 29.5 36.5 29.5H11.5ZM11.5 26.5H36.5C37.2083 26.5 37.8021 26.2604 38.2812 25.7812C38.7604 25.3021 39 24.7083 39 24V18H9V24C9 24.7083 9.23958 25.3021 9.71875 25.7812C10.1979 26.2604 10.7917 26.5 11.5 26.5ZM6 13V10H18.5V7.5C18.5 7.075 18.6438 6.71875 18.9313 6.43125C19.2188 6.14375 19.575 6 20 6H28C28.425 6 28.7812 6.14375 29.0688 6.43125C29.3563 6.71875 29.5 7.075 29.5 7.5V10H42V13H6Z" fill="black"/>
    </symbol>

    <symbol id="dinner-2" viewBox="0 0 48 48" fill="none" xmlns="http://www.w3.org/2000/svg">
        <path d="M7 42L4 39H44L41 42H7ZM6.35 35.95C6.58333 35.4167 6.80833 34.9333 7.025 34.5C7.24167 34.0667 7.58333 33.6167 8.05 33.15V16.9H6V14.4H8.05V12.7H6V10.2H8.05V8.5H6V6H21C21.8 6 22.4167 6.21667 22.85 6.65C23.2833 7.08333 23.5 7.7 23.5 8.5V10.2H42V12.7H23.5V14.4C23.5 15.2 23.2833 15.8167 22.85 16.25C22.4167 16.6833 21.8 16.9 21 16.9H15.75V30.45C16.4167 30.5167 17.0667 30.6833 17.7 30.95C18.3333 31.2167 18.9333 31.5833 19.5 32.05C20.0333 29.95 21.225 28.175 23.075 26.725C24.925 25.275 27.1167 24.55 29.65 24.55C32.75 24.55 35.275 25.5667 37.225 27.6C39.175 29.6333 40.15 32.2 40.15 35.3V35.95H6.35ZM22.5 32.95H36.8C36.5 31.45 35.6833 30.175 34.35 29.125C33.0167 28.075 31.45 27.55 29.65 27.55C27.85 27.55 26.2833 28.075 24.95 29.125C23.6167 30.175 22.8 31.45 22.5 32.95ZM15.75 10.2H21V8.5H15.75V10.2ZM15.75 14.4H21V12.7H15.75V14.4ZM10.5 10.2H13.25V8.5H10.5V10.2ZM10.5 14.4H13.25V12.7H10.5V14.4ZM10.5 31.4C10.7667 31.2 11.1667 30.9917 11.7 30.775C12.2333 30.5583 12.75 30.4333 13.25 30.4V16.9H10.5V31.4Z" fill="black"/>
    </symbol>

    <symbol id="pizza" viewBox="0 0 48 48" fill="none" xmlns="http://www.w3.org/2000/svg">
        <path d="M24 44L4 13.75C6.86667 11.35 10 9.45833 13.4 8.075C16.8 6.69167 20.3333 6 24 6C27.6667 6 31.2 6.69167 34.6 8.075C38 9.45833 41.1333 11.35 44 13.75L24 44ZM24 38.65L40.05 14.45C37.65 12.8833 35.0971 11.5833 32.3914 10.55C29.6857 9.51667 26.8885 9 24 9C21.0987 9 18.2983 9.51667 15.599 10.55C12.8997 11.5833 10.35 12.8833 7.95 14.45L24 38.65ZM18.5029 19.75C19.2676 19.75 19.9167 19.4824 20.45 18.9471C20.9833 18.4118 21.25 17.7618 21.25 16.9971C21.25 16.2324 20.9824 15.5833 20.4471 15.05C19.9118 14.5167 19.2618 14.25 18.4971 14.25C17.7324 14.25 17.0833 14.5176 16.55 15.0529C16.0167 15.5882 15.75 16.2382 15.75 17.0029C15.75 17.7676 16.0176 18.4167 16.5529 18.95C17.0883 19.4833 17.7382 19.75 18.5029 19.75ZM24.003 30.5C24.7677 30.5 25.4167 30.2323 25.95 29.6971C26.4833 29.1617 26.75 28.5117 26.75 27.747C26.75 26.9823 26.4823 26.3333 25.9471 25.8C25.4117 25.2667 24.7618 25 23.9971 25C23.2324 25 22.5833 25.2677 22.05 25.803C21.5167 26.3383 21.25 26.9883 21.25 27.753C21.25 28.5177 21.5177 29.1667 22.0529 29.7C22.5882 30.2333 23.2383 30.5 24.003 30.5Z" fill="black"/>
    </symbol>

    <symbol id="chat" viewBox="0 0 24 24" xmlns="http://www.w3.org/2000/svg">
        <path d="M6.00101 14.0252H13.826V12.5252H6.00101V14.0252ZM6.00101 10.7752H18.001V9.27518H6.00101V10.7752ZM6.00101 7.52518H18.001V6.02518H6.00101V7.52518ZM1.85156 22.1496V3.55398C1.85156 3.10903 2.02044 2.71292 2.35819 2.36565C2.69595 2.01837 3.09483 1.84473 3.55481 1.84473H20.4472C20.8922 1.84473 21.2883 2.01837 21.6355 2.36565C21.9828 2.71292 22.1565 3.10903 22.1565 3.55398V16.4464C22.1565 16.8897 21.9828 17.2844 21.6355 17.6305C21.2883 17.9766 20.8922 18.1496 20.4472 18.1496H5.85156L1.85156 22.1496Z" fill="black"/>
    </symbol>

    <symbol id="messenger" viewBox="0 0 24 24" xmlns="http://www.w3.org/2000/svg">
        <path d="M12 2C17.6335 2 22 6.1265 22 11.7C22 17.2735 17.6335 21.4 12 21.4C11.0223 21.4023 10.0487 21.273 9.1055 21.0155C8.92809 20.9668 8.73932 20.9808 8.571 21.055L6.5865 21.931C6.343 22.0386 6.06193 22.018 5.8367 21.8761C5.61146 21.7342 5.47156 21.4896 5.4635 21.2235L5.409 19.4445C5.40159 19.2257 5.30449 19.0196 5.1405 18.8745C3.195 17.1345 2 14.6155 2 11.7C2 6.1265 6.3665 2 12 2ZM5.995 14.5365C5.713 14.984 6.263 15.488 6.684 15.1685L9.8395 12.7735C10.0533 12.6122 10.3481 12.6122 10.562 12.7735L12.8985 14.5235C13.2336 14.7749 13.6586 14.8747 14.0706 14.7987C14.4826 14.7227 14.8441 14.4779 15.0675 14.1235L18.005 9.4635C18.287 9.016 17.737 8.512 17.316 8.8315L14.1605 11.2265C13.9466 11.3878 13.6518 11.3878 13.438 11.2265L11.1015 9.4765C10.7663 9.22511 10.3413 9.12532 9.92936 9.2013C9.51736 9.27728 9.15591 9.5221 8.9325 9.8765L5.995 14.5365Z" fill="black"/>
    </symbol>


    <symbol id="phone-2" viewBox="0 0 24 24" xmlns="http://www.w3.org/2000/svg">
        <path d="M19.882 21.1377C17.8287 21.1377 15.789 20.6337 13.7627 19.6257C11.7364 18.6178 9.91532 17.3068 8.29939 15.6929C6.68344 14.0789 5.37148 12.2578 4.36351 10.2295C3.35555 8.20126 2.85156 6.16249 2.85156 4.11323C2.85156 3.75669 2.97385 3.45614 3.21841 3.21158C3.46298 2.96701 3.76352 2.84473 4.12004 2.84473H7.62004C7.92112 2.84473 8.1771 2.93685 8.38796 3.1211C8.59885 3.30534 8.73725 3.56068 8.80319 3.88713L9.47819 6.94148C9.52349 7.22663 9.51833 7.48098 9.46271 7.70453C9.4071 7.92808 9.29668 8.11848 9.13146 8.27573L6.60156 10.7649C7.51098 12.2591 8.52294 13.5582 9.63744 14.6624C10.7519 15.7666 12.0106 16.7027 13.4135 17.4708L15.8184 15.0029C16.017 14.7917 16.2395 14.6446 16.4861 14.5616C16.7326 14.4786 16.9882 14.4681 17.2526 14.5301L20.1021 15.1681C20.4159 15.238 20.669 15.3889 20.8616 15.6208C21.0542 15.8527 21.1505 16.1319 21.1505 16.4583V19.8632C21.1505 20.2237 21.0282 20.5263 20.7836 20.7708C20.539 21.0154 20.2385 21.1377 19.882 21.1377Z" fill="black"/>
    </symbol>


    <symbol id="close" viewBox="0 0 24 24" xmlns="http://www.w3.org/2000/svg">
        <path d="M6.4 19L5 17.6L10.6 12L5 6.4L6.4 5L12 10.6L17.6 5L19 6.4L13.4 12L19 17.6L17.6 19L12 13.4L6.4 19Z"/>
    </symbol>

    <symbol id="google" viewBox="0 0 17 17" xmlns="http://www.w3.org/2000/svg">
        <path d="M2.54137 5.50634C3.09604 4.40184 3.94695 3.47335 4.99899 2.82465C6.05103 2.17596 7.26274 1.83262 8.4987 1.83301C10.2954 1.83301 11.8047 2.49301 12.9587 3.56967L11.0474 5.48167C10.356 4.82101 9.47737 4.48434 8.4987 4.48434C6.76203 4.48434 5.29203 5.65768 4.7687 7.23301C4.63537 7.63301 4.55937 8.05968 4.55937 8.49968C4.55937 8.93968 4.63537 9.36634 4.7687 9.76634C5.2927 11.3423 6.76203 12.515 8.4987 12.515C9.39536 12.515 10.1587 12.2783 10.756 11.8783C11.1023 11.6503 11.3988 11.3545 11.6275 11.0087C11.8562 10.6629 12.0124 10.2742 12.0867 9.86634H8.4987V7.28768H14.7774C14.856 7.72368 14.8987 8.17834 14.8987 8.65101C14.8987 10.6817 14.172 12.391 12.9107 13.551C11.808 14.5697 10.2987 15.1663 8.4987 15.1663C7.62312 15.1667 6.75606 14.9945 5.94706 14.6596C5.13807 14.3247 4.403 13.8336 3.78387 13.2145C3.16474 12.5954 2.67369 11.8603 2.33879 11.0513C2.00388 10.2423 1.83168 9.37525 1.83203 8.49968C1.83203 7.42368 2.08937 6.40634 2.54137 5.50634Z"/>
    </symbol>

    <symbol id="password" viewBox="0 0 24 24" fill="none" xmlns="http://www.w3.org/2000/svg">
        <path d="M17.8807 19.2966C16.1219 20.4121 14.0814 21.0029 11.9987 20.9996C6.60669 20.9996 2.12069 17.1196 1.17969 11.9996C1.60972 9.6703 2.78132 7.54247 4.51969 5.93358L1.39069 2.80758L2.80569 1.39258L22.6047 21.1926L21.1897 22.6066L17.8797 19.2966H17.8807ZM5.93369 7.34958C4.57469 8.58517 3.628 10.2084 3.22169 11.9996C3.53398 13.366 4.16095 14.6407 5.05269 15.7222C5.94443 16.8036 7.07631 17.662 8.35824 18.2289C9.64017 18.7958 11.0367 19.0556 12.4368 18.9877C13.8368 18.9198 15.2017 18.5259 16.4227 17.8376L14.3947 15.8096C13.5314 16.3534 12.5089 16.5877 11.4949 16.474C10.481 16.3604 9.53573 15.9055 8.81426 15.184C8.09279 14.4625 7.63791 13.5173 7.52425 12.5033C7.41058 11.4894 7.64487 10.4669 8.18869 9.60358L5.93369 7.34958ZM12.9127 14.3276L9.67069 11.0856C9.49275 11.5385 9.45088 12.0335 9.55019 12.5099C9.64951 12.9863 9.8857 13.4234 10.2298 13.7675C10.5739 14.1116 11.011 14.3478 11.4873 14.4471C11.9637 14.5464 12.4588 14.5045 12.9117 14.3266L12.9127 14.3276ZM20.8057 16.5916L19.3747 15.1616C20.0432 14.2089 20.5191 13.1348 20.7757 11.9996C20.5039 10.8093 19.993 9.68672 19.2738 8.70007C18.5547 7.71342 17.6425 6.88331 16.5926 6.26018C15.5426 5.63706 14.377 5.23395 13.1664 5.07534C11.9559 4.91674 10.7257 5.00596 9.55069 5.33758L7.97269 3.75958C9.21969 3.26958 10.5787 2.99958 11.9987 2.99958C17.3907 2.99958 21.8767 6.87958 22.8177 11.9996C22.5113 13.6653 21.8225 15.2372 20.8057 16.5916ZM11.7217 7.50758C12.3582 7.46824 12.9958 7.56464 13.5922 7.7904C14.1887 8.01615 14.7303 8.36609 15.1812 8.81703C15.6322 9.26797 15.9821 9.8096 16.2079 10.406C16.4336 11.0025 16.53 11.6401 16.4907 12.2766L11.7207 7.50758H11.7217Z" fill="#7E7E7E"/>
    </symbol>

    <symbol id="password-2" xmlns="http://www.w3.org/2000/svg" viewBox="0 0 22 18">
        <path d="M10.9987 0C16.3907 0 20.8767 3.88 21.8177 9C20.8777 14.12 16.3907 18 10.9987 18C5.60669 18 1.12069 14.12 0.179688 9C1.11969 3.88 5.60669 0 10.9987 0ZM10.9987 16C13.0382 15.9996 15.0171 15.3068 16.6115 14.0352C18.206 12.7635 19.3216 10.9883 19.7757 9C19.3199 7.0133 18.2036 5.24 16.6093 3.97003C15.015 2.70005 13.037 2.00853 10.9987 2.00853C8.96038 2.00853 6.98238 2.70005 5.38806 3.97003C3.79375 5.24 2.67745 7.0133 2.22169 9C2.67578 10.9883 3.79136 12.7635 5.38583 14.0352C6.9803 15.3068 8.95922 15.9996 10.9987 16ZM10.9987 13.5C9.80521 13.5 8.66062 13.0259 7.81671 12.182C6.97279 11.3381 6.49869 10.1935 6.49869 9C6.49869 7.80653 6.97279 6.66193 7.81671 5.81802C8.66062 4.97411 9.80521 4.5 10.9987 4.5C12.1922 4.5 13.3368 4.97411 14.1807 5.81802C15.0246 6.66193 15.4987 7.80653 15.4987 9C15.4987 10.1935 15.0246 11.3381 14.1807 12.182C13.3368 13.0259 12.1922 13.5 10.9987 13.5ZM10.9987 11.5C11.6617 11.5 12.2976 11.2366 12.7665 10.7678C13.2353 10.2989 13.4987 9.66304 13.4987 9C13.4987 8.33696 13.2353 7.70107 12.7665 7.23223C12.2976 6.76339 11.6617 6.5 10.9987 6.5C10.3356 6.5 9.69976 6.76339 9.23092 7.23223C8.76208 7.70107 8.49869 8.33696 8.49869 9C8.49869 9.66304 8.76208 10.2989 9.23092 10.7678C9.69976 11.2366 10.3356 11.5 10.9987 11.5Z"/>
    </symbol>

    <symbol id="search" viewBox="0 0 24 24" fill="none" xmlns="http://www.w3.org/2000/svg">
        <path d="M19.6 21L13.3 14.7C12.8 15.1 12.225 15.4167 11.575 15.65C10.925 15.8833 10.2333 16 9.5 16C7.68333 16 6.146 15.371 4.888 14.113C3.62933 12.8543 3 11.3167 3 9.5C3 7.68333 3.62933 6.14567 4.888 4.887C6.146 3.629 7.68333 3 9.5 3C11.3167 3 12.8543 3.629 14.113 4.887C15.371 6.14567 16 7.68333 16 9.5C16 10.2333 15.8833 10.925 15.65 11.575C15.4167 12.225 15.1 12.8 14.7 13.3L21 19.6L19.6 21ZM9.5 14C10.75 14 11.8127 13.5627 12.688 12.688C13.5627 11.8127 14 10.75 14 9.5C14 8.25 13.5627 7.18733 12.688 6.312C11.8127 5.43733 10.75 5 9.5 5C8.25 5 7.18733 5.43733 6.312 6.312C5.43733 7.18733 5 8.25 5 9.5C5 10.75 5.43733 11.8127 6.312 12.688C7.18733 13.5627 8.25 14 9.5 14Z" fill="#181818"/>
    </symbol>


    <symbol id="list" viewBox="0 0 24 24" xmlns="http://www.w3.org/2000/svg">
        <path d="M8 17C8.28333 17 8.521 16.904 8.713 16.712C8.90433 16.5207 9 16.2833 9 16C9 15.7167 8.90433 15.479 8.713 15.287C8.521 15.0957 8.28333 15 8 15C7.71667 15 7.479 15.0957 7.287 15.287C7.09567 15.479 7 15.7167 7 16C7 16.2833 7.09567 16.5207 7.287 16.712C7.479 16.904 7.71667 17 8 17ZM8 13C8.28333 13 8.521 12.904 8.713 12.712C8.90433 12.5207 9 12.2833 9 12C9 11.7167 8.90433 11.479 8.713 11.287C8.521 11.0957 8.28333 11 8 11C7.71667 11 7.479 11.0957 7.287 11.287C7.09567 11.479 7 11.7167 7 12C7 12.2833 7.09567 12.5207 7.287 12.712C7.479 12.904 7.71667 13 8 13ZM8 9C8.28333 9 8.521 8.904 8.713 8.712C8.90433 8.52067 9 8.28333 9 8C9 7.71667 8.90433 7.479 8.713 7.287C8.521 7.09567 8.28333 7 8 7C7.71667 7 7.479 7.09567 7.287 7.287C7.09567 7.479 7 7.71667 7 8C7 8.28333 7.09567 8.52067 7.287 8.712C7.479 8.904 7.71667 9 8 9ZM11 17H17V15H11V17ZM11 13H17V11H11V13ZM11 9H17V7H11V9ZM5 21C4.45 21 3.979 20.8043 3.587 20.413C3.19567 20.021 3 19.55 3 19V5C3 4.45 3.19567 3.979 3.587 3.587C3.979 3.19567 4.45 3 5 3H19C19.55 3 20.021 3.19567 20.413 3.587C20.8043 3.979 21 4.45 21 5V19C21 19.55 20.8043 20.021 20.413 20.413C20.021 20.8043 19.55 21 19 21H5ZM5 19H19V5H5V19Z" fill="#1C1B1F"/>
    </symbol>

    <symbol id="dining" viewBox="0 0 24 24" fill="none" xmlns="http://www.w3.org/2000/svg">
        <path d="M4.37461 21L2.97461 19.6L13.2246 9.35C12.9246 8.65 12.8829 7.85833 13.0996 6.975C13.3163 6.09167 13.7913 5.3 14.5246 4.6C15.4079 3.71667 16.3913 3.2 17.4746 3.05C18.5579 2.9 19.4413 3.16667 20.1246 3.85C20.8079 4.53333 21.0746 5.41667 20.9246 6.5C20.7746 7.58333 20.2579 8.56667 19.3746 9.45C18.6746 10.1833 17.8829 10.6583 16.9996 10.875C16.1163 11.0917 15.3246 11.05 14.6246 10.75L13.3746 12L20.9746 19.6L19.5746 21L11.9746 13.45L4.37461 21ZM7.32461 12.45L4.32461 9.45C3.42461 8.55 2.97461 7.475 2.97461 6.225C2.97461 4.975 3.42461 3.9 4.32461 3L10.5246 9.25L7.32461 12.45Z" fill="#1C1B1F"/>
    </symbol>

    <symbol id="login" viewBox="0 0 24 24" fill="none" xmlns="http://www.w3.org/2000/svg">
        <path d="M12.1895 21.1496V19.4464H19.5123V4.55398H12.1895V2.84473H19.5123C19.9681 2.84473 20.366 3.0142 20.7058 3.35315C21.0457 3.69209 21.2156 4.09236 21.2156 4.55398V19.4464C21.2156 19.9064 21.0457 20.3052 20.7058 20.643C20.366 20.9808 19.9681 21.1496 19.5123 21.1496H12.1895ZM10.1439 16.5904L8.91941 15.3779L11.4395 12.8518H2.78516V11.1486H11.3895L8.86941 8.62245L10.0939 7.40995L14.7091 12.0252L10.1439 16.5904Z" fill="#7E7E7E"/>
    </symbol>

    <symbol id="delete" viewBox="0 0 24 24"  xmlns="http://www.w3.org/2000/svg">
        <path d="M6.525 21C6.10833 21 5.75417 20.8542 5.4625 20.5625C5.17083 20.2708 5.025 19.9167 5.025 19.5V5.25H4V3.75H8.7V3H15.3V3.75H20V5.25H18.975V19.5C18.975 19.9 18.825 20.25 18.525 20.55C18.225 20.85 17.875 21 17.475 21H6.525ZM17.475 5.25H6.525V19.5H17.475V5.25ZM9.175 17.35H10.675V7.375H9.175V17.35ZM13.325 17.35H14.825V7.375H13.325V17.35Z"/>
    </symbol>

    <symbol id="monitor" viewBox="0 0 24 24"  xmlns="http://www.w3.org/2000/svg">
        <path d="M15 19.75V18.25H23V19.75H15ZM11.997 11.775C12.8157 11.775 13.5125 11.4885 14.0875 10.9154C14.6625 10.3424 14.95 9.64657 14.95 8.82795C14.95 8.00932 14.6635 7.3125 14.0904 6.7375C13.5174 6.1625 12.8216 5.875 12.003 5.875C11.1843 5.875 10.4875 6.16152 9.9125 6.73455C9.3375 7.3076 9.05 8.00343 9.05 8.82205C9.05 9.64068 9.33652 10.3375 9.90955 10.9125C10.4826 11.4875 11.1784 11.775 11.997 11.775ZM10.425 9.325C10.2917 9.325 10.175 9.275 10.075 9.175C9.975 9.075 9.925 8.95833 9.925 8.825C9.925 8.69167 9.975 8.575 10.075 8.475C10.175 8.375 10.2917 8.325 10.425 8.325C10.5583 8.325 10.675 8.375 10.775 8.475C10.875 8.575 10.925 8.69167 10.925 8.825C10.925 8.95833 10.875 9.075 10.775 9.175C10.675 9.275 10.5583 9.325 10.425 9.325ZM12 9.325C11.8667 9.325 11.75 9.275 11.65 9.175C11.55 9.075 11.5 8.95833 11.5 8.825C11.5 8.69167 11.55 8.575 11.65 8.475C11.75 8.375 11.8667 8.325 12 8.325C12.1333 8.325 12.25 8.375 12.35 8.475C12.45 8.575 12.5 8.69167 12.5 8.825C12.5 8.95833 12.45 9.075 12.35 9.175C12.25 9.275 12.1333 9.325 12 9.325ZM13.575 9.325C13.4417 9.325 13.325 9.275 13.225 9.175C13.125 9.075 13.075 8.95833 13.075 8.825C13.075 8.69167 13.125 8.575 13.225 8.475C13.325 8.375 13.4417 8.325 13.575 8.325C13.7083 8.325 13.825 8.375 13.925 8.475C14.025 8.575 14.075 8.69167 14.075 8.825C14.075 8.95833 14.025 9.075 13.925 9.175C13.825 9.275 13.7083 9.325 13.575 9.325ZM4.5 21C4.0875 21 3.73438 20.8531 3.44063 20.5594C3.14688 20.2656 3 19.9125 3 19.5V4.5C3 4.0875 3.14688 3.73438 3.44063 3.44063C3.73438 3.14688 4.0875 3 4.5 3H19.5C19.9125 3 20.2656 3.14688 20.5594 3.44063C20.8531 3.73438 21 4.0875 21 4.5V13.875C20.6833 13.7417 20.3556 13.6458 20.0167 13.5875C19.6778 13.5292 19.3389 13.5 19 13.5C17.4722 13.5 16.1736 14.0347 15.1042 15.1042C14.0347 16.1736 13.5 17.4722 13.5 19C13.5 19.3333 13.5313 19.6667 13.5938 20C13.6563 20.3333 13.75 20.6667 13.875 21H4.5Z" fill="#181818"/>
    </symbol>

    <symbol id="calculate" viewBox="0 0 26 25" xmlns="http://www.w3.org/2000/svg">
        <path d="M8.91706 18.5783L10.1669 18.5564L10.1285 16.3568L12.3281 16.3184L12.3063 15.0686L10.1067 15.107L10.0683 12.9073L8.81846 12.9291L8.85685 15.1288L6.65719 15.1672L6.679 16.417L8.87867 16.3786L8.91706 18.5783ZM14.276 17.6096L19.3002 17.5219L19.2788 16.2971L14.2546 16.3848L14.276 17.6096ZM14.2293 14.935L19.2535 14.8473L19.2317 13.5975L14.2075 13.6852L14.2293 14.935ZM15.083 10.8445L16.5812 9.29309L18.1326 10.7912L19.0167 9.87567L17.4653 8.37752L18.9635 6.82614L18.0479 5.94198L16.5498 7.49336L14.9984 5.99521L14.1142 6.91078L15.6656 8.40893L14.1675 9.96032L15.083 10.8445ZM6.92785 9.18655L11.8271 9.10103L11.8053 7.85122L6.90604 7.93674L6.92785 9.18655ZM5.6147 21.3363C5.21476 21.3433 4.86219 21.1994 4.557 20.9047C4.25181 20.61 4.09573 20.2627 4.08875 19.8627L3.82696 4.86501C3.81998 4.46507 3.96385 4.1125 4.25857 3.80731C4.55328 3.50212 4.90061 3.34604 5.30055 3.33906L20.2983 3.07727C20.6982 3.07029 21.0508 3.21416 21.356 3.50888C21.6612 3.80359 21.8172 4.15092 21.8242 4.55086L22.086 19.5486C22.093 19.9485 21.9491 20.3011 21.6544 20.6063C21.3597 20.9115 21.0124 21.0675 20.6124 21.0745L5.6147 21.3363Z" fill="#181818"/>
    </symbol>

    <symbol id="oncology" viewBox="0 0 25 24" xmlns="http://www.w3.org/2000/svg">
        <path id="Vector" d="M22.25 22.875L19.775 20.375C19.4917 20.5583 19.1792 20.7042 18.8375 20.8125C18.4958 20.9208 18.1333 20.975 17.75 20.975C16.7 20.975 15.8125 20.6125 15.0875 19.8875C14.3625 19.1625 14 18.275 14 17.225C14 16.175 14.3625 15.2875 15.0875 14.5625C15.8125 13.8375 16.7 13.475 17.75 13.475C18.8 13.475 19.6875 13.8375 20.4125 14.5625C21.1375 15.2875 21.5 16.175 21.5 17.225C21.5 17.625 21.4417 18.0042 21.325 18.3625C21.2083 18.7208 21.0417 19.05 20.825 19.35L23.3 21.825L22.25 22.875ZM17.75 19.475C18.3833 19.475 18.9167 19.2583 19.35 18.825C19.7833 18.3917 20 17.8583 20 17.225C20 16.5917 19.7833 16.0583 19.35 15.625C18.9167 15.1917 18.3833 14.975 17.75 14.975C17.1167 14.975 16.5833 15.1917 16.15 15.625C15.7167 16.0583 15.5 16.5917 15.5 17.225C15.5 17.8583 15.7167 18.3917 16.15 18.825C16.5833 19.2583 17.1167 19.475 17.75 19.475ZM3.5 22V16C3.5 15.2333 3.76667 14.5833 4.3 14.05C4.83333 13.5167 5.48333 13.25 6.25 13.25H8.25C9.5 13.25 10.3542 12.975 10.8125 12.425C11.2708 11.875 11.5 11.2333 11.5 10.5C11.5 9.96667 11.3542 9.54167 11.0625 9.225C10.7708 8.90833 10.4167 8.75 10 8.75C9.58333 8.75 9.22917 8.60417 8.9375 8.3125C8.64583 8.02083 8.5 7.66667 8.5 7.25V2H14.5V4.25C16.3667 4.25 18 4.90833 19.4 6.225C20.8 7.54167 21.5 9.13333 21.5 11V12.875C20.9667 12.425 20.3833 12.0792 19.75 11.8375C19.1167 11.5958 18.45 11.475 17.75 11.475C16.15 11.475 14.7917 12.0333 13.675 13.15C12.5583 14.2667 12 15.625 12 17.225C12 17.4917 12.0167 17.7542 12.05 18.0125C12.0833 18.2708 12.1333 18.5167 12.2 18.75H10.75C10.4 18.75 10.1042 18.8708 9.8625 19.1125C9.62083 19.3542 9.5 19.65 9.5 20V22H3.5Z" fill="#181818"/>
    </symbol>

    <symbol id="airline" viewBox="0 0 25 24" xmlns="http://www.w3.org/2000/svg">
        <path d="M16.75 21V13.75H8.25C7.76875 13.75 7.35677 13.5786 7.01405 13.2359C6.67135 12.8932 6.5 12.4813 6.5 12V3H12V9.25H17.5C17.9813 9.25 18.3932 9.42135 18.7359 9.76405C19.0786 10.1068 19.25 10.5188 19.25 11V18.5H21C21.35 18.5 21.6458 18.6208 21.8875 18.8625C22.1292 19.1042 22.25 19.4 22.25 19.75C22.25 20.1 22.1292 20.3958 21.8875 20.6375C21.6458 20.8792 21.35 21 21 21H16.75ZM14.25 17H4.75C4.3375 17 3.98438 16.8531 3.69063 16.5594C3.39688 16.2656 3.25 15.9125 3.25 15.5V3H4.75V15.5H14.25V17Z" fill="#181818"/>
    </symbol>

    <symbol id="smile" xmlns="http://www.w3.org/2000/svg" viewBox="0 0 25 24" >
        <path d="M12.5 22C6.977 22 2.5 17.523 2.5 12C2.5 6.477 6.977 2 12.5 2C18.023 2 22.5 6.477 22.5 12C22.5 17.523 18.023 22 12.5 22ZM12.5 20C14.6217 20 16.6566 19.1571 18.1569 17.6569C19.6571 16.1566 20.5 14.1217 20.5 12C20.5 9.87827 19.6571 7.84344 18.1569 6.34315C16.6566 4.84285 14.6217 4 12.5 4C10.3783 4 8.34344 4.84285 6.84315 6.34315C5.34285 7.84344 4.5 9.87827 4.5 12C4.5 14.1217 5.34285 16.1566 6.84315 17.6569C8.34344 19.1571 10.3783 20 12.5 20ZM7.5 12H9.5C9.5 12.7956 9.81607 13.5587 10.3787 14.1213C10.9413 14.6839 11.7044 15 12.5 15C13.2956 15 14.0587 14.6839 14.6213 14.1213C15.1839 13.5587 15.5 12.7956 15.5 12H17.5C17.5 13.3261 16.9732 14.5979 16.0355 15.5355C15.0979 16.4732 13.8261 17 12.5 17C11.1739 17 9.90215 16.4732 8.96447 15.5355C8.02678 14.5979 7.5 13.3261 7.5 12Z" fill="#181818"/>
    </symbol>

    <symbol id="calendar" xmlns="http://www.w3.org/2000/svg" viewBox="0 0 24 24">
        <path d="M4.5 22C4.1 22 3.75 21.85 3.45 21.55C3.15 21.25 3 20.9 3 20.5V5C3 4.6 3.15 4.25 3.45 3.95C3.75 3.65 4.1 3.5 4.5 3.5H6.125V2H7.75V3.5H16.25V2H17.875V3.5H19.5C19.9 3.5 20.25 3.65 20.55 3.95C20.85 4.25 21 4.6 21 5V20.5C21 20.9 20.85 21.25 20.55 21.55C20.25 21.85 19.9 22 19.5 22H4.5ZM4.5 20.5H19.5V9.75H4.5V20.5ZM4.5 8.25H19.5V5H4.5V8.25ZM12 14C11.7167 14 11.4792 13.9042 11.2875 13.7125C11.0958 13.5208 11 13.2833 11 13C11 12.7167 11.0958 12.4792 11.2875 12.2875C11.4792 12.0958 11.7167 12 12 12C12.2833 12 12.5208 12.0958 12.7125 12.2875C12.9042 12.4792 13 12.7167 13 13C13 13.2833 12.9042 13.5208 12.7125 13.7125C12.5208 13.9042 12.2833 14 12 14ZM8 14C7.71667 14 7.47917 13.9042 7.2875 13.7125C7.09583 13.5208 7 13.2833 7 13C7 12.7167 7.09583 12.4792 7.2875 12.2875C7.47917 12.0958 7.71667 12 8 12C8.28333 12 8.52083 12.0958 8.7125 12.2875C8.90417 12.4792 9 12.7167 9 13C9 13.2833 8.90417 13.5208 8.7125 13.7125C8.52083 13.9042 8.28333 14 8 14ZM16 14C15.7167 14 15.4792 13.9042 15.2875 13.7125C15.0958 13.5208 15 13.2833 15 13C15 12.7167 15.0958 12.4792 15.2875 12.2875C15.4792 12.0958 15.7167 12 16 12C16.2833 12 16.5208 12.0958 16.7125 12.2875C16.9042 12.4792 17 12.7167 17 13C17 13.2833 16.9042 13.5208 16.7125 13.7125C16.5208 13.9042 16.2833 14 16 14ZM12 18C11.7167 18 11.4792 17.9042 11.2875 17.7125C11.0958 17.5208 11 17.2833 11 17C11 16.7167 11.0958 16.4792 11.2875 16.2875C11.4792 16.0958 11.7167 16 12 16C12.2833 16 12.5208 16.0958 12.7125 16.2875C12.9042 16.4792 13 16.7167 13 17C13 17.2833 12.9042 17.5208 12.7125 17.7125C12.5208 17.9042 12.2833 18 12 18ZM8 18C7.71667 18 7.47917 17.9042 7.2875 17.7125C7.09583 17.5208 7 17.2833 7 17C7 16.7167 7.09583 16.4792 7.2875 16.2875C7.47917 16.0958 7.71667 16 8 16C8.28333 16 8.52083 16.0958 8.7125 16.2875C8.90417 16.4792 9 16.7167 9 17C9 17.2833 8.90417 17.5208 8.7125 17.7125C8.52083 17.9042 8.28333 18 8 18ZM16 18C15.7167 18 15.4792 17.9042 15.2875 17.7125C15.0958 17.5208 15 17.2833 15 17C15 16.7167 15.0958 16.4792 15.2875 16.2875C15.4792 16.0958 15.7167 16 16 16C16.2833 16 16.5208 16.0958 16.7125 16.2875C16.9042 16.4792 17 16.7167 17 17C17 17.2833 16.9042 17.5208 16.7125 17.7125C16.5208 17.9042 16.2833 18 16 18Z" fill="black"/>
    </symbol>

    <symbol id="event" xmlns="http://www.w3.org/2000/svg" viewBox="0 0 24 24">
        <path d="M14.9204 18.5C14.2401 18.5 13.6667 18.2651 13.2 17.7954C12.7333 17.3257 12.5 16.7507 12.5 16.0704C12.5 15.3901 12.7349 14.8167 13.2046 14.35C13.6743 13.8833 14.2493 13.65 14.9296 13.65C15.6099 13.65 16.1833 13.8849 16.65 14.3546C17.1167 14.8243 17.35 15.3993 17.35 16.0796C17.35 16.7599 17.1151 17.3333 16.6454 17.8C16.1757 18.2667 15.6007 18.5 14.9204 18.5ZM4.5 22C4.1 22 3.75 21.85 3.45 21.55C3.15 21.25 3 20.9 3 20.5V5C3 4.6 3.15 4.25 3.45 3.95C3.75 3.65 4.1 3.5 4.5 3.5H6.125V2H7.75V3.5H16.25V2H17.875V3.5H19.5C19.9 3.5 20.25 3.65 20.55 3.95C20.85 4.25 21 4.6 21 5V20.5C21 20.9 20.85 21.25 20.55 21.55C20.25 21.85 19.9 22 19.5 22H4.5ZM4.5 20.5H19.5V9.75H4.5V20.5ZM4.5 8.25H19.5V5H4.5V8.25Z" fill="#181818"/>
    </symbol>

    <symbol id="clockPath" xmlns="http://www.w3.org/2000/svg" viewBox="0 0 24 24">
        <path d="M15.675 16.825L16.8 15.7L12.825 11.7V6.675H11.325V12.3L15.675 16.825ZM12 22C10.6333 22 9.34167 21.7375 8.125 21.2125C6.90833 20.6875 5.84583 19.9708 4.9375 19.0625C4.02917 18.1542 3.3125 17.0917 2.7875 15.875C2.2625 14.6583 2 13.3667 2 12C2 10.6333 2.2625 9.34167 2.7875 8.125C3.3125 6.90833 4.02917 5.84583 4.9375 4.9375C5.84583 4.02917 6.90833 3.3125 8.125 2.7875C9.34167 2.2625 10.6333 2 12 2C13.3667 2 14.6583 2.2625 15.875 2.7875C17.0917 3.3125 18.1542 4.02917 19.0625 4.9375C19.9708 5.84583 20.6875 6.90833 21.2125 8.125C21.7375 9.34167 22 10.6333 22 12C22 13.3667 21.7375 14.6583 21.2125 15.875C20.6875 17.0917 19.9708 18.1542 19.0625 19.0625C18.1542 19.9708 17.0917 20.6875 15.875 21.2125C14.6583 21.7375 13.3667 22 12 22ZM12 20.5C14.3333 20.5 16.3333 19.6667 18 18C19.6667 16.3333 20.5 14.3333 20.5 12C20.5 9.66667 19.6667 7.66667 18 6C16.3333 4.33333 14.3333 3.5 12 3.5C9.66667 3.5 7.66667 4.33333 6 6C4.33333 7.66667 3.5 9.66667 3.5 12C3.5 14.3333 4.33333 16.3333 6 18C7.66667 19.6667 9.66667 20.5 12 20.5Z" fill="#181818"/>
    </symbol>

    <symbol id="lock" viewBox="0 0 17 16" xmlns="http://www.w3.org/2000/svg">
        <path d="M4.16602 14.667C3.89102 14.667 3.6556 14.5691 3.45977 14.3732C3.26393 14.1774 3.16602 13.942 3.16602 13.667V6.43366C3.16602 6.15866 3.26393 5.92324 3.45977 5.72741C3.6556 5.53158 3.89102 5.43366 4.16602 5.43366H5.33268V3.83366C5.33268 2.95755 5.6416 2.21074 6.25945 1.59324C6.87729 0.975742 7.62452 0.666992 8.50112 0.666992C9.37772 0.666992 10.1243 0.975742 10.741 1.59324C11.3577 2.21074 11.666 2.95755 11.666 3.83366V5.43366H12.8327C13.1077 5.43366 13.3431 5.53158 13.5389 5.72741C13.7348 5.92324 13.8327 6.15866 13.8327 6.43366V13.667C13.8327 13.942 13.7348 14.1774 13.5389 14.3732C13.3431 14.5691 13.1077 14.667 12.8327 14.667H4.16602ZM8.50215 11.3337C8.85584 11.3337 9.15768 11.2113 9.40768 10.9665C9.65768 10.7217 9.78268 10.4274 9.78268 10.0837C9.78268 9.75033 9.65675 9.44755 9.40488 9.17533C9.15302 8.9031 8.85024 8.76699 8.49655 8.76699C8.14286 8.76699 7.84102 8.9031 7.59102 9.17533C7.34102 9.44755 7.21602 9.7531 7.21602 10.092C7.21602 10.4309 7.34195 10.7225 7.59382 10.967C7.84568 11.2114 8.14846 11.3337 8.50215 11.3337ZM6.33268 5.43366H10.666V3.83366C10.666 3.2318 10.4556 2.72023 10.0346 2.29894C9.61373 1.87764 9.10262 1.66699 8.50132 1.66699C7.9 1.66699 7.38824 1.87764 6.96602 2.29894C6.54379 2.72023 6.33268 3.2318 6.33268 3.83366V5.43366Z"/>
    </symbol>

    <symbol id="order" xmlns="http://www.w3.org/2000/svg" viewBox="0 0 24 24">
        <path d="M17.6 20.525L21.075 17.075L20.025 16.025L17.6 18.4L16.625 17.425L15.575 18.5L17.6 20.525ZM6 8.5H18V7H6V8.5ZM18.325 22.975C17.025 22.975 15.9167 22.5125 15 21.5875C14.0833 20.6625 13.625 19.5667 13.625 18.3C13.625 17 14.0833 15.8875 15 14.9625C15.9167 14.0375 17.025 13.575 18.325 13.575C19.6083 13.575 20.7125 14.0375 21.6375 14.9625C22.5625 15.8875 23.025 17 23.025 18.3C23.025 19.5667 22.5625 20.6625 21.6375 21.5875C20.7125 22.5125 19.6083 22.975 18.325 22.975ZM3 21.975V4.5C3 4.08333 3.14583 3.72917 3.4375 3.4375C3.72917 3.14583 4.08333 3 4.5 3H19.5C19.9167 3 20.2708 3.14583 20.5625 3.4375C20.8542 3.72917 21 4.08333 21 4.5V12.675C20.7667 12.5583 20.525 12.4625 20.275 12.3875C20.025 12.3125 19.7667 12.25 19.5 12.2V4.5H4.5V19.475H12.25C12.3 19.775 12.375 20.0625 12.475 20.3375C12.575 20.6125 12.6917 20.8833 12.825 21.15L12 21.975L10.5 20.475L9 21.975L7.5 20.475L6 21.975L4.5 20.475L3 21.975ZM6 17H12.3C12.3667 16.7333 12.4375 16.475 12.5125 16.225C12.5875 15.975 12.6917 15.7333 12.825 15.5H6V17ZM6 12.75H15.6C15.9667 12.5667 16.35 12.4208 16.75 12.3125C17.15 12.2042 17.5667 12.1333 18 12.1V11.25H6V12.75Z" fill="black"/>
    </symbol>

    <symbol id="lab-2" viewBox="0 0 24 24" xmlns="http://www.w3.org/2000/svg">
        <path  d="M8.25 11.375V11.625H8.5H15.5H15.75V11.375V10.625V10.375H15.5H8.5H8.25V10.625V11.375ZM8.25 7.375V7.625H8.5H15.5H15.75V7.375V6.625V6.375H15.5H8.5H8.25V6.625V7.375ZM15.5982 15.4226L15.5973 15.4215C15.3425 15.0939 15.0354 14.8365 14.6766 14.6525C14.3145 14.4669 13.921 14.375 13.5 14.375H6.025V4.375C6.025 4.27388 6.05753 4.19603 6.12678 4.12678C6.19603 4.05753 6.27388 4.025 6.375 4.025H17.625C17.7261 4.025 17.804 4.05753 17.8732 4.12678C17.9425 4.19603 17.975 4.27388 17.975 4.375V18.5146L15.5982 15.4226ZM6.12678 19.8732C6.05753 19.804 6.025 19.7261 6.025 19.625V15.625H13.5C13.7064 15.625 13.9077 15.6761 14.1069 15.7829C14.3101 15.8917 14.4731 16.0308 14.6 16.2L14.6 16.2L14.6016 16.2021L17.4934 19.975H6.375C6.27388 19.975 6.19603 19.9425 6.12678 19.8732ZM6.375 21.25H17.625C18.0734 21.25 18.4624 21.0912 18.7768 20.7768C19.0912 20.4624 19.25 20.0734 19.25 19.625V4.375C19.25 3.92659 19.0912 3.53763 18.7768 3.22322C18.4624 2.90881 18.0734 2.75 17.625 2.75H6.375C5.92659 2.75 5.53763 2.90881 5.22322 3.22322C4.90881 3.53763 4.75 3.92659 4.75 4.375V19.625C4.75 20.0734 4.90881 20.4624 5.22322 20.7768C5.53763 21.0912 5.92659 21.25 6.375 21.25Z"/>
    </symbol>

    <symbol id="info-2" xmlns="http://www.w3.org/2000/svg" viewBox="0 0 24 24">
        <path d="M11.95 18C12.3 18 12.596 17.879 12.838 17.637C13.0793 17.3957 13.2 17.1 13.2 16.75C13.2 16.4 13.0793 16.1043 12.838 15.863C12.596 15.621 12.3 15.5 11.95 15.5C11.6 15.5 11.304 15.621 11.062 15.863C10.8207 16.1043 10.7 16.4 10.7 16.75C10.7 17.1 10.8207 17.3957 11.062 17.637C11.304 17.879 11.6 18 11.95 18ZM11.05 14.15H12.9C12.9 13.6 12.9627 13.1667 13.088 12.85C13.2127 12.5333 13.5667 12.1 14.15 11.55C14.5833 11.1167 14.925 10.704 15.175 10.312C15.425 9.92067 15.55 9.45 15.55 8.9C15.55 7.96667 15.2083 7.25 14.525 6.75C13.8417 6.25 13.0333 6 12.1 6C11.15 6 10.3793 6.25 9.788 6.75C9.196 7.25 8.78333 7.85 8.55 8.55L10.2 9.2C10.2833 8.9 10.471 8.575 10.763 8.225C11.0543 7.875 11.5 7.7 12.1 7.7C12.6333 7.7 13.0333 7.84567 13.3 8.137C13.5667 8.429 13.7 8.75 13.7 9.1C13.7 9.43333 13.6 9.74567 13.4 10.037C13.2 10.329 12.95 10.6 12.65 10.85C11.9167 11.5 11.4667 11.9917 11.3 12.325C11.1333 12.6583 11.05 13.2667 11.05 14.15ZM12 22C10.6167 22 9.31667 21.7373 8.1 21.212C6.88333 20.6873 5.825 19.975 4.925 19.075C4.025 18.175 3.31267 17.1167 2.788 15.9C2.26267 14.6833 2 13.3833 2 12C2 10.6167 2.26267 9.31667 2.788 8.1C3.31267 6.88333 4.025 5.825 4.925 4.925C5.825 4.025 6.88333 3.31233 8.1 2.787C9.31667 2.26233 10.6167 2 12 2C13.3833 2 14.6833 2.26233 15.9 2.787C17.1167 3.31233 18.175 4.025 19.075 4.925C19.975 5.825 20.6873 6.88333 21.212 8.1C21.7373 9.31667 22 10.6167 22 12C22 13.3833 21.7373 14.6833 21.212 15.9C20.6873 17.1167 19.975 18.175 19.075 19.075C18.175 19.975 17.1167 20.6873 15.9 21.212C14.6833 21.7373 13.3833 22 12 22ZM12 20C14.2333 20 16.125 19.225 17.675 17.675C19.225 16.125 20 14.2333 20 12C20 9.76667 19.225 7.875 17.675 6.325C16.125 4.775 14.2333 4 12 4C9.76667 4 7.875 4.775 6.325 6.325C4.775 7.875 4 9.76667 4 12C4 14.2333 4.775 16.125 6.325 17.675C7.875 19.225 9.76667 20 12 20Z" fill="#A6A6A6"/>
    </symbol>

    <symbol id="restaurant" xmlns="http://www.w3.org/2000/svg" viewBox="0 0 24 24">
        <path d="M7 22V12.85C6.15 12.6167 5.43767 12.15 4.863 11.45C4.28767 10.75 4 9.93333 4 9V2H6V9H7V2H9V9H10V2H12V9C12 9.93333 11.7123 10.75 11.137 11.45C10.5623 12.15 9.85 12.6167 9 12.85V22H7ZM17 22V14H14V7C14 5.61667 14.4877 4.43767 15.463 3.463C16.4377 2.48767 17.6167 2 19 2V22H17Z"/>
    </symbol>

    <symbol id="menuBook" xmlns="http://www.w3.org/2000/svg"  viewBox="0 0 24 24" fill="none">
        <path d="M14 9.65V8.45C14.55 8.21667 15.1125 8.04167 15.6875 7.925C16.2625 7.80833 16.8667 7.75 17.5 7.75C17.9333 7.75 18.3583 7.78333 18.775 7.85C19.1917 7.91667 19.6 8 20 8.1V9.2C19.6 9.05 19.1958 8.9375 18.7875 8.8625C18.3792 8.7875 17.95 8.75 17.5 8.75C16.8667 8.75 16.2583 8.82917 15.675 8.9875C15.0917 9.14583 14.5333 9.36667 14 9.65ZM14 15.15V13.925C14.55 13.7 15.1125 13.5312 15.6875 13.4187C16.2625 13.3063 16.8667 13.25 17.5 13.25C17.9333 13.25 18.3583 13.2833 18.775 13.35C19.1917 13.4167 19.6 13.5 20 13.6V14.7C19.6 14.55 19.1958 14.4375 18.7875 14.3625C18.3792 14.2875 17.95 14.25 17.5 14.25C16.8667 14.25 16.2583 14.325 15.675 14.475C15.0917 14.625 14.5333 14.85 14 15.15ZM14 12.4V11.2C14.55 10.9667 15.1125 10.7917 15.6875 10.675C16.2625 10.5583 16.8667 10.5 17.5 10.5C17.9333 10.5 18.3583 10.5333 18.775 10.6C19.1917 10.6667 19.6 10.75 20 10.85V11.95C19.6 11.8 19.1958 11.6875 18.7875 11.6125C18.3792 11.5375 17.95 11.5 17.5 11.5C16.8667 11.5 16.2583 11.5792 15.675 11.7375C15.0917 11.8958 14.5333 12.1167 14 12.4ZM12.8 17.75C13.6333 17.3333 14.45 17.0208 15.25 16.8125C16.05 16.6042 16.9 16.5 17.8 16.5C18.4333 16.5 19.0875 16.55 19.7625 16.65C20.4375 16.75 21.0167 16.8833 21.5 17.05V6.325C20.9333 6.04167 20.3348 5.83333 19.7045 5.7C19.0741 5.56667 18.4393 5.5 17.8 5.5C16.9 5.5 16.0292 5.6375 15.1875 5.9125C14.3458 6.1875 13.55 6.575 12.8 7.075V17.75ZM12.05 20C11.2 19.3667 10.275 18.8792 9.275 18.5375C8.275 18.1958 7.25 18.025 6.2 18.025C5.59105 18.025 4.99298 18.1 4.4058 18.25C3.8186 18.4 3.23333 18.5833 2.65 18.8C2.265 18.9833 1.89375 18.9583 1.53625 18.725C1.17875 18.4917 1 18.1583 1 17.725V6.15C1 5.9 1.05833 5.67083 1.175 5.4625C1.29167 5.25417 1.46667 5.09167 1.7 4.975C2.4 4.64167 3.12917 4.39583 3.8875 4.2375C4.64583 4.07917 5.41667 4 6.2 4C7.25 4 8.27083 4.14167 9.2625 4.425C10.2542 4.70833 11.1833 5.14167 12.05 5.725C12.9 5.14167 13.8125 4.70833 14.7875 4.425C15.7625 4.14167 16.7667 4 17.8 4C18.5863 4 19.3537 4.07917 20.1022 4.2375C20.8507 4.39583 21.575 4.64167 22.275 4.975C22.5083 5.09167 22.6875 5.25417 22.8125 5.4625C22.9375 5.67083 23 5.9 23 6.15V17.725C23 18.1899 22.8125 18.5436 22.4375 18.7862C22.0625 19.0287 21.6917 19.0333 21.325 18.8C20.7583 18.5667 20.1814 18.3792 19.5942 18.2375C19.007 18.0958 18.409 18.025 17.8 18.025C16.75 18.025 15.7417 18.2 14.775 18.55C13.8083 18.9 12.9 19.3833 12.05 20Z" fill="#181818"/>
    </symbol>

    <symbol id="calendar-2" xmlns="http://www.w3.org/2000/svg" viewBox="0 0 25 24" fill="none">
        <path d="M9.57042 16.25C8.89014 16.25 8.31667 16.0151 7.85 15.5454C7.38333 15.0757 7.15 14.5007 7.15 13.8204C7.15 13.1401 7.38486 12.5667 7.85458 12.1C8.32429 11.6333 8.89929 11.4 9.57958 11.4C10.2599 11.4 10.8333 11.6349 11.3 12.1046C11.7667 12.5743 12 13.1493 12 13.8296C12 14.5099 11.7651 15.0833 11.2954 15.55C10.8257 16.0167 10.2507 16.25 9.57042 16.25ZM5.25 22C4.85 22 4.5 21.85 4.2 21.55C3.9 21.25 3.75 20.9 3.75 20.5V5C3.75 4.6 3.9 4.25 4.2 3.95C4.5 3.65 4.85 3.5 5.25 3.5H6.875V2H8.5V3.5H17V2H18.625V3.5H20.25C20.65 3.5 21 3.65 21.3 3.95C21.6 4.25 21.75 4.6 21.75 5V20.5C21.75 20.9 21.6 21.25 21.3 21.55C21 21.85 20.65 22 20.25 22H5.25ZM5.25 20.5H20.25V9.75H5.25V20.5Z" fill="#181818"/>
        <path d="M7.85 15.5454C8.31667 16.0151 8.89014 16.25 9.57042 16.25C10.2507 16.25 10.8257 16.0167 11.2954 15.55C11.7651 15.0833 12 14.5099 12 13.8296C12 13.1493 11.7667 12.5743 11.3 12.1046C10.8333 11.6349 10.2599 11.4 9.57958 11.4C8.89929 11.4 8.32429 11.6333 7.85458 12.1C7.38486 12.5667 7.15 13.1401 7.15 13.8204C7.15 14.5007 7.38333 15.0757 7.85 15.5454Z" fill="#181818"/>
        <path d="M14.45 18.6454C14.9167 19.1151 15.4901 19.35 16.1704 19.35C16.8507 19.35 17.4257 19.1167 17.8954 18.65C18.3651 18.1833 18.6 17.6099 18.6 16.9296C18.6 16.2493 18.3667 15.6743 17.9 15.2046C17.4333 14.7349 16.8599 14.5 16.1796 14.5C15.4993 14.5 14.9243 14.7333 14.4546 15.2C13.9849 15.6667 13.75 16.2401 13.75 16.9204C13.75 17.6007 13.9833 18.1757 14.45 18.6454Z" fill="#181818"/>
    </symbol>

    <symbol id="bento" xmlns="http://www.w3.org/2000/svg" viewBox="0 0 25 24" fill="none">
        <path d="M15.75 11.25V5H21C21.4 5 21.75 5.15 22.05 5.45C22.35 5.75 22.5 6.1 22.5 6.5V11.25H15.75ZM4 19C3.6 19 3.25 18.85 2.95 18.55C2.65 18.25 2.5 17.9 2.5 17.5V6.5C2.5 6.1 2.65 5.75 2.95 5.45C3.25 5.15 3.6 5 4 5H14.25V19H4ZM8.375 13.25C8.725 13.25 9.02083 13.125 9.2625 12.875C9.50417 12.625 9.625 12.3333 9.625 12C9.625 11.65 9.50417 11.3542 9.2625 11.1125C9.02083 10.8708 8.725 10.75 8.375 10.75C8.04167 10.75 7.75 10.8708 7.5 11.1125C7.25 11.3542 7.125 11.65 7.125 12C7.125 12.3333 7.25 12.625 7.5 12.875C7.75 13.125 8.04167 13.25 8.375 13.25ZM15.75 19V12.75H22.5V17.5C22.5 17.9 22.35 18.25 22.05 18.55C21.75 18.85 21.4 19 21 19H15.75Z" fill="#181818"/>
    </symbol>

    <symbol id="takeout-fill" xmlns="http://www.w3.org/2000/svg"  viewBox="0 0 25 24" fill="none">
        <path d="M5.05 9.875L2.25 6.925L3.325 5.85L5.625 8.225L5.5 6.95L9.4 3H15.1L19 6.95L18.875 8.225L21.175 5.85L22.25 6.925L19.45 9.875H5.05ZM6.45 20L5.75 10.6H18.75L18.05 20H6.45Z" fill="#181818"/>
    </symbol>

    <symbol id="edit" xmlns="http://www.w3.org/2000/svg" viewBox="0 0 24 24">
        <path d="M4.5 19.4998H5.6L16.675 8.4248L15.575 7.3248L4.5 18.3998V19.4998ZM19.85 7.3498L16.65 4.1498L17.7 3.0998C17.9833 2.81647 18.3333 2.6748 18.75 2.6748C19.1667 2.6748 19.5167 2.81647 19.8 3.0998L20.9 4.1998C21.1833 4.48314 21.325 4.83314 21.325 5.2498C21.325 5.66647 21.1833 6.01647 20.9 6.2998L19.85 7.3498ZM18.8 8.3998L6.2 20.9998H3V17.7998L15.6 5.1998L18.8 8.3998ZM16.125 7.8748L15.575 7.3248L16.675 8.4248L16.125 7.8748Z"/>
    </symbol>

    <symbol id="applePay" xmlns="http://www.w3.org/2000/svg" width="32" height="24" viewBox="0 0 32 24" fill="none">
        <path d="M6.06792 5.94702C6.44032 5.46821 6.70632 4.82981 6.62652 4.19141C6.06792 4.21801 5.40291 4.56381 5.00391 5.01601C4.65811 5.41501 4.33891 6.08002 4.41871 6.69182C5.05711 6.77162 5.66891 6.42582 6.06792 5.94702ZM6.62652 6.85142C5.72211 6.79822 4.95071 7.35683 4.52511 7.35683C4.0995 7.35683 3.4345 6.87802 2.7163 6.87802C1.78529 6.90462 0.934084 7.41003 0.455281 8.26123C-0.502325 9.93704 0.18928 12.4109 1.14689 13.7675C1.59909 14.4325 2.15769 15.1773 2.8759 15.1507C3.5675 15.1241 3.8335 14.6985 4.65811 14.6985C5.48271 14.6985 5.72211 15.1507 6.46692 15.1241C7.21172 15.0975 7.69053 14.4591 8.14273 13.7675C8.67473 12.9961 8.88753 12.2513 8.88753 12.2247C8.86093 12.1981 7.42453 11.6661 7.42453 10.0168C7.39792 8.63363 8.54173 7.96863 8.59493 7.94203C7.98313 6.98442 6.97232 6.87802 6.62652 6.85142Z" fill="black"/>
        <path d="M14.4452 4.96094C16.4136 4.96094 17.7702 6.31755 17.7702 8.25936C17.7702 10.2278 16.387 11.5844 14.392 11.5844H12.2374V15.0158H10.668V4.96094H14.4452ZM12.2374 10.281H14.0196C15.3762 10.281 16.1476 9.53617 16.1476 8.28596C16.1476 7.00915 15.3762 6.29095 14.0196 6.29095H12.2108V10.281H12.2374ZM18.1692 12.9676C18.1692 11.6908 19.1534 10.8928 20.909 10.7864L22.9306 10.68V10.1214C22.9306 9.29676 22.372 8.81796 21.4676 8.81796C20.5898 8.81796 20.0578 9.24356 19.9248 9.88197H18.4884C18.5682 8.55196 19.712 7.56775 21.5208 7.56775C23.303 7.56775 24.4469 8.49876 24.4469 9.98837V15.0424H23.0104V13.8454H22.9838C22.5582 14.67 21.6272 15.1754 20.6696 15.1754C19.18 15.1754 18.1692 14.271 18.1692 12.9676ZM22.9306 12.3026V11.7174L21.1218 11.8238C20.2174 11.877 19.712 12.276 19.712 12.9144C19.712 13.5528 20.244 13.9784 21.042 13.9784C22.106 13.9784 22.9306 13.2602 22.9306 12.3026ZM25.7769 17.7556V16.532C25.8833 16.5586 26.1493 16.5586 26.2557 16.5586C26.9473 16.5586 27.3197 16.266 27.5591 15.5212C27.5591 15.4946 27.6921 15.069 27.6921 15.069L25.0321 7.72735H26.6547L28.5167 13.7124H28.5433L30.4053 7.72735H32.0013L29.2615 15.468C28.6231 17.2502 27.9049 17.8088 26.3887 17.8088C26.2823 17.7822 25.9099 17.7822 25.7769 17.7556Z" fill="black"/>
    </symbol>

    <symbol id="googlePay" xmlns="http://www.w3.org/2000/svg" width="32" height="16" viewBox="0 0 32 16" fill="none">
        <path d="M15.1219 8.26125V11.9812H13.9219V2.78125H17.0419C17.8019 2.78125 18.5219 3.06125 19.0819 3.58125C19.6419 4.06125 19.9219 4.78125 19.9219 5.54125C19.9219 6.30125 19.6419 6.98125 19.0819 7.50125C18.5219 8.02125 17.8419 8.30125 17.0419 8.30125L15.1219 8.26125ZM15.1219 3.90125V7.10125H17.1219C17.5619 7.10125 18.0019 6.94125 18.2819 6.62125C18.9219 6.02125 18.9219 5.02125 18.3219 4.42125L18.2819 4.38125C17.9619 4.06125 17.5619 3.86125 17.1219 3.90125H15.1219Z" fill="black"/>
        <path d="M22.6819 5.5C23.5619 5.5 24.2419 5.74 24.7619 6.22C25.2819 6.7 25.5219 7.34 25.5219 8.14V11.98H24.4019V11.1H24.3619C23.8819 11.82 23.2019 12.18 22.4019 12.18C21.7219 12.18 21.1219 11.98 20.6419 11.58C20.2019 11.18 19.9219 10.62 19.9219 10.02C19.9219 9.38 20.1619 8.86 20.6419 8.46C21.1219 8.06 21.8019 7.9 22.6019 7.9C23.3219 7.9 23.8819 8.02 24.3219 8.3V8.02C24.3219 7.62 24.1619 7.22 23.8419 6.98C23.5219 6.7 23.1219 6.54 22.6819 6.54C22.0019 6.54 21.4819 6.82 21.1219 7.38L20.0819 6.74C20.7219 5.9 21.5619 5.5 22.6819 5.5ZM21.1619 10.06C21.1619 10.38 21.3219 10.66 21.5619 10.82C21.8419 11.02 22.1619 11.14 22.4819 11.14C22.9619 11.14 23.4419 10.94 23.8019 10.58C24.2019 10.22 24.4019 9.78 24.4019 9.3C24.0419 9.02 23.5219 8.86 22.8419 8.86C22.3619 8.86 21.9619 8.98 21.6419 9.22C21.3219 9.42 21.1619 9.7 21.1619 10.06Z" fill="black"/>
        <path d="M31.9987 5.70117L28.0387 14.7812H26.8387L28.3188 11.6212L25.7188 5.74117H26.9987L28.8787 10.2612H28.9188L30.7587 5.74117H31.9987V5.70117Z" fill="black"/>
        <path d="M10.3612 7.46086C10.3612 7.10086 10.3212 6.74086 10.2812 6.38086H5.28125V8.42086H8.12125C8.00125 9.06086 7.64125 9.66086 7.08125 10.0209V11.3409H8.80125C9.80125 10.4209 10.3612 9.06086 10.3612 7.46086Z" fill="#4285F4"/>
        <path d="M5.2825 12.6198C6.7225 12.6198 7.9225 12.1398 8.8025 11.3398L7.0825 10.0198C6.6025 10.3398 6.0025 10.5398 5.2825 10.5398C3.9225 10.5398 2.7225 9.61984 2.3225 8.33984H0.5625V9.69984C1.4825 11.4998 3.2825 12.6198 5.2825 12.6198Z" fill="#34A853"/>
        <path d="M2.31828 8.34141C2.07828 7.70141 2.07828 6.98141 2.31828 6.30141V4.94141H0.558281C-0.201719 6.42141 -0.201719 8.18141 0.558281 9.70141L2.31828 8.34141Z" fill="#FBBC04"/>
        <path d="M5.27766 4.14075C6.03766 4.14075 6.75766 4.42075 7.31766 4.94075L8.83766 3.42075C7.87766 2.54075 6.59766 2.02075 5.31766 2.06075C3.31766 2.06075 1.47766 3.18075 0.597656 4.98075L2.35766 6.34075C2.71766 5.06075 3.91766 4.14075 5.27766 4.14075Z" fill="#EA4335"/>
    </symbol>

    <symbol id="filter" xmlns="http://www.w3.org/2000/svg" viewBox="0 0 24 24" >
        <path d="M11.0008 20.1496C10.6776 20.1496 10.4053 20.0389 10.1837 19.8173C9.96215 19.5957 9.85138 19.3234 9.85138 19.0002V13.054L3.91223 5.46485C3.63904 5.1297 3.59873 4.77589 3.7913 4.40343C3.98388 4.03096 4.28706 3.84473 4.70083 3.84473H19.3008C19.7146 3.84473 20.0178 4.03096 20.2104 4.40343C20.4029 4.77589 20.3646 5.1297 20.0954 5.46485L14.1563 13.054V19.048C14.1563 19.3632 14.0505 19.6256 13.8389 19.8352C13.6273 20.0448 13.3639 20.1496 13.0487 20.1496H11.0008ZM12.0008 13.0105L17.8872 5.55398H6.1204L12.0008 13.0105Z"/>
    </symbol>

    <symbol id="delivery" xmlns="http://www.w3.org/2000/svg" viewBox="0 0 24 24">
        <path d="M6 20C5.16667 20 4.45833 19.7083 3.875 19.125C3.29167 18.5417 3 17.8333 3 17H1V6C1 5.45 1.196 4.97933 1.588 4.588C1.97933 4.196 2.45 4 3 4H17V8H20L23 12V17H21C21 17.8333 20.7083 18.5417 20.125 19.125C19.5417 19.7083 18.8333 20 18 20C17.1667 20 16.4583 19.7083 15.875 19.125C15.2917 18.5417 15 17.8333 15 17H9C9 17.8333 8.70833 18.5417 8.125 19.125C7.54167 19.7083 6.83333 20 6 20ZM6 18C6.28333 18 6.521 17.904 6.713 17.712C6.90433 17.5207 7 17.2833 7 17C7 16.7167 6.90433 16.4793 6.713 16.288C6.521 16.096 6.28333 16 6 16C5.71667 16 5.479 16.096 5.287 16.288C5.09567 16.4793 5 16.7167 5 17C5 17.2833 5.09567 17.5207 5.287 17.712C5.479 17.904 5.71667 18 6 18ZM3 15H3.8C4.08333 14.7 4.40833 14.4583 4.775 14.275C5.14167 14.0917 5.55 14 6 14C6.45 14 6.85833 14.0917 7.225 14.275C7.59167 14.4583 7.91667 14.7 8.2 15H15V6H3V15ZM18 18C18.2833 18 18.5207 17.904 18.712 17.712C18.904 17.5207 19 17.2833 19 17C19 16.7167 18.904 16.4793 18.712 16.288C18.5207 16.096 18.2833 16 18 16C17.7167 16 17.4793 16.096 17.288 16.288C17.096 16.4793 17 16.7167 17 17C17 17.2833 17.096 17.5207 17.288 17.712C17.4793 17.904 17.7167 18 18 18ZM17 13H21.25L19 10H17V13Z" fill="#1C1B1F"/>
    </symbol>

    <symbol id="check" viewBox="0 0 24 24" xmlns="http://www.w3.org/2000/svg">
        <path d="M9.45051 17.9941L3.70703 12.2506L4.93148 11.0262L9.45051 15.5452L19.0445 5.95117L20.269 7.17562L9.45051 17.9941Z"/>
    </symbol>

</svg>
